<?xml version="1.0" encoding="utf-8"?>
<!-- Generator: Adobe Illustrator 24.2.3, SVG Export Plug-In . SVG Version: 6.00 Build 0)  -->
<svg version="1.1" id="Layer_3" xmlns="http://www.w3.org/2000/svg" xmlns:xlink="http://www.w3.org/1999/xlink" x="0px" y="0px"
	 viewBox="0 0 200 50" style="enable-background:new 0 0 200 50;" xml:space="preserve">
<style type="text/css">
	.st0{fill:#7C7C7C;}
</style>
<g>
	<path class="st0" d="M45.1,24.6c-0.5-1.3-1.6-2-2.8-2c-1.8,0-3.1,1.6-3.1,3.4c0,1.9,1.3,3.4,3.1,3.4c1.2,0,2.2-0.7,2.8-1.9h3.1
		C47.4,30.2,45,32,42.3,32c-1.6,0-3.1-0.6-4.3-1.7c-1.2-1.2-1.8-2.7-1.8-4.4c0-3,2.6-5.8,5.9-5.8c1.6,0,2.9,0.4,4,1.4
		c1.1,0.9,1.7,2,1.9,3.2H45.1z"/>
	<path class="st0" d="M49.5,31.8v-8.6H52v0.9h0c0.5-0.9,1.2-1.2,2.2-1.2v2.6c-1.5,0-2,0.6-2,1.6v4.8H49.5z"/>
	<path class="st0" d="M59.3,32c-2.6,0-4.7-1.9-4.7-4.6c0-2.7,2.1-4.6,4.7-4.6c2.6,0,4.7,1.9,4.7,4.6C64,30.1,61.9,32,59.3,32z
		 M61.4,27.5c0-1.2-0.9-2.2-2.1-2.2c-1.1,0-2.1,1-2.1,2.2s0.9,2.2,2.1,2.2C60.5,29.6,61.4,28.6,61.4,27.5z"/>
	<path class="st0" d="M69.1,25.6c0-0.5-0.4-0.7-0.8-0.7c-0.4,0-0.7,0.2-0.7,0.6c0,0.5,0.4,0.7,1.6,1c2.1,0.5,2.7,1.4,2.7,2.6
		c0,1.8-1.6,2.9-3.5,2.9c-1.9,0-3.3-1.1-3.5-2.9h2.6c0.1,0.5,0.5,0.8,1,0.8c0.5,0,0.9-0.3,0.9-0.7c0-0.5-0.3-0.7-1.6-1.1
		c-2.2-0.7-2.8-1.5-2.8-2.5c0-1.7,1.6-2.8,3.3-2.8c1.9,0,3.2,1,3.3,2.7H69.1z"/>
	<path class="st0" d="M76.9,25.6c0-0.5-0.4-0.7-0.8-0.7c-0.4,0-0.7,0.2-0.7,0.6c0,0.5,0.4,0.7,1.6,1c2.1,0.5,2.7,1.4,2.7,2.6
		c0,1.8-1.6,2.9-3.5,2.9c-1.9,0-3.3-1.1-3.5-2.9h2.6c0.1,0.5,0.5,0.8,1,0.8c0.5,0,0.9-0.3,0.9-0.7c0-0.5-0.3-0.7-1.6-1.1
		c-2.2-0.7-2.8-1.5-2.8-2.5c0-1.7,1.6-2.8,3.3-2.8c1.9,0,3.2,1,3.3,2.7H76.9z"/>
	<path class="st0" d="M109.9,31.8V20.3h3.7c0.8,0,1.4,0,1.8,0.1c1.3,0.3,2.4,1.3,2.4,2.9c0,1-0.5,1.9-1.3,2.3
		c1.3,0.4,1.9,1.4,1.9,2.7c0,1.1-0.5,2.1-1.3,2.7c-0.9,0.6-1.5,0.8-3.3,0.8H109.9z M113.9,24.6c0.7,0,1.1-0.3,1.1-0.9
		s-0.4-0.9-1.1-0.9h-1.2v1.8H113.9z M114.2,29.2c0.8,0,1.3-0.4,1.3-1.1c0-0.7-0.5-1-1.3-1h-1.5v2.1H114.2z"/>
	<path class="st0" d="M119.8,31.8v-8.6h2.4v0.9h0c0.5-0.9,1.2-1.2,2.2-1.2v2.6c-1.5,0-2,0.6-2,1.6v4.8H119.8z"/>
	<path class="st0" d="M129.6,32c-2.6,0-4.7-1.9-4.7-4.6c0-2.7,2.1-4.6,4.7-4.6c2.6,0,4.7,1.9,4.7,4.6C134.3,30.1,132.2,32,129.6,32z
		 M131.7,27.5c0-1.2-0.9-2.2-2.1-2.2c-1.1,0-2.1,1-2.1,2.2s0.9,2.2,2.1,2.2C130.8,29.6,131.7,28.6,131.7,27.5z"/>
	<path class="st0" d="M142.6,31.8l-1.4-5.6h0l-1.4,5.6h-2.4l-2.6-8.6h2.7l1.3,5.4h0l1.4-5.4h2.2l1.4,5.4h0l1.3-5.4h2.7l-2.7,8.6
		H142.6z"/>
	<path class="st0" d="M152.3,25.6c0-0.5-0.4-0.7-0.8-0.7c-0.4,0-0.7,0.2-0.7,0.6c0,0.5,0.4,0.7,1.6,1c2.1,0.5,2.7,1.4,2.7,2.6
		c0,1.8-1.6,2.9-3.5,2.9c-1.9,0-3.3-1.1-3.5-2.9h2.6c0.1,0.5,0.5,0.8,1,0.8c0.5,0,0.9-0.3,0.9-0.7c0-0.5-0.3-0.7-1.6-1.1
		c-2.2-0.7-2.8-1.5-2.8-2.5c0-1.7,1.6-2.8,3.3-2.8c1.9,0,3.2,1,3.3,2.7H152.3z"/>
	<path class="st0" d="M158.5,28.2c0.1,1,1,1.6,2,1.6c0.7,0,1.2-0.3,1.6-0.8h2.6c-0.8,1.9-2.4,3-4.2,3c-2.5,0-4.6-2-4.6-4.6
		c0-2.5,2-4.6,4.5-4.6c2.6,0,4.6,2,4.6,4.7c0,0.2,0,0.5-0.1,0.7H158.5z M162.4,26.5c-0.2-0.9-1-1.5-2-1.5c-0.9,0-1.7,0.6-1.9,1.5
		H162.4z"/>
	<g>
		<g>
			<path class="st0" d="M165.1,22c0-0.1,0.1-0.2,0.2-0.2c0.1-0.1,0.1-0.1,0.2-0.1c0.1,0,0.2,0,0.3,0s0.2,0,0.3,0
				c0.1,0,0.2,0.1,0.2,0.1s0.1,0.1,0.2,0.2c0,0.1,0.1,0.2,0.1,0.3c0,0.1,0,0.2-0.1,0.3c0,0.1-0.1,0.2-0.2,0.2
				c-0.1,0.1-0.1,0.1-0.2,0.1c-0.1,0-0.2,0-0.3,0s-0.2,0-0.3,0s-0.2-0.1-0.2-0.1c-0.1-0.1-0.1-0.1-0.2-0.2c0-0.1-0.1-0.2-0.1-0.3
				C165,22.2,165,22.1,165.1,22z M165.3,22.5c0,0.1,0.1,0.1,0.1,0.2c0,0,0.1,0.1,0.2,0.1c0.1,0,0.1,0,0.2,0c0.1,0,0.1,0,0.2,0
				c0.1,0,0.1-0.1,0.2-0.1c0,0,0.1-0.1,0.1-0.2c0-0.1,0-0.1,0-0.2s0-0.2,0-0.2c0-0.1-0.1-0.1-0.1-0.2c0,0-0.1-0.1-0.2-0.1
				c-0.1,0-0.1,0-0.2,0c-0.1,0-0.1,0-0.2,0c-0.1,0-0.1,0.1-0.2,0.1c0,0-0.1,0.1-0.1,0.2c0,0.1,0,0.1,0,0.2S165.2,22.5,165.3,22.5z"
				/>
			<g>
				<path class="st0" d="M165.6,22.4L165.6,22.4c0,0.1,0,0.1,0,0.1c0,0,0,0,0.1,0c0,0,0.1,0,0.1,0c0,0,0,0,0-0.1v-0.5h0.2v0.5
					c0,0.1,0,0.1,0,0.1c0,0.1-0.1,0.1-0.2,0.1c-0.1,0-0.2,0-0.2-0.1c0-0.1,0-0.1,0-0.2v0H165.6z"/>
			</g>
		</g>
	</g>
	<polygon class="st0" points="106.8,34.9 108.3,33.5 88.3,13.5 86.8,14.9 85.3,16.5 85.3,16.5 83.8,17.9 83.8,17.9 82.3,19.5 
		80.8,20.9 100.8,40.9 102.3,39.5 83.7,20.9 85.3,19.4 103.8,37.9 105.3,36.5 86.7,17.9 88.3,16.4 	"/>
	<polygon class="st0" points="106.8,19.5 88.3,38 86.7,36.5 105.3,17.9 103.8,16.5 85.3,35 83.7,33.5 102.3,14.9 100.8,13.5 
		82.3,32 80.8,33.5 82.3,34.9 82.3,34.9 83.8,36.5 83.8,36.5 85.3,37.9 85.3,37.9 86.8,39.5 86.8,39.5 88.3,40.9 89.7,39.5 
		108.3,20.9 	"/>
</g>
</svg>
