<?xml version="1.0" encoding="utf-8"?>
<!-- Generator: Adobe Illustrator 24.2.3, SVG Export Plug-In . SVG Version: 6.00 Build 0)  -->
<svg version="1.1" id="Layer_3" xmlns="http://www.w3.org/2000/svg" xmlns:xlink="http://www.w3.org/1999/xlink" x="0px" y="0px"
	 viewBox="0 0 200 50" style="enable-background:new 0 0 200 50;" xml:space="preserve">
<style type="text/css">
	.st0{fill:#7C7C7C;}
</style>
<g>
	<path class="st0" d="M55.3,16.5c-0.3-1.7-1.3-2.5-2.9-2.5c-2.2,0-3.6,1.8-3.6,4.8c0,3,1.4,4.8,3.6,4.8c1,0,1.9-0.4,2.4-1.2
		c0.3-0.4,0.4-0.8,0.6-1.6l3.8,0.6c-0.3,1.6-0.8,2.5-1.5,3.4c-1.1,1.3-2.9,2-5.2,2c-2.2,0-4.1-0.7-5.4-2c-1.4-1.4-2.1-3.5-2.1-6
		c0-2.5,0.8-4.6,2.2-6.1c1.3-1.2,3.1-1.9,5.3-1.9c2.4,0,4.2,0.8,5.4,2.4c0.6,0.8,0.9,1.4,1.1,2.5L55.3,16.5z"/>
	<path class="st0" d="M89.5,18.6c0.5,0.8,0.9,1.4,1.3,2.2c-0.1-0.8-0.1-1.7-0.1-2.7v-4.2c0-1.2,0-2-0.1-2.8h3.9
		c-0.1,0.8-0.1,1.6-0.1,2.8v9.8c0,1.1,0.1,2,0.1,2.7h-4c-0.3-0.7-0.8-1.4-1.4-2.3L85.6,19c-0.5-0.7-0.8-1.3-1.3-2.3
		c0.1,0.8,0.1,1.8,0.1,2.7v4.1c0,1.3,0,2.1,0.1,2.9h-3.9c0.1-0.7,0.1-1.5,0.1-2.9v-9.7c0-1.1,0-1.9-0.1-2.7h4
		c0.2,0.5,0.6,1.2,1.3,2.3L89.5,18.6z"/>
	<path class="st0" d="M107.1,16.5c-0.3-1.7-1.3-2.5-2.9-2.5c-2.2,0-3.6,1.8-3.6,4.8c0,3,1.4,4.8,3.6,4.8c1,0,1.9-0.4,2.4-1.2
		c0.3-0.4,0.4-0.8,0.6-1.6l3.8,0.6c-0.3,1.6-0.8,2.5-1.5,3.4c-1.1,1.3-2.9,2-5.2,2c-2.2,0-4.1-0.7-5.4-2c-1.4-1.4-2.1-3.5-2.1-6
		c0-2.5,0.8-4.6,2.2-6.1c1.3-1.2,3.1-1.9,5.3-1.9c2.4,0,4.2,0.8,5.4,2.4c0.6,0.8,0.9,1.4,1.1,2.5L107.1,16.5z"/>
	<path class="st0" d="M118.5,11.1c-0.1,0.8-0.1,1.4-0.1,2.7v9.9c0,1.3,0,2,0.1,2.7h-4c0.1-0.7,0.1-1.5,0.1-2.7v-9.9
		c0-1.4,0-1.9-0.1-2.7H118.5z"/>
	<path class="st0" d="M125.9,21.4c0.1,0.7,0.2,1,0.5,1.4c0.4,0.6,1.2,0.9,2.2,0.9c1.4,0,2.3-0.6,2.3-1.7c0-0.6-0.3-1.1-0.8-1.3
		c-0.4-0.2-0.8-0.3-2.8-0.8c-1.7-0.4-2.3-0.6-3-1.1c-1.2-0.8-1.8-2-1.8-3.5c0-2.8,2.3-4.6,5.9-4.6c2.3,0,4.1,0.7,5.1,2.1
		c0.5,0.6,0.7,1.2,0.9,2.2l-3.9,0.4c-0.2-1.2-0.9-1.7-2.3-1.7c-1.1,0-2,0.6-2,1.5c0,0.5,0.3,0.9,0.9,1.2c0.4,0.2,0.4,0.2,2.5,0.6
		c1.4,0.3,2.3,0.6,3,1c1.3,0.8,2,2.1,2,3.8c0,1.4-0.4,2.6-1.3,3.4c-1.1,1-2.7,1.6-4.8,1.6c-1.6,0-3.1-0.3-4.1-0.9
		c-0.9-0.5-1.6-1.3-2-2.4c-0.2-0.4-0.3-0.9-0.4-1.7L125.9,21.4z"/>
	<path class="st0" d="M149.8,26.6c-0.8-0.1-1.5-0.1-3-0.1H141c-1.4,0-1.9,0-2.7,0.1c0.1-0.7,0.1-1.4,0.1-2.7V13.7
		c0-1.1,0-1.8-0.1-2.7c0.8,0,1.3,0.1,2.7,0.1h5.9c1.3,0,1.9,0,2.7-0.1v3.4c-0.8-0.1-1.5-0.1-2.7-0.1h-4.8V17h4c1.2,0,1.7,0,2.8-0.1
		v3.4c-0.9-0.1-1.5-0.1-2.8-0.1h-4v3.1h4.7c1.4,0,2.2,0,3-0.1V26.6z"/>
	<g>
		<g>
			<g>
				<path class="st0" d="M151.5,11.3c0.1-0.2,0.2-0.4,0.4-0.6c0.2-0.2,0.4-0.3,0.6-0.4c0.2-0.1,0.4-0.1,0.7-0.1c0.2,0,0.5,0,0.7,0.1
					c0.2,0.1,0.4,0.2,0.6,0.4c0.2,0.2,0.3,0.3,0.4,0.6c0.1,0.2,0.1,0.5,0.1,0.7c0,0.3,0,0.5-0.1,0.7c-0.1,0.2-0.2,0.4-0.4,0.6
					c-0.2,0.2-0.4,0.3-0.6,0.4c-0.2,0.1-0.4,0.1-0.7,0.1c-0.2,0-0.5,0-0.7-0.1c-0.2-0.1-0.4-0.2-0.6-0.4c-0.2-0.2-0.3-0.3-0.4-0.6
					c-0.1-0.2-0.1-0.5-0.1-0.7C151.4,11.7,151.4,11.5,151.5,11.3z M151.9,12.6c0.1,0.2,0.2,0.3,0.3,0.4c0.1,0.1,0.3,0.2,0.4,0.3
					c0.2,0.1,0.3,0.1,0.5,0.1c0.2,0,0.4,0,0.5-0.1c0.2-0.1,0.3-0.2,0.4-0.3c0.1-0.1,0.2-0.3,0.3-0.4c0.1-0.2,0.1-0.4,0.1-0.6
					s0-0.4-0.1-0.6c-0.1-0.2-0.2-0.3-0.3-0.4c-0.1-0.1-0.3-0.2-0.4-0.3c-0.2-0.1-0.3-0.1-0.5-0.1c-0.2,0-0.4,0-0.5,0.1
					c-0.2,0.1-0.3,0.2-0.4,0.3c-0.1,0.1-0.2,0.3-0.3,0.4c-0.1,0.2-0.1,0.4-0.1,0.6S151.9,12.4,151.9,12.6z M153.2,11
					c0.2,0,0.4,0,0.6,0.1c0.1,0.1,0.2,0.2,0.2,0.5c0,0.1,0,0.2,0,0.2c0,0.1-0.1,0.1-0.1,0.2c0,0-0.1,0.1-0.2,0.1c-0.1,0-0.1,0-0.2,0
					L154,13h-0.4l-0.5-0.8h-0.2V13h-0.4v-2H153.2z M153.2,11.8c0.1,0,0.2,0,0.3,0c0.1,0,0.1-0.1,0.1-0.2c0-0.1,0-0.1,0-0.1
					s-0.1-0.1-0.1-0.1c0,0-0.1,0-0.1,0c0,0-0.1,0-0.1,0h-0.3v0.5H153.2z"/>
			</g>
		</g>
		
			<rect x="153" y="10.4" transform="matrix(0.7071 0.7071 -0.7071 0.7071 53.3654 -104.8224)" class="st0" width="0.4" height="3.3"/>
	</g>
	<g>
		<path class="st0" d="M69.5,27.4c-4.7,0-8.5-3.8-8.5-8.5s3.8-8.5,8.5-8.5c4.7,0,8.5,3.8,8.5,8.5S74.3,27.4,69.5,27.4z M69.5,11.4
			c-4.1,0-7.4,3.3-7.4,7.4s3.3,7.4,7.4,7.4c4.1,0,7.4-3.3,7.4-7.4S73.6,11.4,69.5,11.4z"/>
	</g>
	<g>
		<path class="st0" d="M69.5,22.1c0-0.3,0-0.5,0-0.8c0,0,0-0.1,0-0.1c1.1-1.6,2.2-3.3,3.3-4.9c0,0,0,0,0.1-0.1c0,0.3,0,0.6,0,0.8
			c0,0,0,0.1,0,0.1C71.8,18.7,70.7,20.4,69.5,22.1C69.6,22,69.6,22.1,69.5,22.1C69.5,22.1,69.5,22.1,69.5,22.1z"/>
		<line class="st0" x1="72.9" y1="17.1" x2="66.8" y2="26.3"/>
		<path class="st0" d="M69.6,11.8c0,0.1,0,0.1,0,0.2c0,2.3,0,6.3,0,8.6c0,0,0,0.1,0,0.1c0,0,0-0.1,0.1-0.1c1.1-1.6,2.2-3.3,3.3-4.9
			c0.1-0.1,0.1-0.2,0-0.3c-0.1-0.3-0.2-2.2-0.2-2.5c0-0.7,0-1.1,0-1.5c-0.9-0.4-1.9-0.6-3-0.6c0,0.1,0,0.2,0,0.3
			C69.7,11.4,69.6,11.6,69.6,11.8z"/>
	</g>
</g>
<g>
	<path class="st0" d="M52.4,37.8c0,0.3-0.1,0.6-0.2,0.8c-0.1,0.2-0.3,0.4-0.5,0.6c-0.2,0.2-0.5,0.3-0.8,0.4c-0.3,0.1-0.6,0.1-1,0.1
		c-0.3,0-0.7,0-1-0.1c-0.4-0.1-0.7-0.2-1-0.3l0.2-0.8c0.3,0.1,0.5,0.2,0.9,0.3c0.3,0.1,0.6,0.1,0.9,0.1c0.5,0,0.8-0.1,1.1-0.3
		c0.3-0.2,0.4-0.5,0.4-0.8c0-0.2,0-0.4-0.1-0.5c-0.1-0.1-0.2-0.3-0.3-0.4c-0.1-0.1-0.3-0.2-0.5-0.3c-0.2-0.1-0.4-0.2-0.6-0.3
		c-0.2-0.1-0.5-0.2-0.7-0.4s-0.4-0.3-0.6-0.4c-0.2-0.2-0.3-0.3-0.4-0.5c-0.1-0.2-0.2-0.4-0.2-0.7c0-0.3,0.1-0.6,0.2-0.8
		c0.1-0.2,0.3-0.4,0.5-0.6c0.2-0.2,0.4-0.3,0.7-0.3c0.3-0.1,0.6-0.1,0.9-0.1c0.3,0,0.7,0,1,0.1c0.3,0.1,0.6,0.2,0.8,0.3l-0.2,0.8
		c-0.2-0.1-0.5-0.2-0.8-0.3c-0.3-0.1-0.6-0.1-0.9-0.1c-0.9,0-1.3,0.3-1.3,1c0,0.1,0,0.3,0.1,0.4c0,0.1,0.1,0.2,0.2,0.3
		c0.1,0.1,0.2,0.2,0.4,0.3c0.2,0.1,0.4,0.2,0.6,0.3c0.2,0.1,0.5,0.2,0.7,0.4c0.3,0.1,0.5,0.3,0.7,0.5c0.2,0.2,0.4,0.4,0.5,0.6
		C52.3,37.2,52.4,37.5,52.4,37.8z"/>
	<path class="st0" d="M55.3,32.6h3.9v0.8h-3v2.3h2.8v0.8h-2.8v2.4h3v0.8h-4V32.6z"/>
	<path class="st0" d="M65.4,39.8c-0.6,0-1-0.1-1.5-0.3c-0.4-0.2-0.8-0.5-1.1-0.8c-0.3-0.3-0.5-0.7-0.7-1.2c-0.2-0.4-0.2-0.9-0.2-1.4
		c0-0.5,0.1-1,0.2-1.4c0.2-0.4,0.4-0.8,0.7-1.2c0.3-0.3,0.6-0.6,1.1-0.8s0.9-0.3,1.5-0.3s1,0.1,1.5,0.3s0.8,0.5,1.1,0.8
		c0.3,0.3,0.5,0.7,0.7,1.2c0.2,0.4,0.2,0.9,0.2,1.4c0,0.5-0.1,1-0.2,1.4c-0.2,0.4-0.4,0.8-0.7,1.2c-0.3,0.3-0.6,0.6-1.1,0.8
		C66.5,39.7,66,39.8,65.4,39.8z M65.4,39c0.4,0,0.8-0.1,1.1-0.2c0.3-0.1,0.6-0.4,0.8-0.6c0.2-0.3,0.4-0.6,0.5-0.9
		c0.1-0.3,0.2-0.7,0.2-1.1c0-0.4-0.1-0.8-0.2-1.1c-0.1-0.3-0.3-0.7-0.5-0.9s-0.5-0.5-0.8-0.6c-0.3-0.2-0.7-0.2-1.1-0.2
		c-0.4,0-0.8,0.1-1.1,0.2s-0.6,0.4-0.8,0.6c-0.2,0.3-0.4,0.6-0.5,0.9C63,35.4,63,35.7,63,36.1c0,0.4,0.1,0.8,0.2,1.1
		c0.1,0.3,0.3,0.7,0.5,0.9c0.2,0.3,0.5,0.5,0.8,0.6C64.7,38.9,65,39,65.4,39z"/>
	<path class="st0" d="M75.8,32.6h2c0.6,0,1.2,0.1,1.7,0.3c0.5,0.2,0.9,0.4,1.3,0.7c0.4,0.3,0.6,0.7,0.8,1.1c0.2,0.4,0.3,0.9,0.3,1.4
		s-0.1,1-0.3,1.4c-0.2,0.4-0.5,0.8-0.8,1.1c-0.4,0.3-0.8,0.6-1.3,0.7c-0.5,0.2-1,0.3-1.7,0.3h-2V32.6z M77.7,38.9
		c0.4,0,0.8-0.1,1.2-0.2c0.4-0.1,0.7-0.3,1-0.5s0.5-0.5,0.7-0.9c0.2-0.3,0.2-0.7,0.2-1.2c0-0.4-0.1-0.8-0.2-1.2
		c-0.2-0.3-0.4-0.6-0.7-0.9c-0.3-0.2-0.6-0.4-1-0.5c-0.4-0.1-0.8-0.2-1.2-0.2h-1v5.5H77.7z"/>
	<path class="st0" d="M86.6,34.5c0.3,0,0.6,0.1,0.9,0.2c0.2,0.1,0.4,0.3,0.6,0.4c0.2,0.2,0.3,0.4,0.4,0.7c0.1,0.3,0.1,0.5,0.1,0.8
		c0,0.3,0,0.6-0.1,0.9h-3.2c0,0.2,0,0.5,0.1,0.7c0.1,0.2,0.2,0.4,0.3,0.5c0.1,0.1,0.3,0.3,0.5,0.3c0.2,0.1,0.5,0.1,0.8,0.1
		c0.3,0,0.5,0,0.8-0.1c0.2-0.1,0.5-0.1,0.7-0.2l0.1,0.7c-0.2,0.1-0.5,0.2-0.8,0.2c-0.3,0.1-0.6,0.1-0.9,0.1c-0.4,0-0.8-0.1-1.1-0.2
		c-0.3-0.1-0.6-0.3-0.8-0.6c-0.2-0.2-0.4-0.5-0.5-0.8c-0.1-0.3-0.2-0.7-0.2-1c0-0.4,0.1-0.7,0.2-1c0.1-0.3,0.3-0.6,0.5-0.9
		c0.2-0.2,0.4-0.4,0.7-0.6C85.9,34.5,86.2,34.5,86.6,34.5z M86.5,35.2c-0.2,0-0.4,0-0.5,0.1c-0.2,0.1-0.3,0.2-0.4,0.3
		s-0.2,0.3-0.3,0.5c-0.1,0.2-0.1,0.4-0.1,0.6h2.4c0-0.2,0-0.4,0-0.6c0-0.2-0.1-0.3-0.2-0.5c-0.1-0.1-0.2-0.2-0.3-0.3
		C86.9,35.2,86.8,35.2,86.5,35.2z"/>
	<path class="st0" d="M94.5,34.6h1l-1.8,5.1h-1l-1.8-5.1h1l1.4,4.1L94.5,34.6z"/>
	<path class="st0" d="M99.9,34.5c0.3,0,0.6,0.1,0.9,0.2c0.2,0.1,0.4,0.3,0.6,0.4c0.2,0.2,0.3,0.4,0.4,0.7c0.1,0.3,0.1,0.5,0.1,0.8
		c0,0.3,0,0.6-0.1,0.9h-3.2c0,0.2,0,0.5,0.1,0.7c0.1,0.2,0.2,0.4,0.3,0.5c0.1,0.1,0.3,0.3,0.5,0.3c0.2,0.1,0.5,0.1,0.8,0.1
		c0.3,0,0.5,0,0.8-0.1c0.2-0.1,0.5-0.1,0.7-0.2l0.1,0.7c-0.2,0.1-0.5,0.2-0.8,0.2c-0.3,0.1-0.6,0.1-0.9,0.1c-0.4,0-0.8-0.1-1.1-0.2
		c-0.3-0.1-0.6-0.3-0.8-0.6c-0.2-0.2-0.4-0.5-0.5-0.8c-0.1-0.3-0.2-0.7-0.2-1c0-0.4,0.1-0.7,0.2-1c0.1-0.3,0.3-0.6,0.5-0.9
		c0.2-0.2,0.4-0.4,0.7-0.6C99.3,34.5,99.6,34.5,99.9,34.5z M99.9,35.2c-0.2,0-0.4,0-0.5,0.1c-0.2,0.1-0.3,0.2-0.4,0.3
		c-0.1,0.1-0.2,0.3-0.3,0.5c-0.1,0.2-0.1,0.4-0.1,0.6h2.4c0-0.2,0-0.4,0-0.6c0-0.2-0.1-0.3-0.2-0.5c-0.1-0.1-0.2-0.2-0.3-0.3
		C100.3,35.2,100.1,35.2,99.9,35.2z"/>
	<path class="st0" d="M105.7,38.3c0,0.2,0,0.4,0.1,0.5c0.1,0.1,0.2,0.2,0.4,0.2c0.2,0,0.3,0,0.5-0.1l0,0.7c-0.2,0.1-0.5,0.1-0.8,0.1
		c-0.4,0-0.8-0.1-1-0.4c-0.2-0.3-0.3-0.6-0.3-1v-6.2h1V38.3z"/>
	<path class="st0" d="M113.9,37.1c0,0.4-0.1,0.7-0.2,1c-0.1,0.3-0.3,0.6-0.5,0.8c-0.2,0.2-0.5,0.4-0.8,0.6c-0.3,0.1-0.7,0.2-1,0.2
		c-0.4,0-0.7-0.1-1-0.2c-0.3-0.1-0.6-0.3-0.8-0.6c-0.2-0.2-0.4-0.5-0.5-0.8c-0.1-0.3-0.2-0.7-0.2-1c0-0.4,0.1-0.7,0.2-1
		c0.1-0.3,0.3-0.6,0.5-0.8c0.2-0.2,0.5-0.4,0.8-0.6c0.3-0.1,0.7-0.2,1-0.2c0.4,0,0.7,0.1,1,0.2s0.6,0.3,0.8,0.6
		c0.2,0.2,0.4,0.5,0.5,0.8C113.8,36.4,113.9,36.8,113.9,37.1z M112.9,37.1c0-0.3,0-0.5-0.1-0.7c-0.1-0.2-0.2-0.4-0.3-0.6
		c-0.1-0.2-0.3-0.3-0.5-0.4c-0.2-0.1-0.4-0.1-0.7-0.1c-0.3,0-0.5,0-0.7,0.1c-0.2,0.1-0.3,0.2-0.5,0.4c-0.1,0.2-0.2,0.4-0.3,0.6
		c-0.1,0.2-0.1,0.5-0.1,0.7c0,0.3,0,0.5,0.1,0.7c0.1,0.2,0.2,0.4,0.3,0.6c0.1,0.2,0.3,0.3,0.5,0.4c0.2,0.1,0.4,0.1,0.7,0.1
		c0.3,0,0.5,0,0.7-0.1c0.2-0.1,0.3-0.2,0.5-0.4c0.1-0.2,0.2-0.4,0.3-0.6C112.9,37.6,112.9,37.4,112.9,37.1z"/>
	<path class="st0" d="M116.7,34.6h0.9v0.7c0.2-0.2,0.4-0.4,0.6-0.6c0.3-0.2,0.6-0.2,1-0.2c0.3,0,0.6,0.1,0.8,0.2
		c0.2,0.1,0.5,0.3,0.6,0.5c0.2,0.2,0.3,0.5,0.4,0.8c0.1,0.3,0.1,0.7,0.1,1c0,0.4-0.1,0.8-0.2,1.1c-0.1,0.3-0.3,0.6-0.5,0.8
		c-0.2,0.2-0.5,0.4-0.8,0.5c-0.3,0.1-0.7,0.2-1,0.2c-0.2,0-0.4,0-0.5,0c-0.2,0-0.3-0.1-0.5-0.1v2.2h-1V34.6z M119,35.2
		c-0.3,0-0.6,0.1-0.8,0.2c-0.2,0.1-0.4,0.3-0.5,0.5v2.9c0.1,0,0.3,0.1,0.4,0.1c0.2,0,0.3,0,0.5,0c0.5,0,1-0.2,1.3-0.5
		c0.3-0.3,0.5-0.8,0.5-1.4c0-0.3,0-0.5-0.1-0.7c-0.1-0.2-0.1-0.4-0.2-0.6c-0.1-0.2-0.2-0.3-0.4-0.4S119.2,35.2,119,35.2z"/>
	<path class="st0" d="M129.7,35.2c-0.3,0-0.5,0.1-0.7,0.2c-0.2,0.2-0.4,0.3-0.6,0.6c0.1,0.3,0.1,0.6,0.1,0.9v2.7h-1V37
		c0-0.3,0-0.5-0.1-0.7c0-0.2-0.1-0.4-0.2-0.6c-0.1-0.2-0.2-0.3-0.3-0.4c-0.1-0.1-0.3-0.1-0.5-0.1c-0.3,0-0.5,0.1-0.7,0.2
		c-0.2,0.1-0.4,0.3-0.5,0.5v3.7h-1v-5.1h0.9v0.7c0.2-0.3,0.4-0.5,0.7-0.6c0.3-0.1,0.6-0.2,0.9-0.2c0.4,0,0.7,0.1,0.9,0.3
		c0.2,0.2,0.4,0.4,0.6,0.7c0.2-0.3,0.5-0.6,0.8-0.7c0.3-0.2,0.6-0.3,1.1-0.3c0.3,0,0.6,0.1,0.8,0.2c0.2,0.1,0.4,0.3,0.6,0.5
		c0.1,0.2,0.2,0.5,0.3,0.8c0.1,0.3,0.1,0.6,0.1,1v2.7h-1V37c0-0.3,0-0.5-0.1-0.7c0-0.2-0.1-0.4-0.2-0.6c-0.1-0.2-0.2-0.3-0.3-0.4
		C130.1,35.3,129.9,35.2,129.7,35.2z"/>
	<path class="st0" d="M136.9,34.5c0.3,0,0.6,0.1,0.9,0.2c0.2,0.1,0.4,0.3,0.6,0.4c0.2,0.2,0.3,0.4,0.4,0.7c0.1,0.3,0.1,0.5,0.1,0.8
		c0,0.3,0,0.6-0.1,0.9h-3.2c0,0.2,0,0.5,0.1,0.7c0.1,0.2,0.2,0.4,0.3,0.5c0.1,0.1,0.3,0.3,0.5,0.3c0.2,0.1,0.5,0.1,0.8,0.1
		c0.3,0,0.5,0,0.8-0.1c0.2-0.1,0.5-0.1,0.7-0.2l0.1,0.7c-0.2,0.1-0.5,0.2-0.8,0.2c-0.3,0.1-0.6,0.1-0.9,0.1c-0.4,0-0.8-0.1-1.1-0.2
		c-0.3-0.1-0.6-0.3-0.8-0.6c-0.2-0.2-0.4-0.5-0.5-0.8c-0.1-0.3-0.2-0.7-0.2-1c0-0.4,0.1-0.7,0.2-1c0.1-0.3,0.3-0.6,0.5-0.9
		c0.2-0.2,0.4-0.4,0.7-0.6C136.2,34.5,136.5,34.5,136.9,34.5z M136.9,35.2c-0.2,0-0.4,0-0.5,0.1c-0.2,0.1-0.3,0.2-0.4,0.3
		s-0.2,0.3-0.3,0.5c-0.1,0.2-0.1,0.4-0.1,0.6h2.4c0-0.2,0-0.4,0-0.6c0-0.2-0.1-0.3-0.2-0.5c-0.1-0.1-0.2-0.2-0.3-0.3
		C137.2,35.2,137.1,35.2,136.9,35.2z"/>
	<path class="st0" d="M141.7,39.7v-5.1h0.9v0.7c0.2-0.3,0.4-0.5,0.7-0.6c0.3-0.1,0.6-0.2,0.9-0.2c0.3,0,0.6,0.1,0.8,0.2
		c0.2,0.1,0.4,0.3,0.6,0.5c0.1,0.2,0.3,0.5,0.3,0.8c0.1,0.3,0.1,0.6,0.1,1v2.7h-1V37c0-0.3,0-0.5-0.1-0.7c0-0.2-0.1-0.4-0.2-0.6
		c-0.1-0.2-0.2-0.3-0.4-0.4c-0.1-0.1-0.3-0.1-0.5-0.1c-0.3,0-0.5,0.1-0.7,0.2c-0.2,0.1-0.4,0.3-0.5,0.5v3.7H141.7z"/>
	<path class="st0" d="M148.6,34.6h0.9v-1.3h1v1.3h1.7v0.8h-1.7v2.6c0,0.1,0,0.3,0,0.4c0,0.1,0.1,0.2,0.1,0.3
		c0.1,0.1,0.1,0.2,0.2,0.2c0.1,0.1,0.2,0.1,0.4,0.1c0.3,0,0.6,0,0.8-0.1l0.1,0.7c-0.1,0-0.3,0.1-0.5,0.1c-0.2,0-0.4,0.1-0.6,0.1
		c-0.3,0-0.5,0-0.7-0.1s-0.3-0.2-0.5-0.4s-0.2-0.3-0.3-0.6c-0.1-0.2-0.1-0.5-0.1-0.7v-2.6h-0.9V34.6z"/>
</g>
</svg>
