<svg id="Layer_1_copy" data-name="Layer 1 copy" xmlns="http://www.w3.org/2000/svg" viewBox="0 0 200 50"><defs><style>.cls-1{fill:#7c7c7c;}</style></defs><path class="cls-1" d="M57.38,34.53A12.26,12.26,0,1,1,69.86,22.11,12.3,12.3,0,0,1,57.38,34.53Zm9-12.2a8.85,8.85,0,1,0-17.69-.16c0,4.76,3.45,9.2,8.85,9.2A8.91,8.91,0,0,0,66.41,22.33Z"/><path class="cls-1" d="M73.21,40V16.4h3v2.71h.07a7.43,7.43,0,0,1,6.29-3.19c5.26,0,9.16,4.08,9.16,9.54a8.93,8.93,0,0,1-8.94,9.07,7.11,7.11,0,0,1-6.23-3h-.06V40ZM88.44,25.27A6.27,6.27,0,0,0,82.34,19a6.13,6.13,0,0,0-5.87,6.26,6,6,0,1,0,12,.06Z"/><path class="cls-1" d="M95.49,34.08V19.43H93.1v-3h2.39V10.46h3.32V16.4h2.91v3H98.81V34.08Z"/><path class="cls-1" d="M104,14.35V10.46h3.32v3.89Zm0,19.73V16.4h3.32V34.08Z"/><path class="cls-1" d="M135,34.08V24.19c0-3.36-1.4-5.24-4.18-5.24-2.94,0-4.21,1.63-4.21,5.17v10h-3.32V23.8c0-3.48-1.63-4.85-4-4.85-2.93,0-4.37,1.72-4.37,5.2v9.93h-3.32V16.4h3.07v1.91h.06a5.9,5.9,0,0,1,5.08-2.39,6.08,6.08,0,0,1,5.49,3c1.27-2,3-3,5.84-3,4.6,0,7.21,2.87,7.21,7.44V34.08Z"/><path class="cls-1" d="M157.08,34.08V31.34H157a6.73,6.73,0,0,1-6,3.19,9.13,9.13,0,0,1-9.39-9c0-5.65,4.06-9.61,9.26-9.61a7,7,0,0,1,6.13,3h.07V16.4h3.32V34.08Zm.06-8.81A6.1,6.1,0,0,0,151,19a6.28,6.28,0,1,0,6.16,6.32Z"/><path class="cls-1" d="M164.83,34.08V10.46h3.32V34.08Z"/><path class="cls-1" d="M62.38,26.73c-.33-.36-.65-.72-1-1.07A15.31,15.31,0,0,0,56.57,22a7.34,7.34,0,0,0-5.28-.38c-1.55.49-3.08,1.15-4.61,1.77a13.17,13.17,0,0,1-3.84,1.05c-2.4.17-4.65-.93-6.77-2.94a6.9,6.9,0,0,0-.89-.76c.21.29.41.6.62.89a18,18,0,0,0,5.08,5.11,6.84,6.84,0,0,0,4.52.94A18.41,18.41,0,0,0,50.26,26a18.05,18.05,0,0,1,4.13-1.42,9.84,9.84,0,0,1,7.74,2.06l.23.17Z"/><path class="cls-1" d="M49.13,21.82l-1-1.08a15.73,15.73,0,0,0-4.82-3.64A7.41,7.41,0,0,0,38,16.72c-1.55.49-3.08,1.16-4.61,1.77a12.89,12.89,0,0,1-3.84,1.06c-2.4.17-4.64-.94-6.77-2.95a7,7,0,0,0-.89-.76l.63.89a17.94,17.94,0,0,0,5.08,5.12,6.83,6.83,0,0,0,4.52.94A18.83,18.83,0,0,0,37,21.09a18.58,18.58,0,0,1,4.13-1.43,9.88,9.88,0,0,1,7.75,2.07,1.88,1.88,0,0,0,.23.16Z"/><path class="cls-1" d="M169.86,13.56a1.14,1.14,0,0,1,.26-.35,1.23,1.23,0,0,1,.36-.23,1.25,1.25,0,0,1,.88,0,1.28,1.28,0,0,1,.37.23,1.12,1.12,0,0,1,.25.35,1,1,0,0,1,.1.46,1,1,0,0,1-.1.47,1.16,1.16,0,0,1-.25.36,1.25,1.25,0,0,1-.37.22,1.25,1.25,0,0,1-.88,0,1.2,1.2,0,0,1-.36-.22,1.19,1.19,0,0,1-.26-.36,1.16,1.16,0,0,1-.09-.47A1.14,1.14,0,0,1,169.86,13.56Zm.28.82a.75.75,0,0,0,.18.28,1,1,0,0,0,.27.19.82.82,0,0,0,.93-.19.75.75,0,0,0,.18-.28.86.86,0,0,0,.07-.36.84.84,0,0,0-.07-.35.75.75,0,0,0-.18-.28.71.71,0,0,0-.27-.18.81.81,0,0,0-.66,0,.8.8,0,0,0-.27.18.75.75,0,0,0-.18.28.94.94,0,0,0,0,.71Z"/><path class="cls-1" d="M170.75,14.11v0a1.52,1.52,0,0,0,0,.19s.06.05.11.05a.11.11,0,0,0,.11-.06.29.29,0,0,0,0-.12v-.83h.24v.83a.43.43,0,0,1,0,.24.41.41,0,0,1-.61,0,.64.64,0,0,1-.08-.33v0Z"/></svg>