<?xml version="1.0" encoding="utf-8"?>
<!-- Generator: Adobe Illustrator 24.2.3, SVG Export Plug-In . SVG Version: 6.00 Build 0)  -->
<svg version="1.1" id="Layer_1_copy" xmlns="http://www.w3.org/2000/svg" xmlns:xlink="http://www.w3.org/1999/xlink" x="0px"
	 y="0px" viewBox="0 0 200 50" style="enable-background:new 0 0 200 50;" xml:space="preserve">
<style type="text/css">
	.st0{fill:#7C7C7C;}
</style>
<g>
	<path class="st0" d="M61,34.4c-6-0.1-10.7-5-10.6-11c0.1-6,5-10.7,11-10.6c5.8,0.1,10.5,4.8,10.6,10.7c0.1,6-4.8,10.9-10.7,11
		C61.2,34.4,61.1,34.4,61,34.4z M69,23.6c0.2-4.3-3.2-7.9-7.5-8.1c-4.3-0.2-7.9,3.2-8.1,7.5c0,0.2,0,0.3,0,0.5c0,4.2,3,8.1,7.8,8.1
		C65.5,31.6,69,28.1,69,23.6C69,23.7,69,23.7,69,23.6L69,23.6z"/>
	<path class="st0" d="M75,39.2V18.4h2.6v2.4h0.1c1.3-1.8,3.3-2.9,5.6-2.8c4.6,0,8.1,3.6,8.1,8.4c0.1,4.4-3.4,7.9-7.8,8
		c0,0-0.1,0-0.1,0c-2.2,0.1-4.2-0.9-5.5-2.6h-0.1v7.5H75z M88.5,26.2c0-3-2.4-5.5-5.4-5.5c-2.9,0.1-5.2,2.6-5.2,5.5
		c0,2.9,2.3,5.3,5.3,5.3C86.1,31.6,88.5,29.2,88.5,26.2L88.5,26.2L88.5,26.2z"/>
	<path class="st0" d="M94.7,34V21.1h-2.1v-2.6h2.1v-5.3h2.9v5.2h2.6v2.6h-2.6v13H94.7z"/>
	<path class="st0" d="M102.2,16.6v-3.4h2.9v3.4H102.2z M102.2,34V18.4h2.9V34H102.2z"/>
	<path class="st0" d="M129.6,34v-8.7c0-3-1.2-4.6-3.7-4.6c-2.6,0-3.7,1.4-3.7,4.6v8.8h-2.9v-9.1c0-3.1-1.4-4.3-3.5-4.3
		c-2.6,0-3.9,1.5-3.9,4.6V34h-2.9V18.4h2.7v1.7h0.1c1-1.4,2.7-2.2,4.5-2.1c2-0.1,3.8,0.9,4.8,2.6c1.1-1.8,2.6-2.6,5.2-2.6
		c4.1,0,6.4,2.5,6.4,6.6V34H129.6z"/>
	<path class="st0" d="M149,34v-2.4H149c-1.1,1.8-3.2,2.9-5.3,2.8c-4.4,0.1-8.2-3.4-8.3-7.8c0,0,0-0.1,0-0.1c0-5,3.6-8.5,8.2-8.5
		c2.1-0.1,4.2,0.9,5.4,2.6h0.1v-2.2h2.9V34H149z M149.1,26.2c0.1-3-2.3-5.4-5.2-5.5c-0.1,0-0.1,0-0.2,0c-3.1-0.1-5.6,2.4-5.6,5.4
		c-0.1,3.1,2.4,5.6,5.4,5.6c3.1,0.1,5.6-2.4,5.6-5.4C149.1,26.3,149.1,26.3,149.1,26.2L149.1,26.2z"/>
	<path class="st0" d="M155.9,34V13.2h2.9V34H155.9z"/>
	<path class="st0" d="M65.5,27.5c-0.3-0.3-0.6-0.6-0.9-0.9c-1.2-1.3-2.6-2.4-4.2-3.2c-1.5-0.7-3.1-0.8-4.7-0.3
		c-1.4,0.4-2.7,1-4.1,1.6c-1.1,0.5-2.2,0.8-3.4,0.9c-2.1,0.2-4.1-0.8-6-2.6c-0.2-0.2-0.5-0.5-0.8-0.7c0.2,0.3,0.4,0.5,0.5,0.8
		c1.2,1.8,2.7,3.3,4.5,4.5c1.2,0.7,2.6,1,4,0.8c1.5-0.3,2.9-0.8,4.3-1.5c1.2-0.6,2.4-1,3.6-1.3c2.4-0.4,4.9,0.3,6.8,1.8L65.5,27.5
		L65.5,27.5z"/>
	<path class="st0" d="M53.8,23.2l-0.9-1c-1.2-1.3-2.6-2.4-4.3-3.2c-1.5-0.7-3.1-0.8-4.7-0.3c-1.4,0.4-2.7,1-4.1,1.6
		c-1.1,0.5-2.2,0.8-3.4,0.9c-2.1,0.2-4.1-0.8-6-2.6c-0.2-0.2-0.5-0.5-0.8-0.7l0.6,0.8c1.2,1.8,2.7,3.3,4.5,4.5c1.2,0.7,2.6,1,4,0.8
		c1.5-0.3,2.9-0.8,4.3-1.5c1.2-0.6,2.4-1,3.6-1.3c2.4-0.4,4.9,0.3,6.8,1.8C53.6,23.2,53.7,23.2,53.8,23.2L53.8,23.2z"/>
	<path class="st0" d="M160.3,15.9c0.1-0.1,0.1-0.2,0.2-0.3c0.1-0.1,0.2-0.2,0.3-0.2c0.3-0.1,0.5-0.1,0.8,0c0.1,0,0.2,0.1,0.3,0.2
		c0.1,0.1,0.2,0.2,0.2,0.3c0.1,0.1,0.1,0.3,0.1,0.4c0,0.1,0,0.3-0.1,0.4c-0.1,0.1-0.1,0.2-0.2,0.3c-0.1,0.1-0.2,0.1-0.3,0.2
		c-0.3,0.1-0.5,0.1-0.8,0c-0.1,0-0.2-0.1-0.3-0.2c-0.1-0.1-0.2-0.2-0.2-0.3c-0.1-0.1-0.1-0.3-0.1-0.4
		C160.2,16.2,160.3,16,160.3,15.9z M160.6,16.6c0,0.1,0.1,0.2,0.2,0.2c0.1,0.1,0.2,0.1,0.2,0.2c0.3,0.1,0.6,0.1,0.8-0.2
		c0.1-0.1,0.1-0.2,0.2-0.2c0-0.1,0.1-0.2,0.1-0.3c0-0.1,0-0.2-0.1-0.3c0-0.1-0.1-0.2-0.2-0.2c-0.1-0.1-0.1-0.1-0.2-0.2
		c-0.2-0.1-0.4-0.1-0.6,0c-0.1,0-0.2,0.1-0.2,0.2c-0.1,0.1-0.1,0.2-0.2,0.2C160.5,16.2,160.5,16.4,160.6,16.6L160.6,16.6z"/>
	<path class="st0" d="M161.1,16.4L161.1,16.4c0,0.1,0,0.1,0,0.2c0,0,0.1,0,0.1,0c0,0,0.1,0,0.1-0.1c0,0,0-0.1,0-0.1v-0.7h0.2v0.7
		c0,0.1,0,0.1,0,0.2c-0.1,0.1-0.4,0.2-0.5,0c0,0,0,0,0,0c0-0.1-0.1-0.2-0.1-0.3l0,0L161.1,16.4z"/>
</g>
</svg>
