<svg id="Layer_4" data-name="Layer 4" xmlns="http://www.w3.org/2000/svg" viewBox="0 0 200 50"><defs><style>.cls-1{fill:#7c7c7c;}</style></defs><path class="cls-1" d="M47.52,38.38l.62,2.39c.13.52.26,1,.35,1.49h0c.1-.47.26-1,.41-1.48l.77-2.4h.72l.73,2.35c.17.56.31,1.06.41,1.53h0c.08-.47.21-1,.36-1.52l.67-2.36h.85L52,43.08h-.77l-.72-2.24c-.17-.53-.3-1-.42-1.55h0a13.44,13.44,0,0,1-.43,1.55l-.75,2.24h-.78l-1.42-4.7Z"/><path class="cls-1" d="M56.22,40.88a1.5,1.5,0,0,0,1.61,1.63,3,3,0,0,0,1.3-.24l.15.61a3.68,3.68,0,0,1-1.56.3,2.18,2.18,0,0,1-2.31-2.37,2.28,2.28,0,0,1,2.2-2.54,2,2,0,0,1,1.94,2.22,2.94,2.94,0,0,1,0,.39Zm2.51-.61a1.22,1.22,0,0,0-1.19-1.39,1.42,1.42,0,0,0-1.31,1.39Z"/><path class="cls-1" d="M62.09,43.08c0-.32,0-.8,0-1.22V36.18H63v3h0a1.74,1.74,0,0,1,1.6-.87,2.11,2.11,0,0,1,2,2.4,2.23,2.23,0,0,1-2.11,2.51,1.67,1.67,0,0,1-1.57-.88h0l0,.78ZM63,41.19a1.65,1.65,0,0,0,0,.32,1.31,1.31,0,0,0,1.28,1c.89,0,1.43-.72,1.43-1.8S65.24,39,64.33,39A1.35,1.35,0,0,0,63,40a1.63,1.63,0,0,0-.05.35Z"/><path class="cls-1" d="M73.24,40.88a1.5,1.5,0,0,0,1.61,1.63,3,3,0,0,0,1.3-.24l.14.61a3.68,3.68,0,0,1-1.56.3,2.18,2.18,0,0,1-2.31-2.37,2.29,2.29,0,0,1,2.2-2.54,2,2,0,0,1,1.95,2.22,2.94,2.94,0,0,1,0,.39Zm2.5-.61a1.22,1.22,0,0,0-1.18-1.39,1.41,1.41,0,0,0-1.31,1.39Z"/><path class="cls-1" d="M79.52,38.38l.67,1c.17.26.32.5.47.77h0c.16-.29.31-.53.47-.78l.66-1h.92l-1.6,2.27,1.65,2.43h-1L81.13,42c-.19-.27-.34-.53-.51-.82h0c-.15.29-.32.54-.49.82l-.68,1.06h-.94l1.67-2.4-1.6-2.3Z"/><path class="cls-1" d="M85.13,39.91c0-.6,0-1.08,0-1.53h.76l0,.8h0a1.85,1.85,0,0,1,1.67-.91,2.13,2.13,0,0,1,2,2.39,2.22,2.22,0,0,1-2.13,2.52A1.65,1.65,0,0,1,86,42.45h0V45h-.85ZM86,41.17a1.76,1.76,0,0,0,0,.34,1.31,1.31,0,0,0,1.28,1c.9,0,1.43-.73,1.43-1.81S88.23,39,87.33,39A1.49,1.49,0,0,0,86,40.36Z"/><path class="cls-1" d="M92.66,40.88a1.5,1.5,0,0,0,1.61,1.63,3,3,0,0,0,1.3-.24l.14.61a3.68,3.68,0,0,1-1.56.3,2.18,2.18,0,0,1-2.31-2.37,2.29,2.29,0,0,1,2.21-2.54A2,2,0,0,1,96,40.49a2.94,2.94,0,0,1,0,.39Zm2.5-.61A1.22,1.22,0,0,0,94,38.88a1.41,1.41,0,0,0-1.31,1.39Z"/><path class="cls-1" d="M98.57,39.84c0-.55,0-1,0-1.46h.75l0,.92h0a1.42,1.42,0,0,1,1.31-1,.93.93,0,0,1,.24,0v.81a1.29,1.29,0,0,0-.29,0,1.19,1.19,0,0,0-1.15,1.09,2.46,2.46,0,0,0,0,.4v2.51h-.84Z"/><path class="cls-1" d="M104.26,37.06a.53.53,0,0,1-1.06,0,.52.52,0,0,1,.53-.54A.52.52,0,0,1,104.26,37.06Zm-1,6v-4.7h.86v4.7Z"/><path class="cls-1" d="M107.57,40.88a1.51,1.51,0,0,0,1.62,1.63,3,3,0,0,0,1.3-.24l.14.61a3.68,3.68,0,0,1-1.56.3,2.18,2.18,0,0,1-2.31-2.37,2.28,2.28,0,0,1,2.2-2.54,2,2,0,0,1,1.94,2.22,3.38,3.38,0,0,1,0,.39Zm2.51-.61a1.22,1.22,0,0,0-1.18-1.39,1.42,1.42,0,0,0-1.32,1.39Z"/><path class="cls-1" d="M113.49,39.65c0-.48,0-.88,0-1.27h.75l0,.78h0a1.73,1.73,0,0,1,1.56-.89c.65,0,1.66.39,1.66,2v2.81h-.86V40.37c0-.76-.28-1.39-1.09-1.39a1.21,1.21,0,0,0-1.14.87,1.25,1.25,0,0,0-.06.4v2.83h-.85Z"/><path class="cls-1" d="M123.75,42.9a3.1,3.1,0,0,1-1.35.28,2.24,2.24,0,0,1-2.34-2.4,2.39,2.39,0,0,1,2.52-2.5,3,3,0,0,1,1.19.24l-.2.66a2,2,0,0,0-1-.22,1.77,1.77,0,0,0,0,3.54,2.35,2.35,0,0,0,1-.24Z"/><path class="cls-1" d="M126.69,40.88a1.5,1.5,0,0,0,1.61,1.63,3,3,0,0,0,1.3-.24l.14.61a3.68,3.68,0,0,1-1.56.3,2.18,2.18,0,0,1-2.31-2.37,2.29,2.29,0,0,1,2.2-2.54,2,2,0,0,1,2,2.22,2.94,2.94,0,0,1,0,.39Zm2.5-.61A1.22,1.22,0,0,0,128,38.88a1.41,1.41,0,0,0-1.31,1.39Z"/><path class="cls-1" d="M132.48,42.2a2.19,2.19,0,0,0,1.13.34c.62,0,.91-.31.91-.7s-.24-.63-.88-.86c-.84-.3-1.24-.77-1.24-1.33A1.45,1.45,0,0,1,134,38.27a2.4,2.4,0,0,1,1.16.29l-.21.62a1.94,1.94,0,0,0-1-.27c-.5,0-.78.29-.78.64s.28.57.89.8c.82.31,1.23.72,1.23,1.42s-.64,1.41-1.75,1.41a2.6,2.6,0,0,1-1.32-.33Z"/><path class="cls-1" d="M49.78,26.44c.17,1,.94,1.64,2.5,1.64,1.17,0,2-.32,2-1.24,0-.7-.41-1.09-2.4-1.61-3.48-.89-4.65-1.94-4.65-3.76,0-2.62,2.28-4.37,5.92-4.37,4.37,0,5.87,2,6,4H55.35c-.1-.63-.53-1.35-2.17-1.35-1,0-1.63.47-1.63,1.15s.59,1,2.38,1.4c3.73.93,4.71,2.2,4.71,4.05,0,2.59-2.31,4.41-6.55,4.41-3.85,0-6-1.52-6.2-4.32Z"/><path class="cls-1" d="M61.65,20.73h1.57L63.84,18h3.94l-.62,2.76h1.89l-.53,2.53H66.63l-.8,3.67c-.15.68-.09,1,.72,1a4.77,4.77,0,0,0,.86-.06l-.51,2.47a10.91,10.91,0,0,1-2.24.22c-2.73,0-3.29-1.19-2.88-3.12l.91-4.2H61.12Z"/><path class="cls-1" d="M71.61,20.73h3.92l-2.06,9.73H69.54Zm.82-4h3.94l-.55,2.64H71.88Z"/><path class="cls-1" d="M87.87,26.91c-.61,2.14-2.28,3.81-5.86,3.81s-4.86-2.12-4.86-4.23a5.82,5.82,0,0,1,6.24-6c4.34,0,5,2.62,4.94,3.86H84.55c0-.7-.18-1.43-1.23-1.43-1.48,0-2.22,2.22-2.22,3.76,0,1,.39,1.61,1.25,1.61s1.33-.44,1.73-1.36Z"/><path class="cls-1" d="M94.85,24.49c1.06-1.11,2.59-2.5,3.8-3.76h4.62c-1.56,1.29-3,2.51-4.47,3.8.27.72,2.34,5.21,2.63,5.93H97.09c0-.21-1.25-3.62-1.29-3.81l-1.63,1.18-.57,2.63H89.68l2.9-13.72h3.93Z"/><path class="cls-1" d="M107.87,20.73c.39,3.33.53,5.84.58,7h.08c.48-1.13,1.63-3.76,3.11-7h4.19L110.9,29.6c-2.16,3.87-3,5-6.33,5a12.26,12.26,0,0,1-2-.17l.64-2.88a7.07,7.07,0,0,0,1,.08,1.67,1.67,0,0,0,1.56-.77l-1.94-10.14Z"/><path class="cls-1" d="M144.94,32a.74.74,0,0,1-.53-.22L121.19,9.24a.78.78,0,0,1,0-1.09.77.77,0,0,1,1.09,0l23.22,22.53a.76.76,0,0,1,0,1.08A.75.75,0,0,1,144.94,32Z"/><path class="cls-1" d="M122.69,33.42a.74.74,0,0,1-.55-.23.76.76,0,0,1,0-1.08l24-23.85a.77.77,0,0,1,1.08,0,.76.76,0,0,1,0,1.08l-24,23.85A.76.76,0,0,1,122.69,33.42Z"/><path class="cls-1" d="M151.88,21.6h0l-35.44-.08a.77.77,0,1,1,0-1.53h0l35.44.08a.77.77,0,1,1,0,1.53Z"/><path class="cls-1" d="M134.61,36.08a.77.77,0,0,1-.77-.76l-.41-31.54a.76.76,0,0,1,.76-.78h0a.76.76,0,0,1,.76.76l.41,31.54a.77.77,0,0,1-.75.78Z"/><path class="cls-1" d="M134.77,29.52l-.65-.4c-1-.61-3.9-2.07-5.52-1.53a1,1,0,0,1-.84-.08c-.55-.32-.69-1-.85-1.75a3.46,3.46,0,0,0-.16-.64,2.87,2.87,0,0,1-.23-.81c-.09-.58-.22-1.38-3-3.06l-1.19-.72,1.24-.62c.15-.07,2.8-1.58,1.47-7.06l-.25-1,1,.07a11.46,11.46,0,0,0,7.66-2.76L134,8.7l.51.41c1.87,1.53,5.42,3.8,6.93,3.44l1.08-.26-.14,1.11s-.54,4.43,1.63,6.71l.65.69-.8.5s-4,2.55-2.7,5.47l.78,1.72-1.76-.69c-.14-.05-3.54-1.32-5,1.07Zm-5.36-3.58a11.34,11.34,0,0,1,4.9,1.52A5.38,5.38,0,0,1,139.39,26c-.25-2.33,1.49-4.37,3-5.51a10.79,10.79,0,0,1-1.54-6.39c-2.35-.2-5.48-2.43-6.74-3.4a13,13,0,0,1-7.3,2.73c.73,4-.53,6.1-1.5,7.1,2.26,1.55,2.61,2.56,2.77,3.53a1.66,1.66,0,0,0,.09.37,5,5,0,0,1,.29,1c0,.16.08.39.13.57A4.11,4.11,0,0,1,129.41,25.94Z"/><path class="cls-1" d="M134.51,26.37,134,26a7.09,7.09,0,0,0-3.17-1.17h-.52l-.19-.47a6.28,6.28,0,0,0-2.39-2.88l-.71-.35.37-.7c.94-1.77,1.58-4.09,1-4.44l.74-1.34c.12.06,2.89,1.43,4.35-.9L134,13l.68.62c1.65,1.5,3.46,2.47,3.85,2.27l1.4-.73-.3,1.56s-.43,2.36.57,3.65l.6.79-.91.39A3.21,3.21,0,0,0,138.16,24l-.07.51-.5.13A7,7,0,0,0,135,25.94Zm-3.17-3a8.72,8.72,0,0,1,3,1.1,9,9,0,0,1,2.39-1.15,4.74,4.74,0,0,1,1.78-2.72,6.71,6.71,0,0,1-.52-3.19,9.16,9.16,0,0,1-3.75-2.1,4.37,4.37,0,0,1-4.12,1.29,9.86,9.86,0,0,1-1.06,3.94A8.21,8.21,0,0,1,131.34,23.35Z"/><path class="cls-1" d="M134.29,34.09l-.5-.43s-4-3.31-8.6-2.16l-1,.25,0-1a9.68,9.68,0,0,0-6.49-9.41l-1.54-.54,1.39-.84c.26-.16,6.13-3.84,4-10.2l-.36-1.08,1.14.07c.07,0,7.56.42,11.07-3.86L134,4.2l.6.6c.06.06,5.65,5.61,10.08,5.36l.77-.05,0,.77c0,.06.42,6.67,3.22,9.2l.79.72-.93.52s-5.06,2.91-5.07,7.36v.61l-.59.14a21.34,21.34,0,0,0-8.12,4.23Zm-7.06-4.37a12.54,12.54,0,0,1,7,2.38,23,23,0,0,1,7.72-4c.31-3.85,3.48-6.5,5-7.57-2.15-2.63-2.8-7.07-3-8.82-4-.21-8.37-3.82-9.92-5.25-3.27,3.35-8.5,3.8-10.74,3.83,1.16,5.08-2,8.6-3.83,10.12a11.24,11.24,0,0,1,6.21,9.44A9.6,9.6,0,0,1,127.23,29.72Z"/><path class="cls-1" d="M151.12,17.15a1.25,1.25,0,0,1,.33-.45,1.2,1.2,0,0,1,.47-.29,1.55,1.55,0,0,1,.56-.11,1.51,1.51,0,0,1,.56.11,1.32,1.32,0,0,1,.48.29,1.36,1.36,0,0,1,.32.45,1.54,1.54,0,0,1,0,1.19,1.52,1.52,0,0,1-.32.46,1.66,1.66,0,0,1-.48.29,1.74,1.74,0,0,1-.56.1,1.78,1.78,0,0,1-.56-.1,1.49,1.49,0,0,1-.47-.29,1.39,1.39,0,0,1-.33-.46,1.54,1.54,0,0,1,0-1.19Zm.36,1.05a1.11,1.11,0,0,0,.23.36,1.09,1.09,0,0,0,.35.24,1.14,1.14,0,0,0,.84,0,1.09,1.09,0,0,0,.35-.24,1,1,0,0,0,.23-.36,1.14,1.14,0,0,0,.09-.46,1.13,1.13,0,0,0-.09-.45,1,1,0,0,0-.23-.36.93.93,0,0,0-.35-.23,1,1,0,0,0-.84,0,.93.93,0,0,0-.35.23,1.11,1.11,0,0,0-.23.36,1.13,1.13,0,0,0-.09.45A1.14,1.14,0,0,0,151.48,18.2Z"/><path class="cls-1" d="M152.27,17.85v0a.66.66,0,0,0,0,.24.16.16,0,0,0,.28,0,.57.57,0,0,0,0-.16V16.91h.32V18a.53.53,0,0,1-.07.3.41.41,0,0,1-.4.19.45.45,0,0,1-.39-.15.82.82,0,0,1-.09-.42v0Z"/></svg>