<?xml version="1.0" encoding="utf-8"?>
<!-- Generator: Adobe Illustrator 24.2.3, SVG Export Plug-In . SVG Version: 6.00 Build 0)  -->
<svg version="1.1" id="Layer_4" xmlns="http://www.w3.org/2000/svg" xmlns:xlink="http://www.w3.org/1999/xlink" x="0px" y="0px"
	 viewBox="0 0 200 50" style="enable-background:new 0 0 200 50;" xml:space="preserve">
<style type="text/css">
	.st0{fill:#7C7C7C;}
</style>
<path class="st0" d="M47.6,38.1l0.6,2.4c0.1,0.5,0.3,1,0.4,1.5l0,0c0.1-0.5,0.3-1,0.4-1.5l0.8-2.5h0.7l0.7,2.4
	c0.2,0.6,0.3,1.1,0.4,1.6l0,0c0.1-0.5,0.2-1,0.4-1.6l0.7-2.4h0.9l-1.4,4.8h-0.8l-0.7-2.3c-0.2-0.5-0.3-1-0.4-1.6l0,0
	c-0.1,0.5-0.3,1.1-0.4,1.6L49,42.9h-0.8l-1.5-4.8H47.6z"/>
<path class="st0" d="M56.4,40.7c-0.1,0.8,0.5,1.6,1.4,1.7c0.1,0,0.2,0,0.3,0c0.5,0,0.9-0.1,1.3-0.2l0.2,0.6c-0.5,0.2-1,0.3-1.6,0.3
	c-1.2,0.1-2.3-0.9-2.4-2.1c0-0.1,0-0.2,0-0.3c-0.1-1.3,0.8-2.4,2-2.6c0.1,0,0.1,0,0.2,0c1.1,0,2,1,2,2.1c0,0.1,0,0.1,0,0.2
	c0,0.1,0,0.3,0,0.4H56.4z M59,40.1c0.1-0.7-0.4-1.3-1.1-1.4c-0.1,0-0.1,0-0.2,0c-0.7,0.1-1.3,0.7-1.3,1.4H59z"/>
<path class="st0" d="M62.4,42.9c0-0.3,0-0.8,0-1.2v-5.8h0.9v3.1l0,0c0.3-0.6,1-0.9,1.6-0.9c1.2,0.1,2.1,1.1,2.1,2.2
	c0,0.1,0,0.1,0,0.2c0.2,1.2-0.7,2.4-2,2.5c-0.1,0-0.1,0-0.2,0c-0.7,0-1.3-0.3-1.6-0.9l0,0V43L62.4,42.9z M63.4,41c0,0.1,0,0.2,0,0.3
	c0.1,0.6,0.7,1,1.3,1c0.9,0,1.5-0.7,1.5-1.8c0-1.1-0.5-1.7-1.4-1.7c-0.6,0-1.2,0.4-1.4,1c0,0.1,0,0.2-0.1,0.4L63.4,41z"/>
<path class="st0" d="M73.8,40.7c-0.1,0.8,0.5,1.6,1.4,1.7c0.1,0,0.2,0,0.3,0c0.5,0,0.9-0.1,1.3-0.2l0.1,0.6c-0.5,0.2-1,0.3-1.6,0.3
	c-1.2,0.1-2.3-0.9-2.4-2.1c0-0.1,0-0.2,0-0.3c-0.1-1.3,0.8-2.4,2.1-2.6c0.1,0,0.1,0,0.2,0c1.1,0,2,1,2,2.1c0,0.1,0,0.1,0,0.2
	c0,0.1,0,0.3,0,0.4H73.8z M76.4,40.1c0.1-0.7-0.4-1.3-1.1-1.4c0,0-0.1,0-0.1,0c-0.7,0.1-1.3,0.7-1.3,1.4H76.4z"/>
<path class="st0" d="M80.2,38.1l0.7,1c0.2,0.3,0.3,0.5,0.5,0.8l0,0c0.2-0.3,0.3-0.5,0.5-0.8l0.7-1h0.9l-1.6,2.3l1.7,2.5h-1l-0.6-1.1
	c-0.2-0.3-0.3-0.5-0.5-0.8l0,0c-0.2,0.3-0.3,0.6-0.5,0.8l-0.7,1.1h-1l1.7-2.5l-1.6-2.3L80.2,38.1z"/>
<path class="st0" d="M86,39.7c0-0.6,0-1.1,0-1.6h0.8v0.8l0,0c0.4-0.6,1-1,1.7-0.9c1.2,0.1,2.1,1.1,2.1,2.3c0,0.1,0,0.1,0,0.2
	c0.2,1.2-0.7,2.4-1.9,2.6c-0.1,0-0.2,0-0.2,0c-0.6,0-1.1-0.3-1.5-0.7l0,0v2.6H86L86,39.7z M86.8,41c0,0.1,0,0.2,0,0.3
	c0.1,0.6,0.7,1,1.3,1c0.9,0,1.5-0.7,1.5-1.8c0-1.1-0.5-1.7-1.4-1.7c-0.7,0.1-1.3,0.7-1.4,1.4V41z"/>
<path class="st0" d="M93.6,40.7c-0.1,0.8,0.5,1.6,1.4,1.7c0.1,0,0.2,0,0.3,0c0.5,0,0.9-0.1,1.3-0.2l0.1,0.6c-0.5,0.2-1,0.3-1.6,0.3
	c-1.2,0.1-2.3-0.9-2.4-2.1c0-0.1,0-0.2,0-0.3c-0.1-1.3,0.8-2.4,2.1-2.6c0.1,0,0.1,0,0.2,0c1.1,0,2,1,2,2.1c0,0.1,0,0.1,0,0.2
	c0,0.1,0,0.3,0,0.4H93.6z M96.2,40.1c0.1-0.7-0.4-1.3-1.1-1.4c0,0-0.1,0-0.1,0c-0.7,0.1-1.3,0.7-1.3,1.4H96.2z"/>
<path class="st0" d="M99.7,39.6c0-0.6,0-1,0-1.5h0.8v0.9l0,0c0.2-0.6,0.7-1,1.3-1c0.1,0,0.2,0,0.2,0v0.8c-0.1,0-0.2,0-0.3,0
	c-0.6,0-1.1,0.5-1.2,1.1c0,0.1,0,0.3,0,0.4V43h-0.9L99.7,39.6z"/>
<path class="st0" d="M105.5,36.8c0,0.3-0.2,0.5-0.5,0.5c-0.3,0-0.5-0.2-0.5-0.5c0-0.3,0.2-0.5,0.5-0.6c0,0,0,0,0,0
	C105.2,36.2,105.5,36.5,105.5,36.8C105.5,36.8,105.5,36.8,105.5,36.8z M104.5,42.9v-4.8h0.9v4.8H104.5z"/>
<path class="st0" d="M108.9,40.7c-0.1,0.8,0.6,1.6,1.4,1.7c0.1,0,0.2,0,0.2,0c0.5,0,0.9-0.1,1.3-0.2l0.1,0.6c-0.5,0.2-1,0.3-1.6,0.3
	c-1.2,0.1-2.3-0.9-2.4-2.1c0-0.1,0-0.2,0-0.3c-0.1-1.3,0.8-2.4,2-2.6c0.1,0,0.1,0,0.2,0c1.1,0,2,1,2,2.1c0,0.1,0,0.1,0,0.2
	c0,0.1,0,0.3,0,0.4H108.9z M111.4,40.1c0.1-0.7-0.4-1.3-1.1-1.4c0,0-0.1,0-0.1,0c-0.7,0.1-1.3,0.7-1.3,1.4H111.4z"/>
<path class="st0" d="M114.9,39.4c0-0.5,0-0.9,0-1.3h0.8v0.8l0,0c0.3-0.6,0.9-0.9,1.6-0.9c0.7,0,1.7,0.4,1.7,2v2.9h-0.9v-2.8
	c0-0.8-0.3-1.4-1.1-1.4c-0.5,0-1,0.4-1.2,0.9c0,0.1-0.1,0.3-0.1,0.4v2.9h-0.9L114.9,39.4z"/>
<path class="st0" d="M125.4,42.7c-0.4,0.2-0.9,0.3-1.4,0.3c-1.3,0.1-2.3-0.9-2.4-2.2c0-0.1,0-0.2,0-0.3c-0.1-1.3,1-2.5,2.3-2.6
	c0.1,0,0.2,0,0.3,0c0.4,0,0.8,0.1,1.2,0.2l-0.2,0.7c-0.3-0.2-0.7-0.2-1-0.2c-1,0-1.8,0.8-1.8,1.8c0,1,0.8,1.8,1.8,1.8
	c0.4,0,0.7-0.1,1-0.2L125.4,42.7z"/>
<path class="st0" d="M128.4,40.7c-0.1,0.8,0.5,1.6,1.4,1.7c0.1,0,0.2,0,0.3,0c0.5,0,0.9-0.1,1.3-0.2l0.1,0.6c-0.5,0.2-1,0.3-1.6,0.3
	c-1.2,0.1-2.3-0.9-2.4-2.1c0-0.1,0-0.2,0-0.3c-0.1-1.3,0.8-2.4,2.1-2.6c0.1,0,0.1,0,0.2,0c1.1,0,2,0.9,2.1,2c0,0.1,0,0.2,0,0.2
	c0,0.1,0,0.3,0,0.4H128.4z M131,40.1c0.1-0.7-0.4-1.3-1.1-1.4c-0.1,0-0.1,0-0.2,0c-0.7,0.1-1.3,0.7-1.3,1.4H131z"/>
<path class="st0" d="M134.3,42c0.3,0.2,0.7,0.3,1.2,0.3c0.6,0,0.9-0.3,0.9-0.7s-0.2-0.6-0.9-0.9c-0.9-0.3-1.3-0.8-1.3-1.4
	c0-0.8,0.7-1.5,1.5-1.4c0,0,0.1,0,0.1,0c0.4,0,0.8,0.1,1.2,0.3l-0.2,0.6c-0.3-0.2-0.7-0.3-1-0.3c-0.5,0-0.8,0.3-0.8,0.7
	c0,0.4,0.3,0.6,0.9,0.8c0.8,0.3,1.3,0.7,1.3,1.5c0,0.7-0.7,1.4-1.8,1.4c-0.5,0-0.9-0.1-1.3-0.3L134.3,42z"/>
<path class="st0" d="M49.9,25.9c0.2,1,1,1.7,2.6,1.7c1.2,0,2-0.3,2-1.3c0-0.7-0.4-1.1-2.5-1.6c-3.6-0.9-4.7-2-4.7-3.8
	c0-2.7,2.3-4.5,6-4.5c4.5,0,6,2,6.1,4.1h-3.9c-0.1-0.6-0.5-1.4-2.2-1.4c-1,0-1.7,0.5-1.7,1.2s0.6,1,2.4,1.4c3.8,0.9,4.8,2.2,4.8,4.1
	c0,2.6-2.4,4.5-6.7,4.5c-3.9,0-6.1-1.6-6.3-4.4L49.9,25.9z"/>
<path class="st0" d="M62,20.1h1.6l0.6-2.8h4l-0.6,2.8h1.9L69,22.7h-1.9l-0.8,3.7c-0.2,0.7-0.1,1,0.7,1c0.3,0,0.6,0,0.9-0.1l-0.5,2.5
	c-0.8,0.2-1.5,0.2-2.3,0.2c-2.8,0-3.4-1.2-2.9-3.2l0.9-4.3h-1.6L62,20.1z"/>
<path class="st0" d="M72.2,20.1h4L74.1,30h-4L72.2,20.1z M73,16h4l-0.6,2.7h-4L73,16z"/>
<path class="st0" d="M88.8,26.4c-0.6,2.2-2.3,3.9-6,3.9c-3.7,0-5-2.2-5-4.3c-0.1-3.3,2.5-6,5.7-6.1c0.2,0,0.4,0,0.6,0
	c4.4,0,5.1,2.7,5,3.9h-3.9c0-0.7-0.2-1.5-1.3-1.5c-1.5,0-2.3,2.3-2.3,3.8c0,1,0.4,1.6,1.3,1.6c0.9,0,1.4-0.4,1.8-1.4L88.8,26.4z"/>
<path class="st0" d="M95.9,23.9c1.1-1.1,2.6-2.6,3.9-3.8h4.7c-1.6,1.3-3.1,2.6-4.6,3.9c0.3,0.7,2.4,5.3,2.7,6.1h-4.4
	c0-0.2-1.3-3.7-1.3-3.9l-1.7,1.2L94.6,30h-4l3-14h4L95.9,23.9z"/>
<path class="st0" d="M109.2,20.1c0.4,3.4,0.5,6,0.6,7.1h0.1c0.5-1.2,1.7-3.8,3.2-7.1h4.3l-5,9.1c-2.2,4-3.1,5.1-6.5,5.1
	c-0.7,0-1.4-0.1-2-0.2l0.7-2.9c0.3,0.1,0.7,0.1,1,0.1c0.6,0.1,1.3-0.2,1.6-0.8l-2-10.4L109.2,20.1z"/>
<path class="st0" d="M147,31.6c-0.2,0-0.4-0.1-0.5-0.2l-23.7-23c-0.3-0.3-0.3-0.8,0-1.1c0.3-0.3,0.8-0.3,1.1,0c0,0,0,0,0,0l23.7,23
	c0.3,0.3,0.3,0.8,0,1.1c0,0,0,0,0,0C147.5,31.5,147.3,31.6,147,31.6z"/>
<path class="st0" d="M124.3,33.1c-0.2,0-0.4-0.1-0.6-0.2c-0.3-0.3-0.3-0.8,0-1.1c0,0,0,0,0,0l24.5-24.4c0.3-0.3,0.8-0.3,1.1,0
	c0.3,0.3,0.3,0.8,0,1.1c0,0,0,0,0,0l-24.5,24.4C124.7,33,124.5,33.1,124.3,33.1z"/>
<path class="st0" d="M154.1,21L154.1,21l-36.2-0.1c-0.4,0-0.8-0.3-0.9-0.7c0-0.4,0.3-0.8,0.7-0.9c0.1,0,0.1,0,0.2,0l0,0l36.2,0.1
	c0.4,0,0.8,0.3,0.9,0.7c0,0.4-0.3,0.8-0.7,0.9C154.2,21,154.2,21,154.1,21z"/>
<path class="st0" d="M136.5,35.8c-0.4,0-0.8-0.3-0.8-0.8l-0.4-32.2c0-0.4,0.3-0.8,0.8-0.8c0,0,0,0,0,0l0,0c0.4,0,0.8,0.3,0.8,0.8
	l0.4,32.2C137.3,35.4,136.9,35.8,136.5,35.8L136.5,35.8z"/>
<path class="st0" d="M136.6,29.1l-0.7-0.4c-1-0.6-4-2.1-5.6-1.6c-0.3,0.1-0.6,0.1-0.9-0.1c-0.6-0.3-0.7-1-0.9-1.8
	c0-0.2-0.1-0.4-0.2-0.7c-0.1-0.3-0.2-0.5-0.2-0.8c-0.1-0.6-0.2-1.4-3.1-3.1l-1.2-0.7l1.3-0.6c0.2-0.1,2.9-1.6,1.5-7.2l-0.3-1l1,0.1
	c2.9,0,5.6-1,7.8-2.8l0.6-0.5l0.5,0.4c1.9,1.6,5.5,3.9,7.1,3.5l1.1-0.3l-0.1,1.1c0,0-0.6,4.5,1.7,6.9l0.7,0.7l-0.8,0.5
	c0,0-4.1,2.6-2.8,5.6L144,28l-1.8-0.7c-0.1-0.1-3.6-1.3-5.1,1.1L136.6,29.1z M131.2,25.4c1.8,0.1,3.5,0.7,5,1.6
	c1.3-1.4,3.3-1.9,5.2-1.5c-0.3-2.4,1.5-4.5,3.1-5.6c-1.2-2-1.7-4.2-1.6-6.5c-2.4-0.2-5.6-2.5-6.9-3.5c-2.1,1.7-4.7,2.6-7.5,2.8
	c0.7,4.1-0.5,6.2-1.5,7.3c2.3,1.6,2.7,2.6,2.8,3.6c0,0.1,0,0.3,0.1,0.4c0.1,0.3,0.2,0.7,0.3,1c0,0.2,0.1,0.4,0.1,0.6
	C130.6,25.4,130.9,25.4,131.2,25.4z"/>
<path class="st0" d="M136.4,25.9l-0.5-0.4c-1-0.7-2.1-1.1-3.2-1.2h-0.5l-0.2-0.5c-0.5-1.2-1.3-2.2-2.4-2.9l-0.7-0.4l0.4-0.7
	c1-1.8,1.6-4.2,1-4.5l0.8-1.4c0.1,0.1,3,1.5,4.4-0.9l0.5-0.8l0.7,0.6c1.7,1.5,3.5,2.5,3.9,2.3l1.4-0.7l-0.3,1.6c0,0-0.4,2.4,0.6,3.7
	l0.6,0.8l-0.9,0.4c-1,0.5-1.6,1.4-1.8,2.5L140,24l-0.5,0.1c-1,0.3-1.9,0.7-2.6,1.3L136.4,25.9z M133.1,22.8c1.1,0.2,2.1,0.6,3.1,1.1
	c0.8-0.5,1.6-0.9,2.4-1.2c0.3-1.1,0.9-2.1,1.8-2.8c-0.4-1-0.6-2.1-0.5-3.3c-1.4-0.4-2.7-1.1-3.8-2.1c-1.1,1.1-2.7,1.6-4.2,1.3
	c-0.1,1.4-0.4,2.8-1.1,4C131.8,20.7,132.6,21.7,133.1,22.8L133.1,22.8z"/>
<path class="st0" d="M136.2,33.7l-0.5-0.4c0,0-4.1-3.4-8.8-2.2l-1,0.3v-1c0.1-4.3-2.6-8.2-6.6-9.6l-1.6-0.6l1.4-0.9
	c0.3-0.2,6.3-3.9,4.1-10.4l-0.4-1.1l1.2,0.1c0.1,0,7.7,0.4,11.3-3.9l0.6-0.7l0.6,0.6c0.1,0.1,5.8,5.7,10.3,5.5l0.8-0.1V10
	c0,0.1,0.4,6.8,3.3,9.4l0.8,0.7l-0.9,0.5c0,0-5.2,3-5.2,7.5v0.6l-0.6,0.1c-3,0.8-5.9,2.3-8.3,4.3L136.2,33.7z M128.9,29.3
	c2.6,0.1,5.1,0.9,7.1,2.4c2.3-1.9,5-3.2,7.9-4.1c0.3-3.9,3.6-6.6,5.1-7.7c-2.2-2.7-2.9-7.2-3.1-9c-4.1-0.2-8.5-3.9-10.1-5.4
	c-3.3,3.4-8.7,3.9-11,3.9c1.2,5.2-2,8.8-3.9,10.3c3.7,1.8,6.1,5.5,6.3,9.6C127.9,29.3,128.4,29.3,128.9,29.3z"/>
<path class="st0" d="M153.3,16.4c0.1-0.2,0.2-0.3,0.3-0.5c0.1-0.1,0.3-0.2,0.5-0.3c0.2-0.1,0.4-0.1,0.6-0.1c0.2,0,0.4,0,0.6,0.1
	c0.2,0.1,0.3,0.2,0.5,0.3c0.1,0.1,0.3,0.3,0.3,0.5c0.2,0.4,0.2,0.8,0,1.2c-0.1,0.2-0.2,0.3-0.3,0.5c-0.1,0.1-0.3,0.2-0.5,0.3
	c-0.2,0.1-0.4,0.1-0.6,0.1c-0.2,0-0.4,0-0.6-0.1c-0.2-0.1-0.3-0.2-0.5-0.3c-0.1-0.1-0.3-0.3-0.3-0.5
	C153.2,17.3,153.2,16.8,153.3,16.4z M153.7,17.5c0.1,0.1,0.1,0.3,0.2,0.4c0.1,0.1,0.2,0.2,0.4,0.2c0.3,0.1,0.6,0.1,0.9,0
	c0.1-0.1,0.3-0.1,0.4-0.2c0.1-0.1,0.2-0.2,0.2-0.4c0.1-0.1,0.1-0.3,0.1-0.5c0-0.2,0-0.3-0.1-0.5c-0.1-0.1-0.1-0.3-0.2-0.4
	c-0.1-0.1-0.2-0.2-0.4-0.2c-0.3-0.1-0.6-0.1-0.9,0c-0.1,0.1-0.3,0.1-0.4,0.2c-0.1,0.1-0.2,0.2-0.2,0.4c-0.1,0.1-0.1,0.3-0.1,0.5
	C153.6,17.2,153.6,17.4,153.7,17.5z"/>
<path class="st0" d="M154.5,17.2L154.5,17.2c0,0.1,0,0.2,0,0.2c0,0.1,0.1,0.1,0.2,0.1c0,0,0,0,0.1-0.1c0-0.1,0-0.1,0-0.2v-1h0.3v1.1
	c0,0.1,0,0.2-0.1,0.3c-0.1,0.1-0.2,0.2-0.4,0.2c-0.1,0-0.3,0-0.4-0.2c-0.1-0.1-0.1-0.3-0.1-0.4l0,0L154.5,17.2z"/>
</svg>
