<?xml version="1.0" encoding="utf-8"?>
<!-- Generator: Adobe Illustrator 24.2.3, SVG Export Plug-In . SVG Version: 6.00 Build 0)  -->
<svg version="1.1" id="Layer_1" xmlns="http://www.w3.org/2000/svg" xmlns:xlink="http://www.w3.org/1999/xlink" x="0px" y="0px"
	 viewBox="0 0 200 50" style="enable-background:new 0 0 200 50;" xml:space="preserve">
<style type="text/css">
	.st0{fill:#7C7C7C;}
</style>
<g>
	<path class="st0" d="M61,8.2H36c-0.8,0-1.4,0.6-1.4,1.4v18.1c0,0.1,0,0.1,0,0.2c0,0,0,0.1,0,0.1c0,0,0,0.1,0,0.1c0,0,0,0.1,0,0.1
		l0,0.1c0,0.1,0.1,0.1,0.1,0.2l0,0v0c0,0.1,0.1,0.1,0.2,0.2l0.1,0.1c0.1,0,0.1,0.1,0.2,0.1l0.1,0c0.1,0,0.1,0.1,0.2,0.1h0.1
		c0.1,0,0.2,0,0.3,0H61c0.7,0,1.4-0.6,1.4-1.4c0,0,0,0,0,0v-18C62.4,8.8,61.8,8.2,61,8.2C61,8.2,61,8.2,61,8.2z M59.7,26.3H40.3
		l15.7-11c0.6-0.4,0.8-1.2,0.4-1.9c-0.4-0.6-1.2-0.8-1.9-0.4c0,0-0.1,0.1-0.1,0.1l-17,12V11h22.3V26.3z"/>
	<path class="st0" d="M61,31.2H36c-0.8,0.1-1.3,0.7-1.3,1.5c0.1,0.7,0.6,1.2,1.3,1.3H61c0.8-0.1,1.3-0.7,1.3-1.5
		C62.2,31.8,61.7,31.3,61,31.2z"/>
	<path class="st0" d="M53.3,36.2H36c-0.8,0.1-1.3,0.7-1.3,1.5c0.1,0.7,0.6,1.2,1.3,1.3h17.3c0.8-0.1,1.3-0.7,1.3-1.5
		C54.5,36.7,53.9,36.2,53.3,36.2z"/>
	<path class="st0" d="M75.6,20.1c0.1,0.3,0.3,0.5,0.6,0.7c0.3,0.2,0.5,0.3,0.8,0.4c0.3,0.1,0.7,0.1,1,0.1c0.3,0,0.5,0,0.8-0.1
		c0.3,0,0.5-0.1,0.8-0.2c0.2-0.1,0.4-0.3,0.6-0.5c0.2-0.2,0.2-0.5,0.2-0.8c0-0.3-0.1-0.6-0.3-0.8c-0.2-0.2-0.5-0.4-0.8-0.5
		c-0.4-0.1-0.8-0.3-1.1-0.4c-0.4-0.1-0.9-0.2-1.3-0.3c-0.4-0.1-0.9-0.3-1.3-0.4c-0.4-0.2-0.8-0.4-1.1-0.6c-0.7-0.6-1.2-1.4-1.1-2.4
		c0-0.6,0.1-1.1,0.4-1.6c0.3-0.4,0.6-0.8,1-1.1c0.4-0.3,0.9-0.5,1.4-0.7c0.5-0.1,1.1-0.2,1.6-0.2c0.6,0,1.2,0.1,1.8,0.2
		c0.5,0.1,1.1,0.4,1.5,0.7c0.4,0.3,0.8,0.7,1.1,1.2c0.3,0.6,0.4,1.2,0.4,1.8h-2.5c0-0.3-0.1-0.6-0.2-0.9c-0.1-0.2-0.3-0.4-0.5-0.6
		c-0.2-0.1-0.5-0.2-0.8-0.3c-0.3-0.1-0.6-0.1-0.9-0.1c-0.2,0-0.4,0-0.6,0.1c-0.2,0-0.4,0.1-0.6,0.2c-0.2,0.1-0.3,0.3-0.4,0.4
		c-0.1,0.2-0.2,0.4-0.2,0.6c0,0.2,0,0.4,0.1,0.6c0.1,0.2,0.3,0.3,0.5,0.4c0.4,0.2,0.7,0.3,1.1,0.4l1.8,0.5c0.2,0,0.5,0.1,0.9,0.2
		c0.4,0.1,0.8,0.3,1.2,0.6c0.4,0.3,0.7,0.6,1,1c0.3,0.5,0.5,1.1,0.4,1.7c0,0.5-0.1,1-0.3,1.5c-0.2,0.5-0.5,0.9-0.9,1.2
		c-0.5,0.3-1,0.6-1.5,0.8c-0.7,0.2-1.4,0.3-2.2,0.3c-0.6,0-1.3-0.1-1.9-0.2c-0.6-0.2-1.1-0.4-1.6-0.8c-0.5-0.4-0.9-0.8-1.1-1.3
		c-0.3-0.6-0.4-1.3-0.4-1.9h2.6C75.3,19.4,75.4,19.8,75.6,20.1z"/>
	<path class="st0" d="M89,14.4V16h-1.7v4.3c0,0.3,0,0.6,0.2,0.8c0.2,0.2,0.5,0.2,0.8,0.2h0.4l0.4-0.1v1.8c-0.2,0-0.4,0.1-0.7,0.1
		c-0.3,0-0.5,0-0.8,0c-0.3,0-0.7,0-1-0.1c-0.3,0-0.6-0.1-0.9-0.3c-0.3-0.1-0.5-0.4-0.6-0.6c-0.2-0.3-0.2-0.7-0.2-1.1V16h-1.4v-1.6
		h1.4v-2.6h2.4v2.6H89z"/>
	<path class="st0" d="M90.2,16.8c0.2-0.5,0.5-1,0.9-1.4c0.4-0.4,0.9-0.7,1.4-0.9c0.6-0.2,1.2-0.3,1.8-0.3c0.6,0,1.3,0.1,1.9,0.3
		c0.5,0.2,1,0.5,1.4,0.9c0.4,0.4,0.7,0.9,0.9,1.4c0.2,0.6,0.3,1.2,0.3,1.9c0,0.6-0.1,1.3-0.3,1.9c-0.2,0.5-0.5,1-0.9,1.4
		c-0.4,0.4-0.9,0.7-1.4,0.9c-0.6,0.2-1.2,0.3-1.9,0.3c-0.6,0-1.3-0.1-1.8-0.3c-0.5-0.2-1-0.5-1.4-0.9c-0.4-0.4-0.7-0.9-0.9-1.4
		c-0.2-0.6-0.3-1.2-0.3-1.9C89.8,18.1,89.9,17.4,90.2,16.8z M92.3,19.7c0.1,0.3,0.2,0.6,0.3,0.9c0.2,0.3,0.4,0.5,0.6,0.6
		c0.3,0.2,0.7,0.2,1,0.2c0.4,0,0.7-0.1,1-0.2c0.3-0.2,0.5-0.4,0.7-0.6c0.2-0.3,0.3-0.6,0.3-0.9c0.1-0.3,0.1-0.7,0.1-1
		c0-0.3,0-0.7-0.1-1c-0.1-0.3-0.2-0.6-0.3-0.9c-0.4-0.6-1-0.9-1.7-0.9c-0.4,0-0.7,0.1-1,0.2c-0.3,0.2-0.5,0.4-0.6,0.6
		c-0.2,0.3-0.3,0.6-0.3,0.9c-0.1,0.3-0.1,0.7-0.1,1C92.2,19.1,92.3,19.4,92.3,19.7z"/>
	<path class="st0" d="M102.2,14.4V16l0,0c0.1-0.3,0.3-0.5,0.4-0.8c0.2-0.2,0.4-0.4,0.7-0.6c0.2-0.2,0.5-0.3,0.8-0.4
		c0.3-0.1,0.6-0.1,0.9-0.1c0.2,0,0.4,0,0.5,0.1v2.2l-0.4-0.1c-0.2,0-0.3,0-0.5,0c-0.4,0-0.8,0.1-1.1,0.2c-0.3,0.1-0.6,0.3-0.8,0.6
		c-0.2,0.3-0.3,0.6-0.4,0.9c-0.1,0.4-0.1,0.7-0.1,1.1v3.9h-2.4v-8.7H102.2z"/>
	<path class="st0" d="M110.1,25.7c-0.6,0.3-1.2,0.5-1.9,0.4c-0.2,0-0.5,0-0.8,0l-0.8-0.1v-2l0.7,0.1c0.2,0,0.5,0,0.7,0
		c0.3,0,0.5-0.1,0.7-0.4c0.1-0.2,0.2-0.5,0.2-0.7c0-0.2,0-0.4-0.1-0.5l-3-8.1h2.5l2,5.9l0,0l1.9-5.9h2.5l-3.5,9.8
		C111,24.7,110.6,25.3,110.1,25.7z"/>
	<path class="st0" d="M118,11.1v4.4h0c0.3-0.4,0.7-0.8,1.2-1c0.5-0.2,1-0.3,1.5-0.3c0.4,0,0.9,0.1,1.3,0.3c0.4,0.2,0.8,0.5,1.1,0.8
		c0.4,0.4,0.7,0.9,0.8,1.4c0.2,0.7,0.3,1.4,0.3,2.1c0,0.7-0.1,1.4-0.3,2.1c-0.2,0.5-0.5,1-0.8,1.4c-0.6,0.7-1.5,1.1-2.4,1.1
		c-0.6,0-1.2-0.1-1.7-0.3c-0.5-0.2-0.9-0.6-1.1-1l0,0v1.1h-2.3v-12H118z M121.9,17.7c-0.1-0.3-0.2-0.6-0.4-0.9
		c-0.2-0.3-0.4-0.5-0.6-0.6c-0.6-0.3-1.3-0.3-1.8,0c-0.3,0.2-0.5,0.4-0.6,0.6c-0.2,0.3-0.3,0.6-0.4,0.9c-0.1,0.3-0.1,0.7-0.1,1.1
		c0,0.4,0,0.7,0.1,1c0.1,0.3,0.2,0.6,0.4,0.9c0.2,0.3,0.4,0.5,0.6,0.6c0.6,0.3,1.3,0.3,1.8,0c0.3-0.2,0.5-0.4,0.6-0.6
		c0.2-0.3,0.3-0.6,0.4-0.9c0.1-0.3,0.1-0.7,0.1-1C122,18.4,121.9,18,121.9,17.7z"/>
	<path class="st0" d="M125.5,16.8c0.4-1.1,1.2-1.9,2.3-2.4c1.2-0.4,2.5-0.4,3.7,0c0.5,0.2,1,0.5,1.4,0.9c0.4,0.4,0.7,0.9,0.9,1.4
		c0.4,1.2,0.4,2.5,0,3.8c-0.2,0.5-0.5,1-0.9,1.4c-0.4,0.4-0.9,0.7-1.4,0.9c-1.2,0.4-2.5,0.4-3.7,0c-0.5-0.2-1-0.5-1.4-0.9
		c-0.4-0.4-0.7-0.9-0.9-1.4c-0.2-0.6-0.3-1.2-0.3-1.9C125.2,18.1,125.3,17.4,125.5,16.8z M127.7,19.7c0.1,0.3,0.2,0.6,0.3,0.9
		c0.2,0.3,0.4,0.5,0.6,0.6c0.3,0.2,0.7,0.2,1,0.2c0.4,0,0.7-0.1,1-0.2c0.3-0.2,0.5-0.4,0.7-0.6c0.2-0.3,0.3-0.6,0.3-0.9
		c0.1-0.3,0.1-0.7,0.1-1c0-0.3,0-0.7-0.1-1c-0.1-0.3-0.2-0.6-0.3-0.9c-0.2-0.3-0.4-0.5-0.7-0.6c-0.3-0.2-0.7-0.3-1-0.2
		c-0.4,0-0.7,0.1-1,0.2c-0.3,0.2-0.5,0.4-0.6,0.6c-0.2,0.3-0.3,0.6-0.3,0.9c-0.1,0.3-0.1,0.7-0.1,1
		C127.6,19.1,127.6,19.4,127.7,19.7z"/>
	<path class="st0" d="M135.6,17.1c0-0.5,0.2-1,0.4-1.4c0.2-0.4,0.6-0.7,0.9-0.9c0.4-0.2,0.8-0.4,1.3-0.5c0.5-0.1,1-0.1,1.4-0.1
		c0.4,0,0.9,0,1.3,0.1c0.4,0.1,0.8,0.2,1.2,0.4c0.4,0.2,0.7,0.4,0.9,0.8c0.2,0.4,0.4,0.8,0.4,1.3v4.5c0,0.4,0,0.8,0.1,1.1
		c0,0.3,0.1,0.6,0.2,0.8h-2.4c0-0.1-0.1-0.3-0.1-0.4c0-0.1,0-0.3-0.1-0.4c-0.4,0.4-0.8,0.7-1.3,0.8c-0.5,0.2-1,0.2-1.6,0.2
		c-0.4,0-0.8,0-1.2-0.2c-0.3-0.1-0.7-0.3-0.9-0.5c-0.3-0.2-0.5-0.5-0.6-0.8c-0.2-0.4-0.2-0.8-0.2-1.2c0-0.4,0.1-0.8,0.3-1.2
		c0.2-0.3,0.4-0.6,0.7-0.8c0.3-0.2,0.6-0.3,0.9-0.4c0.4-0.1,0.7-0.2,1.1-0.2l1.1-0.1c0.3,0,0.6-0.1,0.9-0.1c0.2-0.1,0.5-0.2,0.6-0.3
		c0.2-0.1,0.2-0.4,0.2-0.6c0-0.2,0-0.4-0.1-0.6c-0.1-0.1-0.2-0.3-0.3-0.4c-0.1-0.1-0.3-0.2-0.5-0.2c-0.2,0-0.4,0-0.6,0
		c-0.4,0-0.8,0.1-1.1,0.3c-0.3,0.3-0.5,0.6-0.5,1L135.6,17.1z M141.1,18.8c-0.1,0.1-0.2,0.2-0.4,0.2c-0.2,0.1-0.3,0.1-0.5,0.1
		c-0.2,0-0.4,0.1-0.5,0.1l-0.6,0.1c-0.2,0-0.4,0.1-0.5,0.1c-0.2,0-0.3,0.1-0.4,0.2c-0.1,0.1-0.2,0.2-0.3,0.4
		c-0.1,0.2-0.1,0.4-0.1,0.6c0,0.2,0,0.4,0.1,0.5c0.1,0.1,0.2,0.3,0.3,0.3c0.1,0.1,0.3,0.1,0.5,0.2c0.2,0,0.4,0.1,0.6,0.1
		c0.4,0,0.8-0.1,1.1-0.2c0.2-0.1,0.4-0.3,0.6-0.6c0.1-0.2,0.2-0.4,0.2-0.7c0-0.2,0-0.4,0-0.5L141.1,18.8z"/>
	<path class="st0" d="M147.6,14.4V16l0,0c0.1-0.3,0.3-0.5,0.5-0.8c0.2-0.2,0.4-0.4,0.7-0.6c0.2-0.2,0.5-0.3,0.8-0.4
		c0.3-0.1,0.6-0.1,0.9-0.1c0.2,0,0.4,0,0.5,0.1v2.2l-0.4-0.1c-0.2,0-0.3,0-0.4,0c-0.4,0-0.8,0.1-1.1,0.2c-0.3,0.1-0.6,0.3-0.8,0.6
		c-0.2,0.3-0.3,0.6-0.4,0.9c-0.1,0.4-0.1,0.7-0.1,1.1v3.9h-2.4v-8.7H147.6z"/>
	<path class="st0" d="M157.7,22c-0.2,0.4-0.6,0.8-1.1,1c-1,0.4-2.2,0.4-3.2-0.1c-0.5-0.2-0.9-0.6-1.2-1c-0.3-0.4-0.6-0.9-0.8-1.5
		c-0.2-0.6-0.2-1.2-0.2-1.7c0-0.6,0.1-1.1,0.2-1.7c0.2-0.5,0.4-1,0.8-1.4c0.7-0.9,1.8-1.4,2.9-1.4c0.5,0,1,0.1,1.5,0.3
		c0.5,0.2,0.8,0.5,1.1,1l0,0v-4.4h2.4v12h-2.3L157.7,22L157.7,22z M157.6,17.7c-0.1-0.3-0.2-0.6-0.3-0.9c-0.2-0.3-0.4-0.5-0.6-0.6
		c-0.3-0.2-0.6-0.2-1-0.2c-0.3,0-0.7,0.1-1,0.2c-0.3,0.2-0.5,0.4-0.6,0.6c-0.2,0.3-0.3,0.6-0.4,0.9c-0.1,0.3-0.1,0.7-0.1,1
		c0,0.3,0,0.7,0.1,1c0.1,0.3,0.2,0.6,0.4,0.9c0.2,0.3,0.4,0.5,0.7,0.6c0.3,0.2,0.6,0.3,1,0.2c0.3,0,0.7-0.1,1-0.2
		c0.3-0.2,0.5-0.4,0.6-0.6c0.2-0.3,0.3-0.6,0.3-0.9C157.8,19,157.8,18.3,157.6,17.7z"/>
	<path class="st0" d="M75.6,35.8c0.1,0.3,0.3,0.5,0.6,0.7c0.3,0.2,0.5,0.3,0.8,0.4c0.3,0.1,0.7,0.1,1,0.1c0.3,0,0.5,0,0.8-0.1
		c0.3,0,0.5-0.1,0.8-0.2c0.2-0.1,0.4-0.3,0.6-0.5c0.2-0.2,0.2-0.5,0.2-0.8c0-0.3-0.1-0.6-0.3-0.8c-0.2-0.2-0.5-0.4-0.8-0.5
		c-0.4-0.1-0.8-0.3-1.1-0.4c-0.4-0.1-0.9-0.2-1.3-0.3c-0.4-0.1-0.9-0.3-1.3-0.4c-0.4-0.2-0.8-0.4-1.1-0.6c-0.7-0.6-1.2-1.4-1.1-2.4
		c0-0.6,0.1-1.1,0.4-1.6c0.3-0.4,0.6-0.8,1-1.1c0.4-0.3,0.9-0.5,1.4-0.7c0.5-0.1,1.1-0.2,1.6-0.2c0.6,0,1.2,0.1,1.8,0.2
		c0.5,0.1,1.1,0.4,1.5,0.7c0.4,0.3,0.8,0.7,1.1,1.2c0.3,0.6,0.4,1.2,0.4,1.8h-2.5c0-0.3-0.1-0.6-0.2-0.9c-0.1-0.2-0.3-0.4-0.5-0.6
		c-0.2-0.1-0.5-0.2-0.8-0.3c-0.3-0.1-0.6-0.1-0.9-0.1c-0.2,0-0.4,0-0.6,0.1c-0.2,0-0.4,0.1-0.6,0.2c-0.2,0.1-0.3,0.3-0.4,0.4
		c-0.1,0.2-0.2,0.4-0.2,0.6c0,0.2,0,0.4,0.1,0.6c0.1,0.2,0.3,0.3,0.5,0.4c0.4,0.2,0.7,0.3,1.1,0.4c0.5,0.1,1.1,0.3,1.8,0.5
		c0.2,0,0.5,0.1,0.9,0.2c0.4,0.1,0.8,0.3,1.2,0.6c0.4,0.3,0.7,0.6,1,1c0.3,0.5,0.5,1.1,0.4,1.7c0,0.5-0.1,1-0.3,1.5
		c-0.2,0.5-0.5,0.9-0.9,1.2c-0.5,0.4-1,0.6-1.5,0.8c-0.7,0.2-1.4,0.3-2.2,0.3c-0.6,0-1.3-0.1-1.9-0.2c-0.6-0.2-1.1-0.4-1.6-0.8
		c-0.5-0.3-0.9-0.8-1.1-1.3c-0.3-0.6-0.4-1.3-0.4-1.9h2.6C75.4,35.1,75.4,35.4,75.6,35.8z"/>
	<path class="st0" d="M86.5,30v1.1l0,0c0.3-0.4,0.6-0.8,1.1-1c0.5-0.2,1-0.3,1.5-0.3c0.6,0,1.2,0.1,1.8,0.4c0.5,0.2,0.9,0.6,1.2,1
		c0.4,0.4,0.6,0.9,0.8,1.5c0.2,0.6,0.2,1.2,0.2,1.8c0,0.6-0.1,1.1-0.2,1.7c-0.1,0.5-0.4,1-0.7,1.4c-0.3,0.4-0.7,0.8-1.2,1
		c-0.5,0.3-1.1,0.4-1.7,0.4c-0.5,0-1-0.1-1.5-0.3c-0.5-0.2-0.8-0.6-1.1-1l0,0v4.1h-2.4V30H86.5z M89.6,36.9c0.3-0.2,0.5-0.4,0.6-0.6
		c0.2-0.3,0.3-0.6,0.3-0.9c0.1-0.3,0.1-0.7,0.1-1c0-0.3,0-0.7-0.1-1c-0.1-0.3-0.2-0.6-0.4-0.9c-0.2-0.3-0.4-0.5-0.6-0.6
		c-0.3-0.2-0.6-0.3-1-0.2c-0.3,0-0.7,0.1-1,0.2c-0.3,0.2-0.5,0.4-0.6,0.6c-0.2,0.3-0.3,0.6-0.3,0.9c-0.1,0.7-0.1,1.4,0,2.1
		c0.1,0.3,0.2,0.6,0.4,0.9c0.2,0.3,0.4,0.5,0.6,0.6C88.2,37.2,88.9,37.2,89.6,36.9L89.6,36.9z"/>
	<path class="st0" d="M97,36.6c0.8,0.6,1.9,0.7,2.8,0.2c0.3-0.2,0.5-0.4,0.6-0.8h2.1c-0.2,0.9-0.8,1.7-1.5,2.2
		c-0.8,0.5-1.6,0.7-2.5,0.7c-0.6,0-1.3-0.1-1.9-0.3c-0.5-0.2-1-0.5-1.4-0.9c-0.4-0.4-0.7-0.9-0.9-1.4c-0.2-0.6-0.3-1.2-0.3-1.8
		c0-0.6,0.1-1.2,0.3-1.8c0.4-1.1,1.2-2,2.3-2.4c0.6-0.2,1.2-0.4,1.8-0.4c0.7,0,1.3,0.1,1.9,0.4c0.5,0.3,1,0.7,1.3,1.2
		c0.4,0.5,0.6,1,0.8,1.6c0.2,0.6,0.2,1.3,0.2,1.9h-6.2C96.4,35.6,96.6,36.2,97,36.6z M99.7,32.1c-0.3-0.3-0.8-0.5-1.3-0.5
		c-0.3,0-0.7,0.1-1,0.2c-0.2,0.1-0.4,0.3-0.6,0.5c-0.1,0.2-0.3,0.4-0.3,0.6c-0.1,0.2-0.1,0.4-0.1,0.6h3.9
		C100.2,33,100,32.5,99.7,32.1L99.7,32.1z"/>
	<path class="st0" d="M108.2,31.6c-0.3,0-0.7,0.1-1,0.3c-0.3,0.2-0.5,0.4-0.6,0.7c-0.2,0.3-0.3,0.6-0.3,0.9c-0.1,0.3-0.1,0.7-0.1,1
		c0,0.3,0,0.6,0.1,1c0.1,0.3,0.2,0.6,0.3,0.9c0.2,0.3,0.4,0.5,0.6,0.6c0.3,0.2,0.6,0.3,0.9,0.3c0.5,0,1-0.1,1.3-0.5
		c0.3-0.4,0.5-0.8,0.6-1.3h2.3c-0.1,1-0.6,2-1.3,2.6c-0.8,0.6-1.8,0.9-2.8,0.9c-0.6,0-1.2-0.1-1.8-0.3c-0.5-0.2-1-0.5-1.4-0.9
		c-0.4-0.4-0.7-0.9-0.9-1.4c-0.2-0.6-0.3-1.2-0.3-1.8c0-0.6,0.1-1.3,0.3-1.9c0.2-0.6,0.5-1.1,0.9-1.5c0.4-0.4,0.9-0.7,1.4-0.9
		c0.6-0.2,1.2-0.4,1.9-0.4c0.5,0,1,0.1,1.5,0.2c0.5,0.1,0.9,0.3,1.3,0.6c0.4,0.3,0.7,0.6,0.9,1c0.2,0.4,0.4,0.9,0.4,1.4H110
		c-0.1-0.9-0.8-1.6-1.7-1.5C108.3,31.6,108.3,31.6,108.2,31.6z"/>
	<path class="st0" d="M113.8,28.7v-2h2.4v2H113.8z M116.2,30v8.7h-2.4V30H116.2z"/>
	<path class="st0" d="M118,32.7c0-0.5,0.2-1,0.4-1.4c0.2-0.4,0.6-0.7,1-0.9c0.4-0.2,0.8-0.4,1.3-0.5c0.5-0.1,1-0.1,1.4-0.1
		c0.4,0,0.9,0,1.3,0.1c0.4,0.1,0.8,0.2,1.2,0.4c0.4,0.2,0.7,0.4,0.9,0.8c0.3,0.4,0.4,0.8,0.4,1.3v4.5c0,0.4,0,0.8,0.1,1.1
		c0,0.3,0.1,0.5,0.2,0.8h-2.4c0-0.1-0.1-0.3-0.1-0.4c0-0.1-0.1-0.3-0.1-0.4c-0.4,0.4-0.8,0.7-1.3,0.9c-0.5,0.2-1,0.2-1.6,0.2
		c-0.4,0-0.8,0-1.2-0.2c-0.3-0.1-0.7-0.3-0.9-0.5c-0.3-0.2-0.5-0.5-0.6-0.8c-0.2-0.4-0.2-0.8-0.2-1.2c0-0.4,0.1-0.8,0.3-1.2
		c0.2-0.3,0.4-0.6,0.7-0.8c0.3-0.2,0.6-0.3,0.9-0.4c0.4-0.1,0.7-0.2,1.1-0.2c0.4-0.1,0.7-0.1,1.1-0.1c0.3,0,0.6-0.1,0.9-0.2
		c0.2,0,0.5-0.1,0.6-0.3c0.2-0.1,0.2-0.4,0.2-0.6c0-0.2,0-0.4-0.1-0.6c-0.1-0.1-0.2-0.3-0.3-0.4c-0.2-0.1-0.3-0.1-0.5-0.2
		c-0.2,0-0.4,0-0.6,0c-0.4,0-0.8,0.1-1.1,0.3c-0.3,0.3-0.5,0.6-0.5,1L118,32.7z M123.5,34.5c-0.1,0.1-0.2,0.2-0.4,0.2
		c-0.2,0.1-0.3,0.1-0.5,0.1l-0.5,0.1l-0.6,0.1c-0.2,0-0.4,0.1-0.5,0.1c-0.2,0.1-0.3,0.1-0.4,0.2c-0.1,0.1-0.2,0.2-0.3,0.4
		c-0.2,0.3-0.2,0.7,0,1.1c0.1,0.1,0.2,0.3,0.3,0.3c0.1,0.1,0.3,0.1,0.5,0.2c0.2,0,0.4,0.1,0.5,0.1c0.4,0,0.8-0.1,1.1-0.2
		c0.2-0.1,0.4-0.3,0.6-0.6c0.1-0.2,0.2-0.4,0.2-0.7c0-0.2,0-0.4,0-0.5V34.5z"/>
	<path class="st0" d="M130.2,26.7v12h-2.4v-12H130.2z"/>
	<path class="st0" d="M132.1,28.7v-2h2.4v2H132.1z M134.5,30v8.7h-2.4V30H134.5z"/>
	<path class="st0" d="M138.4,36.6c0.1,0.2,0.2,0.3,0.4,0.5c0.2,0.1,0.4,0.2,0.6,0.3c0.2,0.1,0.4,0.1,0.7,0.1c0.2,0,0.4,0,0.5-0.1
		c0.2,0,0.3-0.1,0.5-0.2c0.2-0.1,0.3-0.2,0.4-0.3c0.1-0.2,0.2-0.3,0.2-0.5c0-0.4-0.2-0.6-0.7-0.8c-0.6-0.2-1.3-0.4-2-0.5
		c-0.3-0.1-0.7-0.2-1-0.3c-0.3-0.1-0.6-0.2-0.9-0.4c-0.3-0.2-0.5-0.4-0.6-0.7c-0.2-0.3-0.2-0.6-0.2-1c0-0.5,0.1-1,0.3-1.4
		c0.2-0.4,0.5-0.6,0.9-0.9c0.4-0.2,0.8-0.4,1.2-0.4c0.5-0.1,0.9-0.1,1.4-0.1c0.5,0,0.9,0,1.4,0.1c0.4,0.1,0.8,0.2,1.2,0.5
		c0.3,0.2,0.6,0.5,0.9,0.8c0.2,0.4,0.4,0.9,0.4,1.4h-2.3c0-0.4-0.2-0.7-0.5-0.9c-0.3-0.2-0.7-0.3-1.1-0.2h-0.4
		c-0.1,0-0.3,0.1-0.4,0.1c-0.1,0.1-0.2,0.1-0.3,0.2c-0.1,0.1-0.1,0.3-0.1,0.4c0,0.2,0.1,0.4,0.2,0.5c0.2,0.1,0.4,0.3,0.6,0.3
		c0.3,0.1,0.6,0.2,0.9,0.2c0.3,0.1,0.7,0.1,1,0.2c0.3,0.1,0.7,0.2,1,0.3c0.3,0.1,0.6,0.3,0.9,0.4c0.3,0.2,0.5,0.4,0.6,0.7
		c0.2,0.3,0.2,0.7,0.2,1c0,0.5-0.1,1-0.4,1.4c-0.2,0.4-0.5,0.7-0.9,0.9c-0.4,0.2-0.8,0.4-1.3,0.5c-0.5,0.1-1,0.1-1.4,0.1
		c-0.5,0-1-0.1-1.5-0.2c-0.5-0.1-0.9-0.3-1.3-0.5c-0.8-0.5-1.3-1.4-1.3-2.4h2.3C138.2,36.2,138.3,36.4,138.4,36.6z"/>
	<path class="st0" d="M150.2,30v1.6h-1.7v4.3c0,0.3,0,0.5,0.2,0.8c0.2,0.2,0.5,0.2,0.8,0.2h0.4l0.4-0.1v1.9c-0.2,0-0.4,0.1-0.7,0.1
		c-0.2,0-0.5,0-0.8,0c-0.4,0-0.7,0-1.1-0.1c-0.3,0-0.6-0.1-0.9-0.3c-0.3-0.1-0.5-0.4-0.6-0.6c-0.2-0.3-0.2-0.7-0.2-1.1v-5.1h-1.4V30
		h1.5v-2.6h2.4V30L150.2,30z"/>
	<path class="st0" d="M153.3,36.6c0.1,0.2,0.2,0.3,0.4,0.5c0.2,0.1,0.4,0.2,0.6,0.3c0.2,0.1,0.4,0.1,0.7,0.1c0.2,0,0.4,0,0.5-0.1
		c0.2,0,0.3-0.1,0.5-0.2c0.1-0.1,0.3-0.2,0.4-0.3c0.1-0.2,0.2-0.3,0.2-0.5c0-0.4-0.2-0.6-0.7-0.8c-0.6-0.2-1.3-0.4-2-0.5
		c-0.3-0.1-0.7-0.2-1-0.3c-0.3-0.1-0.6-0.2-0.9-0.4c-0.2-0.2-0.5-0.4-0.6-0.7c-0.2-0.3-0.2-0.6-0.2-1c0-0.5,0.1-1,0.3-1.4
		c0.2-0.4,0.5-0.6,0.9-0.9c0.4-0.2,0.8-0.4,1.2-0.4c0.5-0.1,0.9-0.1,1.4-0.1c0.5,0,0.9,0,1.4,0.1c0.4,0.1,0.8,0.2,1.2,0.5
		c0.3,0.2,0.6,0.5,0.9,0.8c0.2,0.4,0.4,0.9,0.4,1.3h-2.3c0-0.4-0.2-0.7-0.5-0.9c-0.3-0.2-0.7-0.3-1.1-0.2h-0.4c-0.1,0-0.3,0-0.4,0.1
		c-0.1,0.1-0.2,0.1-0.3,0.2c-0.1,0.1-0.1,0.3-0.1,0.4c0,0.2,0.1,0.4,0.2,0.5c0.2,0.1,0.4,0.3,0.6,0.3c0.3,0.1,0.6,0.2,0.9,0.2
		c0.3,0.1,0.7,0.1,1,0.2c0.3,0.1,0.7,0.2,1,0.3c0.3,0.1,0.6,0.3,0.9,0.4c0.3,0.2,0.5,0.4,0.6,0.7c0.2,0.3,0.2,0.7,0.2,1
		c0,1-0.4,1.9-1.2,2.4c-0.4,0.2-0.8,0.4-1.3,0.5c-0.5,0.1-1,0.1-1.5,0.1c-0.5,0-1-0.1-1.5-0.2c-0.5-0.1-0.9-0.3-1.3-0.5
		c-0.4-0.2-0.7-0.6-0.9-0.9c-0.3-0.4-0.4-0.9-0.4-1.5h2.3C153.1,36.1,153.2,36.4,153.3,36.6z"/>
	<path class="st0" d="M159.7,30c0-0.1,0.1-0.2,0.2-0.3c0.1-0.1,0.2-0.1,0.3-0.2c0.1,0,0.2-0.1,0.3-0.1c0.1,0,0.2,0,0.3,0.1
		c0.1,0,0.2,0.1,0.3,0.2c0.1,0.1,0.1,0.2,0.2,0.3c0,0.1,0.1,0.2,0.1,0.3c0,0.1,0,0.2-0.1,0.4c0,0.1-0.1,0.2-0.2,0.3
		c-0.1,0.1-0.2,0.1-0.3,0.2c-0.1,0-0.2,0.1-0.3,0.1c-0.1,0-0.2,0-0.3-0.1c-0.1,0-0.2-0.1-0.3-0.2c-0.1-0.1-0.1-0.2-0.2-0.3
		c0-0.1-0.1-0.2-0.1-0.4C159.7,30.2,159.7,30.1,159.7,30z M159.9,30.6c0,0.1,0.1,0.1,0.1,0.2c0.1,0.1,0.1,0.1,0.2,0.1
		c0.1,0,0.2,0.1,0.3,0.1c0.1,0,0.2,0,0.2-0.1c0.1,0,0.1-0.1,0.2-0.1c0.1-0.1,0.1-0.1,0.1-0.2c0-0.1,0-0.2,0-0.3c0-0.1,0-0.2,0-0.3
		c0-0.1-0.1-0.1-0.1-0.2c-0.1-0.1-0.1-0.1-0.2-0.1c-0.2-0.1-0.3-0.1-0.5,0c-0.1,0-0.1,0.1-0.2,0.1c-0.1,0.1-0.1,0.1-0.1,0.2
		c0,0.1,0,0.2,0,0.3C159.9,30.4,159.9,30.5,159.9,30.6L159.9,30.6z"/>
	<path class="st0" d="M160.4,30.4L160.4,30.4c0,0,0,0.1,0,0.1c0,0,0,0,0.1,0c0,0,0.1,0,0.1,0c0,0,0-0.1,0-0.1v-0.6h0.2v0.6
		c0,0.1,0,0.1,0,0.2c-0.1,0.1-0.1,0.1-0.2,0.1c-0.1,0-0.2,0-0.2-0.1c0-0.1-0.1-0.2-0.1-0.2l0,0H160.4z"/>
</g>
</svg>
