<svg id="Layer_1" data-name="Layer 1" xmlns="http://www.w3.org/2000/svg" viewBox="0 0 200 50"><defs><style>.cls-1{fill:#7c7c7c;}</style></defs><path class="cls-1" d="M51.52,3H18.64a1.79,1.79,0,0,0-1.78,1.79V28.54a1.79,1.79,0,0,0,0,.23s0,.08,0,.12a1.09,1.09,0,0,0,.05.17c0,.05,0,.11.05.17l.06.1a2.25,2.25,0,0,0,.12.21h0l0,.05a2.25,2.25,0,0,0,.21.24l.11.08a1.07,1.07,0,0,0,.22.15l.11.06a1.48,1.48,0,0,0,.27.1l.1,0a1.74,1.74,0,0,0,.39,0H51.52a1.78,1.78,0,0,0,1.78-1.79V4.79A1.78,1.78,0,0,0,51.52,3ZM49.73,26.74H24.27L44.82,12.25a1.79,1.79,0,1,0-2.06-2.92L20.43,25.08V6.57h29.3Z"/><path class="cls-1" d="M51.52,33.19H18.64a1.79,1.79,0,0,0,0,3.57H51.52a1.79,1.79,0,0,0,0-3.57Z"/><path class="cls-1" d="M41.32,39.64H18.64a1.79,1.79,0,0,0,0,3.57H41.32a1.79,1.79,0,0,0,0-3.57Z"/><path class="cls-1" d="M70.58,18.59a2.53,2.53,0,0,0,.76.89,3.15,3.15,0,0,0,1.11.51,5.3,5.3,0,0,0,1.32.16,5.82,5.82,0,0,0,1-.08,3.45,3.45,0,0,0,1-.29,2.23,2.23,0,0,0,.78-.61,1.55,1.55,0,0,0,.3-1,1.37,1.37,0,0,0-.4-1,3.32,3.32,0,0,0-1.07-.67,11.16,11.16,0,0,0-1.5-.46c-.56-.13-1.12-.28-1.7-.44a16.19,16.19,0,0,1-1.71-.54,6,6,0,0,1-1.5-.82,3.72,3.72,0,0,1-1.48-3.11A4,4,0,0,1,68,9a4.7,4.7,0,0,1,1.35-1.49,5.81,5.81,0,0,1,1.9-.88,8.07,8.07,0,0,1,2.11-.29,9.62,9.62,0,0,1,2.37.28,5.87,5.87,0,0,1,2,.89,4.6,4.6,0,0,1,1.4,1.57,4.92,4.92,0,0,1,.51,2.33H76.31a2.79,2.79,0,0,0-.3-1.17,2,2,0,0,0-.67-.73,2.91,2.91,0,0,0-1-.37,6.15,6.15,0,0,0-1.18-.11,4,4,0,0,0-.84.09,2.42,2.42,0,0,0-.76.3A2,2,0,0,0,71,10a1.45,1.45,0,0,0-.22.83,1.39,1.39,0,0,0,.18.75,1.54,1.54,0,0,0,.69.53,10,10,0,0,0,1.43.49l2.39.61c.3.06.7.17,1.22.32a6,6,0,0,1,1.56.74,4.76,4.76,0,0,1,1.33,1.35,3.83,3.83,0,0,1,.56,2.17,4.83,4.83,0,0,1-.42,2,4.36,4.36,0,0,1-1.24,1.6,6.08,6.08,0,0,1-2,1,9.64,9.64,0,0,1-2.83.38,10,10,0,0,1-2.52-.32,6.5,6.5,0,0,1-2.16-1,5,5,0,0,1-1.49-1.75,5.2,5.2,0,0,1-.53-2.51h3.35A2.93,2.93,0,0,0,70.58,18.59Z"/><path class="cls-1" d="M88.16,11.08v2.09H85.87v5.64a1.48,1.48,0,0,0,.26,1.05,1.52,1.52,0,0,0,1.06.27l.5,0,.47-.07v2.42a5.81,5.81,0,0,1-.88.09c-.33,0-.64,0-1,0A10,10,0,0,1,85,22.48a3.34,3.34,0,0,1-1.14-.39,2.05,2.05,0,0,1-.79-.81,3,3,0,0,1-.28-1.39V13.17h-1.9V11.08h1.9V7.66h3.13v3.42Z"/><path class="cls-1" d="M89.72,14.3a5.39,5.39,0,0,1,1.19-1.89,5.22,5.22,0,0,1,1.85-1.21,6.44,6.44,0,0,1,2.42-.43,6.54,6.54,0,0,1,2.44.43,5.17,5.17,0,0,1,1.86,1.21,5.39,5.39,0,0,1,1.19,1.89,7,7,0,0,1,.42,2.48,6.92,6.92,0,0,1-.42,2.47,5.44,5.44,0,0,1-1.19,1.88,5.15,5.15,0,0,1-1.86,1.2,6.75,6.75,0,0,1-2.44.42,6.64,6.64,0,0,1-2.42-.42,5.19,5.19,0,0,1-1.85-1.2,5.44,5.44,0,0,1-1.19-1.88,6.92,6.92,0,0,1-.42-2.47A7,7,0,0,1,89.72,14.3Zm2.84,3.81A3.57,3.57,0,0,0,93,19.28a2.5,2.5,0,0,0,.85.83,2.66,2.66,0,0,0,1.32.31,2.74,2.74,0,0,0,1.34-.31,2.44,2.44,0,0,0,.86-.83,3.57,3.57,0,0,0,.45-1.17A6.45,6.45,0,0,0,98,16.78a6.69,6.69,0,0,0-.13-1.34,3.57,3.57,0,0,0-.45-1.17,2.44,2.44,0,0,0-2.2-1.15,2.55,2.55,0,0,0-1.32.32,2.7,2.7,0,0,0-.85.83,3.57,3.57,0,0,0-.45,1.17,6.69,6.69,0,0,0-.13,1.34A6.45,6.45,0,0,0,92.56,18.11Z"/><path class="cls-1" d="M105.53,11.08v2.11h0a3.66,3.66,0,0,1,.59-1,3.93,3.93,0,0,1,.86-.77,4.34,4.34,0,0,1,1-.5,3.93,3.93,0,0,1,1.14-.17,2.19,2.19,0,0,1,.68.11v2.9l-.52-.07c-.21,0-.41,0-.6,0a3.31,3.31,0,0,0-1.45.29,2.47,2.47,0,0,0-1,.78,3.15,3.15,0,0,0-.52,1.16,6.47,6.47,0,0,0-.15,1.43v5.13h-3.13V11.08Z"/><path class="cls-1" d="M115.89,25.86a4.59,4.59,0,0,1-2.51.59q-.48,0-1,0l-1-.08V23.76l.91.09a5.63,5.63,0,0,0,.92,0,1.21,1.21,0,0,0,.92-.48,1.63,1.63,0,0,0,.29-.93,1.82,1.82,0,0,0-.13-.7l-4-10.68h3.33l2.58,7.79h0l2.49-7.79h3.24L117.3,23.87A3.89,3.89,0,0,1,115.89,25.86Z"/><path class="cls-1" d="M126.24,6.74v5.72h.05a3.44,3.44,0,0,1,1.55-1.29,5.33,5.33,0,0,1,2-.4,4.28,4.28,0,0,1,1.7.35,4.19,4.19,0,0,1,1.5,1.08,5.43,5.43,0,0,1,1.1,1.86,8.07,8.07,0,0,1,.41,2.7,8.07,8.07,0,0,1-.41,2.7,5.63,5.63,0,0,1-1.1,1.86,4.29,4.29,0,0,1-3.2,1.43,5.9,5.9,0,0,1-2.25-.4,2.85,2.85,0,0,1-1.5-1.34h0v1.45h-3V6.74Zm5.07,8.65a3.46,3.46,0,0,0-.48-1.16,2.57,2.57,0,0,0-.83-.81,2.53,2.53,0,0,0-2.39,0,2.5,2.5,0,0,0-.84.81,3.46,3.46,0,0,0-.48,1.16,6.3,6.3,0,0,0-.16,1.39,6.19,6.19,0,0,0,.16,1.37,3.46,3.46,0,0,0,.48,1.16,2.5,2.5,0,0,0,.84.81,2.53,2.53,0,0,0,2.39,0,2.57,2.57,0,0,0,.83-.81,3.46,3.46,0,0,0,.48-1.16,6.19,6.19,0,0,0,.16-1.37A6.3,6.3,0,0,0,131.31,15.39Z"/><path class="cls-1" d="M136.09,14.3a5.21,5.21,0,0,1,3-3.1,7.05,7.05,0,0,1,4.85,0,5.3,5.3,0,0,1,1.87,1.21A5.39,5.39,0,0,1,147,14.3a7.68,7.68,0,0,1,0,4.95,5.44,5.44,0,0,1-1.19,1.88,5.28,5.28,0,0,1-1.87,1.2,7.21,7.21,0,0,1-4.85,0,5.19,5.19,0,0,1-1.85-1.2,5.29,5.29,0,0,1-1.19-1.88,6.92,6.92,0,0,1-.42-2.47A7,7,0,0,1,136.09,14.3Zm2.84,3.81a3.57,3.57,0,0,0,.45,1.17,2.41,2.41,0,0,0,.85.83,2.63,2.63,0,0,0,1.32.31,2.7,2.7,0,0,0,1.33-.31,2.36,2.36,0,0,0,.86-.83,3.36,3.36,0,0,0,.45-1.17,6.45,6.45,0,0,0,.14-1.33,6.7,6.7,0,0,0-.14-1.34,3.36,3.36,0,0,0-.45-1.17,2.53,2.53,0,0,0-.86-.83,2.59,2.59,0,0,0-1.33-.32,2.53,2.53,0,0,0-1.32.32,2.6,2.6,0,0,0-.85.83,3.57,3.57,0,0,0-.45,1.17,6.69,6.69,0,0,0-.13,1.34A6.45,6.45,0,0,0,138.93,18.11Z"/><path class="cls-1" d="M149.35,14.58a3.6,3.6,0,0,1,.55-1.83,3.82,3.82,0,0,1,1.23-1.17,5.58,5.58,0,0,1,1.69-.63,9.9,9.9,0,0,1,1.88-.18,12.94,12.94,0,0,1,1.74.12,5.39,5.39,0,0,1,1.61.47,3.25,3.25,0,0,1,1.19,1A2.74,2.74,0,0,1,159.7,14v5.93a11.65,11.65,0,0,0,.09,1.48,2.57,2.57,0,0,0,.31,1.05h-3.17a4.26,4.26,0,0,1-.15-.54,5,5,0,0,1-.07-.56,4,4,0,0,1-1.77,1.08,6.88,6.88,0,0,1-2.07.31,5.7,5.7,0,0,1-1.52-.2,3.55,3.55,0,0,1-1.23-.61,3,3,0,0,1-.83-1.06,3.71,3.71,0,0,1-.29-1.52,3.3,3.3,0,0,1,.34-1.6,2.86,2.86,0,0,1,.88-1,3.84,3.84,0,0,1,1.23-.56,11.66,11.66,0,0,1,1.4-.3l1.39-.18a9.07,9.07,0,0,0,1.21-.19,2.19,2.19,0,0,0,.84-.39.84.84,0,0,0,.28-.74,1.65,1.65,0,0,0-.16-.8,1.22,1.22,0,0,0-.44-.46,1.69,1.69,0,0,0-.64-.23,6.26,6.26,0,0,0-.78-.05,2.37,2.37,0,0,0-1.46.4,1.73,1.73,0,0,0-.61,1.32Zm7.22,2.31a1.37,1.37,0,0,1-.49.28,5.44,5.44,0,0,1-.64.16c-.23.05-.47.08-.72.11l-.75.11a5.84,5.84,0,0,0-.69.18,1.73,1.73,0,0,0-.59.3,1.33,1.33,0,0,0-.41.47,1.55,1.55,0,0,0-.16.73,1.48,1.48,0,0,0,.16.7,1.14,1.14,0,0,0,.42.45,1.65,1.65,0,0,0,.61.23,3.54,3.54,0,0,0,.73.07,2.71,2.71,0,0,0,1.43-.31,2,2,0,0,0,.75-.74,2.38,2.38,0,0,0,.3-.87,5.15,5.15,0,0,0,0-.7Z"/><path class="cls-1" d="M165.1,11.08v2.11h0a4,4,0,0,1,.6-1,3.71,3.71,0,0,1,.86-.77,4.27,4.27,0,0,1,1-.5,4,4,0,0,1,1.15-.17,2.23,2.23,0,0,1,.68.11v2.9l-.53-.07c-.2,0-.4,0-.59,0a3.36,3.36,0,0,0-1.46.29,2.63,2.63,0,0,0-1,.78,3.13,3.13,0,0,0-.51,1.16,5.91,5.91,0,0,0-.16,1.43v5.13h-3.13V11.08Z"/><path class="cls-1" d="M178.38,21a3.18,3.18,0,0,1-1.44,1.33,5.28,5.28,0,0,1-4.26-.08,4.57,4.57,0,0,1-1.6-1.35,6.11,6.11,0,0,1-1-1.95,8.28,8.28,0,0,1-.32-2.29,7.77,7.77,0,0,1,.32-2.21,5.89,5.89,0,0,1,1-1.89,4.59,4.59,0,0,1,3.78-1.8,4.46,4.46,0,0,1,1.93.43,3.32,3.32,0,0,1,1.44,1.26h0V6.74h3.13V22.46h-3V21Zm-.13-5.63a3.4,3.4,0,0,0-.45-1.14,2.57,2.57,0,0,0-.83-.81,2.44,2.44,0,0,0-1.27-.31,2.58,2.58,0,0,0-1.3.31,2.39,2.39,0,0,0-.85.82,3.57,3.57,0,0,0-.47,1.15,6.75,6.75,0,0,0-.14,1.36,5.42,5.42,0,0,0,.16,1.32,3.55,3.55,0,0,0,.49,1.18,3,3,0,0,0,.86.84,2.37,2.37,0,0,0,1.25.32,2.5,2.5,0,0,0,1.28-.31,2.36,2.36,0,0,0,.83-.83,3.61,3.61,0,0,0,.44-1.18,7.18,7.18,0,0,0,0-2.72Z"/><path class="cls-1" d="M70.58,39.14a2.53,2.53,0,0,0,.76.89,3.14,3.14,0,0,0,1.11.5,5.31,5.31,0,0,0,1.32.17,7.06,7.06,0,0,0,1-.08,3.45,3.45,0,0,0,1-.29,2.23,2.23,0,0,0,.78-.61,1.55,1.55,0,0,0,.3-1,1.39,1.39,0,0,0-.4-1A3.48,3.48,0,0,0,75.36,37a11.16,11.16,0,0,0-1.5-.46c-.56-.13-1.12-.28-1.7-.44a16.19,16.19,0,0,1-1.71-.54,5.73,5.73,0,0,1-1.5-.83,3.69,3.69,0,0,1-1.48-3.1A4.1,4.1,0,0,1,68,29.56a4.67,4.67,0,0,1,1.35-1.48,5.81,5.81,0,0,1,1.9-.88,7.67,7.67,0,0,1,2.11-.29,10.13,10.13,0,0,1,2.37.27,6.08,6.08,0,0,1,2,.9,4.6,4.6,0,0,1,1.4,1.57A4.92,4.92,0,0,1,79.65,32H76.31a2.79,2.79,0,0,0-.3-1.17,2,2,0,0,0-.67-.73,2.91,2.91,0,0,0-1-.37,5.44,5.44,0,0,0-1.18-.11,4,4,0,0,0-.84.09,2.2,2.2,0,0,0-.76.3,2,2,0,0,0-.56.55,1.46,1.46,0,0,0-.22.84,1.39,1.39,0,0,0,.18.75,1.54,1.54,0,0,0,.69.53,9,9,0,0,0,1.43.48c.61.17,1.41.37,2.39.62.3.06.7.17,1.22.32a5.68,5.68,0,0,1,1.56.74,4.76,4.76,0,0,1,1.33,1.35,3.83,3.83,0,0,1,.56,2.17,4.83,4.83,0,0,1-.42,2,4.33,4.33,0,0,1-1.24,1.59,5.92,5.92,0,0,1-2,1.05,9.64,9.64,0,0,1-2.83.38,10,10,0,0,1-2.52-.32A6.33,6.33,0,0,1,69,42a4.84,4.84,0,0,1-1.49-1.74,5.2,5.2,0,0,1-.53-2.51h3.35A2.93,2.93,0,0,0,70.58,39.14Z"/><path class="cls-1" d="M84.87,31.62v1.46h0a3.47,3.47,0,0,1,1.45-1.35,4.48,4.48,0,0,1,1.94-.42,4.86,4.86,0,0,1,2.31.51,4.71,4.71,0,0,1,1.61,1.35,5.54,5.54,0,0,1,1,1.95,8.84,8.84,0,0,1,.31,2.32,8,8,0,0,1-.31,2.2,5.58,5.58,0,0,1-.94,1.87,4.57,4.57,0,0,1-1.56,1.3,4.65,4.65,0,0,1-2.19.49,4.36,4.36,0,0,1-1.95-.43,3.68,3.68,0,0,1-1.47-1.27h0V47H81.9V31.62Zm4.07,9a2.71,2.71,0,0,0,.84-.81,3.37,3.37,0,0,0,.45-1.15,6.79,6.79,0,0,0,.13-1.35A6.7,6.7,0,0,0,90.22,36a3.66,3.66,0,0,0-.48-1.18,2.62,2.62,0,0,0-.85-.84,2.36,2.36,0,0,0-1.26-.32,2.42,2.42,0,0,0-1.29.32,2.66,2.66,0,0,0-.84.83A3.48,3.48,0,0,0,85.05,36a6.87,6.87,0,0,0,0,2.71,3.6,3.6,0,0,0,.46,1.15,2.64,2.64,0,0,0,.85.81,2.9,2.9,0,0,0,2.57,0Z"/><path class="cls-1" d="M98.71,40.28a3.23,3.23,0,0,0,3.66.21,2,2,0,0,0,.83-1H106a5.26,5.26,0,0,1-2,2.93,5.93,5.93,0,0,1-3.3.88,6.46,6.46,0,0,1-2.43-.43,5.07,5.07,0,0,1-1.83-1.22,5.44,5.44,0,0,1-1.15-1.9,6.94,6.94,0,0,1-.41-2.42A6.62,6.62,0,0,1,95.23,35a5.46,5.46,0,0,1,3-3.17,5.86,5.86,0,0,1,2.37-.47,5.36,5.36,0,0,1,2.53.57,4.89,4.89,0,0,1,1.77,1.51,6.15,6.15,0,0,1,1,2.15,7.93,7.93,0,0,1,.22,2.54H97.94A3.13,3.13,0,0,0,98.71,40.28Zm3.53-6a2.18,2.18,0,0,0-1.7-.62,2.72,2.72,0,0,0-1.25.26,2.25,2.25,0,0,0-.79.62,2.29,2.29,0,0,0-.42.8,3.35,3.35,0,0,0-.14.75H103A3.58,3.58,0,0,0,102.24,34.29Z"/><path class="cls-1" d="M113.45,33.67a2.28,2.28,0,0,0-1.26.34,2.91,2.91,0,0,0-.83.88,4.07,4.07,0,0,0-.45,1.19,6.42,6.42,0,0,0-.13,1.29,6.13,6.13,0,0,0,.13,1.26,3.92,3.92,0,0,0,.43,1.16,2.5,2.5,0,0,0,.81.84,2.19,2.19,0,0,0,1.23.33,2.32,2.32,0,0,0,1.73-.62,3,3,0,0,0,.76-1.69h3a5.19,5.19,0,0,1-1.77,3.46,5.68,5.68,0,0,1-3.72,1.19,6.13,6.13,0,0,1-2.34-.43,5.25,5.25,0,0,1-1.82-1.2,5.46,5.46,0,0,1-1.17-1.84,6.34,6.34,0,0,1-.42-2.35A7.45,7.45,0,0,1,108,35a5.37,5.37,0,0,1,1.13-2A5.23,5.23,0,0,1,111,31.78a6.18,6.18,0,0,1,2.47-.47,7.06,7.06,0,0,1,2,.27,5.27,5.27,0,0,1,1.67.8,4.33,4.33,0,0,1,1.2,1.35,4.18,4.18,0,0,1,.53,1.9h-3.06A2.1,2.1,0,0,0,113.45,33.67Z"/><path class="cls-1" d="M120.74,29.86V27.28h3.13v2.58Zm3.13,1.76V43h-3.13V31.62Z"/><path class="cls-1" d="M126.2,35.13a3.6,3.6,0,0,1,.55-1.83A3.65,3.65,0,0,1,128,32.13a5.52,5.52,0,0,1,1.68-.63,9.91,9.91,0,0,1,1.88-.19,12.74,12.74,0,0,1,1.74.13,5.39,5.39,0,0,1,1.61.47,3.17,3.17,0,0,1,1.19,1,2.72,2.72,0,0,1,.46,1.66v5.93a11.77,11.77,0,0,0,.09,1.48,2.57,2.57,0,0,0,.31,1h-3.17a3.05,3.05,0,0,1-.14-.54,3.43,3.43,0,0,1-.08-.56A4.09,4.09,0,0,1,131.8,43a7,7,0,0,1-2.07.31,5.64,5.64,0,0,1-1.52-.2,3.37,3.37,0,0,1-1.24-.62,2.75,2.75,0,0,1-.82-1,3.58,3.58,0,0,1-.3-1.52,3.3,3.3,0,0,1,.34-1.6,2.86,2.86,0,0,1,.88-1,3.84,3.84,0,0,1,1.23-.56,11.66,11.66,0,0,1,1.4-.3c.47-.08.94-.13,1.39-.18a7.44,7.44,0,0,0,1.21-.2,2,2,0,0,0,.84-.38.89.89,0,0,0,.29-.74,1.61,1.61,0,0,0-.17-.8,1.25,1.25,0,0,0-.44-.47,1.79,1.79,0,0,0-.64-.22,6.26,6.26,0,0,0-.78-.05,2.38,2.38,0,0,0-1.45.39,1.77,1.77,0,0,0-.62,1.33Zm7.23,2.31a1.34,1.34,0,0,1-.5.27,4,4,0,0,1-.64.17l-.71.11-.75.11a4.23,4.23,0,0,0-.7.18,2.16,2.16,0,0,0-.59.29,1.46,1.46,0,0,0-.41.48,1.78,1.78,0,0,0,0,1.43,1.14,1.14,0,0,0,.42.45,1.7,1.7,0,0,0,.62.23,3.38,3.38,0,0,0,.72.07,2.75,2.75,0,0,0,1.44-.31,2.09,2.09,0,0,0,.74-.74,2.2,2.2,0,0,0,.3-.87,5.47,5.47,0,0,0,.06-.7Z"/><path class="cls-1" d="M142.19,27.28V43h-3.12V27.28Z"/><path class="cls-1" d="M144.75,29.86V27.28h3.13v2.58Zm3.13,1.76V43h-3.13V31.62Z"/><path class="cls-1" d="M153,40.18a1.94,1.94,0,0,0,.54.6,2.29,2.29,0,0,0,.76.34,3.68,3.68,0,0,0,.89.11,3.4,3.4,0,0,0,.69-.08,2.36,2.36,0,0,0,.66-.24,1.52,1.52,0,0,0,.5-.44,1.2,1.2,0,0,0,.2-.7c0-.47-.31-.82-.94-1.05a18.27,18.27,0,0,0-2.61-.71c-.45-.1-.9-.22-1.33-.36a4.44,4.44,0,0,1-1.16-.55,2.66,2.66,0,0,1-.81-.86,2.42,2.42,0,0,1-.31-1.27,3.38,3.38,0,0,1,.43-1.8,3.19,3.19,0,0,1,1.13-1.12,5,5,0,0,1,1.59-.57,9.8,9.8,0,0,1,1.8-.17,8.86,8.86,0,0,1,1.8.18,4.73,4.73,0,0,1,1.55.6,3.55,3.55,0,0,1,1.14,1.11A3.77,3.77,0,0,1,160,35h-3a1.36,1.36,0,0,0-.68-1.22,3,3,0,0,0-1.45-.32l-.58,0a2,2,0,0,0-.56.14,1.24,1.24,0,0,0-.43.32.84.84,0,0,0-.17.57.88.88,0,0,0,.3.68,2.58,2.58,0,0,0,.81.43,10.72,10.72,0,0,0,1.13.3c.43.08.86.18,1.3.28a12.08,12.08,0,0,1,1.34.38,4.28,4.28,0,0,1,1.15.58,2.83,2.83,0,0,1,.82.9,2.74,2.74,0,0,1,.31,1.34,3.66,3.66,0,0,1-.46,1.88,3.54,3.54,0,0,1-1.18,1.22,4.61,4.61,0,0,1-1.66.65,9.28,9.28,0,0,1-1.9.19,9.6,9.6,0,0,1-1.94-.2,5.06,5.06,0,0,1-1.69-.66,3.63,3.63,0,0,1-1.73-3.13h3A1.7,1.7,0,0,0,153,40.18Z"/><path class="cls-1" d="M168.43,31.62v2.1h-2.29v5.64a1.55,1.55,0,0,0,.26,1,1.52,1.52,0,0,0,1.06.27l.51,0,.46-.07V43a5.68,5.68,0,0,1-.88.09c-.32,0-.64,0-1,0a8.79,8.79,0,0,1-1.38-.1,3.13,3.13,0,0,1-1.14-.38,2,2,0,0,1-.78-.82,2.89,2.89,0,0,1-.29-1.38V33.72h-1.89v-2.1H163V28.21h3.13v3.41Z"/><path class="cls-1" d="M172.56,40.18a1.94,1.94,0,0,0,.54.6,2.29,2.29,0,0,0,.76.34,3.74,3.74,0,0,0,.89.11,3.58,3.58,0,0,0,.7-.08,2.36,2.36,0,0,0,.66-.24,1.48,1.48,0,0,0,.49-.44,1.2,1.2,0,0,0,.2-.7c0-.47-.31-.82-.94-1.05a18.27,18.27,0,0,0-2.61-.71c-.45-.1-.9-.22-1.33-.36a4.6,4.6,0,0,1-1.16-.55,2.89,2.89,0,0,1-.81-.86,2.42,2.42,0,0,1-.31-1.27,3.38,3.38,0,0,1,.43-1.8,3.22,3.22,0,0,1,1.14-1.12,5,5,0,0,1,1.58-.57,9.83,9.83,0,0,1,1.81-.17,8.84,8.84,0,0,1,1.79.18,4.87,4.87,0,0,1,1.56.6,3.62,3.62,0,0,1,1.13,1.11,3.77,3.77,0,0,1,.54,1.75h-3a1.38,1.38,0,0,0-.69-1.22,3,3,0,0,0-1.45-.32l-.57,0a1.84,1.84,0,0,0-.56.14,1.16,1.16,0,0,0-.43.32.85.85,0,0,0-.18.57.86.86,0,0,0,.31.68,2.41,2.41,0,0,0,.8.43,10.31,10.31,0,0,0,1.14.3c.42.08.86.18,1.3.28a11.92,11.92,0,0,1,1.33.38,4.35,4.35,0,0,1,1.16.58,2.92,2.92,0,0,1,.81.9,2.63,2.63,0,0,1,.31,1.34,3.44,3.44,0,0,1-1.63,3.1,4.76,4.76,0,0,1-1.66.65,9.37,9.37,0,0,1-1.91.19,9.6,9.6,0,0,1-1.94-.2,5,5,0,0,1-1.68-.66,3.84,3.84,0,0,1-1.22-1.22,3.9,3.9,0,0,1-.51-1.91h3A1.7,1.7,0,0,0,172.56,40.18Z"/><path class="cls-1" d="M181,31.55a1.07,1.07,0,0,1,.25-.34,1,1,0,0,1,.36-.22,1.26,1.26,0,0,1,.43-.08,1.2,1.2,0,0,1,.42.08,1,1,0,0,1,.36.22,1.07,1.07,0,0,1,.25.34,1.13,1.13,0,0,1,.09.45,1.14,1.14,0,0,1-.09.46,1.07,1.07,0,0,1-.25.34,1,1,0,0,1-.36.22,1.2,1.2,0,0,1-.42.08,1.26,1.26,0,0,1-.43-.08,1,1,0,0,1-.36-.22,1.07,1.07,0,0,1-.25-.34,1.14,1.14,0,0,1-.09-.46A1.13,1.13,0,0,1,181,31.55Zm.27.8a1.06,1.06,0,0,0,.18.27.68.68,0,0,0,.26.18.72.72,0,0,0,.33.07.71.71,0,0,0,.32-.07.76.76,0,0,0,.26-.18,1.06,1.06,0,0,0,.18-.27,1,1,0,0,0,.06-.35.93.93,0,0,0-.06-.34.91.91,0,0,0-.18-.27.76.76,0,0,0-.26-.18.79.79,0,0,0-.65,0,.68.68,0,0,0-.26.18.91.91,0,0,0-.18.27.93.93,0,0,0-.06.34A1,1,0,0,0,181.25,32.35Z"/><path class="cls-1" d="M181.85,32.09v0a.44.44,0,0,0,0,.19s.05.05.1.05a.11.11,0,0,0,.11-.06.27.27,0,0,0,0-.11v-.81h.24v.8a.54.54,0,0,1,0,.24.34.34,0,0,1-.31.14.32.32,0,0,1-.29-.12.58.58,0,0,1-.08-.32v0Z"/></svg>