<?xml version="1.0" encoding="utf-8"?>
<!-- Generator: Adobe Illustrator 24.2.3, SVG Export Plug-In . SVG Version: 6.00 Build 0)  -->
<svg version="1.1" id="Layer_3" xmlns="http://www.w3.org/2000/svg" xmlns:xlink="http://www.w3.org/1999/xlink" x="0px" y="0px"
	 viewBox="0 0 200 50" style="enable-background:new 0 0 200 50;" xml:space="preserve">
<style type="text/css">
	.st0{fill:#7C7C7C;}
</style>
<g>
	<g>
		<path class="st0" d="M100.9,13.3h-3.4v-1.9h9.7v1.9h-3.4v13h-2.8V13.3z"/>
		<path class="st0" d="M116.2,19.3h-4.7v5.1h5.4l-0.4,1.8h-7.8V11.4h7.8v1.9h-5v4.2h4.7V19.3z"/>
		<path class="st0" d="M121.7,22l-0.9,4.3H118l3.4-14.9h4l3.6,14.9h-3l-0.9-4.3H121.7z M124.8,20.2c-0.6-2.8-1.1-5.3-1.3-6.9h-0.1
			c-0.1,1.2-0.8,4.5-1.3,6.9H124.8z"/>
		<path class="st0" d="M141.4,20.5c0-2.6,0.1-5.7,0.1-7.3h0c-0.5,2.5-1.9,8.8-2.9,13.2h-2.7c-0.8-3.9-2.1-10.5-2.6-13.2h-0.1
			c0.1,1.7,0.2,5.1,0.2,7.7v5.5h-2.6V11.4h4.2c1,4,2,8.8,2.3,10.8h0c0.3-2,1.7-7,2.7-10.8h4.1v14.9h-2.7V20.5z"/>
	</g>
	<g>
		<path class="st0" d="M104,39.2v0.5c0,1.8-0.3,4-3.3,4c-2.7,0-3.3-1.8-3.3-4v-7.5c0-2.3,1.1-3.8,3.3-3.8c2.7,0,3.2,1.8,3.2,3.8V33
			h-2v-0.8c0-1.1-0.2-1.8-1.2-1.8c-0.9,0-1.2,0.7-1.2,1.8V40c0,1.2,0.3,2,1.2,2c1,0,1.2-0.8,1.2-2v-0.7H104z"/>
		<path class="st0" d="M111.8,35.6v4.6c0,2.5-1.2,3.7-3.3,3.7c-2.1,0-3.2-1.2-3.2-3.6v-4.7c0-2.4,1.3-3.5,3.3-3.5
			C110.7,32,111.8,33.2,111.8,35.6z M107.4,35.5v4.8c0,1.1,0.3,1.8,1.2,1.8c0.8,0,1.2-0.6,1.2-1.8v-4.7c0-1-0.3-1.7-1.2-1.7
			C107.7,33.8,107.4,34.4,107.4,35.5z"/>
		<path class="st0" d="M120,40.4c0,1.6,0,2.7,0,3.2H118c0-0.2-0.1-0.8-0.1-1.1c-0.4,1-1.2,1.3-2.1,1.3c-1,0-2.3-0.5-2.3-3v-8.7h2
			v8.2c0,1.2,0.3,1.7,1.1,1.7c0.8,0,1.3-0.5,1.3-2.3v-7.6h2V40.4z"/>
		<path class="st0" d="M122,35.7c0-2.3,0-3,0-3.5h1.9c0,0.3,0.1,0.7,0.1,1.1c0.3-0.7,1-1.3,2.1-1.3c1.4,0,2.4,0.8,2.4,2.9v8.7h-2
			v-8.3c0-1.1-0.4-1.5-1.1-1.5c-0.9,0-1.3,0.5-1.3,2.3v7.6h-2V35.7z"/>
		<path class="st0" d="M136.3,39.9V40c0,2-0.5,3.8-3.1,3.8c-2.5,0-3-1.7-3-4v-4.1c0-1.9,0.7-3.6,3.1-3.6c2.7,0,3,1.9,3,3.4v0.4h-2
			v-0.4c0-0.9-0.2-1.7-1-1.7c-0.8,0-1.1,0.6-1.1,1.7v4.9c0,0.9,0.2,1.8,1,1.8c0.8,0,1-0.6,1-1.7v-0.5H136.3z"/>
		<path class="st0" d="M137.9,32.2h2v11.5h-2V32.2z M137.9,28.1h2v2.4h-2V28.1z"/>
		<path class="st0" d="M141.9,43.6V28.1h2v15.5H141.9z"/>
	</g>
	<g>
		<path class="st0" d="M145.5,28.7c0-0.1,0.1-0.2,0.2-0.3c0.1-0.1,0.2-0.1,0.3-0.2c0.1,0,0.2-0.1,0.3-0.1s0.2,0,0.3,0.1
			c0.1,0,0.2,0.1,0.3,0.2c0.1,0.1,0.1,0.2,0.2,0.3c0,0.1,0.1,0.2,0.1,0.3c0,0.1,0,0.2-0.1,0.3c0,0.1-0.1,0.2-0.2,0.3
			s-0.2,0.1-0.3,0.2c-0.1,0-0.2,0.1-0.3,0.1s-0.2,0-0.3-0.1c-0.1,0-0.2-0.1-0.3-0.2c-0.1-0.1-0.1-0.2-0.2-0.3c0-0.1-0.1-0.2-0.1-0.3
			C145.4,28.9,145.5,28.8,145.5,28.7z M145.7,29.3c0,0.1,0.1,0.2,0.1,0.2c0.1,0.1,0.1,0.1,0.2,0.1c0.1,0,0.2,0,0.2,0
			c0.1,0,0.2,0,0.2,0c0.1,0,0.1-0.1,0.2-0.1c0.1-0.1,0.1-0.1,0.1-0.2c0-0.1,0.1-0.2,0.1-0.3s0-0.2-0.1-0.3c0-0.1-0.1-0.1-0.1-0.2
			c-0.1-0.1-0.1-0.1-0.2-0.1c-0.1,0-0.2,0-0.2,0c-0.1,0-0.2,0-0.2,0c-0.1,0-0.1,0.1-0.2,0.1c-0.1,0.1-0.1,0.1-0.1,0.2s0,0.2,0,0.3
			S145.7,29.2,145.7,29.3z"/>
		<g>
			<path class="st0" d="M146.2,29.1L146.2,29.1c0,0.1,0,0.1,0,0.2c0,0,0,0,0.1,0c0,0,0.1,0,0.1,0c0,0,0,0,0-0.1v-0.6h0.2v0.6
				c0,0.1,0,0.1,0,0.2c0,0.1-0.1,0.1-0.2,0.1c-0.1,0-0.2,0-0.2-0.1c0-0.1-0.1-0.1-0.1-0.2v0H146.2z"/>
		</g>
	</g>
	<g>
		<path class="st0" d="M79.5,21.7c0-1.8-1.3-3.2-3.1-3.2c-2.8,0-5.7,0-8.5,0c-1.7,0-3.1,1.4-3.1,3.1c0,2.6,0,5.2,0,7.8
			c0,0.1,0,0.3,0,0.4c0.2,1.3,0.7,2.1,2,2.2c0.5,0.1,0.6,0.2,0.6,0.7c0,2.3,0.5,5.7,0.5,8c0,0.2,0,0.4,0,0.6
			c0.1,1.2,1.3,2.3,2.5,2.3c1.1,0,2.3,0,3.4,0c0.1,0,0.2,0,0.4,0c1.3-0.3,2.1-1.3,2.1-2.6c0-2.4,0.5-5.9,0.5-8.2
			c0-0.5,0.1-0.6,0.6-0.7c1.6-0.2,2.1-1.2,2.1-2.8c0-1.3,0-2.5,0-3.8C79.5,24.3,79.5,23,79.5,21.7C79.5,21.8,79.5,21.7,79.5,21.7z"
			/>
		<path class="st0" d="M71.1,15.8c0.3,0.3,0.7,0.4,1.1,0.4c0.4,0,0.8-0.2,1.1-0.4l3.6-3.5c0.6-0.6,0.6-1.5,0-2.1l-3.6-3.5
			c-0.3-0.3-0.7-0.4-1.1-0.4c-0.4,0-0.8,0.2-1.1,0.4l-3.6,3.5c-0.6,0.6-0.6,1.5,0,2.1L71.1,15.8z M72.2,8l3.3,3.2l-3.3,3.2l-3.3-3.2
			L72.2,8z"/>
		<path class="st0" d="M64.4,41.6c-1.1,0-2.3,0-3.4,0c-0.5,0-0.7-0.2-0.7-0.7c-0.1-2,0-0.6-0.2-2.6c0-0.6-0.3-1.2-0.7-1.7
			c-0.5-0.6-1.1-0.9-1.9-1c-0.6,0-0.8-0.2-0.8-0.8c-0.1-1.3-0.2-2.5-0.3-3.8c-0.1-1.3-0.2-2.6-0.3-3.8c0-0.6,0.3-1,0.9-1.1
			c0.4,0,0.8,0,1.2,0c0.7,0,1.4,0,2.1,0c0.2,0,0.5-0.2,0.7-0.4c0.3-0.3,0.3-0.7,0.1-1.1C60.9,24.2,60.5,24,60,24c-1.1,0-2.2,0-3.4,0
			c-1.6,0.1-2.8,1.5-2.6,3c0.2,2.7,0.4,5.3,0.6,8c0,0.6,0.3,1.1,0.6,1.5c0.5,0.6,1.2,1,2,1c0.5,0,0.7,0.2,0.7,0.7
			c0-0.3-0.1-0.8,0-0.2c0,0.1,0,0.1,0,0.2c0,0,0,0,0,0c0,0.5,0,0.3,0,0c0.1,1,0.1,1.9,0.2,2.9c0.1,1.3,1.4,2.3,2.7,2.3
			c1.3,0,2.6,0,3.8,0c0.5,0,0.9-0.4,0.9-0.9C65.7,42.1,65.2,41.6,64.4,41.6z"/>
		<path class="st0" d="M58,38.4C58,38.4,58,38.4,58,38.4C58,38.4,58,38.4,58,38.4C58,38.4,58,38.4,58,38.4z"/>
		<path class="st0" d="M88.6,24.1c-1.1,0-2.2,0-3.4,0c-0.5,0-0.8,0.2-1.1,0.6c-0.2,0.4-0.2,0.8,0.1,1.1c0.2,0.2,0.4,0.3,0.7,0.4
			c0.7,0.1,1.4,0,2.1,0c0.4,0,0.8,0,1.2,0c0.6,0,0.9,0.5,0.9,1.1c-0.1,1.3-0.2,2.6-0.3,3.8c-0.1,1.3-0.2,2.5-0.3,3.8
			c0,0.6-0.2,0.7-0.8,0.8c-0.7,0.1-1.4,0.4-1.9,1c-0.5,0.5-0.7,1.1-0.7,1.7c-0.2,2,0,0.6-0.2,2.6c0,0.5-0.2,0.7-0.7,0.7
			c-1.1,0-2.3,0-3.4,0c-0.7,0-1.3,0.5-1.2,1.2c0,0.5,0.4,0.9,0.9,0.9c1.3,0,2.6,0,3.8,0c1.3,0,2.5-1.1,2.7-2.3
			c0.1-1,0.2-1.9,0.2-2.9c0,0.2,0,0.4,0,0c0,0,0,0,0,0c0-0.1,0-0.1,0-0.2c0-0.6,0-0.2,0,0.2c0-0.5,0.2-0.7,0.7-0.7
			c0.8-0.1,1.5-0.4,2-1c0.4-0.5,0.6-1,0.6-1.5c0.2-2.7,0.4-5.3,0.6-8C91.3,25.5,90.1,24.1,88.6,24.1z"/>
		<path class="st0" d="M87.2,38.4C87.2,38.4,87.2,38.4,87.2,38.4C87.2,38.4,87.2,38.4,87.2,38.4C87.2,38.4,87.2,38.4,87.2,38.4z"/>
		<path class="st0" d="M83,22.1c0.3,0.3,0.7,0.4,1.1,0.4c0.4,0,0.8-0.2,1.1-0.4l3.5-3.5c0.6-0.6,0.6-1.5,0-2.1l-3.5-3.5
			c-0.3-0.3-0.7-0.4-1.1-0.4c-0.4,0-0.8,0.2-1.1,0.4l-3.5,3.5c-0.6,0.6-0.6,1.5,0,2.1L83,22.1z"/>
		<path class="st0" d="M59.8,22.2c0.3,0.3,0.7,0.4,1.1,0.4c0.4,0,0.8-0.2,1.1-0.4l3.5-3.5c0.6-0.6,0.6-1.5,0-2.1L61.9,13
			c-0.3-0.3-0.7-0.4-1.1-0.4c-0.4,0-0.8,0.2-1.1,0.4l-3.5,3.5c-0.6,0.6-0.6,1.5,0,2.1L59.8,22.2z"/>
	</g>
</g>
</svg>
