<?xml version="1.0" encoding="utf-8"?>
<!-- Generator: Adobe Illustrator 24.2.3, SVG Export Plug-In . SVG Version: 6.00 Build 0)  -->
<svg version="1.1" id="Layer_3" xmlns="http://www.w3.org/2000/svg" xmlns:xlink="http://www.w3.org/1999/xlink" x="0px" y="0px"
	 viewBox="0 0 200 50" style="enable-background:new 0 0 200 50;" xml:space="preserve">
<style type="text/css">
	.st0{fill:#7C7C7C;}
</style>
<g>
	<circle class="st0" cx="34.9" cy="10.2" r="1.7"/>
	<circle class="st0" cx="34.9" cy="39.8" r="1.7"/>
	<circle class="st0" cx="49.7" cy="25" r="1.7"/>
	<circle class="st0" cx="20.1" cy="25" r="1.7"/>
	<circle class="st0" cx="24.5" cy="14.6" r="1.7"/>
	<circle class="st0" cx="45.3" cy="35.4" r="1.7"/>
	<circle class="st0" cx="45.3" cy="14.6" r="1.7"/>
	<circle class="st0" cx="24.5" cy="35.4" r="1.7"/>
	<circle class="st0" cx="27.5" cy="17.6" r="1.2"/>
	<circle class="st0" cx="42.3" cy="32.4" r="1.2"/>
	<circle class="st0" cx="42.3" cy="17.6" r="1.2"/>
	<circle class="st0" cx="27.5" cy="32.4" r="1.2"/>
	<circle class="st0" cx="27.5" cy="17.6" r="1.2"/>
	<circle class="st0" cx="42.3" cy="32.4" r="1.2"/>
	<circle class="st0" cx="42.3" cy="17.6" r="1.2"/>
	<circle class="st0" cx="27.5" cy="32.4" r="1.2"/>
	<circle class="st0" cx="34.9" cy="14.6" r="1.2"/>
	<circle class="st0" cx="34.9" cy="35.4" r="1.2"/>
	<circle class="st0" cx="45.3" cy="25" r="1.2"/>
	<circle class="st0" cx="24.5" cy="25" r="1.2"/>
	<circle class="st0" cx="27.5" cy="17.6" r="1.2"/>
	<circle class="st0" cx="42.3" cy="32.4" r="1.2"/>
	<circle class="st0" cx="42.3" cy="17.6" r="1.2"/>
	<circle class="st0" cx="27.5" cy="32.4" r="1.2"/>
	<circle class="st0" cx="34.9" cy="18.4" r="0.8"/>
	<circle class="st0" cx="34.9" cy="31.6" r="0.8"/>
	<circle class="st0" cx="41.5" cy="25" r="0.8"/>
	<circle class="st0" cx="28.3" cy="25" r="0.8"/>
	<circle class="st0" cx="30.2" cy="20.3" r="0.8"/>
	<circle class="st0" cx="39.6" cy="29.7" r="0.8"/>
	<circle class="st0" cx="39.6" cy="20.3" r="0.8"/>
	<circle class="st0" cx="30.2" cy="29.7" r="0.8"/>
	<circle class="st0" cx="34.9" cy="18.4" r="0.8"/>
	<circle class="st0" cx="34.9" cy="31.6" r="0.8"/>
	<circle class="st0" cx="41.5" cy="25" r="0.8"/>
	<circle class="st0" cx="28.3" cy="25" r="0.8"/>
	<circle class="st0" cx="30.2" cy="20.3" r="0.8"/>
	<circle class="st0" cx="39.6" cy="29.7" r="0.8"/>
	<circle class="st0" cx="39.6" cy="20.3" r="0.8"/>
	<circle class="st0" cx="30.2" cy="29.7" r="0.8"/>
	<circle class="st0" cx="34.9" cy="21.3" r="0.4"/>
	<circle class="st0" cx="34.9" cy="28.7" r="0.4"/>
	<circle class="st0" cx="38.6" cy="25" r="0.4"/>
	<circle class="st0" cx="31.2" cy="25" r="0.4"/>
	<circle class="st0" cx="32.3" cy="22.4" r="0.4"/>
	<circle class="st0" cx="37.5" cy="27.6" r="0.4"/>
	<circle class="st0" cx="37.5" cy="22.4" r="0.4"/>
	<circle class="st0" cx="32.3" cy="27.6" r="0.4"/>
	<path class="st0" d="M62.6,32.8l-4.5-11.6c-0.6-1.5-0.9-2-1.4-2.2v-0.3c0.4,0,1.4,0,2,0c0.6,0,2.1,0,2.5,0v0.3
		c-0.6,0.1-0.8,0.4-0.8,0.8c0,0.5,0.1,1,0.3,1.5l3,7.8l2.3-6.6c0.3-0.8,0.5-1.6,0.5-2.4c0-0.5-0.2-1-0.7-1.1v-0.3c0.4,0,1.2,0,1.9,0
		c0.7,0,1.1,0,1.4,0v0.3c-1.1,0.4-1.4,0.8-2.5,4l-3.5,9.9L62.6,32.8z"/>
	<path class="st0" d="M72.5,32.4c-0.4,0-1.3,0-2,0c-0.7,0-1.6,0-2,0v-0.3c0.6-0.1,0.8-0.2,0.8-1.7v-4.5c0-1.2,0-1.6-0.6-1.7v-0.3
		c1,0,2-0.2,2.9-0.6v7.1c0,1.5,0.2,1.6,0.8,1.7V32.4z M70.5,22.6c-0.6,0-1.1-0.5-1.2-1.1c0,0,0,0,0,0c0-0.6,0.5-1.2,1.1-1.2
		c0,0,0,0,0.1,0c0.7,0,1.2,0.5,1.2,1.1c0,0,0,0.1,0,0.1C71.7,22.1,71.2,22.6,70.5,22.6C70.5,22.6,70.5,22.6,70.5,22.6z"/>
	<path class="st0" d="M78.9,25.9c-0.4-1.4-1.2-2-2.2-2c-0.6-0.1-1.2,0.4-1.2,1c0,0,0,0.1,0,0.1c0,2.1,4.2,1.2,4.2,4.6
		c0,1.4-1.1,2.8-3.4,2.8c-0.9,0-1.4-0.3-2-0.3c-0.2,0-0.4,0-0.6,0.1c0.1-0.6,0.1-2.2,0.2-3h0.3c0,1.5,0.9,2.7,2.1,2.7
		c0.7,0,1.3-0.5,1.3-1.2c0-0.1,0-0.2,0-0.2c0-2.4-4.1-1.7-4.1-4.6c0-1.5,1.1-2.6,3.1-2.6c1,0,1.6,0.2,2.2,0.2c0.1,0,0.2,0,0.3,0
		c0,0.2-0.1,0.5-0.1,0.7c0,0.4,0,1,0,1.6L78.9,25.9z"/>
	<path class="st0" d="M84.6,32.4c-0.4,0-1.3,0-2,0s-1.6,0-2,0v-0.3c0.6-0.1,0.8-0.2,0.8-1.7v-4.5c0-1.2,0-1.6-0.6-1.7v-0.3
		c1,0,2-0.2,2.9-0.6v7.1c0,1.5,0.2,1.6,0.8,1.7V32.4z M82.6,22.6c-0.6,0-1.1-0.5-1.2-1.1c0,0,0,0,0,0c0-0.6,0.5-1.2,1.1-1.2
		c0,0,0,0,0.1,0c0.7,0,1.2,0.5,1.2,1.1c0,0,0,0.1,0,0.1C83.8,22.1,83.3,22.6,82.6,22.6C82.7,22.6,82.7,22.6,82.6,22.6L82.6,22.6z"/>
	<path class="st0" d="M90.1,32.5c-2.5-0.1-4.4-2.2-4.3-4.7c0.1-2.5,2.2-4.4,4.7-4.3c2.4,0.1,4.3,2.1,4.3,4.5
		C94.8,30.5,92.7,32.5,90.1,32.5C90.2,32.5,90.2,32.5,90.1,32.5z M92.3,27.9c0-2.7-0.4-4.1-2.1-4.1c-1.7,0-2.1,1.4-2.1,4.1
		c0,2.6,0.4,4,2.1,4C91.9,31.9,92.3,30.5,92.3,27.9L92.3,27.9z"/>
	<path class="st0" d="M105.5,32.4c-0.4,0-1.3,0-2,0c-0.7,0-1.6,0-2,0v-0.3c0.6-0.1,0.8-0.2,0.8-1.7v-4c0-1.6-0.6-2.3-1.7-2.3
		c-0.7,0-1.3,0.3-1.8,0.9v5.4c0,1.5,0.2,1.6,0.8,1.7v0.3c-0.4,0-1.3,0-2,0c-0.7,0-1.6,0-2,0v-0.3c0.6-0.1,0.8-0.2,0.8-1.7v-4.5
		c0-1.2,0-1.6-0.6-1.7v-0.3c1,0,2-0.2,2.9-0.6v1.1c0.8-0.7,1.8-1.1,2.8-1.1c1.3,0,3,0.4,3,3.1v4c0,1.5,0.2,1.6,0.8,1.7L105.5,32.4z"
		/>
	<path class="st0" d="M115.7,32.4c-0.4,0-1.5,0-2.2,0s-1.8,0-2.2,0v-0.3c0.9-0.2,0.9-0.6,0.9-2.7v-7.9c0-2.1-0.1-2.5-0.9-2.6v-0.3
		c0.4,0,1.5,0,2.2,0c1.1,0,1.9,0,2.4,0c3.3,0,5,1.8,5,3.8c0,1.9-1.6,3.6-4.1,3.6c-0.7,0-1.4-0.1-2-0.4l0.2-0.2
		c0.4,0.2,0.7,0.2,1.1,0.2c1.5,0,2-1.3,2-3.1c0-2.2-0.9-3.3-2.6-3.3c-0.3,0-0.6,0-0.9,0.2v10.1c0,2.1,0.1,2.5,0.9,2.7L115.7,32.4z"
		/>
	<path class="st0" d="M129.3,31.6c-0.4,0.6-1,1-1.8,1c-0.6,0-1.2-0.3-1.4-0.9c-0.7,0.6-1.6,0.9-2.6,0.9c-1.5,0-2.7-0.8-2.7-2.1
		c0-1.6,1.6-2.4,3.4-2.4c0.6,0,1.2,0.1,1.8,0.4v-2.2c0-1.8-0.5-2.2-1.3-2.2c-1,0-1.3,0.8-1.3,2.4h-2.3c0.3-2.3,2.1-2.9,3.7-2.9
		c2.1,0,3.5,1,3.5,3.2v3.8c0,0.9,0.1,1.1,0.5,1.1c0.1,0,0.2,0,0.3-0.1L129.3,31.6z M126,28.8c-0.4-0.2-0.8-0.3-1.3-0.3
		c-0.9,0-1.5,0.4-1.5,1.5c0,1.1,0.6,1.6,1.4,1.6c0.5,0,1-0.2,1.4-0.5c0-0.2,0-0.3,0-0.5L126,28.8z"/>
	<path class="st0" d="M134,32.4c-0.4,0-1.3,0-2,0s-1.6,0-2,0v-0.3c0.6-0.1,0.8-0.2,0.8-1.7v-4.5c0-1.2,0-1.6-0.6-1.7v-0.3
		c1,0,2-0.2,2.9-0.6v1.5c1.1-1.1,1.6-1.5,2.5-1.5c0.8,0,1.7,0.6,1.7,2.6H135c0-0.8-0.3-1.1-0.8-1.1c-0.4,0-0.8,0.2-1.1,0.6v5
		c0,1.5,0.2,1.6,0.8,1.7L134,32.4z"/>
	<path class="st0" d="M143.4,30.7c-0.2,1-1.1,1.8-2.1,1.8c-1.3,0.2-2.5-0.8-2.6-2.1c0-0.2,0-0.4,0-0.5v-5.2h-0.9v-0.3
		c1.5-0.9,2.5-2.3,2.9-4l0.5,0.1c-0.1,0.6-0.1,1.9-0.1,2.9h0.6c0.6,0.1,1.2-0.1,1.6-0.4l0.2,0.2c-0.3,0.5-0.6,0.9-0.9,1.5h-1.5v4.8
		c0,1.4,0.3,2,1.1,2c0.6,0,0.8-0.4,1.1-0.9L143.4,30.7z"/>
	<path class="st0" d="M153.6,32.4c-0.4,0-1.3,0-2,0c-0.7,0-1.6,0-2,0v-0.3c0.6-0.1,0.8-0.2,0.8-1.7v-4c0-1.6-0.6-2.3-1.7-2.3
		c-0.7,0-1.3,0.3-1.8,0.9v5.4c0,1.5,0.2,1.6,0.8,1.7v0.3c-0.4,0-1.3,0-2,0c-0.7,0-1.6,0-2,0v-0.3c0.6-0.1,0.8-0.2,0.8-1.7v-4.5
		c0-1.2,0-1.6-0.6-1.7v-0.3c1,0,2-0.2,2.9-0.6v1.1c0.8-0.7,1.8-1.1,2.8-1.1c1.3,0,3,0.4,3,3.1v4c0,1.5,0.2,1.6,0.8,1.7L153.6,32.4z"
		/>
	<path class="st0" d="M162.4,30.4c-0.7,1.3-2.1,2.1-3.6,2.1c-2.5,0-4.5-1.9-4.5-4.4c0-0.1,0-0.1,0-0.2c-0.1-2.5,1.9-4.5,4.3-4.6
		c0,0,0.1,0,0.1,0c1.8,0,3.8,0.9,3.8,3.7h-5.9v0.2c0,2.4,1.3,4,3.1,4c1,0,1.9-0.4,2.5-1.1L162.4,30.4z M160.2,26.5
		c0-1.7-0.5-2.6-1.5-2.6c-1,0-1.8,1.2-2,2.6H160.2z"/>
	<path class="st0" d="M167.4,32.4c-0.4,0-1.3,0-2,0c-0.7,0-1.6,0-2,0v-0.3c0.6-0.1,0.8-0.2,0.8-1.7v-4.5c0-1.2,0-1.6-0.6-1.7v-0.3
		c1,0,2-0.2,2.9-0.6v1.5c1.1-1.1,1.6-1.5,2.5-1.5s1.7,0.6,1.7,2.6h-2.3c0-0.8-0.3-1.1-0.8-1.1c-0.4,0-0.8,0.2-1.1,0.6v5
		c0,1.5,0.2,1.6,0.8,1.7L167.4,32.4z"/>
	<path class="st0" d="M176.9,25.9c-0.4-1.4-1.2-2-2.2-2c-0.6-0.1-1.2,0.4-1.2,1c0,0,0,0.1,0,0.1c0,2.1,4.2,1.2,4.2,4.6
		c0,1.4-1.1,2.8-3.3,2.8c-0.9,0-1.4-0.3-2-0.3c-0.2,0-0.4,0-0.6,0.1c0.1-0.6,0.1-2.2,0.2-3h0.3c0,1.5,0.9,2.7,2.1,2.7
		c0.7,0,1.3-0.5,1.3-1.2c0-0.1,0-0.2,0-0.2c0-2.4-4.1-1.7-4.1-4.6c0-1.5,1.1-2.6,3.1-2.6c1,0,1.5,0.2,2.2,0.2c0.1,0,0.2,0,0.3,0
		c0,0.2-0.1,0.5-0.1,0.7c0,0.4,0,1,0,1.6L176.9,25.9z"/>
	<path class="st0" d="M178.9,22.7c0.1-0.2,0.2-0.4,0.4-0.5c0.2-0.1,0.3-0.3,0.5-0.3c0.4-0.2,0.9-0.2,1.3,0c0.2,0.1,0.4,0.2,0.5,0.3
		c0.2,0.1,0.3,0.3,0.4,0.5c0.1,0.2,0.1,0.4,0.1,0.7c0,0.2,0,0.5-0.1,0.7c-0.1,0.2-0.2,0.4-0.4,0.5c-0.2,0.1-0.3,0.3-0.5,0.3
		c-0.4,0.1-0.9,0.1-1.3,0c-0.2-0.1-0.4-0.2-0.5-0.3c-0.2-0.1-0.3-0.3-0.4-0.5c-0.1-0.2-0.1-0.4-0.1-0.7
		C178.8,23.2,178.8,22.9,178.9,22.7z M179.3,23.9c0.1,0.1,0.1,0.3,0.3,0.4c0.1,0.1,0.2,0.2,0.4,0.3c0.3,0.1,0.7,0.1,1,0
		c0.1-0.1,0.3-0.2,0.4-0.3c0.2-0.2,0.4-0.6,0.4-0.9c0-0.2,0-0.3-0.1-0.5c-0.1-0.1-0.2-0.3-0.3-0.4c-0.1-0.1-0.2-0.2-0.4-0.3
		c-0.3-0.1-0.7-0.1-1,0c-0.1,0.1-0.3,0.2-0.4,0.3c-0.1,0.1-0.2,0.3-0.3,0.4c-0.1,0.2-0.1,0.3-0.1,0.5
		C179.2,23.6,179.3,23.7,179.3,23.9L179.3,23.9z"/>
	<path class="st0" d="M180.2,23.5L180.2,23.5c0,0.1,0,0.2,0,0.3c0,0,0.1,0.1,0.2,0.1c0.1,0,0.1,0,0.2-0.1c0-0.1,0-0.1,0-0.2v-1.2
		h0.4v1.2c0,0.1,0,0.2-0.1,0.3c-0.2,0.3-0.6,0.3-0.8,0.1c0,0,0,0-0.1-0.1c-0.1-0.1-0.1-0.3-0.1-0.5v0L180.2,23.5z"/>
</g>
</svg>
