<svg id="Layer_3" data-name="Layer 3" xmlns="http://www.w3.org/2000/svg" viewBox="0 0 200 50"><defs><style>.cls-1{fill:#7c7c7c;}</style></defs><circle class="cls-1" cx="28.19" cy="8.73" r="1.92"/><circle class="cls-1" cx="28.19" cy="41.27" r="1.92"/><circle class="cls-1" cx="44.46" cy="25" r="1.92"/><circle class="cls-1" cx="11.92" cy="25" r="1.92"/><circle class="cls-1" cx="16.68" cy="13.5" r="1.92"/><circle class="cls-1" cx="39.69" cy="36.5" r="1.92"/><circle class="cls-1" cx="39.69" cy="13.5" r="1.92"/><circle class="cls-1" cx="16.68" cy="36.5" r="1.92"/><circle class="cls-1" cx="20.05" cy="16.86" r="1.35"/><circle class="cls-1" cx="36.32" cy="33.14" r="1.35"/><circle class="cls-1" cx="36.32" cy="16.86" r="1.35"/><circle class="cls-1" cx="20.05" cy="33.14" r="1.35"/><circle class="cls-1" cx="20.05" cy="16.86" r="1.35"/><circle class="cls-1" cx="36.32" cy="33.14" r="1.35"/><circle class="cls-1" cx="36.32" cy="16.86" r="1.35"/><circle class="cls-1" cx="20.05" cy="33.14" r="1.35"/><circle class="cls-1" cx="28.19" cy="13.5" r="1.35"/><circle class="cls-1" cx="28.19" cy="36.5" r="1.35"/><circle class="cls-1" cx="39.69" cy="25" r="1.35"/><circle class="cls-1" cx="16.68" cy="25" r="1.35"/><circle class="cls-1" cx="20.05" cy="16.86" r="1.35"/><circle class="cls-1" cx="36.32" cy="33.14" r="1.35"/><circle class="cls-1" cx="36.32" cy="16.86" r="1.35"/><circle class="cls-1" cx="20.05" cy="33.14" r="1.35"/><circle class="cls-1" cx="28.19" cy="17.72" r="0.86"/><circle class="cls-1" cx="28.19" cy="32.28" r="0.86"/><circle class="cls-1" cx="35.46" cy="25" r="0.86"/><circle class="cls-1" cx="20.91" cy="25" r="0.86"/><circle class="cls-1" cx="23.04" cy="19.85" r="0.86"/><circle class="cls-1" cx="33.33" cy="30.15" r="0.86"/><circle class="cls-1" cx="33.33" cy="19.85" r="0.86"/><circle class="cls-1" cx="23.04" cy="30.15" r="0.86"/><circle class="cls-1" cx="28.19" cy="17.72" r="0.86"/><circle class="cls-1" cx="28.19" cy="32.28" r="0.86"/><circle class="cls-1" cx="35.46" cy="25" r="0.86"/><circle class="cls-1" cx="20.91" cy="25" r="0.86"/><circle class="cls-1" cx="23.04" cy="19.85" r="0.86"/><circle class="cls-1" cx="33.33" cy="30.15" r="0.86"/><circle class="cls-1" cx="33.33" cy="19.85" r="0.86"/><circle class="cls-1" cx="23.04" cy="30.15" r="0.86"/><circle class="cls-1" cx="28.19" cy="20.94" r="0.48"/><circle class="cls-1" cx="28.19" cy="29.06" r="0.48"/><circle class="cls-1" cx="32.25" cy="25" r="0.48"/><circle class="cls-1" cx="24.12" cy="25" r="0.48"/><circle class="cls-1" cx="25.31" cy="22.13" r="0.48"/><circle class="cls-1" cx="31.06" cy="27.87" r="0.48"/><circle class="cls-1" cx="31.06" cy="22.13" r="0.48"/><circle class="cls-1" cx="25.31" cy="27.87" r="0.48"/><path class="cls-1" d="M58.76,33.57l-5-12.8c-.65-1.64-1-2.18-1.5-2.47V18c.44,0,1.5.05,2.2.05s2.31,0,2.76-.05v.32c-.64.12-.87.39-.87.87a5,5,0,0,0,.37,1.66L60,29.44l2.51-7.26a8.59,8.59,0,0,0,.58-2.7c0-.6-.2-1.06-.76-1.18V18c.45,0,1.35.05,2.11.05S65.61,18,66,18v.32c-1.16.39-1.55.89-2.8,4.37l-3.88,10.9Z"/><path class="cls-1" d="M69.6,33.16c-.46,0-1.42,0-2.18,0s-1.73,0-2.18,0v-.31c.62-.13.89-.23.89-1.89V26c0-1.27,0-1.71-.64-1.87V23.8a7.69,7.69,0,0,0,3.21-.65V31c0,1.66.27,1.76.9,1.89Zm-2.18-10.8a1.26,1.26,0,0,1-1.27-1.26,1.28,1.28,0,0,1,1.27-1.35,1.3,1.3,0,0,1,1.35,1.35A1.28,1.28,0,0,1,67.42,22.36Z"/><path class="cls-1" d="M76.66,26c-.44-1.55-1.29-2.24-2.45-2.24A1.24,1.24,0,0,0,72.84,25c0,2.35,4.67,1.37,4.67,5.09,0,1.55-1.25,3.13-3.7,3.13-1,0-1.51-.31-2.2-.31a2.23,2.23,0,0,0-.7.1c.12-.68.06-2.47.24-3.3h.32c0,1.68,1,2.95,2.34,2.95a1.39,1.39,0,0,0,1.48-1.54c0-2.67-4.49-1.82-4.49-5.1,0-1.68,1.23-2.89,3.38-2.89,1.08,0,1.71.25,2.43.25a2.42,2.42,0,0,0,.38,0,4.46,4.46,0,0,0-.07.79c0,.41,0,1.12,0,1.78Z"/><path class="cls-1" d="M83,33.16c-.46,0-1.41,0-2.18,0s-1.72,0-2.18,0v-.31c.62-.13.89-.23.89-1.89V26c0-1.27,0-1.71-.64-1.87V23.8a7.77,7.77,0,0,0,3.22-.65V31c0,1.66.27,1.76.89,1.89Zm-2.18-10.8a1.26,1.26,0,0,1-1.27-1.26,1.28,1.28,0,0,1,1.27-1.35,1.3,1.3,0,0,1,1.35,1.35A1.28,1.28,0,0,1,80.83,22.36Z"/><path class="cls-1" d="M89.09,33.24a5,5,0,1,1,5.23-5A5.08,5.08,0,0,1,89.09,33.24Zm2.37-5c0-3-.46-4.55-2.37-4.55s-2.36,1.56-2.36,4.55c0,2.84.45,4.42,2.36,4.42S91.46,31.1,91.46,28.26Z"/><path class="cls-1" d="M106,33.16c-.46,0-1.41,0-2.18,0s-1.72,0-2.18,0v-.31c.62-.13.89-.23.89-1.89V26.54c0-1.79-.64-2.5-1.86-2.5a2.73,2.73,0,0,0-1.93.94v6c0,1.66.27,1.76.89,1.89v.31c-.46,0-1.41,0-2.18,0s-1.72,0-2.18,0v-.31c.62-.13.89-.23.89-1.89V26c0-1.27,0-1.71-.64-1.87V23.8a7.77,7.77,0,0,0,3.22-.65v1.19a4.6,4.6,0,0,1,3.09-1.19c1.43,0,3.28.42,3.28,3.39V31c0,1.66.27,1.76.89,1.89Z"/><path class="cls-1" d="M117.25,33.16c-.46,0-1.66,0-2.43,0s-2,0-2.43,0v-.31c1-.17,1-.61,1-2.93v-8.7c0-2.32-.09-2.76-1-2.92V18c.45,0,1.66.05,2.43.05,1.16,0,2.05-.05,2.65-.05,3.66,0,5.55,1.93,5.55,4.24,0,2.12-1.77,3.92-4.49,3.92a3.91,3.91,0,0,1-2.16-.48l.17-.27a2.88,2.88,0,0,0,1.25.27c1.63,0,2.22-1.41,2.22-3.44,0-2.39-1-3.61-2.83-3.61a2.39,2.39,0,0,0-1,.18V29.92c0,2.32.08,2.76,1,2.93Z"/><path class="cls-1" d="M132.26,32.24a2.32,2.32,0,0,1-1.94,1.08,1.5,1.5,0,0,1-1.53-1,4.53,4.53,0,0,1-2.82,1c-1.6,0-3-.83-3-2.36,0-1.73,1.76-2.7,3.73-2.7a4.68,4.68,0,0,1,2,.39V26.18c0-1.95-.56-2.47-1.41-2.47-1.06,0-1.41.83-1.41,2.64h-2.51c.33-2.53,2.28-3.2,4.07-3.2,2.3,0,3.84,1.1,3.84,3.57v4.17c0,1,.14,1.19.5,1.19a.72.72,0,0,0,.37-.11Zm-3.62-3.05a3.49,3.49,0,0,0-1.39-.29c-1,0-1.6.46-1.6,1.7s.69,1.81,1.5,1.81a2.34,2.34,0,0,0,1.51-.6,4.35,4.35,0,0,1,0-.52Z"/><path class="cls-1" d="M137.41,33.16c-.46,0-1.42,0-2.18,0s-1.73,0-2.18,0v-.31c.62-.13.89-.23.89-1.89V26c0-1.27,0-1.71-.64-1.87V23.8a7.69,7.69,0,0,0,3.21-.65v1.7c1.21-1.2,1.79-1.7,2.72-1.7s1.89.69,1.89,2.91h-2.51c0-.91-.35-1.21-.89-1.21a1.58,1.58,0,0,0-1.21.67V31c0,1.66.27,1.76.9,1.89Z"/><path class="cls-1" d="M147.83,31.31a2.38,2.38,0,0,1-2.37,1.93,2.61,2.61,0,0,1-2.9-2.89V24.63h-1v-.32a7,7,0,0,0,3.22-4.4l.51.11c-.08.66-.14,2.05-.14,3.24h.62a2.22,2.22,0,0,0,1.79-.48l.2.25a13.5,13.5,0,0,0-1,1.6h-1.66v5.29c0,1.56.35,2.18,1.24,2.18.63,0,.92-.42,1.21-1Z"/><path class="cls-1" d="M159.1,33.16c-.46,0-1.41,0-2.18,0s-1.72,0-2.18,0v-.31c.62-.13.89-.23.89-1.89V26.54c0-1.79-.64-2.5-1.86-2.5a2.73,2.73,0,0,0-1.93.94v6c0,1.66.27,1.76.89,1.89v.31c-.46,0-1.41,0-2.18,0s-1.72,0-2.18,0v-.31c.62-.13.89-.23.89-1.89V26c0-1.27,0-1.71-.64-1.87V23.8a7.77,7.77,0,0,0,3.22-.65v1.19a4.6,4.6,0,0,1,3.09-1.19c1.43,0,3.28.42,3.28,3.39V31c0,1.66.27,1.76.89,1.89Z"/><path class="cls-1" d="M168.82,31a4.59,4.59,0,0,1-3.93,2.34,4.91,4.91,0,0,1-5-5.06,4.94,4.94,0,0,1,4.9-5.11c2,0,4.15,1,4.15,4.13h-6.48v.25c0,2.68,1.44,4.44,3.45,4.44a3.93,3.93,0,0,0,2.76-1.26Zm-2.47-4.36c0-1.89-.54-2.91-1.66-2.91s-2,1.33-2.2,2.91Z"/><path class="cls-1" d="M174.28,33.16c-.46,0-1.41,0-2.18,0s-1.72,0-2.18,0v-.31c.62-.13.89-.23.89-1.89V26c0-1.27,0-1.71-.64-1.87V23.8a7.77,7.77,0,0,0,3.22-.65v1.7c1.2-1.2,1.78-1.7,2.72-1.7s1.88.69,1.88,2.91h-2.51c0-.91-.35-1.21-.89-1.21a1.54,1.54,0,0,0-1.2.67V31c0,1.66.27,1.76.89,1.89Z"/><path class="cls-1" d="M184.74,26c-.43-1.55-1.28-2.24-2.45-2.24A1.24,1.24,0,0,0,180.92,25c0,2.35,4.67,1.37,4.67,5.09,0,1.55-1.24,3.13-3.69,3.13-1,0-1.52-.31-2.2-.31a2.33,2.33,0,0,0-.71.1c.13-.68.07-2.47.25-3.3h.31c0,1.68,1,2.95,2.35,2.95a1.38,1.38,0,0,0,1.47-1.54c0-2.67-4.48-1.82-4.48-5.1,0-1.68,1.22-2.89,3.38-2.89,1.08,0,1.7.25,2.43.25a2.23,2.23,0,0,0,.37,0,4.54,4.54,0,0,0-.06.79c0,.41,0,1.12,0,1.78Z"/><path class="cls-1" d="M187,22.47a1.63,1.63,0,0,1,.4-.56,1.71,1.71,0,0,1,.59-.36,1.95,1.95,0,0,1,1.4,0,1.71,1.71,0,0,1,.59.36,1.63,1.63,0,0,1,.4.56,1.78,1.78,0,0,1,.15.74,1.75,1.75,0,0,1-.15.74,1.68,1.68,0,0,1-.4.57,1.71,1.71,0,0,1-.59.36,2.1,2.1,0,0,1-1.4,0,1.71,1.71,0,0,1-.59-.36A1.68,1.68,0,0,1,187,24a1.75,1.75,0,0,1-.15-.74A1.78,1.78,0,0,1,187,22.47Zm.44,1.31a1.35,1.35,0,0,0,.29.44,1.28,1.28,0,0,0,.43.3,1.33,1.33,0,0,0,1.06,0,1.39,1.39,0,0,0,.43-.3,1.36,1.36,0,0,0,.39-1,1.47,1.47,0,0,0-.1-.56,1.74,1.74,0,0,0-.29-.45,1.55,1.55,0,0,0-.43-.29,1.33,1.33,0,0,0-1.06,0,1.42,1.42,0,0,0-.43.29,1.51,1.51,0,0,0-.29.45,1.47,1.47,0,0,0-.1.56A1.52,1.52,0,0,0,187.46,23.78Z"/><path class="cls-1" d="M188.44,23.34v.05a1,1,0,0,0,.05.31c0,.05.08.08.17.08a.17.17,0,0,0,.17-.09.49.49,0,0,0,0-.2V22.17h.39v1.32a.72.72,0,0,1-.08.38.66.66,0,0,1-1,0,1,1,0,0,1-.12-.52v-.05Z"/></svg>