<?xml version="1.0" encoding="utf-8"?>
<!-- Generator: Adobe Illustrator 24.2.3, SVG Export Plug-In . SVG Version: 6.00 Build 0)  -->
<svg version="1.1" id="Layer_1" xmlns="http://www.w3.org/2000/svg" xmlns:xlink="http://www.w3.org/1999/xlink" x="0px" y="0px"
	 viewBox="0 0 228.7 39.1" style="enable-background:new 0 0 228.7 39.1;" xml:space="preserve">
<style type="text/css">
	.st0{fill:#FFFFFF;}
	.st1{fill:#347CB6;}
</style>
<g>
	<g>
		<path class="st0" d="M124.7,18.3l-2.9-7.6c-1-2.6-2-5.2-2.9-7.8h0c-0.2,2.6-0.4,5.2-0.7,7.8l-0.7,7.6h-3.2l-6.6-17.4h2.3l2.7,7.1
			c1,2.7,2,5.5,3,8.2h0c0.2-2.7,0.5-5.5,0.7-8.2l0.7-7h3.1l2.7,7c1.1,2.7,2.1,5.5,3.1,8.2h0c0.2-2.7,0.4-5.5,0.6-8.2l0.6-7.1h2.3
			l-1.5,17.4H124.7z"/>
		<path class="st0" d="M100.1,13.1l-1.9,5.2h-2.4l6.6-17.4h3.1l6.6,17.4h-2.4l-1.9-5.2H100.1z M106.5,9.5c-0.9-2.4-1.7-4.7-2.5-7.1
			h0c-0.8,2.4-1.6,4.7-2.5,7.1l-0.6,1.6h6.2L106.5,9.5z"/>
		<path class="st0" d="M87.8,0.9c4.2,0,6.1,1.8,6.1,4.7c0,2.2-1.3,3.9-3.3,4.4v0c1.3,0.4,1.8,1.1,2.6,3.3l1.8,5h-2.4L91,13.7
			c-0.7-2.1-1.5-2.7-3.4-2.7h-3.1v7.3h-2.3V0.9H87.8z M84.5,9h3.3c2.7,0,3.8-1.4,3.8-3.3c0-2-1.4-3-4-3h-3.1V9z"/>
	</g>
	<g>
		<path class="st0" d="M74.2,38.1l-1.5-5.4c-0.5-1.8-0.9-3.6-1.4-5.4h0c-0.4,1.8-0.9,3.6-1.4,5.4l-1.5,5.4h-3.1l-3.3-12.4h2.2
			l1.3,5.2c0.5,1.8,0.9,3.7,1.4,5.6h0c0.4-1.8,0.9-3.6,1.4-5.5l1.4-5.3h3.1l1.4,5.3c0.5,1.8,0.9,3.7,1.4,5.5h0
			c0.4-1.8,0.9-3.7,1.4-5.6l1.3-5.2h2.2l-3.3,12.4H74.2z"/>
		<path class="st0" d="M90.8,34.4H93c-0.4,2.2-2.3,4.1-5.5,4.1c-3.7,0-5.9-2.7-5.9-6.7c0-3.7,2.2-6.4,5.8-6.4c2.8,0,4.8,1.7,5.4,4.3
			c0.2,0.7,0.2,1.6,0.2,2.7h-9.3c0.1,3.1,1.7,4.5,3.7,4.5C89.4,36.8,90.5,35.8,90.8,34.4z M83.9,30.7H91c-0.2-2.4-1.6-3.7-3.6-3.7
			C85.5,27,84.1,28.3,83.9,30.7z"/>
		<path class="st0" d="M97.4,27.4c0.7-1.3,2.1-2,3.8-2c3.2,0,5.2,2.5,5.2,6.5c0,4-2,6.5-5.2,6.5c-1.7,0-3.1-0.8-3.8-2.1h0v1.8h-2.1
			V20.7h2.2L97.4,27.4L97.4,27.4z M97.2,31.9c0,3,1.3,4.8,3.4,4.8c2.1,0,3.5-1.9,3.5-4.8c0-2.9-1.4-4.8-3.5-4.8
			C98.5,27.1,97.2,28.9,97.2,31.9z"/>
		<path class="st0" d="M117.5,38.1v-1.8h0c-0.7,1.3-2.1,2.1-3.8,2.1c-3.2,0-5.2-2.6-5.2-6.5c0-4,2-6.5,5.2-6.5c1.7,0,3.1,0.8,3.8,2
			h0v-6.7h2.2v17.4H117.5z M110.6,31.9c0,2.9,1.4,4.8,3.5,4.8c2.1,0,3.4-1.8,3.4-4.8c0-2.9-1.3-4.8-3.4-4.8
			C112,27.1,110.6,29,110.6,31.9z"/>
		<path class="st0" d="M130.6,34.4h2.2c-0.4,2.2-2.3,4.1-5.5,4.1c-3.7,0-5.9-2.7-5.9-6.7c0-3.7,2.2-6.4,5.8-6.4
			c2.8,0,4.8,1.7,5.4,4.3c0.2,0.7,0.2,1.6,0.2,2.7h-9.3c0.1,3.1,1.7,4.5,3.7,4.5C129.2,36.8,130.3,35.8,130.6,34.4z M123.7,30.7h7.2
			c-0.2-2.4-1.6-3.7-3.6-3.7C125.3,27,123.9,28.3,123.7,30.7z"/>
		<path class="st0" d="M138.3,38.1l-4.5-12.4h2.3l1.8,5.2c0.6,1.9,1.2,3.6,1.8,5.5h0c0.6-1.9,1.2-3.6,1.8-5.5l1.8-5.2h2.3L141,38.1
			H138.3z"/>
		<g>
			<g>
				<path class="st0" d="M147.7,26c0.1-0.1,0.1-0.2,0.2-0.3c0.1-0.1,0.2-0.1,0.3-0.2c0.1,0,0.2-0.1,0.4-0.1s0.3,0,0.4,0.1
					c0.1,0,0.2,0.1,0.3,0.2c0.1,0.1,0.2,0.2,0.2,0.3c0.1,0.1,0.1,0.3,0.1,0.4c0,0.1,0,0.3-0.1,0.4c-0.1,0.1-0.1,0.2-0.2,0.3
					c-0.1,0.1-0.2,0.1-0.3,0.2c-0.1,0-0.2,0.1-0.4,0.1s-0.3,0-0.4-0.1c-0.1,0-0.2-0.1-0.3-0.2c-0.1-0.1-0.2-0.2-0.2-0.3
					c-0.1-0.1-0.1-0.3-0.1-0.4C147.6,26.2,147.7,26.1,147.7,26z M148,26.7c0,0.1,0.1,0.2,0.2,0.2c0.1,0.1,0.1,0.1,0.2,0.2
					c0.1,0,0.2,0.1,0.3,0.1c0.1,0,0.2,0,0.3-0.1c0.1,0,0.2-0.1,0.2-0.2c0.1-0.1,0.1-0.1,0.2-0.2c0-0.1,0.1-0.2,0.1-0.3
					s0-0.2-0.1-0.3c0-0.1-0.1-0.2-0.2-0.2c-0.1-0.1-0.1-0.1-0.2-0.2c-0.1,0-0.2-0.1-0.3-0.1c-0.1,0-0.2,0-0.3,0.1
					c-0.1,0-0.2,0.1-0.2,0.2c-0.1,0.1-0.1,0.1-0.2,0.2c0,0.1-0.1,0.2-0.1,0.3S147.9,26.6,148,26.7z"/>
				<g>
					<path class="st0" d="M148.5,26.5L148.5,26.5c0,0.1,0,0.2,0,0.2c0,0,0,0,0.1,0c0,0,0.1,0,0.1-0.1c0,0,0-0.1,0-0.1v-0.7h0.2v0.7
						c0,0.1,0,0.2,0,0.2c0,0.1-0.1,0.1-0.3,0.1c-0.1,0-0.2,0-0.3-0.1c0-0.1-0.1-0.2-0.1-0.3v0H148.5z"/>
				</g>
			</g>
		</g>
	</g>
	<g>
		<path class="st0" d="M39.7,0.9h-9.5v0.1c-0.5,0-0.9-0.1-1.4-0.1C18.4,0.9,10,9.3,10,19.7c0,10.4,8.4,18.8,18.8,18.8
			c0.5,0,0.9,0,1.4-0.1v0.1h9.5c10.4,0,18.8-8.4,18.8-18.8C58.5,9.3,50,0.9,39.7,0.9z M13.2,19.7c0-8.6,7-15.6,15.6-15.6
			c0.5,0,0.9,0,1.4,0.1c0.2,0,0.5,0,0.7,0.1c0,0,0,0,0,0c0.2,0,0.5,0.1,0.7,0.1c0,0,0,0,0.1,0c0.2,0,0.4,0.1,0.6,0.1
			c0,0,0.1,0,0.1,0c0.2,0.1,0.4,0.1,0.6,0.2c0,0,0.1,0,0.1,0c0.2,0.1,0.4,0.1,0.6,0.2c0,0,0.1,0,0.1,0C34,4.9,34.2,5,34.4,5.1
			c0,0,0.1,0,0.1,0c0.2,0.1,0.4,0.2,0.6,0.2c0,0,0.1,0,0.1,0c0.2,0.1,0.4,0.2,0.6,0.3c0,0,0,0,0.1,0C36,5.8,36.2,5.9,36.4,6
			c0,0,0,0,0,0c0.2,0.1,0.4,0.2,0.6,0.3c0,0,0,0,0,0c1.2,0.7,2.3,1.6,3.2,2.7c0,0,0,0,0,0.1c0.1,0.1,0.2,0.3,0.4,0.4
			c0,0,0.1,0.1,0.1,0.1c0.1,0.1,0.2,0.3,0.3,0.4c0.1,0.1,0.1,0.1,0.2,0.2c0.1,0.1,0.2,0.2,0.3,0.4c0.1,0.1,0.1,0.2,0.2,0.2
			c0.1,0.1,0.2,0.2,0.2,0.4c0.1,0.1,0.1,0.2,0.2,0.3c0.1,0.1,0.1,0.2,0.2,0.3c0.1,0.1,0.1,0.2,0.2,0.3c0.1,0.1,0.1,0.2,0.2,0.3
			c0.1,0.1,0.1,0.2,0.2,0.3c0.1,0.1,0.1,0.2,0.2,0.3c0.1,0.1,0.1,0.2,0.1,0.3c0.1,0.1,0.1,0.2,0.1,0.3c0,0.1,0.1,0.2,0.1,0.3
			c0,0.1,0.1,0.2,0.1,0.3c0,0.1,0.1,0.2,0.1,0.4c0,0.1,0.1,0.2,0.1,0.3c0,0.1,0.1,0.3,0.1,0.4c0,0.1,0.1,0.2,0.1,0.3
			c0,0.1,0.1,0.3,0.1,0.4c0,0.1,0.1,0.2,0.1,0.3c0,0.1,0.1,0.3,0.1,0.4c0,0.1,0,0.2,0.1,0.3c0,0.2,0,0.3,0.1,0.5c0,0.1,0,0.2,0,0.3
			c0,0.2,0,0.3,0,0.5c0,0.1,0,0.2,0,0.3c0,0.3,0,0.5,0,0.8c0,0.3,0,0.5,0,0.8c0,0.1,0,0.2,0,0.3c0,0.2,0,0.3,0,0.5
			c0,0.1,0,0.2,0,0.3c0,0.2,0,0.3-0.1,0.5c0,0.1,0,0.2-0.1,0.3c0,0.1,0,0.3-0.1,0.4c0,0.1,0,0.2-0.1,0.3c0,0.1-0.1,0.3-0.1,0.4
			c0,0.1-0.1,0.2-0.1,0.3c0,0.1-0.1,0.3-0.1,0.4c0,0.1-0.1,0.2-0.1,0.3c0,0.1-0.1,0.2-0.1,0.4c0,0.1-0.1,0.2-0.1,0.3
			c0,0.1-0.1,0.2-0.1,0.3c0,0.1-0.1,0.2-0.1,0.3c0,0.1-0.1,0.2-0.1,0.3c-0.1,0.1-0.1,0.2-0.2,0.3c-0.1,0.1-0.1,0.2-0.2,0.3
			c-0.1,0.1-0.1,0.2-0.2,0.3c-0.1,0.1-0.1,0.2-0.2,0.3c-0.1,0.1-0.1,0.2-0.2,0.3C42,28,42,28.1,41.9,28.1c-0.1,0.1-0.2,0.2-0.2,0.4
			c-0.1,0.1-0.1,0.2-0.2,0.2c-0.1,0.1-0.2,0.2-0.3,0.4c-0.1,0.1-0.1,0.1-0.2,0.2c-0.1,0.1-0.2,0.3-0.3,0.4c0,0-0.1,0.1-0.1,0.1
			c-0.1,0.1-0.2,0.3-0.4,0.4c0,0,0,0,0,0c-1,1-2,1.9-3.2,2.7c0,0,0,0,0,0c-0.2,0.1-0.4,0.2-0.6,0.3c0,0,0,0,0,0
			c-0.2,0.1-0.4,0.2-0.6,0.3c0,0,0,0-0.1,0c-0.2,0.1-0.4,0.2-0.6,0.3c0,0-0.1,0-0.1,0c-0.2,0.1-0.4,0.2-0.6,0.2c0,0-0.1,0-0.1,0
			c-0.2,0.1-0.4,0.1-0.6,0.2c0,0-0.1,0-0.1,0c-0.2,0.1-0.4,0.1-0.6,0.2c0,0-0.1,0-0.1,0c-0.2,0.1-0.4,0.1-0.6,0.2c0,0-0.1,0-0.1,0
			c-0.2,0-0.4,0.1-0.6,0.1c0,0,0,0-0.1,0c-0.2,0-0.4,0.1-0.7,0.1c0,0,0,0,0,0c-0.2,0-0.5,0.1-0.7,0.1c-0.5,0-0.9,0.1-1.4,0.1
			C20.2,35.3,13.2,28.3,13.2,19.7z"/>
		<g>
			<path class="st1" d="M29.4,11c0.9,0.3,1.7,0.6,2.6,0.9c-1.9,5.5-3.8,10.9-5.7,16.4c-0.9-0.3-1.7-0.6-2.6-0.9
				C25.6,21.9,27.5,16.4,29.4,11z"/>
			<path class="st1" d="M35,24.7c-0.6-0.7-1.1-1.4-1.7-2.1c1.3-1,2.6-2.1,3.9-3.1c-1.3-0.9-2.6-1.8-3.9-2.8c0.5-0.7,1-1.4,1.6-2.2
				c2.3,1.6,4.5,3.2,6.7,4.8C39.4,21.1,37.2,22.9,35,24.7z"/>
			<path class="st1" d="M20.9,14.4c0.5,0.7,1,1.4,1.6,2.2c-1.3,0.9-2.5,1.8-3.9,2.8c1.3,1.1,2.6,2.1,3.9,3.1
				c-0.6,0.7-1.1,1.4-1.7,2.1c-2.2-1.8-4.4-3.6-6.6-5.4C16.5,17.7,18.7,16.1,20.9,14.4z"/>
		</g>
	</g>
</g>
</svg>
