<?xml version="1.0" encoding="utf-8"?>
<!-- Generator: Adobe Illustrator 24.2.3, SVG Export Plug-In . SVG Version: 6.00 Build 0)  -->
<svg version="1.1" id="Layer_1" xmlns="http://www.w3.org/2000/svg" xmlns:xlink="http://www.w3.org/1999/xlink" x="0px" y="0px"
	 viewBox="0 0 228.7 39.1" style="enable-background:new 0 0 228.7 39.1;" xml:space="preserve">
<style type="text/css">
	.st0{fill:#A6A6A6;}
	.st1{font-family:'Avenir-Light';}
	.st2{font-size:11.875px;}
	.st3{fill:#FFFFFF;}
</style>
<g>
	<text transform="matrix(1 0 0 1 25.5674 36.2236)" class="st0 st1 st2">C</text>
	<text transform="matrix(1 0 0 1 34.4507 36.2236)" class="st0 st1 st2">r</text>
	<text transform="matrix(1 0 0 1 38.7139 36.2236)" class="st0 st1 st2">e</text>
	<text transform="matrix(1 0 0 1 45.8394 36.2236)" class="st0 st1 st2">a</text>
	<text transform="matrix(1 0 0 1 52.5254 36.2236)" class="st0 st1 st2">t</text>
	<text transform="matrix(1 0 0 1 57.0137 36.2236)" class="st0 st1 st2">i</text>
	<text transform="matrix(1 0 0 1 60.3848 36.2236)" class="st0 st1 st2">v</text>
	<text transform="matrix(1 0 0 1 66.4053 36.2236)" class="st0 st1 st2">e</text>
	<text transform="matrix(1 0 0 1 73.5322 36.2236)" class="st0 st1 st2"> </text>
	<text transform="matrix(1 0 0 1 77.1416 36.2236)" class="st0 st1 st2">D</text>
	<text transform="matrix(1 0 0 1 86.4629 36.2236)" class="st0 st1 st2">e</text>
	<text transform="matrix(1 0 0 1 93.5879 36.2236)" class="st0 st1 st2">s</text>
	<text transform="matrix(1 0 0 1 99.1689 36.2236)" class="st0 st1 st2">i</text>
	<text transform="matrix(1 0 0 1 102.542 36.2236)" class="st0 st1 st2">g</text>
	<text transform="matrix(1 0 0 1 110.3193 36.2236)" class="st0 st1 st2">n</text>
	<text transform="matrix(1 0 0 1 117.4443 36.2236)" class="st0 st1 st2"> </text>
	<text transform="matrix(1 0 0 1 121.0547 36.2236)" class="st0 st1 st2">P</text>
	<text transform="matrix(1 0 0 1 128.3936 36.2236)" class="st0 st1 st2">r</text>
	<text transform="matrix(1 0 0 1 132.6553 36.2236)" class="st0 st1 st2">o</text>
	<text transform="matrix(1 0 0 1 140.2324 36.2236)" class="st0 st1 st2">f</text>
	<text transform="matrix(1 0 0 1 144.2695 36.2236)" class="st0 st1 st2">e</text>
	<text transform="matrix(1 0 0 1 151.3945 36.2236)" class="st0 st1 st2">s</text>
	<text transform="matrix(1 0 0 1 156.9775 36.2236)" class="st0 st1 st2">s</text>
	<text transform="matrix(1 0 0 1 162.5576 36.2236)" class="st0 st1 st2">i</text>
	<text transform="matrix(1 0 0 1 165.9297 36.2236)" class="st0 st1 st2">o</text>
	<text transform="matrix(1 0 0 1 173.5068 36.2236)" class="st0 st1 st2">n</text>
	<text transform="matrix(1 0 0 1 180.6318 36.2236)" class="st0 st1 st2">a</text>
	<text transform="matrix(1 0 0 1 187.3174 36.2236)" class="st0 st1 st2">l</text>
	<path class="st0" d="M15.4,12.4c0,1.3-0.7,2.3-1.9,2.3c-0.9,0-1.5-0.4-1.9-1.2H9.5c0.4,1.9,2.1,3.2,4,3.2c2.4,0,4-1.6,4-4.3V1.7
		h-2.1V12.4z"/>
	<path class="st0" d="M28,10.1h-3.8l1.9-5.6h0L28,10.1z M32.6,16.3L27,1.7h-1.9l-5.6,14.6h2.3l1.6-4.3h5.3l1.6,4.3H32.6z"/>
	<path class="st0" d="M42.7,5.5c0-2.6-1.8-4.1-4.2-4.1c-2.3,0-4.1,1.8-4.1,4c0,2.1,0.8,3.3,4.4,4.5c1.6,0.5,2,1.2,2,2.3
		c0,1.4-0.9,2.5-2.4,2.5c-1.4,0-2.4-1.1-2.4-2.7H34c0,2.8,1.9,4.6,4.5,4.6c2.6,0,4.5-1.8,4.5-4.4c0-2.5-1.2-3.7-4.3-4.7
		c-1.4-0.5-2.1-1-2.1-2.1c0-1.1,0.9-2,2-2c1.2,0,2.1,0.8,2.1,2.1H42.7z"/>
	<path class="st0" d="M60.3,8.9c0-4.1-3.3-7.5-7.7-7.5c-4.1,0-7.6,3.3-7.6,7.8c0,4,3.4,7.4,7.5,7.4C56.9,16.6,60.3,13.3,60.3,8.9z
		 M52.7,14.7c-3.3,0-5.5-2.8-5.5-5.7c0-2.2,1.6-5.6,5.6-5.6c3.1,0,5.4,2.7,5.4,5.7C58.2,11.7,56.1,14.7,52.7,14.7z"/>
	<polygon class="st0" points="75,16.3 75,1.7 72.8,1.7 72.8,12.8 72.8,12.8 65.7,1.7 63.3,1.7 63.3,16.3 65.5,16.3 65.5,5 65.5,5 
		72.7,16.3 	"/>
	<polygon class="st3" points="86.4,16.3 86.4,14.4 80.7,14.4 80.7,9.9 86.4,9.9 86.4,8 80.7,8 80.7,3.7 86.4,3.7 86.4,1.7 78.5,1.7 
		78.5,16.3 	"/>
	<path class="st3" d="M97.4,5.5c0-2.6-1.8-4.1-4.2-4.1c-2.3,0-4.1,1.8-4.1,4c0,2.1,0.8,3.3,4.4,4.5c1.6,0.5,2,1.2,2,2.3
		c0,1.4-0.9,2.5-2.4,2.5c-1.4,0-2.4-1.1-2.4-2.7h-2.1c0,2.8,1.9,4.6,4.5,4.6c2.6,0,4.5-1.8,4.5-4.4c0-2.5-1.2-3.7-4.3-4.7
		c-1.4-0.5-2.1-1-2.1-2.1c0-1.1,0.9-2,2-2c1.2,0,2.1,0.8,2.1,2.1H97.4z"/>
	<path class="st3" d="M109.6,14c-0.7,0.5-1.4,0.7-2.2,0.7c-1.7,0-3.3-0.9-4.4-2.3c0.6-0.3,1.1-0.3,1.7-0.3
		C106.2,12,107.7,12.6,109.6,14z M111.3,12.8c-2.2-1.8-4.4-2.8-6.4-2.8c-0.9,0-1.9,0.1-2.8,0.5c-0.2-0.6-0.2-1-0.2-1.5
		c0-3,2.3-5.7,5.5-5.7c2.9,0,5.3,2.7,5.3,5.6C112.7,10.5,112.2,11.6,111.3,12.8z M115.1,14.6H115c-0.8,0-1.3-0.1-2-0.5
		c1.2-1.7,1.8-3.3,1.8-5.1c0-4.3-3.3-7.6-7.6-7.6c-4,0-7.4,3.2-7.4,7.7c0,3.9,3.3,7.5,7.4,7.5c1.6,0,3-0.4,4.3-1.1
		c1.3,0.9,2.4,1.1,3.7,1.1V14.6z"/>
	<path class="st3" d="M125.5,11.5c0,1.8-1,3.1-2.8,3.1c-1.7,0-2.8-1.3-2.8-3.1V1.7h-2.1v10c0,3,2.2,4.9,4.9,4.9
		c2.8,0,4.9-1.8,4.9-4.9v-10h-2.1V11.5z"/>
	<rect x="131.3" y="1.7" class="st3" width="2.1" height="14.6"/>
	<polygon class="st3" points="148.9,16.3 148.9,1.7 146.7,1.7 146.7,12.8 146.7,12.8 139.6,1.7 137.2,1.7 137.2,16.3 139.4,16.3 
		139.4,5 139.4,5 146.6,16.3 	"/>
	<path class="st3" d="M159.8,10.1H156l1.9-5.6h0L159.8,10.1z M164.4,16.3l-5.6-14.6H157l-5.6,14.6h2.3l1.6-4.3h5.3l1.6,4.3H164.4z"
		/>
	<polygon class="st3" points="174.2,16.3 174.2,14.4 169.2,14.4 169.2,1.7 167,1.7 167,16.3 	"/>
	<path class="st3" d="M178.5,14.4V3.7h2.7c3,0,5.3,2.1,5.3,5.4c0,3.3-2,5.3-5.4,5.3H178.5z M181.1,16.3c4.6,0,7.5-2.9,7.5-7.3
		c0-3.8-2.7-7.3-7.1-7.3h-5.1v14.6H181.1z"/>
	<path class="st3" d="M206.3,8.9c0-4.1-3.3-7.5-7.7-7.5c-4.1,0-7.6,3.3-7.6,7.8c0,4,3.4,7.4,7.5,7.4
		C202.9,16.6,206.3,13.3,206.3,8.9z M198.7,14.7c-3.3,0-5.5-2.8-5.5-5.7c0-2.2,1.6-5.6,5.6-5.6c3.1,0,5.4,2.7,5.4,5.7
		C204.2,11.7,202.2,14.7,198.7,14.7z"/>
</g>
</svg>
