<?xml version="1.0" encoding="utf-8"?>
<!-- Generator: Adobe Illustrator 25.2.3, SVG Export Plug-In . SVG Version: 6.00 Build 0)  -->
<svg version="1.1" id="Layer_1" xmlns="http://www.w3.org/2000/svg" xmlns:xlink="http://www.w3.org/1999/xlink" x="0px" y="0px"
	 viewBox="0 0 716.8 531.1" style="enable-background:new 0 0 716.8 531.1;" xml:space="preserve">
<style type="text/css">
	.st0{fill:#0E1C28;}
	.st1{fill:none;stroke:#E2E8ED;stroke-width:2.25;stroke-miterlimit:10;}
</style>
<rect class="st0" width="716.8" height="531.1"/>
<line class="st1" x1="394.9" y1="263.9" x2="248" y2="263.9"/>
<line class="st1" x1="248.5" y1="209.8" x2="248.5" y2="357.4"/>
<line class="st1" x1="394.7" y1="357.1" x2="247.9" y2="357"/>
<path class="st1" d="M344.1,201.5c0-0.2-0.1-0.5-0.1-0.7V168c0-2.7,2.1-4.8,4.8-4.8h5c2.6,0,4.8,2.1,4.8,4.8c0,0,0,0,0,0v32.7
	c0,0.2,0,0.5-0.1,0.7L344.1,201.5z"/>
<path class="st1" d="M325.1,236.5c0,15,12.1,27.1,27.1,27.1s27.1-12.1,27.1-27.1s-12.1-27.1-27.1-27.1l0,0
	C337.2,209.4,325.1,221.5,325.1,236.5z M333.1,236.5c0-10.5,8.5-19,19-19s19,8.5,19,19s-8.5,19-19,19l0,0
	C341.7,255.5,333.1,247,333.1,236.5z"/>
<path class="st1" d="M336.8,258.8c2.7,1.9,5.8,3.2,9,4l-24.4,80.6l-8.2,10.6l-1.2-13.4L336.8,258.8z"/>
<path class="st1" d="M369.8,257l25.3,83.5l-1.2,13.4l-8.2-10.6l-24.6-81.4C364.3,261,367.3,259.3,369.8,257z"/>
<ellipse class="st1" cx="391.3" cy="356.2" rx="78.5" ry="21.8"/>
</svg>
