<?xml version="1.0" encoding="utf-8"?>
<!-- Generator: Adobe Illustrator 25.3.1, SVG Export Plug-In . SVG Version: 6.00 Build 0)  -->
<svg version="1.1" id="Layer_1" xmlns="http://www.w3.org/2000/svg" xmlns:xlink="http://www.w3.org/1999/xlink" x="0px" y="0px"
	 viewBox="0 0 716.8 531.1" style="enable-background:new 0 0 716.8 531.1;" xml:space="preserve">
<style type="text/css">
	.st0{fill:#0E1C28;}
	.st1{fill:none;stroke:#E2E8ED;stroke-width:2.25;stroke-linecap:round;stroke-miterlimit:10;}
	.st2{fill:none;stroke:#E2E8ED;stroke-width:2.25;stroke-miterlimit:10;}
</style>
<rect class="st0" width="716.8" height="531.1"/>
<path class="st1" d="M485.2,330.6v38c0,4.9-4,8.9-8.9,8.9l0,0H235.4c-4.9,0-8.9-4-8.9-8.9l0,0v-202c0-4.9,4-8.9,8.9-8.9l0,0h240.9
	c4.9,0,8.9,4,8.9,8.9l0,0v56.6"/>
<line class="st2" x1="226.1" y1="200.6" x2="484.8" y2="200.6"/>
<line class="st2" x1="282" y1="263.9" x2="428.9" y2="263.9"/>
<line class="st2" x1="336.1" y1="262.1" x2="336.1" y2="348.1"/>
<line class="st2" x1="347.8" y1="327.9" x2="427.7" y2="327.9"/>
<line class="st2" x1="347.2" y1="310" x2="427" y2="310"/>
<line class="st2" x1="347.8" y1="292.2" x2="427.7" y2="292.2"/>
<path class="st2" d="M288.6,225.2h134.6c2.8,0,5,2.2,5,5V343c0,2.8-2.2,5-5,5H288.6c-2.8,0-5-2.2-5-5V230.2
	C283.6,227.4,285.8,225.2,288.6,225.2z"/>
<path class="st2" d="M377.2,170.7h6.9c1.7,0,3,1.3,3,3v6.9c0,1.7-1.3,3-3,3h-6.9c-1.7,0-3-1.3-3-3v-6.9
	C374.2,172,375.6,170.7,377.2,170.7z"/>
<path class="st2" d="M415.2,170.7h6.9c1.7,0,3,1.3,3,3v6.9c0,1.7-1.3,3-3,3h-6.9c-1.7,0-3-1.3-3-3v-6.9
	C412.2,172,413.6,170.7,415.2,170.7z"/>
<path class="st2" d="M452.6,170.7h6.9c1.7,0,3,1.3,3,3v6.9c0,1.7-1.3,3-3,3h-6.9c-1.7,0-3-1.3-3-3v-6.9
	C449.6,172,450.9,170.7,452.6,170.7z"/>
<path class="st2" d="M488.9,291.2l17.6-1.5l-38.4-36l-1,52.2l14.3-12.3l8.4,19.5c0.4,0.9,1.5,1.4,2.4,1l0,0l3.8-1.6
	c0.9-0.4,1.4-1.5,1-2.4c0,0,0,0,0-0.1L488.9,291.2z"/>
<line class="st1" x1="457.5" y1="231.8" x2="462.2" y2="242.4"/>
<line class="st1" x1="445.9" y1="243.5" x2="456.6" y2="247.9"/>
<line class="st1" x1="471" y1="242.2" x2="475.7" y2="231.6"/>
<line class="st1" x1="476.6" y1="248.4" x2="487.3" y2="243.9"/>
<line class="st1" x1="446.9" y1="261.6" x2="457.5" y2="257.1"/>
</svg>
