<?xml version="1.0" encoding="utf-8"?>
<!-- Generator: Adobe Illustrator 25.2.3, SVG Export Plug-In . SVG Version: 6.00 Build 0)  -->
<svg version="1.1" id="Layer_1" xmlns="http://www.w3.org/2000/svg" xmlns:xlink="http://www.w3.org/1999/xlink" x="0px" y="0px"
	 viewBox="0 0 716.8 531.1" style="enable-background:new 0 0 716.8 531.1;" xml:space="preserve">
<style type="text/css">
	.st0{fill:#0E1C28;}
	.st1{fill:none;stroke:#E2E8ED;stroke-width:2.25;stroke-miterlimit:10;}
	.st2{fill:#E2E8ED;}
</style>
<g>
	<rect class="st0" width="716.8" height="531.1"/>
	<line class="st1" x1="282" y1="289.3" x2="428.9" y2="289.3"/>
	<line class="st1" x1="336.1" y1="292.5" x2="336.1" y2="378.5"/>
	<line class="st1" x1="347.8" y1="352.9" x2="417.5" y2="352.9"/>
	<line class="st1" x1="347.2" y1="334.9" x2="416.9" y2="334.9"/>
	<line class="st1" x1="347.8" y1="317.1" x2="417.5" y2="317.1"/>
	<line class="st1" x1="347.8" y1="270.4" x2="417.5" y2="270.4"/>
	<line class="st1" x1="347.2" y1="252.4" x2="416.9" y2="252.4"/>
	<line class="st1" x1="347.8" y1="234.6" x2="417.5" y2="234.6"/>
	<line class="st1" x1="296.4" y1="197.1" x2="416.9" y2="197.1"/>
	<line class="st1" x1="296.4" y1="213.7" x2="375.1" y2="213.7"/>
	<line class="st1" x1="297" y1="179.3" x2="417.5" y2="179.3"/>
	<path class="st1" d="M289.4,157.3h133c3.2,0,5.8,2.6,5.8,5.8v209.6c0,3.2-2.6,5.8-5.8,5.8h-133c-3.2,0-5.8-2.6-5.8-5.8V163.1
		C283.6,159.9,286.2,157.3,289.4,157.3z"/>
	<rect x="299.5" y="234" class="st1" width="37.8" height="37"/>
	<path class="st2" d="M457.8,176H430v2.2h27.8c8.4-4.9,1.7,107.5,3.7,108.6H430v2.2h31.6V358c0,2.1-1.7,3.7-3.7,3.7H430v2.2h27.8
		c3.3,0,6-2.7,6-6V182C463.8,178.7,461.1,176,457.8,176z"/>
</g>
</svg>
