<?xml version="1.0" encoding="utf-8"?>
<!-- Generator: Adobe Illustrator 25.3.1, SVG Export Plug-In . SVG Version: 6.00 Build 0)  -->
<svg version="1.1" id="Layer_1" xmlns="http://www.w3.org/2000/svg" xmlns:xlink="http://www.w3.org/1999/xlink" x="0px" y="0px"
	 viewBox="0 0 716.8 531.1" style="enable-background:new 0 0 716.8 531.1;" xml:space="preserve">
<style type="text/css">
	.st0{fill:#0E1C28;}
	.st1{fill:none;stroke:#E2E8ED;stroke-width:2.25;stroke-linecap:round;stroke-miterlimit:10;}
</style>
<rect class="st0" width="716.8" height="531.1"/>
<g>
	<polygon class="st1" points="303.6,211.6 282.1,211.6 271.4,230.1 282.1,248.7 303.6,248.7 314.3,230.1 	"/>
	<polygon class="st1" points="320.4,303.8 299,303.8 288.3,322.4 299,341 320.4,341 331.2,322.4 	"/>
	<polygon class="st1" points="372.7,328.7 351.2,328.7 340.5,347.2 351.2,365.8 372.7,365.8 383.4,347.2 	"/>
	<polygon class="st1" points="423.4,304.7 402,304.7 391.3,323.2 402,341.8 423.4,341.8 434.2,323.2 	"/>
	<polygon class="st1" points="385.5,253.9 367.2,254.6 350.2,271.9 340.9,313.2 378.6,294.4 392.5,265.9 	"/>
	<polyline class="st1" points="367.1,241.5 341.6,197.2 270.5,197.2 234.9,258.8 270.5,320.4 271.1,320.4 304.2,377.6 356.4,377.6 
		375.3,377.6 427.5,377.6 463,316.1 431,267.2 414.2,267.2 	"/>
	<polygon class="st1" points="391.2,241.9 376.1,241.9 400.1,196.4 436.3,156.1 451.9,156 456.3,172.4 432.3,216.7 399.6,256.1 	"/>
</g>
</svg>
