<?xml version="1.0" encoding="utf-8"?>
<!-- Generator: Adobe Illustrator 25.3.1, SVG Export Plug-In . SVG Version: 6.00 Build 0)  -->
<svg version="1.1" id="Layer_1" xmlns="http://www.w3.org/2000/svg" xmlns:xlink="http://www.w3.org/1999/xlink" x="0px" y="0px"
	 viewBox="0 0 716.8 531.1" style="enable-background:new 0 0 716.8 531.1;" xml:space="preserve">
<style type="text/css">
	.st0{fill:#122233;}
	.st1{fill:none;stroke:#E2E8ED;stroke-width:2.25;stroke-linecap:round;stroke-miterlimit:10;}
</style>
<rect class="st0" width="716.8" height="531.1"/>
<g>
	<path class="st1" d="M480.2,378H236.9c-5,0-9-4-9-9V165c0-5,4-9,9-9h243.3c5,0,9,4,9,9v204C489.2,374,485.2,378,480.2,378z"/>
	<line class="st1" x1="227.6" y1="199.4" x2="488.8" y2="199.4"/>
	<path class="st1" d="M259.5,182.2h-7c-1.7,0-3-1.4-3-3v-7c0-1.7,1.4-3,3-3h7c1.7,0,3,1.4,3,3v7
		C262.5,180.8,261.2,182.2,259.5,182.2z"/>
	<path class="st1" d="M425.5,182.2h-7c-1.7,0-3-1.4-3-3v-7c0-1.7,1.4-3,3-3h7c1.7,0,3,1.4,3,3v7
		C428.5,180.8,427.2,182.2,425.5,182.2z"/>
	<path class="st1" d="M463.2,182.2h-7c-1.7,0-3-1.4-3-3v-7c0-1.7,1.4-3,3-3h7c1.7,0,3,1.4,3,3v7
		C466.2,180.8,464.9,182.2,463.2,182.2z"/>
	<polygon class="st1" points="322.8,230.2 322.8,327.1 418.8,282.8 	"/>
</g>
<line class="st1" x1="411.5" y1="269.6" x2="489.5" y2="237.3"/>
<line class="st1" x1="229.1" y1="287.5" x2="310.8" y2="287.5"/>
<line class="st1" x1="488.4" y1="266.8" x2="248.7" y2="376.8"/>
</svg>
