<svg xmlns="http://www.w3.org/2000/svg" xmlns:xlink="http://www.w3.org/1999/xlink" viewBox="0 0 597 374"><defs><style>.cls-1{fill:#2d2d2d;}.cls-2{fill:#b6a749;}.cls-3{fill:#fff;}.cls-4{fill:#2fa05a;}.cls-5{fill:#8cc541;}.cls-6{fill:#c14858;}.cls-7{fill:#357cb7;}.cls-8{fill:#85c778;}.cls-9{fill:#3f73b6;}.cls-10{fill:#146670;}.cls-11{fill:url(#linear-gradient);}.cls-12{fill:url(#Orange_Yellow_2);}.cls-13{fill:#c04958;}.cls-14{fill:url(#linear-gradient-2);}.cls-15{fill:url(#linear-gradient-3);}.cls-16{fill:url(#linear-gradient-4);}.cls-17{fill:url(#linear-gradient-5);}.cls-18{fill:url(#linear-gradient-6);}.cls-19{fill:url(#linear-gradient-7);}.cls-20{fill:url(#linear-gradient-8);}.cls-21{fill:url(#linear-gradient-9);}.cls-22{fill:#79939c;}.cls-23{fill:#644c9f;}</style><linearGradient id="linear-gradient" x1="503.95" y1="237.87" x2="492.73" y2="226.92" gradientUnits="userSpaceOnUse"><stop offset="0.28" stop-color="#fdc812"/><stop offset="0.67" stop-color="#f3903f"/><stop offset="0.89" stop-color="#ed673c"/><stop offset="1" stop-color="#e93f39"/></linearGradient><linearGradient id="Orange_Yellow_2" x1="488.02" y1="231.8" x2="507.46" y2="231.8" gradientUnits="userSpaceOnUse"><stop offset="0" stop-color="#fcef44"/><stop offset="0.05" stop-color="#fce234"/><stop offset="0.12" stop-color="#fdd421"/><stop offset="0.2" stop-color="#fdcb16"/><stop offset="0.28" stop-color="#fdc812"/><stop offset="0.67" stop-color="#f3903f"/><stop offset="0.89" stop-color="#ed673c"/><stop offset="1" stop-color="#e93f39"/></linearGradient><linearGradient id="linear-gradient-2" x1="278.53" y1="148.73" x2="278.53" y2="133.82" gradientUnits="userSpaceOnUse"><stop offset="0" stop-color="#4479bd"/><stop offset="0.08" stop-color="#586cb3"/><stop offset="0.19" stop-color="#6b5faa"/><stop offset="0.31" stop-color="#7657a5"/><stop offset="0.42" stop-color="#7a55a3"/><stop offset="1" stop-color="#bd1d7b"/></linearGradient><linearGradient id="linear-gradient-3" x1="278.51" y1="148.73" x2="278.51" y2="133.82" xlink:href="#linear-gradient-2"/><linearGradient id="linear-gradient-4" x1="269.18" y1="148.73" x2="269.18" y2="133.82" xlink:href="#linear-gradient-2"/><linearGradient id="linear-gradient-5" x1="267.8" y1="148.73" x2="267.8" y2="133.82" xlink:href="#linear-gradient-2"/><linearGradient id="linear-gradient-6" x1="288.5" y1="148.73" x2="288.5" y2="133.82" xlink:href="#linear-gradient-2"/><linearGradient id="linear-gradient-7" x1="289.88" y1="148.73" x2="289.88" y2="133.82" xlink:href="#linear-gradient-2"/><linearGradient id="linear-gradient-8" x1="287.45" y1="148.73" x2="287.45" y2="133.82" xlink:href="#linear-gradient-2"/><linearGradient id="linear-gradient-9" x1="269.92" y1="148.73" x2="269.92" y2="133.82" xlink:href="#linear-gradient-2"/></defs><g id="Layer_2" data-name="Layer 2"><g id="Layer_1-2" data-name="Layer 1"><rect class="cls-1" width="597" height="374"/><path class="cls-2" d="M121.37,141c.13,0,.21.05.23.31.25,3.19-2.83,6.55-7.66,6.93-6.7.53-12.24-2.29-16.63-2-4,.32-5.33,2.7-5.18,4.57.11,1.33.94,2,2,1.92a1.69,1.69,0,0,0,.68-3.15s-.23-.11-.24-.23a.21.21,0,0,1,.16-.24.69.69,0,0,1,.3.08,2.13,2.13,0,0,1,1.1,1.66,2.27,2.27,0,0,1-2,2.43c-1.32.1-2.36-.75-2.49-2.44-.17-2.13,1.28-4.81,5.62-5.15,4.8-.38,10.28,2.45,16.69,1.94,4.61-.36,7.49-3.43,7.26-6.37C121.21,141.13,121.24,141,121.37,141Z"/><path class="cls-2" d="M66,138.24c-.14,0-.21,0-.25-.27-.38-2.88,2.67-6.13,7.64-6.8,6.9-.93,12.74,1.26,17.25.65,4.11-.56,5.4-2.81,5.18-4.49a1.77,1.77,0,0,0-2.12-1.61,1.67,1.67,0,0,0-1.49,1.77,1.57,1.57,0,0,0,.91,1.13s.25.08.26.19a.19.19,0,0,1-.15.23.71.71,0,0,1-.31,0,1.92,1.92,0,0,1-1.21-1.43,2.2,2.2,0,0,1,1.93-2.34,2.23,2.23,0,0,1,2.68,2c.26,1.93-1.14,4.45-5.61,5.06-4.95.67-10.72-1.54-17.32-.64-4.75.64-7.6,3.61-7.25,6.27C66.19,138.08,66.16,138.22,66,138.24Z"/><path class="cls-2" d="M84.48,118.2A6.12,6.12,0,0,1,93.13,117a7.08,7.08,0,0,1,2.5,4.88c1.68-2.13,4.8-3.26,7.3-1.44,1.91,1.39,2.69,4,.41,7.11-4,5.48-12.89,7.53-15.06,7.26a.78.78,0,0,1-.22-.09.27.27,0,0,1-.08-.38c.1-.14.37-.12.37-.12,2.11.26,10.68-1.71,14.52-7,2-2.82,1.36-5.13-.28-6.32-2.36-1.71-5.27-.43-6.79,1.67,0,0-.31.38-.64.14s-.14-.53-.14-.53-.14-3.17-2.24-4.7A5.42,5.42,0,0,0,85,118.61c-3.36,4.62,2.18,11.48,4.94,13.17,0,0,.3.18.13.41a.35.35,0,0,1-.42.09C86.53,130.36,80.89,123.15,84.48,118.2Z"/><path class="cls-3" d="M65.11,146.65l4.31-9.83,1.3-.16.55,9.25-1.56.19,0-2-2.13.25-.86,2.11Zm4.51-3.8-.08-3.36h0L68.06,143Z"/><path class="cls-3" d="M75.27,140.66a.48.48,0,0,0-.15-.49.72.72,0,0,0-.51-.11,1,1,0,0,0-.61.27,1,1,0,0,0-.29.5.62.62,0,0,0,0,.36c.05.11.21.2.49.26l.85.21a1.47,1.47,0,0,1,1,.66,1.7,1.7,0,0,1,.1,1.08,2.21,2.21,0,0,1-.33.82,3.1,3.1,0,0,1-.61.7,3,3,0,0,1-.82.53,3,3,0,0,1-1,.28,1.89,1.89,0,0,1-1.48-.34,1.19,1.19,0,0,1-.4-.57,1.89,1.89,0,0,1,0-.87l1.47-.17a1,1,0,0,0,.12.49c.09.15.28.21.57.17a1.4,1.4,0,0,0,.65-.26,1,1,0,0,0,.37-.58.58.58,0,0,0-.07-.46.91.91,0,0,0-.55-.28l-.7-.15a1.66,1.66,0,0,1-1-.58,1.31,1.31,0,0,1-.19-1.11,2.24,2.24,0,0,1,.34-.82,2.94,2.94,0,0,1,.63-.69,3,3,0,0,1,.8-.5,3.24,3.24,0,0,1,.91-.25,2.34,2.34,0,0,1,.85.05,1.28,1.28,0,0,1,.62.33,1.2,1.2,0,0,1,.33.58,1.75,1.75,0,0,1,0,.76Z"/><path class="cls-3" d="M76.38,145.3l1.88-9.54,1.56-.19L79.15,139h0a3.64,3.64,0,0,1,.7-.6,2.13,2.13,0,0,1,.92-.31,1.75,1.75,0,0,1,.56,0,.91.91,0,0,1,.47.23.93.93,0,0,1,.26.47,1.73,1.73,0,0,1,0,.75l-1,5.21-1.56.19.93-4.7a.69.69,0,0,0-.09-.57.56.56,0,0,0-.52-.15,1,1,0,0,0-.66.32,1.6,1.6,0,0,0-.31.72l-.9,4.57Z"/><path class="cls-3" d="M83.65,135.12l1.56-.19-1.51,7.63q-.08.38.06.51a.88.88,0,0,0,.57.1l-.25,1.29a5.35,5.35,0,0,1-1,0,1.24,1.24,0,0,1-.68-.2.81.81,0,0,1-.36-.51,2.43,2.43,0,0,1,0-.95Z"/><path class="cls-3" d="M89.81,140.94l-3.09.37-.18.93a.46.46,0,0,0,.11.47.68.68,0,0,0,.52.11.94.94,0,0,0,.64-.3,1.75,1.75,0,0,0,.26-.48l1.56-.19a2.65,2.65,0,0,1-.91,1.53,3.5,3.5,0,0,1-.82.53,3.28,3.28,0,0,1-1,.27,2.22,2.22,0,0,1-1.19-.12,1.22,1.22,0,0,1-.65-.61,1.35,1.35,0,0,1-.11-.59,5.76,5.76,0,0,1,.09-.76l.44-2.24a5.77,5.77,0,0,1,.22-.77,2.22,2.22,0,0,1,.35-.64,3.06,3.06,0,0,1,.93-.81,3.31,3.31,0,0,1,1.3-.41,2.35,2.35,0,0,1,.93,0,1.41,1.41,0,0,1,.66.36,1.55,1.55,0,0,1,.31,1.44Zm-2.88-.7,1.53-.18.16-.78a.62.62,0,0,0-.09-.56.65.65,0,0,0-.52-.13,1,1,0,0,0-.6.27,1,1,0,0,0-.32.6Z"/><path class="cls-3" d="M90.33,137.19,92,137l.23,4.11h0l1.89-4.36,1.61-.19-3.81,8.24a3,3,0,0,1-.49.79,3.13,3.13,0,0,1-.61.55,2.78,2.78,0,0,1-.67.33,3.44,3.44,0,0,1-.69.16l-.43,0,.25-1.29.35,0a1.54,1.54,0,0,0,.41-.1,1,1,0,0,0,.36-.28,3.6,3.6,0,0,0,.33-.56c.12-.23.26-.56.43-1Z"/><path class="cls-3" d="M100.73,139.85l-.12.59a2.27,2.27,0,0,1-.35.86,3.47,3.47,0,0,1-.67.77,3.73,3.73,0,0,1-.88.58,3.09,3.09,0,0,1-1,.3,3.24,3.24,0,0,1-.88,0,1.64,1.64,0,0,1-.75-.27,1.34,1.34,0,0,1-.47-.62,2,2,0,0,1,0-1.05l1-5.26a2.53,2.53,0,0,1,.36-.89,3.12,3.12,0,0,1,.65-.76,4.13,4.13,0,0,1,.9-.56,3.78,3.78,0,0,1,1.06-.29,1.93,1.93,0,0,1,1.67.42,1.45,1.45,0,0,1,.38.66,1.82,1.82,0,0,1,0,.9l-.1.54L100,136l.09-.45a.8.8,0,0,0-.13-.67.64.64,0,0,0-.64-.21,1.17,1.17,0,0,0-.84.41,2,2,0,0,0-.34.82l-1,4.88a1,1,0,0,0,.07.67c.1.17.33.23.69.19a1.33,1.33,0,0,0,.34-.09,1.14,1.14,0,0,0,.64-.51,1.3,1.3,0,0,0,.19-.48l.09-.47Z"/><path class="cls-3" d="M100.9,142.49l1.34-6.8,1.56-.18-.14.72a6.6,6.6,0,0,1,1-.7,3.15,3.15,0,0,1,1.17-.35l-.29,1.45a1.33,1.33,0,0,0-.45,0,2.62,2.62,0,0,0-.55.14,2.39,2.39,0,0,0-.56.31,2.33,2.33,0,0,0-.49.5,2.13,2.13,0,0,0-.29.72l-.79,4Z"/><path class="cls-3" d="M107.54,141.7l.13-.7h0a3.84,3.84,0,0,1-.73.65,2.13,2.13,0,0,1-.92.31,2,2,0,0,1-.54,0,.93.93,0,0,1-.49-.21.88.88,0,0,1-.32-.49,2.15,2.15,0,0,1,0-.9,4.71,4.71,0,0,1,.3-1,2.37,2.37,0,0,1,.54-.78,2.48,2.48,0,0,1,.84-.51,4.64,4.64,0,0,1,1.23-.29l.17,0h.35l.22,0,.15-.71a.8.8,0,0,0-.06-.55c-.08-.14-.27-.2-.57-.16a1.3,1.3,0,0,0-1,.79l-1.51.18a3,3,0,0,1,1-1.56,3.55,3.55,0,0,1,.82-.51,3.9,3.9,0,0,1,1-.27,2.6,2.6,0,0,1,.89,0,1.47,1.47,0,0,1,.68.31,1.31,1.31,0,0,1,.35.61,2,2,0,0,1,0,.92l-.93,4.73Zm.57-2.93h-.42a2.11,2.11,0,0,0-.9.32,1.12,1.12,0,0,0-.51.8.72.72,0,0,0,.09.6.57.57,0,0,0,.55.17,1.12,1.12,0,0,0,.66-.3,1.18,1.18,0,0,0,.35-.67Z"/><path class="cls-3" d="M110,141.4l1.13-5.72-.77.09.22-1.07.76-.09.18-.93a2.41,2.41,0,0,1,.34-.85,2.54,2.54,0,0,1,1.27-1,2.92,2.92,0,0,1,.76-.19l.71-.08-.25,1.28-.7.09a.58.58,0,0,0-.55.52l-.2,1,1.16-.14-.21,1.08-1.16.13-1.13,5.73Z"/><path class="cls-3" d="M115.5,134.28l.41-2.06,1.56-.19-.41,2.07,1-.12-.21,1.07-1,.12-.75,3.77a1.19,1.19,0,0,0,0,.36.24.24,0,0,0,.14.18.59.59,0,0,0,.28.05l.44,0-.26,1.29-.64.07a2,2,0,0,1-.87,0,1.12,1.12,0,0,1-.5-.3,1,1,0,0,1-.21-.48,1.69,1.69,0,0,1,0-.55l.82-4.12-.78.09.21-1.07Z"/><path class="cls-3" d="M120.88,135.3a.49.49,0,0,0-.15-.49.78.78,0,0,0-.51-.11,1,1,0,0,0-.61.28,1,1,0,0,0-.29.5.69.69,0,0,0,0,.35c.05.12.21.2.49.27l.86.21a1.44,1.44,0,0,1,1,.66,1.66,1.66,0,0,1,.11,1.07,2.34,2.34,0,0,1-.34.82,3.15,3.15,0,0,1-.61.71,3.31,3.31,0,0,1-1.78.8,1.87,1.87,0,0,1-1.49-.33,1.34,1.34,0,0,1-.4-.58,1.74,1.74,0,0,1,0-.86l1.46-.18a1,1,0,0,0,.12.5c.09.15.28.2.58.17a1.42,1.42,0,0,0,.64-.27.9.9,0,0,0,.37-.58.55.55,0,0,0-.07-.46.91.91,0,0,0-.54-.27l-.71-.15a1.77,1.77,0,0,1-1-.58,1.33,1.33,0,0,1-.19-1.11,2.34,2.34,0,0,1,.34-.82,3.2,3.2,0,0,1,.63-.7,3.13,3.13,0,0,1,.8-.49,3.22,3.22,0,0,1,.92-.25,2.38,2.38,0,0,1,.85,0,1.44,1.44,0,0,1,.61.33,1.24,1.24,0,0,1,.33.58,1.66,1.66,0,0,1,0,.77Z"/><path class="cls-3" d="M123.05,133.74a.79.79,0,1,1,.78-.79A.79.79,0,0,1,123.05,133.74Zm0-1.46a.68.68,0,0,0-.68.67.69.69,0,0,0,.68.68.68.68,0,0,0,.67-.68A.67.67,0,0,0,123.05,132.28Z"/><path class="cls-3" d="M123,133.07a.19.19,0,0,1,0,.08.13.13,0,0,1,0,.08s0,0-.06.05l-.12,0-.08,0-.07,0,0-.07a.22.22,0,0,1,0-.08v0h.11v0a.2.2,0,0,0,0,.09.08.08,0,0,0,.07,0h.05l0,0s0,0,0,0,0,0,0,0v-.46H123Z"/><path class="cls-3" d="M123.09,132.62h.48v.1h-.36v.17h.33v.1h-.33v.19h.36v.1h-.48Z"/><path class="cls-4" d="M479.16,135h5.47c2.28,0,3.38,1,3.38,2.47a2.4,2.4,0,0,1-1.92,2.34,2.17,2.17,0,0,1,1.42,2c0,2.44-2.29,3.2-4.48,3.2h-6Zm1.35,7.95h2.15c1,0,1.61-.31,1.61-1.12,0-.55-.39-.92-1.28-.92h-2.05Zm2.94-4.09c.79,0,1.37-.23,1.37-1s-.42-.83-1.1-.83h-2l-.38,1.78Z"/><path class="cls-4" d="M493.22,135l-2.12,10H488l2.12-10Z"/><path class="cls-4" d="M502.89,145h-2.1a4.11,4.11,0,0,1,0-.88,3.92,3.92,0,0,1-3.16,1.11c-3,0-4.26-2.08-4.26-4.39a6,6,0,0,1,6.23-6.09c3,0,4.57,1.46,4.74,3.27h-3.11c-.06-.49-.43-1.15-1.76-1.15-1.76,0-2.8,2-2.8,3.84,0,1.51.59,2.35,1.88,2.35a2,2,0,0,0,2.14-1.65v-.05h-2l.58-2.19h4.89Z"/><path class="cls-5" d="M513.58,135l-2.12,10h-3.09l2.13-10Z"/><path class="cls-5" d="M523.25,145h-2.1a4.11,4.11,0,0,1,0-.88,3.92,3.92,0,0,1-3.16,1.11c-3,0-4.25-2.08-4.25-4.39a5.94,5.94,0,0,1,6.23-6.09c3,0,4.57,1.46,4.74,3.27h-3.11c-.06-.49-.43-1.15-1.76-1.15-1.77,0-2.81,2-2.81,3.84,0,1.51.59,2.35,1.88,2.35a2,2,0,0,0,2.14-1.65v-.05h-2l.59-2.19h4.88Z"/><path class="cls-5" d="M508.18,145.49l0-.86a16.3,16.3,0,0,0-1.68-6.36,1,1,0,0,0,.21-.57,1,1,0,0,0-.86-1.11.92.92,0,0,0-1,.91,1,1,0,0,0,.86,1.12h.08a18.76,18.76,0,0,1,1.08,6l0,.76c0,.26-.06.5-.08.75a10,10,0,0,1-.28,1.45,7.23,7.23,0,0,1-1.27,2.47,3.92,3.92,0,0,1-2.08,1.38l-.61.09-.61,0a4.47,4.47,0,0,1-1.23-.34,2,2,0,0,1-1.23-1.93,12.71,12.71,0,0,1,.22-1.33c.35,1.58,1.16,2,1.16,2-1.13-1.71.05-5.14.05-5.14a12.85,12.85,0,0,0-.79,1.1l-.24.32a6,6,0,0,0-1.35,3,3.46,3.46,0,0,0,.29,1.93,3.21,3.21,0,0,0,1.35,1.4,5,5,0,0,0,1.61.56c.28,0,.57.06.85.07l.86-.1a5.13,5.13,0,0,0,2.84-1.83,8.53,8.53,0,0,0,1.53-3.09,12.46,12.46,0,0,0,.29-1.71C508.13,146.07,508.18,145.78,508.18,145.49Zm-2.87-7.94a.45.45,0,0,1,.49-.45.51.51,0,0,1,.43.55.46.46,0,0,1-.49.46A.51.51,0,0,1,505.31,137.55Z"/><path class="cls-4" d="M505.33,136.7a.61.61,0,0,0,0,.13v0h.27c0-.07-.05-.16-.08-.24A1,1,0,0,0,505.33,136.7Z"/><path class="cls-4" d="M527.7,131.78c-1.53-5.72-7.76-9.22-13.93-7.83a10.87,10.87,0,0,0-8.74,9.84.21.21,0,0,0,0,.29l0,0a10.17,10.17,0,0,0,.27,2.43.86.86,0,0,1,.23-.06.23.23,0,0,1,0-.09,8.52,8.52,0,0,1-.29-2.22.22.22,0,0,0,.13,0,.21.21,0,0,0,.06-.31.24.24,0,0,0-.18-.09,8.62,8.62,0,0,1,.82-3.28s0,0,0,0a.26.26,0,0,0,.34.06.21.21,0,0,0,.06-.31.25.25,0,0,0-.28-.08,9.93,9.93,0,0,1,2.86-3.38.33.33,0,0,0,0,.42.43.43,0,0,0,.55.08.35.35,0,0,0,.09-.5.42.42,0,0,0-.5-.1,11.41,11.41,0,0,1,4.24-1.92c.33-.07.66-.13,1-.17a.48.48,0,0,0,0,.56.61.61,0,0,0,.79.12.49.49,0,0,0,.14-.72s0,0-.05,0a11.2,11.2,0,0,1,5.66,1.2.64.64,0,0,0-.24.1.55.55,0,0,0-.16.82.69.69,0,0,0,.91.14.56.56,0,0,0,.25-.63,9.88,9.88,0,0,1,4.42,5.83,9.34,9.34,0,0,1,.31,2.49l-.16-.07s0,0,0,0c.24-.94-.13-1.81-.83-2a1.44,1.44,0,0,0-1.44.82l-.15-.11c.14-.19.16-.4,0-.48s-.39,0-.58.21-.23.47-.1.56.34,0,.51-.14l.19.13a2.85,2.85,0,0,0-.16.44c-.24.93.13,1.81.82,1.95a1.51,1.51,0,0,0,1.54-1l.28.13a9.25,9.25,0,0,1-.8,3.2l1.66,0A9.89,9.89,0,0,0,527.7,131.78Z"/><path class="cls-3" d="M265.87,334.6h-.19l-1.05-3-1,3h-.19l-1.39-4.47h.62l.89,3.08,1-3.08h.21l.95,3.07.9-3.07h.63Z"/><path class="cls-3" d="M271.08,333h-2.32a1.14,1.14,0,0,0,.31.87.94.94,0,0,0,.7.27,1.21,1.21,0,0,0,.82-.29l.24.41a1,1,0,0,1-.41.23,2.06,2.06,0,0,1-.76.13,1.44,1.44,0,0,1-1-.41,1.6,1.6,0,0,1-.47-1.22,1.74,1.74,0,0,1,.48-1.28,1.4,1.4,0,0,1,1-.43,1.49,1.49,0,0,1,1.08.39,1.3,1.3,0,0,1,.37,1A1.22,1.22,0,0,1,271.08,333Zm-1.39-1.24a.87.87,0,0,0-.64.25.94.94,0,0,0-.28.58h1.79a.85.85,0,0,0-.22-.58A.84.84,0,0,0,269.69,331.74Z"/><path class="cls-3" d="M273.18,334.31l-.2.29h-.29V330h.57v1.56a.7.7,0,0,1,.31-.21,1.19,1.19,0,0,1,.44-.09,1.35,1.35,0,0,1,1.07.46,1.67,1.67,0,0,1,.41,1.15,1.86,1.86,0,0,1-.41,1.27,1.43,1.43,0,0,1-1.12.46,1.2,1.2,0,0,1-.45-.09A.88.88,0,0,1,273.18,334.31Zm.08-2.32v1.86s.07.09.22.16a.85.85,0,0,0,.32.11,1.12,1.12,0,0,0,.84-.28,1.39,1.39,0,0,0,.25-.94,1.2,1.2,0,0,0-.29-.85,1.05,1.05,0,0,0-.8-.31,1.12,1.12,0,0,0-.54.25Z"/><path class="cls-3" d="M276.88,334.35l.2-.54a1.65,1.65,0,0,0,.77.31c.35,0,.53-.15.53-.45s-.17-.39-.51-.54a4.32,4.32,0,0,1-.53-.28,1.21,1.21,0,0,1-.24-.21.73.73,0,0,1-.15-.25.93.93,0,0,1-.05-.29.75.75,0,0,1,.29-.62,1.17,1.17,0,0,1,.75-.22,2.38,2.38,0,0,1,.89.22l-.16.53a1.12,1.12,0,0,0-.68-.27.56.56,0,0,0-.35.1.28.28,0,0,0-.14.24.51.51,0,0,0,.35.47l.41.19a1.34,1.34,0,0,1,.55.39.88.88,0,0,1,.17.55.82.82,0,0,1-.3.67,1.29,1.29,0,0,1-.84.25A2,2,0,0,1,276.88,334.35Z"/><path class="cls-3" d="M280.83,334.54V331.8h-.45v-.48h1v3.22Zm.31-4.44a.37.37,0,0,1,.25.1.35.35,0,0,1,.1.25.32.32,0,0,1-.1.25.34.34,0,0,1-.5,0,.32.32,0,0,1-.1-.25.34.34,0,0,1,.35-.35Z"/><path class="cls-3" d="M283.48,331.77h-.38v-.45h.38v-.68l.57-.21v.89h.88v.45h-.88v1.6a1,1,0,0,0,.13.58.57.57,0,0,0,.45.17,1.14,1.14,0,0,0,.45-.11l.08.5a3.1,3.1,0,0,1-.78.09.86.86,0,0,1-.64-.28,1,1,0,0,1-.26-.72Z"/><path class="cls-3" d="M289.39,333h-2.32a1.14,1.14,0,0,0,.31.87,1,1,0,0,0,.7.27,1.21,1.21,0,0,0,.82-.29l.24.41a1,1,0,0,1-.4.23,2.11,2.11,0,0,1-.77.13,1.44,1.44,0,0,1-1-.41,1.64,1.64,0,0,1-.47-1.22,1.74,1.74,0,0,1,.48-1.28,1.4,1.4,0,0,1,1-.43,1.46,1.46,0,0,1,1.08.39,1.31,1.31,0,0,1,.38,1A1.21,1.21,0,0,1,289.39,333ZM288,331.74a.86.86,0,0,0-.64.25.85.85,0,0,0-.28.58h1.78a.81.81,0,0,0-.22-.58A.83.83,0,0,0,288,331.74Z"/><path class="cls-3" d="M294.76,334.54h-.89v-4.41l1.09,0a2,2,0,0,1,1.46.56,2.09,2.09,0,0,1,.54,1.5C297,333.75,296.23,334.54,294.76,334.54Zm-.29-3.86V334a3.53,3.53,0,0,0,.5,0,1.2,1.2,0,0,0,1-.48,2.1,2.1,0,0,0,.36-1.31c0-1-.47-1.57-1.41-1.57Z"/><path class="cls-3" d="M301.28,333H299a1.14,1.14,0,0,0,.31.87,1,1,0,0,0,.7.27,1.21,1.21,0,0,0,.82-.29l.24.41a1,1,0,0,1-.4.23,2.11,2.11,0,0,1-.77.13,1.44,1.44,0,0,1-1-.41,1.64,1.64,0,0,1-.47-1.22,1.74,1.74,0,0,1,.48-1.28,1.4,1.4,0,0,1,1-.43,1.46,1.46,0,0,1,1.08.39,1.31,1.31,0,0,1,.38,1A1.21,1.21,0,0,1,301.28,333Zm-1.38-1.24a.86.86,0,0,0-.64.25.85.85,0,0,0-.28.58h1.78a.81.81,0,0,0-.22-.58A.83.83,0,0,0,299.9,331.74Z"/><path class="cls-3" d="M304.06,334.6h-.15l-1.38-3.29h.62l.85,2.25.87-2.25h.6Z"/><path class="cls-3" d="M309.59,333h-2.32a1.14,1.14,0,0,0,.31.87,1,1,0,0,0,.7.27,1.21,1.21,0,0,0,.82-.29l.24.41a1,1,0,0,1-.4.23,2.11,2.11,0,0,1-.77.13,1.44,1.44,0,0,1-1-.41,1.64,1.64,0,0,1-.47-1.22,1.74,1.74,0,0,1,.48-1.28,1.4,1.4,0,0,1,1-.43,1.46,1.46,0,0,1,1.08.39,1.31,1.31,0,0,1,.38,1A1.21,1.21,0,0,1,309.59,333Zm-1.39-1.24a.89.89,0,0,0-.64.25.94.94,0,0,0-.28.58h1.79a.81.81,0,0,0-.22-.58A.84.84,0,0,0,308.2,331.74Z"/><path class="cls-3" d="M311.25,333.63V330h.57v3.53a.56.56,0,0,0,.15.41.53.53,0,0,0,.39.15v.51C311.62,334.6,311.25,334.28,311.25,333.63Z"/><path class="cls-3" d="M313.78,332.92a1.72,1.72,0,0,1,.4-1.2,1.32,1.32,0,0,1,1.05-.46,1.37,1.37,0,0,1,1.08.44,2.14,2.14,0,0,1,0,2.45,1.5,1.5,0,0,1-2.14,0A1.85,1.85,0,0,1,313.78,332.92Zm.6,0c0,.81.28,1.21.85,1.21a.73.73,0,0,0,.63-.32,1.54,1.54,0,0,0,.23-.89c0-.8-.29-1.2-.86-1.2a.74.74,0,0,0-.62.32A1.53,1.53,0,0,0,314.38,332.92Z"/><path class="cls-3" d="M318.83,334.36v1.44h-.57v-4.48h.57v.26a1.1,1.1,0,0,1,.78-.32,1.34,1.34,0,0,1,1.07.43,2.15,2.15,0,0,1,0,2.44,1.37,1.37,0,0,1-1.11.47,1.39,1.39,0,0,1-.44-.07A.57.57,0,0,1,318.83,334.36Zm0-2.35v1.88a.48.48,0,0,0,.23.15.84.84,0,0,0,.34.08c.71,0,1.06-.4,1.06-1.2a1.33,1.33,0,0,0-.25-.9,1,1,0,0,0-.81-.28.75.75,0,0,0-.29.08A1.05,1.05,0,0,0,318.83,332Z"/><path class="cls-3" d="M326.38,334.54v-2c0-.51-.22-.76-.65-.76a.63.63,0,0,0-.39.13.69.69,0,0,0-.25.29v2.38h-.57v-2.29a.43.43,0,0,0-.18-.37.77.77,0,0,0-.47-.14.64.64,0,0,0-.37.13.81.81,0,0,0-.27.29v2.38h-.57v-3.22H323l.19.37a1,1,0,0,1,.82-.43,1,1,0,0,1,1,.43.8.8,0,0,1,.36-.31,1.29,1.29,0,0,1,.54-.12,1,1,0,0,1,.77.3,1.17,1.17,0,0,1,.28.83v2.15Z"/><path class="cls-3" d="M331.45,333h-2.33a1.18,1.18,0,0,0,.31.87,1,1,0,0,0,.71.27,1.23,1.23,0,0,0,.82-.29l.24.41a1.05,1.05,0,0,1-.41.23,2.06,2.06,0,0,1-.76.13,1.43,1.43,0,0,1-1-.41,1.61,1.61,0,0,1-.48-1.22,1.7,1.7,0,0,1,.49-1.28,1.39,1.39,0,0,1,1-.43,1.46,1.46,0,0,1,1.08.39,1.31,1.31,0,0,1,.38,1A1.22,1.22,0,0,1,331.45,333Zm-1.39-1.24a.87.87,0,0,0-.64.25.85.85,0,0,0-.28.58h1.78a.79.79,0,0,0-.86-.83Z"/><path class="cls-3" d="M335,334.54v-1.87a1.24,1.24,0,0,0-.15-.72.62.62,0,0,0-.52-.21.83.83,0,0,0-.41.12.94.94,0,0,0-.33.29v2.39h-.57v-3.22h.39l.18.41a1,1,0,0,1,.92-.47c.71,0,1.06.43,1.06,1.29v2Z"/><path class="cls-3" d="M337.6,331.77h-.38v-.45h.38v-.68l.57-.21v.89h.88v.45h-.88v1.6a1,1,0,0,0,.13.58.54.54,0,0,0,.44.17,1.14,1.14,0,0,0,.46-.11l.08.5a3.1,3.1,0,0,1-.78.09.86.86,0,0,1-.64-.28,1,1,0,0,1-.26-.72Z"/><path class="cls-3" d="M268,318.14a2,2,0,0,0-2.08-1.79c-1.6,0-2.54,1.26-2.54,3.43s1,3.45,2.61,3.45a2.06,2.06,0,0,0,1.72-.83,2.27,2.27,0,0,0,.4-1.13l2.73.41a5,5,0,0,1-1.09,2.41,4.73,4.73,0,0,1-3.68,1.43,5.32,5.32,0,0,1-3.9-1.45,6.06,6.06,0,0,1-1.53-4.29,6,6,0,0,1,1.6-4.33,5.3,5.3,0,0,1,3.77-1.36,4.55,4.55,0,0,1,3.88,1.72,4,4,0,0,1,.82,1.8Z"/><path class="cls-3" d="M292.41,319.7c.38.57.63,1,.95,1.57a19.29,19.29,0,0,1-.08-1.95v-3a14.09,14.09,0,0,0-.11-2H296a16,16,0,0,0-.1,2v7a17.53,17.53,0,0,0,.1,2h-2.88a13.76,13.76,0,0,0-1-1.67l-2.44-3.67a17,17,0,0,1-.95-1.62,17.73,17.73,0,0,1,.1,2v3a14.27,14.27,0,0,0,.1,2h-2.8a13.51,13.51,0,0,0,.1-2.06v-6.93a14.64,14.64,0,0,0-.1-2H289a9,9,0,0,0,.94,1.65Z"/><path class="cls-3" d="M305,318.14a2,2,0,0,0-2.08-1.79c-1.61,0-2.54,1.26-2.54,3.43s1,3.45,2.6,3.45a2.07,2.07,0,0,0,1.73-.83,2.27,2.27,0,0,0,.39-1.13l2.74.41a5,5,0,0,1-1.09,2.41,4.74,4.74,0,0,1-3.69,1.43,5.31,5.31,0,0,1-3.89-1.45,6,6,0,0,1-1.53-4.29,5.94,5.94,0,0,1,1.59-4.33,5.35,5.35,0,0,1,3.78-1.36,4.55,4.55,0,0,1,3.88,1.72,4.09,4.09,0,0,1,.82,1.8Z"/><path class="cls-3" d="M313.2,314.32a13.56,13.56,0,0,0-.1,1.95v7.05a14.13,14.13,0,0,0,.1,1.95h-2.89a12.54,12.54,0,0,0,.1-1.95v-7.05a12.31,12.31,0,0,0-.1-1.95Z"/><path class="cls-3" d="M318.45,321.7a1.77,1.77,0,0,0,.35,1,1.92,1.92,0,0,0,1.54.62c1,0,1.61-.45,1.61-1.19a1,1,0,0,0-.55-.92,10.81,10.81,0,0,0-2-.54,5.13,5.13,0,0,1-2.12-.76,3,3,0,0,1-1.28-2.53c0-2,1.63-3.3,4.23-3.3a4.29,4.29,0,0,1,3.66,1.5,3.74,3.74,0,0,1,.65,1.58l-2.79.3c-.15-.85-.63-1.21-1.63-1.21-.8,0-1.39.43-1.39,1a.88.88,0,0,0,.62.84,7.64,7.64,0,0,0,1.81.44,6.22,6.22,0,0,1,2.13.75,2.92,2.92,0,0,1,1.42,2.68,3.26,3.26,0,0,1-.92,2.42,4.8,4.8,0,0,1-3.46,1.12,6.32,6.32,0,0,1-2.93-.64,3.09,3.09,0,0,1-1.42-1.69,4.84,4.84,0,0,1-.29-1.22Z"/><path class="cls-3" d="M335.56,325.36a18.23,18.23,0,0,0-2.17-.09h-4.15c-1,0-1.36,0-1.93,0a12.12,12.12,0,0,0,.1-1.92V316.2a13.93,13.93,0,0,0-.1-1.92c.54,0,.91,0,1.93,0h4.2a15.35,15.35,0,0,0,2-.09v2.46a17.45,17.45,0,0,0-2-.09H330v1.93h2.84a15.68,15.68,0,0,0,2-.09v2.44a15.33,15.33,0,0,0-2-.1H330V323h3.4a17,17,0,0,0,2.14-.09Z"/><path class="cls-3" d="M336.77,314.45a1.18,1.18,0,0,1,.29-.4,1.22,1.22,0,0,1,.41-.25,1.38,1.38,0,0,1,1,0,1.24,1.24,0,0,1,.7.65,1.24,1.24,0,0,1,.1.52,1.27,1.27,0,0,1-.1.52,1.47,1.47,0,0,1-.29.4,1.33,1.33,0,0,1-.41.25,1.54,1.54,0,0,1-1,0,1.22,1.22,0,0,1-.41-.25,1.28,1.28,0,0,1-.29-.4,1.27,1.27,0,0,1-.1-.52A1.24,1.24,0,0,1,336.77,314.45Zm.31.91a1,1,0,0,0,.21.32.81.81,0,0,0,.3.21,1.11,1.11,0,0,0,.37.07,1.16,1.16,0,0,0,.37-.07,1,1,0,0,0,.3-.21,1.16,1.16,0,0,0,.2-.32,1,1,0,0,0,.08-.39,1,1,0,0,0-.08-.4,1.1,1.1,0,0,0-.2-.31,1,1,0,0,0-.3-.21A1.16,1.16,0,0,0,338,314a1.11,1.11,0,0,0-.37.07.81.81,0,0,0-.3.21,1,1,0,0,0-.21.31,1.15,1.15,0,0,0,0,.79Zm.91-1.1a.78.78,0,0,1,.41.09.45.45,0,0,1,.11.49.25.25,0,0,1-.08.12.24.24,0,0,1-.11.06.4.4,0,0,1-.15,0l.38.62h-.29l-.35-.6h-.17v.6h-.28v-1.41Zm0,.59a.5.5,0,0,0,.19,0c.06,0,.08-.08.08-.17a.29.29,0,0,0,0-.09l-.07-.05-.1,0h-.33v.37Z"/><rect class="cls-3" x="337.85" y="313.79" width="0.28" height="2.34" transform="translate(321.71 -146.75) rotate(45)"/><path class="cls-6" d="M278.17,326a6.12,6.12,0,1,1,6.11-6.12A6.12,6.12,0,0,1,278.17,326Zm0-11.43a5.32,5.32,0,1,0,5.32,5.31A5.32,5.32,0,0,0,278.17,314.52Z"/><path class="cls-6" d="M278.17,322.16c0-.19,0-.37,0-.55a.11.11,0,0,1,0-.07l2.35-3.54,0-.05v.59s0,0,0,.06l-2.34,3.52,0,0Z"/><line class="cls-6" x1="280.56" y1="318.6" x2="276.24" y2="325.18"/><path class="cls-6" d="M278.19,314.81a.5.5,0,0,0,0,.12v6.24l.05-.06,2.34-3.51a.2.2,0,0,0,0-.21,11.3,11.3,0,0,1-.14-1.76v-1.05a5.86,5.86,0,0,0-2.15-.46v.22A2.57,2.57,0,0,1,278.19,314.81Z"/><path class="cls-3" d="M491.33,324.85c2,0,3,.85,3,2.29a2.08,2.08,0,0,1-1.62,2.12v0c.62.19.89.55,1.27,1.59l.87,2.44h-1.19l-.77-2.24c-.35-1-.74-1.33-1.64-1.33h-1.48v3.57h-1.1v-8.46Zm-1.59,4h1.58c1.31,0,1.86-.68,1.86-1.59s-.7-1.44-1.94-1.44h-1.5Z"/><path class="cls-3" d="M497.27,330.79l-.93,2.52h-1.16l3.21-8.46h1.48l3.22,8.46h-1.18l-.91-2.52Zm3.1-1.74c-.43-1.17-.82-2.26-1.22-3.44h0c-.4,1.18-.79,2.27-1.22,3.44l-.29.78h3Z"/><path class="cls-3" d="M509.2,333.31l-1.42-3.7c-.5-1.26-1-2.53-1.44-3.79h0c-.09,1.26-.2,2.53-.33,3.79l-.35,3.7h-1.57l-3.2-8.46H502l1.3,3.42c.5,1.33,1,2.66,1.45,4h0c.1-1.32.22-2.66.36-4l.33-3.41H507l1.33,3.41c.52,1.33,1,2.67,1.52,4h0c.08-1.32.19-2.65.3-4l.3-3.42h1.09l-.74,8.46Z"/><path class="cls-3" d="M487.18,342.92l-.72-2.61c-.22-.88-.45-1.74-.66-2.62h0c-.22.88-.44,1.74-.67,2.62l-.71,2.61h-1.5l-1.6-6h1.05l.65,2.51c.22.89.45,1.82.66,2.71h0c.21-.87.43-1.77.67-2.65l.69-2.57h1.5l.68,2.57c.23.88.46,1.78.67,2.65h0c.22-.89.44-1.82.67-2.71l.64-2.51h1.06l-1.61,6Z"/><path class="cls-3" d="M495.25,341.11h1.07a2.52,2.52,0,0,1-2.66,2c-1.79,0-2.84-1.3-2.84-3.27a2.8,2.8,0,0,1,2.8-3.1,2.59,2.59,0,0,1,2.64,2.1,5.87,5.87,0,0,1,.12,1.3h-4.52c.05,1.48.81,2.16,1.8,2.16A1.51,1.51,0,0,0,495.25,341.11Zm-3.38-1.79h3.47c-.11-1.18-.79-1.79-1.72-1.79A1.74,1.74,0,0,0,491.87,339.32Z"/><path class="cls-3" d="M498.42,337.72a2.05,2.05,0,0,1,1.84-1c1.54,0,2.52,1.24,2.52,3.16s-1,3.17-2.53,3.17a2,2,0,0,1-1.84-1h0v.88h-1v-8.46h1v3.26Zm-.07,2.17c0,1.44.64,2.33,1.64,2.33s1.7-.92,1.7-2.33-.67-2.32-1.7-2.32S498.35,338.47,498.35,339.89Z"/><path class="cls-3" d="M508.17,342.92V342h0a2,2,0,0,1-1.85,1c-1.55,0-2.53-1.25-2.53-3.17s1-3.16,2.52-3.16a2.05,2.05,0,0,1,1.84,1h0v-3.26h1.05v8.46Zm-3.32-3c0,1.41.67,2.33,1.7,2.33s1.65-.89,1.65-2.33-.65-2.32-1.65-2.32S504.85,338.48,504.85,339.89Z"/><path class="cls-3" d="M514.55,341.11h1.07a2.51,2.51,0,0,1-2.66,2c-1.78,0-2.84-1.3-2.84-3.27a2.8,2.8,0,0,1,2.81-3.1,2.58,2.58,0,0,1,2.63,2.1,5.32,5.32,0,0,1,.12,1.3h-4.51c.05,1.48.81,2.16,1.79,2.16A1.5,1.5,0,0,0,514.55,341.11Zm-3.37-1.79h3.47a1.74,1.74,0,1,0-3.47,0Z"/><path class="cls-3" d="M518.25,342.92l-2.19-6h1.12l.86,2.53c.31.91.59,1.77.88,2.68h0c.28-.91.56-1.77.87-2.68l.86-2.53h1.12l-2.19,6Z"/><path class="cls-3" d="M504,303.87h-4.28v1.47a7,7,0,0,1,0,14v1.46H504a8.49,8.49,0,0,0,0-17Z"/><path class="cls-3" d="M499.09,320.84a8.49,8.49,0,1,1,8.48-8.48A8.48,8.48,0,0,1,499.09,320.84Zm0-15.53a7.05,7.05,0,1,0,7.05,7.05A7.05,7.05,0,0,0,499.09,305.31Z"/><path class="cls-7" d="M499.35,308.34l1.15.4-2.56,7.41-1.16-.4Z"/><path class="cls-7" d="M501.87,314.53l-.77-.94,1.76-1.42-1.74-1.24.71-1,3,2.16Z"/><path class="cls-7" d="M495.53,309.92l.71,1-1.74,1.25,1.76,1.41-.75,1-3-2.43Z"/><path class="cls-3" d="M522.84,337a.49.49,0,0,1,.11-.14.49.49,0,0,1,.15-.1.58.58,0,0,1,.19,0,.57.57,0,0,1,.18,0,.54.54,0,0,1,.16.1.47.47,0,0,1,0,.68.39.39,0,0,1-.16.1l-.18,0a.58.58,0,0,1-.19,0,.36.36,0,0,1-.15-.1.49.49,0,0,1-.11-.14.52.52,0,0,1,0-.4Zm.12.35a.42.42,0,0,0,.08.12.26.26,0,0,0,.11.07.32.32,0,0,0,.14,0,.35.35,0,0,0,.14,0,.26.26,0,0,0,.11-.07.83.83,0,0,0,.08-.12.57.57,0,0,0,0-.3l-.08-.12a.41.41,0,0,0-.11-.07.35.35,0,0,0-.14,0,.32.32,0,0,0-.14,0,.41.41,0,0,0-.11.07.42.42,0,0,0-.08.12.39.39,0,0,0,0,.3Z"/><path class="cls-3" d="M523.22,337.26v0a.19.19,0,0,0,0,.08l0,0a0,0,0,0,0,.05,0,.2.2,0,0,0,0-.05V337h.1v.34a.25.25,0,0,1,0,.1.14.14,0,0,1-.13.07.14.14,0,0,1-.13-.06.25.25,0,0,1,0-.13v0Z"/><path class="cls-3" d="M467.81,48a1.88,1.88,0,0,0-1.48.59,2.47,2.47,0,0,0-.51,1.67,2.3,2.3,0,0,0,.57,1.67,2,2,0,0,0,1.53.59,2.27,2.27,0,0,0,.87-.14,4.69,4.69,0,0,0,.68-.31,1.24,1.24,0,0,1,.34.42,1.26,1.26,0,0,1,.12.57,1,1,0,0,1-.57.87,3.32,3.32,0,0,1-1.74.36,5,5,0,0,1-1.57-.24,3.38,3.38,0,0,1-2.16-2,5.18,5.18,0,0,1,0-3.53,3.76,3.76,0,0,1,.84-1.26,3.67,3.67,0,0,1,1.25-.78,4.45,4.45,0,0,1,1.52-.26,3.54,3.54,0,0,1,1.79.37,1.12,1.12,0,0,1,.63,1,1,1,0,0,1-.16.56,1.52,1.52,0,0,1-.38.38,3.83,3.83,0,0,0-.69-.37A2.28,2.28,0,0,0,467.81,48Z"/><path class="cls-3" d="M470.86,48.1a3.06,3.06,0,0,1,.4-.08,4.92,4.92,0,0,1,.56,0,3.6,3.6,0,0,1,.49,0,1,1,0,0,1,.37.15.72.72,0,0,1,.23.31,1.41,1.41,0,0,1,.08.5v2.7a1,1,0,0,0,.25.73,1.12,1.12,0,0,0,.73.22,2,2,0,0,0,.47-.05l.28-.1V48.1a2.54,2.54,0,0,1,.39-.08,5.09,5.09,0,0,1,.56,0,3.75,3.75,0,0,1,.5,0,1,1,0,0,1,.36.15.83.83,0,0,1,.24.31,1.41,1.41,0,0,1,.08.5v3.81a1,1,0,0,1-.53.94,3.65,3.65,0,0,1-1,.42,6.14,6.14,0,0,1-1.32.14,4.92,4.92,0,0,1-1.25-.15,2.69,2.69,0,0,1-1-.46,2,2,0,0,1-.64-.81,2.87,2.87,0,0,1-.23-1.19Z"/><path class="cls-3" d="M480.28,54.08a3.45,3.45,0,0,1-.4.07,3.31,3.31,0,0,1-.55,0,2.53,2.53,0,0,1-.5,0,.73.73,0,0,1-.37-.15.64.64,0,0,1-.23-.3,1.43,1.43,0,0,1-.08-.51V49.44a1,1,0,0,1,.11-.5,1.17,1.17,0,0,1,.3-.37,2.35,2.35,0,0,1,.5-.29,3.58,3.58,0,0,1,.63-.23,5.1,5.1,0,0,1,.7-.16,4.4,4.4,0,0,1,.73-.06,1.76,1.76,0,0,1,.95.23.86.86,0,0,1,.35.76,1.41,1.41,0,0,1-.05.35,2.08,2.08,0,0,1-.13.3l-.54,0a4.51,4.51,0,0,0-.53.07l-.5.11a2.54,2.54,0,0,0-.39.13Z"/><path class="cls-3" d="M485.3,54.08a3.45,3.45,0,0,1-.4.07,3.36,3.36,0,0,1-.56,0,2.49,2.49,0,0,1-.49,0,.73.73,0,0,1-.37-.15.64.64,0,0,1-.23-.3,1.24,1.24,0,0,1-.08-.51V49.44a1.09,1.09,0,0,1,.1-.5,1.2,1.2,0,0,1,.31-.37,2.13,2.13,0,0,1,.5-.29,3.58,3.58,0,0,1,.63-.23,5.1,5.1,0,0,1,.7-.16,4.37,4.37,0,0,1,.72-.06,1.79,1.79,0,0,1,1,.23.86.86,0,0,1,.35.76,1.41,1.41,0,0,1-.05.35,2.08,2.08,0,0,1-.13.3l-.54,0a5,5,0,0,0-.54.07l-.49.11a2.22,2.22,0,0,0-.39.13Z"/><path class="cls-3" d="M491.29,54.29a4.63,4.63,0,0,1-1.37-.2,3.21,3.21,0,0,1-1.1-.62,3,3,0,0,1-.74-1,3.71,3.71,0,0,1-.27-1.47,3.43,3.43,0,0,1,.27-1.42,2.84,2.84,0,0,1,.71-1,2.69,2.69,0,0,1,1-.57,3.74,3.74,0,0,1,1.15-.18,3.57,3.57,0,0,1,1.21.2,3,3,0,0,1,.94.55,2.56,2.56,0,0,1,.61.84,2.52,2.52,0,0,1,.22,1.06.88.88,0,0,1-.24.66,1.18,1.18,0,0,1-.66.28l-3.09.47a1.06,1.06,0,0,0,.56.62,2.32,2.32,0,0,0,1,.2,3.44,3.44,0,0,0,1-.13,3,3,0,0,0,.74-.31,1.14,1.14,0,0,1,.34.35.92.92,0,0,1,.14.48.89.89,0,0,1-.53.84,2.88,2.88,0,0,1-.9.29A6.32,6.32,0,0,1,491.29,54.29Zm-.35-4.92a1.13,1.13,0,0,0-.88.36.94.94,0,0,0-.2.35,1.36,1.36,0,0,0-.08.39l2.14-.35a1,1,0,0,0-.28-.5A1,1,0,0,0,490.94,49.37Z"/><path class="cls-3" d="M498.8,50.24a.68.68,0,0,0-.22-.57.89.89,0,0,0-.59-.18,2.14,2.14,0,0,0-.5.06,1.15,1.15,0,0,0-.42.19v4.34a2.86,2.86,0,0,1-.39.07,3.43,3.43,0,0,1-.56,0,2.43,2.43,0,0,1-.49,0,.73.73,0,0,1-.37-.15.64.64,0,0,1-.23-.3,1.24,1.24,0,0,1-.08-.51V49.44a1,1,0,0,1,.14-.56,1.57,1.57,0,0,1,.39-.38,3.54,3.54,0,0,1,1.07-.49,5,5,0,0,1,1.44-.19,3.41,3.41,0,0,1,2.18.62,2.12,2.12,0,0,1,.76,1.72v3.92a3.09,3.09,0,0,1-.4.07,3.31,3.31,0,0,1-.55,0,2.53,2.53,0,0,1-.5,0,.76.76,0,0,1-.37-.15.71.71,0,0,1-.23-.3,1.43,1.43,0,0,1-.08-.51Z"/><path class="cls-3" d="M504.37,52a.5.5,0,0,0,.21.46,1,1,0,0,0,.58.14l.39,0,.35-.08a1.35,1.35,0,0,1,.19.31.82.82,0,0,1,.08.4,1,1,0,0,1-.35.78,2,2,0,0,1-1.26.3,2.59,2.59,0,0,1-1.7-.5,2.05,2.05,0,0,1-.59-1.63V46.79l.39-.08a3.16,3.16,0,0,1,.55,0,1.58,1.58,0,0,1,.85.19.9.9,0,0,1,.31.82v.8H506a2,2,0,0,1,.14.35,1.35,1.35,0,0,1,.07.46.86.86,0,0,1-.19.63.69.69,0,0,1-.52.19h-1.14Z"/><path class="cls-3" d="M507,48.26a1.55,1.55,0,0,1-.16-.38,1.64,1.64,0,0,1-.08-.5.93.93,0,0,1,.22-.7.8.8,0,0,1,.57-.21H513a1.63,1.63,0,0,1,.16.37,1.69,1.69,0,0,1,.08.5,1,1,0,0,1-.22.71.8.8,0,0,1-.57.21h-1.39V54a3.39,3.39,0,0,1-.43.08,5.83,5.83,0,0,1-.59,0,2.47,2.47,0,0,1-.5,0,.83.83,0,0,1-.37-.16.67.67,0,0,1-.23-.31,1.54,1.54,0,0,1-.07-.53V48.26Z"/><path class="cls-3" d="M515.77,54.08a2.86,2.86,0,0,1-.39.07,3.43,3.43,0,0,1-.56,0,2.43,2.43,0,0,1-.49,0A.73.73,0,0,1,514,54a.64.64,0,0,1-.23-.3,1.24,1.24,0,0,1-.08-.51V49.44a1.09,1.09,0,0,1,.1-.5,1.2,1.2,0,0,1,.31-.37,2.26,2.26,0,0,1,.49-.29,4,4,0,0,1,.64-.23,4.79,4.79,0,0,1,.7-.16,4.37,4.37,0,0,1,.72-.06,1.73,1.73,0,0,1,.95.23.84.84,0,0,1,.35.76,1.06,1.06,0,0,1,0,.35,1.34,1.34,0,0,1-.12.3,4.89,4.89,0,0,0-.54,0,5,5,0,0,0-.54.07l-.49.11a2.35,2.35,0,0,0-.4.13Z"/><path class="cls-3" d="M521.77,54.29a4.63,4.63,0,0,1-1.37-.2,3.21,3.21,0,0,1-1.1-.62,2.9,2.9,0,0,1-.74-1,3.71,3.71,0,0,1-.27-1.47,3.43,3.43,0,0,1,.27-1.42A2.82,2.82,0,0,1,520.27,48a3.74,3.74,0,0,1,1.15-.18,3.61,3.61,0,0,1,1.21.2,3,3,0,0,1,.94.55,2.56,2.56,0,0,1,.61.84,2.68,2.68,0,0,1,.22,1.06.88.88,0,0,1-.24.66,1.18,1.18,0,0,1-.66.28l-3.1.47a1.08,1.08,0,0,0,.57.62,2.3,2.3,0,0,0,1,.2,3.35,3.35,0,0,0,1-.13,3,3,0,0,0,.75-.31,1.14,1.14,0,0,1,.34.35.91.91,0,0,1,.13.48.88.88,0,0,1-.52.84,2.88,2.88,0,0,1-.9.29A6.41,6.41,0,0,1,521.77,54.29Zm-.35-4.92a1.34,1.34,0,0,0-.52.1,1.11,1.11,0,0,0-.36.26.94.94,0,0,0-.2.35,1.38,1.38,0,0,0-.09.39l2.14-.35a.92.92,0,0,0-.27-.5A1,1,0,0,0,521.42,49.37Z"/><path class="cls-3" d="M529.28,50.24a.68.68,0,0,0-.22-.57.9.9,0,0,0-.59-.18,2.07,2.07,0,0,0-.5.06,1.15,1.15,0,0,0-.42.19v4.34a2.86,2.86,0,0,1-.39.07,3.43,3.43,0,0,1-.56,0,2.43,2.43,0,0,1-.49,0,.73.73,0,0,1-.37-.15.64.64,0,0,1-.23-.3,1.23,1.23,0,0,1-.09-.51V49.44a1,1,0,0,1,.15-.56,1.42,1.42,0,0,1,.39-.38A3.54,3.54,0,0,1,527,48a5,5,0,0,1,1.44-.19,3.38,3.38,0,0,1,2.17.62,2.1,2.1,0,0,1,.77,1.72v3.92a3.45,3.45,0,0,1-.4.07,3.31,3.31,0,0,1-.55,0,2.53,2.53,0,0,1-.5,0,.76.76,0,0,1-.37-.15.64.64,0,0,1-.23-.3,1.43,1.43,0,0,1-.08-.51Z"/><path class="cls-3" d="M532.46,51.05a3.66,3.66,0,0,1,.25-1.43,2.83,2.83,0,0,1,.69-1,2.92,2.92,0,0,1,1-.6,4.45,4.45,0,0,1,1.28-.19,3.89,3.89,0,0,1,.49,0,2.1,2.1,0,0,1,.39.11v-2l.4-.08a3.52,3.52,0,0,1,.56,0,2.53,2.53,0,0,1,.5,0,.73.73,0,0,1,.37.15.62.62,0,0,1,.22.3,1.43,1.43,0,0,1,.08.51v5.93a1.06,1.06,0,0,1-.55.94,3.77,3.77,0,0,1-.94.42,5,5,0,0,1-2.79,0,2.92,2.92,0,0,1-1.08-.65,2.81,2.81,0,0,1-.68-1A3.82,3.82,0,0,1,532.46,51.05ZM536,49.49a1.36,1.36,0,0,0-1,.38,1.68,1.68,0,0,0-.36,1.18,1.72,1.72,0,0,0,.34,1.17,1.22,1.22,0,0,0,1,.39,1.25,1.25,0,0,0,.4-.06.9.9,0,0,0,.28-.16V49.64A1.11,1.11,0,0,0,536,49.49Z"/><rect class="cls-8" x="491.56" y="37.04" width="19.41" height="3.65" rx="1.03"/><path class="cls-8" d="M503.34,27.4c-.61,0-1.22,0-1.82,0A1.53,1.53,0,0,1,500,26.09a1.55,1.55,0,0,1,1.17-1.68,1.75,1.75,0,0,1,.4,0h5.49a1.49,1.49,0,0,1,1.54,1.56v5.5a1.52,1.52,0,1,1-3,0v-1.8l-.14-.11a1.2,1.2,0,0,1-.15.3l-4.64,4.65a1.53,1.53,0,0,1-2.31,0l-1.87-1.87-.26.24c-1.06,1.06.34-.33-.72.72a1.54,1.54,0,0,1-2.15.12,1.47,1.47,0,0,1-.06-2.19c1.53-1.55.62-.65,2.18-2.17a1.48,1.48,0,0,1,2.08.05l1.91,1.91Z"/><path class="cls-3" d="M540.28,47.8a1,1,0,0,1,.14-.2.72.72,0,0,1,.21-.12.61.61,0,0,1,.24,0,.64.64,0,0,1,.44.16.56.56,0,0,1,.14.2.51.51,0,0,1,0,.25.55.55,0,0,1,0,.26.56.56,0,0,1-.14.2.64.64,0,0,1-.44.16.61.61,0,0,1-.24,0,.72.72,0,0,1-.21-.12,1,1,0,0,1-.14-.2.71.71,0,0,1,0-.26A.66.66,0,0,1,540.28,47.8Zm.16.45a.31.31,0,0,0,.1.15.49.49,0,0,0,.14.11.58.58,0,0,0,.19,0,.57.57,0,0,0,.18,0,.42.42,0,0,0,.15-.11.56.56,0,0,0,.1-.15.65.65,0,0,0,0-.2.58.58,0,0,0,0-.19.56.56,0,0,0-.1-.15.42.42,0,0,0-.15-.11.57.57,0,0,0-.18,0,.58.58,0,0,0-.19,0,.49.49,0,0,0-.14.11.31.31,0,0,0-.1.15.41.41,0,0,0,0,.19A.45.45,0,0,0,540.44,48.25Z"/><path class="cls-3" d="M540.78,48.1h0a.31.31,0,0,0,0,.11.07.07,0,0,0,.12,0,.15.15,0,0,0,0-.07v-.46h.14v.46a.25.25,0,0,1,0,.13.19.19,0,0,1-.17.08.19.19,0,0,1-.17-.06.36.36,0,0,1,0-.19h.13Z"/><path class="cls-3" d="M72.32,52.5a6.79,6.79,0,1,1,6.91-6.87A6.81,6.81,0,0,1,72.32,52.5Zm5-6.75a4.9,4.9,0,1,0-4.9,5A4.95,4.95,0,0,0,77.33,45.75Z"/><path class="cls-3" d="M81.09,55.53V42.47h1.68V44h0a4.12,4.12,0,0,1,3.49-1.77,5,5,0,0,1,5.07,5.29,4.94,4.94,0,0,1-5,5A3.93,3.93,0,0,1,83,50.84h0v4.69Zm8.43-8.15a3.46,3.46,0,0,0-3.38-3.5,3.48,3.48,0,0,0,.07,6.95A3.36,3.36,0,0,0,89.52,47.38Z"/><path class="cls-3" d="M93.42,52.26V44.14H92.1V42.47h1.32V39.18h1.84v3.29h1.61v1.67H95.26v8.12Z"/><path class="cls-3" d="M98.11,41.33V39.18H100v2.15Zm0,10.93V42.47H100v9.79Z"/><path class="cls-3" d="M115.29,52.26V46.78c0-1.86-.78-2.9-2.32-2.9s-2.33.9-2.33,2.86v5.52H108.8V46.57c0-1.93-.9-2.69-2.23-2.69-1.62,0-2.42.95-2.42,2.88v5.5h-1.84V42.47H104v1.06h0a3.24,3.24,0,0,1,2.81-1.33,3.38,3.38,0,0,1,3,1.64,3.43,3.43,0,0,1,3.23-1.64c2.55,0,4,1.59,4,4.12v5.94Z"/><path class="cls-3" d="M127.52,52.26V50.74h0a3.72,3.72,0,0,1-3.32,1.76,5.15,5.15,0,1,1-.07-10.3,3.9,3.9,0,0,1,3.39,1.64h0V42.47h1.83v9.79Zm0-4.88a3.38,3.38,0,0,0-3.41-3.5,3.48,3.48,0,1,0,3.41,3.5Z"/><path class="cls-3" d="M131.81,52.26V39.18h1.84V52.26Z"/><path class="cls-9" d="M75.1,48.19l-.55-.6a8.61,8.61,0,0,0-2.67-2A4.08,4.08,0,0,0,69,45.37c-.85.27-1.7.64-2.55,1a7.13,7.13,0,0,1-2.12.58,5,5,0,0,1-3.75-1.63,3.77,3.77,0,0,0-.49-.42c.11.16.22.33.34.49a10,10,0,0,0,2.81,2.83,3.73,3.73,0,0,0,2.51.52,9.86,9.86,0,0,0,2.68-.94A10.73,10.73,0,0,1,70.67,47,5.44,5.44,0,0,1,75,48.14l.12.09Z"/><path class="cls-9" d="M67.76,45.47l-.55-.6a8.5,8.5,0,0,0-2.67-2,4.08,4.08,0,0,0-2.93-.21c-.85.27-1.7.64-2.55,1a7.13,7.13,0,0,1-2.12.58,5,5,0,0,1-3.75-1.63,4.75,4.75,0,0,0-.49-.42l.34.49a10,10,0,0,0,2.81,2.83,3.73,3.73,0,0,0,2.51.52A9.86,9.86,0,0,0,61,45.06a10.73,10.73,0,0,1,2.29-.79,5.48,5.48,0,0,1,4.29,1.15l.13.09Z"/><path class="cls-3" d="M135,40.9a.48.48,0,0,1,.14-.2.82.82,0,0,1,.2-.12.7.7,0,0,1,.25,0,.69.69,0,0,1,.24,0,.67.67,0,0,1,.2.12.48.48,0,0,1,.14.2.51.51,0,0,1,.06.25.67.67,0,0,1-.2.46.67.67,0,0,1-.2.12.69.69,0,0,1-.24.05.7.7,0,0,1-.25-.05.82.82,0,0,1-.2-.12.56.56,0,0,1-.14-.2.55.55,0,0,1-.05-.26A.51.51,0,0,1,135,40.9Zm.15.45a.56.56,0,0,0,.1.15.72.72,0,0,0,.15.11.58.58,0,0,0,.19,0l.18,0a.42.42,0,0,0,.15-.11.56.56,0,0,0,.1-.15.65.65,0,0,0,0-.2.58.58,0,0,0,0-.19.86.86,0,0,0-.1-.16.56.56,0,0,0-.15-.1l-.18,0a.58.58,0,0,0-.19,0l-.15.1a.86.86,0,0,0-.1.16.58.58,0,0,0,0,.19A.64.64,0,0,0,135.17,41.35Z"/><path class="cls-3" d="M135.51,41.2h0a.23.23,0,0,0,0,.11.08.08,0,0,0,.12,0,.56.56,0,0,0,0-.07v-.46h.13v.46a.25.25,0,0,1,0,.13.24.24,0,0,1-.34,0,.36.36,0,0,1-.05-.19h.13Z"/><path class="cls-10" d="M278.26,46.3H263.54a.79.79,0,0,1-.79-.79V34.88a.79.79,0,0,1,.79-.8h14.72a.8.8,0,0,1,.8.8V45.51A.79.79,0,0,1,278.26,46.3Zm-13.92-1.59h13.12v-9H264.34Z"/><path class="cls-10" d="M263.55,46.3a.8.8,0,0,1-.66-.33.81.81,0,0,1,.19-1.12l11.26-7.94a.8.8,0,0,1,1.11.2.79.79,0,0,1-.19,1.11L264,46.16A.8.8,0,0,1,263.55,46.3Z"/><path class="cls-10" d="M278.26,49.19H263.54a.8.8,0,0,1,0-1.6h14.72a.8.8,0,1,1,0,1.6Z"/><path class="cls-10" d="M273.69,52.08H263.54a.8.8,0,0,1,0-1.6h10.15a.8.8,0,0,1,0,1.6Z"/><path class="cls-3" d="M286.79,41.06a1.32,1.32,0,0,0,.34.4,1.52,1.52,0,0,0,.5.22,2.33,2.33,0,0,0,.59.08,2.42,2.42,0,0,0,.45,0,1.39,1.39,0,0,0,.44-.13,1,1,0,0,0,.34-.27.65.65,0,0,0,.14-.44.6.6,0,0,0-.18-.46,1.41,1.41,0,0,0-.48-.3,4.43,4.43,0,0,0-.67-.21l-.76-.19a6.91,6.91,0,0,1-.77-.25,2.3,2.3,0,0,1-.67-.37,2,2,0,0,1-.48-.56,1.76,1.76,0,0,1-.18-.83,1.9,1.9,0,0,1,.23-.94,2.14,2.14,0,0,1,.61-.66,2.66,2.66,0,0,1,.85-.4,3.8,3.8,0,0,1,.94-.13,4.68,4.68,0,0,1,1.07.13,2.61,2.61,0,0,1,.9.4,2,2,0,0,1,.62.7,2.1,2.1,0,0,1,.24,1h-1.5a1.28,1.28,0,0,0-.14-.52.8.8,0,0,0-.3-.33,1.37,1.37,0,0,0-.43-.16,2.14,2.14,0,0,0-.52-.05,1.64,1.64,0,0,0-.38,0,1,1,0,0,0-.34.13,1,1,0,0,0-.25.25.65.65,0,0,0-.1.38.64.64,0,0,0,.08.33.67.67,0,0,0,.31.24,5.09,5.09,0,0,0,.64.22l1.07.27.55.14a2.71,2.71,0,0,1,.69.33,2.32,2.32,0,0,1,.6.61,1.71,1.71,0,0,1,.25,1,2.11,2.11,0,0,1-.19.9,1.9,1.9,0,0,1-.55.71,2.5,2.5,0,0,1-.92.47,4.39,4.39,0,0,1-1.27.17,4.79,4.79,0,0,1-1.13-.14,3,3,0,0,1-1-.45,2.21,2.21,0,0,1-.67-.78,2.34,2.34,0,0,1-.23-1.12h1.49A1.4,1.4,0,0,0,286.79,41.06Z"/><path class="cls-3" d="M294.66,37.69v.94h-1v2.53a.75.75,0,0,0,.11.47.69.69,0,0,0,.48.12h.22l.21,0v1.08a2.34,2.34,0,0,1-.39,0h-.43a4,4,0,0,1-.61,0,1.59,1.59,0,0,1-.52-.17,1,1,0,0,1-.35-.37,1.37,1.37,0,0,1-.12-.62v-3h-.85v-.94h.85V36.17h1.4v1.52Z"/><path class="cls-3" d="M295.36,39.14a2.45,2.45,0,0,1,.53-.85,2.48,2.48,0,0,1,.83-.54,2.9,2.9,0,0,1,1.09-.19,2.94,2.94,0,0,1,1.09.19,2.48,2.48,0,0,1,.83.54,2.31,2.31,0,0,1,.53.85,3,3,0,0,1,.19,1.11,3,3,0,0,1-.19,1.1,2.4,2.4,0,0,1-.53.85,2.32,2.32,0,0,1-.83.53,2.94,2.94,0,0,1-1.09.19,2.9,2.9,0,0,1-1.09-.19,2.32,2.32,0,0,1-.83-.53,2.55,2.55,0,0,1-.53-.85,3.17,3.17,0,0,1-.19-1.1A3.23,3.23,0,0,1,295.36,39.14Zm1.27,1.71a1.58,1.58,0,0,0,.21.52,1,1,0,0,0,.38.37,1.14,1.14,0,0,0,.59.14,1.2,1.2,0,0,0,.59-.14,1.15,1.15,0,0,0,.39-.37,1.81,1.81,0,0,0,.2-.52,3.05,3.05,0,0,0,.06-.6,2.91,2.91,0,0,0-.06-.6,1.77,1.77,0,0,0-.2-.53,1.26,1.26,0,0,0-.39-.37,1.2,1.2,0,0,0-.59-.14,1.14,1.14,0,0,0-.59.14,1.12,1.12,0,0,0-.38.37,1.55,1.55,0,0,0-.21.53,2.91,2.91,0,0,0-.06.6A3.05,3.05,0,0,0,296.63,40.85Z"/><path class="cls-3" d="M302.44,37.69v1h0a1.68,1.68,0,0,1,.27-.44,1.8,1.8,0,0,1,.84-.56,1.53,1.53,0,0,1,.52-.08.86.86,0,0,1,.3,0v1.3l-.23,0h-.27a1.42,1.42,0,0,0-.65.13,1.06,1.06,0,0,0-.43.35,1.25,1.25,0,0,0-.23.51,2.7,2.7,0,0,0-.07.65v2.29h-1.4v-5.1Z"/><path class="cls-3" d="M307.08,44.31a2,2,0,0,1-1.13.27l-.43,0-.43,0V43.37l.41,0a1.89,1.89,0,0,0,.41,0,.55.55,0,0,0,.41-.21.73.73,0,0,0,.14-.42.81.81,0,0,0-.06-.31l-1.79-4.79h1.49l1.15,3.5h0l1.12-3.5h1.45l-2.13,5.73A1.71,1.71,0,0,1,307.08,44.31Z"/><path class="cls-3" d="M311.71,35.75v2.57h0a1.43,1.43,0,0,1,.7-.58,2.34,2.34,0,0,1,.91-.18,2.06,2.06,0,0,1,.76.15,2,2,0,0,1,.67.49,2.31,2.31,0,0,1,.49.83,3.95,3.95,0,0,1,0,2.42,2.4,2.4,0,0,1-.49.83,1.81,1.81,0,0,1-.67.48,1.89,1.89,0,0,1-.76.16,2.67,2.67,0,0,1-1-.18,1.27,1.27,0,0,1-.67-.6h0v.65h-1.33v-7ZM314,39.63a1.79,1.79,0,0,0-.22-.53,1.16,1.16,0,0,0-.37-.36,1.09,1.09,0,0,0-.53-.13,1.13,1.13,0,0,0-.54.13,1.16,1.16,0,0,0-.37.36,1.79,1.79,0,0,0-.22.53,2.45,2.45,0,0,0-.07.62,2.48,2.48,0,0,0,.07.61,1.63,1.63,0,0,0,.22.52,1.16,1.16,0,0,0,.37.36,1,1,0,0,0,.54.14,1,1,0,0,0,.53-.14,1.16,1.16,0,0,0,.37-.36,1.63,1.63,0,0,0,.22-.52,2.48,2.48,0,0,0,.07-.61A2.45,2.45,0,0,0,314,39.63Z"/><path class="cls-3" d="M316.12,39.14a2.31,2.31,0,0,1,.53-.85,2.48,2.48,0,0,1,.83-.54,2.85,2.85,0,0,1,1.08-.19,2.9,2.9,0,0,1,1.09.19A2.28,2.28,0,0,1,321,39.14a3.23,3.23,0,0,1,.19,1.11,3.17,3.17,0,0,1-.19,1.1,2.55,2.55,0,0,1-.53.85,2.27,2.27,0,0,1-.84.53,2.9,2.9,0,0,1-1.09.19,2.85,2.85,0,0,1-1.08-.19,2.32,2.32,0,0,1-.83-.53,2.4,2.4,0,0,1-.53-.85,3,3,0,0,1-.19-1.1A3,3,0,0,1,316.12,39.14Zm1.27,1.71a1.81,1.81,0,0,0,.2.52,1.12,1.12,0,0,0,.38.37,1.2,1.2,0,0,0,.59.14,1.21,1.21,0,0,0,.6-.14,1,1,0,0,0,.38-.37,1.58,1.58,0,0,0,.21-.52,3.05,3.05,0,0,0,.06-.6,2.91,2.91,0,0,0-.06-.6,1.55,1.55,0,0,0-.21-.53,1.12,1.12,0,0,0-.38-.37,1.21,1.21,0,0,0-.6-.14,1.2,1.2,0,0,0-.59.14,1.22,1.22,0,0,0-.38.37,1.77,1.77,0,0,0-.2.53,2.91,2.91,0,0,0-.06.6A3.05,3.05,0,0,0,317.39,40.85Z"/><path class="cls-3" d="M322.05,39.26a1.69,1.69,0,0,1,.25-.82,1.71,1.71,0,0,1,.55-.52,2.65,2.65,0,0,1,.76-.28,4,4,0,0,1,.84-.08,5.11,5.11,0,0,1,.78,0,2.74,2.74,0,0,1,.72.21,1.42,1.42,0,0,1,.53.44,1.23,1.23,0,0,1,.21.75v2.65a4.68,4.68,0,0,0,0,.66,1,1,0,0,0,.14.47h-1.42a2.17,2.17,0,0,1-.07-.24,1.9,1.9,0,0,1,0-.25,1.85,1.85,0,0,1-.79.48,3.22,3.22,0,0,1-.93.14,2.48,2.48,0,0,1-.68-.09,1.66,1.66,0,0,1-.55-.27,1.35,1.35,0,0,1-.37-.48,1.56,1.56,0,0,1-.13-.68,1.47,1.47,0,0,1,.15-.71,1.23,1.23,0,0,1,.39-.45A1.68,1.68,0,0,1,323,40a6.21,6.21,0,0,1,.62-.14l.62-.07a3.71,3.71,0,0,0,.55-.09.91.91,0,0,0,.37-.18.39.39,0,0,0,.13-.33.74.74,0,0,0-.08-.36.52.52,0,0,0-.19-.2.72.72,0,0,0-.29-.1,1.9,1.9,0,0,0-.35,0,1,1,0,0,0-.65.18.81.81,0,0,0-.28.59Zm3.24,1a.78.78,0,0,1-.22.12l-.29.08-.32,0-.34.05-.31.08a.92.92,0,0,0-.26.14.46.46,0,0,0-.18.21.61.61,0,0,0-.07.32.63.63,0,0,0,.07.32.49.49,0,0,0,.18.2.77.77,0,0,0,.28.1,1.66,1.66,0,0,0,.32,0,1.31,1.31,0,0,0,.65-.13,1,1,0,0,0,.33-.33,1,1,0,0,0,.13-.39,2.36,2.36,0,0,0,0-.32Z"/><path class="cls-3" d="M329.1,37.69v1h0a2,2,0,0,1,.27-.44,1.75,1.75,0,0,1,.38-.34,1.68,1.68,0,0,1,.47-.22,1.44,1.44,0,0,1,.51-.08,1,1,0,0,1,.31,0v1.3l-.24,0h-.27a1.45,1.45,0,0,0-.65.13,1.13,1.13,0,0,0-.43.35,1.59,1.59,0,0,0-.23.51,3.32,3.32,0,0,0-.07.65v2.29h-1.4v-5.1Z"/><path class="cls-3" d="M335.05,42.14a1.39,1.39,0,0,1-.65.6,2.36,2.36,0,0,1-1.9,0,2.11,2.11,0,0,1-.72-.6,2.65,2.65,0,0,1-.42-.88,3.45,3.45,0,0,1-.15-1,3.3,3.3,0,0,1,.15-1,2.37,2.37,0,0,1,.42-.84,2.06,2.06,0,0,1,1.69-.81,2,2,0,0,1,.87.19,1.53,1.53,0,0,1,.64.57h0V35.75h1.4v7h-1.33v-.65ZM335,39.62a1.65,1.65,0,0,0-.2-.51,1.16,1.16,0,0,0-.37-.36,1.09,1.09,0,0,0-.57-.14,1.13,1.13,0,0,0-.58.14,1,1,0,0,0-.38.36,1.58,1.58,0,0,0-.21.52,3.08,3.08,0,0,0-.07.61,3,3,0,0,0,.07.59,1.58,1.58,0,0,0,.23.53,1.22,1.22,0,0,0,.38.37,1,1,0,0,0,.56.15,1.09,1.09,0,0,0,.57-.14,1,1,0,0,0,.37-.37,1.53,1.53,0,0,0,.2-.53,3.13,3.13,0,0,0,0-1.22Z"/><path class="cls-3" d="M286.79,50.26a1.17,1.17,0,0,0,.34.39,1.35,1.35,0,0,0,.5.23,2.33,2.33,0,0,0,.59.08,3.75,3.75,0,0,0,.45,0,1.71,1.71,0,0,0,.44-.13,1,1,0,0,0,.34-.27.73.73,0,0,0,0-.91,1.57,1.57,0,0,0-.48-.29,4.43,4.43,0,0,0-.67-.21c-.25-.06-.5-.12-.76-.2a5.28,5.28,0,0,1-.77-.24,2.56,2.56,0,0,1-.67-.37,2,2,0,0,1-.48-.56,1.78,1.78,0,0,1-.18-.83,1.9,1.9,0,0,1,.23-.94,2,2,0,0,1,.61-.66,2.66,2.66,0,0,1,.85-.4,3.8,3.8,0,0,1,.94-.13,4.18,4.18,0,0,1,1.07.13,2.61,2.61,0,0,1,.9.4,1.91,1.91,0,0,1,.62.7,2.1,2.1,0,0,1,.24,1h-1.5a1.28,1.28,0,0,0-.14-.52.8.8,0,0,0-.3-.33,1.38,1.38,0,0,0-.43-.17,2.82,2.82,0,0,0-.52,0,1.64,1.64,0,0,0-.38,0,1,1,0,0,0-.34.13,1,1,0,0,0-.25.25.62.62,0,0,0-.1.37.68.68,0,0,0,.08.34.74.74,0,0,0,.31.24,4,4,0,0,0,.64.21l1.07.28c.13,0,.32.07.55.14a2.71,2.71,0,0,1,.69.33,2.18,2.18,0,0,1,.6.61,1.71,1.71,0,0,1,.25,1,2.11,2.11,0,0,1-.19.9,2,2,0,0,1-.55.71,2.66,2.66,0,0,1-.92.47,4.39,4.39,0,0,1-1.27.17A4.79,4.79,0,0,1,287,52a3,3,0,0,1-1-.45,2.4,2.4,0,0,1-.67-.78,2.36,2.36,0,0,1-.23-1.13h1.49A1.41,1.41,0,0,0,286.79,50.26Z"/><path class="cls-3" d="M293.19,46.89v.65h0a1.62,1.62,0,0,1,.65-.6,2.13,2.13,0,0,1,.87-.19,2.25,2.25,0,0,1,1,.23,2.11,2.11,0,0,1,.72.6,2.48,2.48,0,0,1,.42.88,3.9,3.9,0,0,1,.14,1,3.52,3.52,0,0,1-.14,1,2.37,2.37,0,0,1-.42.84,2.07,2.07,0,0,1-.7.58,2.05,2.05,0,0,1-1,.22,1.92,1.92,0,0,1-.87-.19,1.65,1.65,0,0,1-.66-.57h0v2.42h-1.4V46.89Zm1.82,4a1.31,1.31,0,0,0,.38-.36,1.61,1.61,0,0,0,.2-.52,3.05,3.05,0,0,0,.06-.6,2.35,2.35,0,0,0-.07-.6,1.47,1.47,0,0,0-.21-.53A1.15,1.15,0,0,0,295,48a1.08,1.08,0,0,0-.56-.14,1.11,1.11,0,0,0-.58.14,1.22,1.22,0,0,0-.38.37,1.67,1.67,0,0,0-.2.53,3,3,0,0,0-.06.61,2.46,2.46,0,0,0,.07.6,1.61,1.61,0,0,0,.2.52,1.45,1.45,0,0,0,.38.36,1.34,1.34,0,0,0,1.15,0Z"/><path class="cls-3" d="M299.38,50.77a1.3,1.3,0,0,0,.91.3,1.26,1.26,0,0,0,.73-.21.87.87,0,0,0,.38-.45h1.23a2.34,2.34,0,0,1-.91,1.31,2.62,2.62,0,0,1-1.48.4,2.85,2.85,0,0,1-1.08-.19,2.24,2.24,0,0,1-.82-.55,2.53,2.53,0,0,1-.52-.85,3.14,3.14,0,0,1-.18-1.08,2.9,2.9,0,0,1,.19-1.07,2.4,2.4,0,0,1,.53-.85,2.52,2.52,0,0,1,.82-.57,2.61,2.61,0,0,1,1.06-.21,2.43,2.43,0,0,1,1.14.26,2.23,2.23,0,0,1,.79.67,2.7,2.7,0,0,1,.45,1,3.84,3.84,0,0,1,.1,1.13H299A1.43,1.43,0,0,0,299.38,50.77ZM301,48.09a1,1,0,0,0-.77-.28,1.25,1.25,0,0,0-.55.11,1.15,1.15,0,0,0-.36.28,1.14,1.14,0,0,0-.19.36,2.61,2.61,0,0,0-.06.33h2.28A1.61,1.61,0,0,0,301,48.09Z"/><path class="cls-3" d="M306,47.81a1,1,0,0,0-.56.15,1.29,1.29,0,0,0-.37.4,1.62,1.62,0,0,0-.2.53,2.86,2.86,0,0,0-.06.58,2.74,2.74,0,0,0,.06.56,1.79,1.79,0,0,0,.19.52,1.19,1.19,0,0,0,.36.38,1.07,1.07,0,0,0,.55.14,1,1,0,0,0,.78-.28,1.34,1.34,0,0,0,.34-.75h1.35a2.33,2.33,0,0,1-.79,1.55,2.57,2.57,0,0,1-1.67.53,2.76,2.76,0,0,1-1-.19,2.3,2.3,0,0,1-.81-.54,2.39,2.39,0,0,1-.52-.82,2.76,2.76,0,0,1-.19-1,3.52,3.52,0,0,1,.17-1.1,2.64,2.64,0,0,1,.51-.88,2.31,2.31,0,0,1,.82-.58,2.73,2.73,0,0,1,1.1-.21,3.1,3.1,0,0,1,.87.12,2.37,2.37,0,0,1,.75.36,1.94,1.94,0,0,1,.54.6,1.92,1.92,0,0,1,.24.86H307A.94.94,0,0,0,306,47.81Z"/><path class="cls-3" d="M309.25,46.1V45h1.4V46.1Zm1.4.79V52h-1.4v-5.1Z"/><path class="cls-3" d="M311.69,48.46a1.59,1.59,0,0,1,.25-.82,1.71,1.71,0,0,1,.55-.52,2.33,2.33,0,0,1,.75-.28,4,4,0,0,1,.85-.09,5.32,5.32,0,0,1,.78.06,2.74,2.74,0,0,1,.72.21,1.51,1.51,0,0,1,.53.44,1.22,1.22,0,0,1,.21.74v2.66a4.68,4.68,0,0,0,0,.66,1.16,1.16,0,0,0,.13.47h-1.42l-.06-.24a1.07,1.07,0,0,1,0-.25,1.85,1.85,0,0,1-.79.48,3.33,3.33,0,0,1-.93.14,2.48,2.48,0,0,1-.68-.09,1.43,1.43,0,0,1-.55-.28,1.23,1.23,0,0,1-.37-.47,1.59,1.59,0,0,1-.14-.68,1.36,1.36,0,0,1,.16-.71,1.23,1.23,0,0,1,.39-.45,1.72,1.72,0,0,1,.55-.25c.21-.06.42-.1.63-.14l.62-.08a3.57,3.57,0,0,0,.54-.09.79.79,0,0,0,.38-.17.39.39,0,0,0,.13-.33.74.74,0,0,0-.08-.36.55.55,0,0,0-.19-.21.89.89,0,0,0-.29-.09,2,2,0,0,0-.35,0,1,1,0,0,0-.65.18.79.79,0,0,0-.28.59Zm3.24,1a.71.71,0,0,1-.23.12,1.91,1.91,0,0,1-.28.07l-.32.05-.34,0-.31.08a.9.9,0,0,0-.26.13.67.67,0,0,0-.19.22.72.72,0,0,0-.07.32.76.76,0,0,0,.07.32.61.61,0,0,0,.19.2.77.77,0,0,0,.28.1,1.66,1.66,0,0,0,.32,0,1.15,1.15,0,0,0,.64-.14.9.9,0,0,0,.34-.33,1.06,1.06,0,0,0,.13-.39,2.11,2.11,0,0,0,0-.31Z"/><path class="cls-3" d="M318.85,45v7h-1.4V45Z"/><path class="cls-3" d="M320,46.1V45h1.41V46.1Zm1.41.79V52H320v-5.1Z"/><path class="cls-3" d="M323.68,50.72a.78.78,0,0,0,.24.27,1,1,0,0,0,.34.15,1.33,1.33,0,0,0,.4,0l.31,0a1.33,1.33,0,0,0,.3-.11.83.83,0,0,0,.22-.2.5.5,0,0,0,.09-.31c0-.21-.14-.37-.42-.47a8.32,8.32,0,0,0-1.17-.32,5.87,5.87,0,0,1-.6-.16,1.92,1.92,0,0,1-.52-.25,1.19,1.19,0,0,1-.36-.38,1.12,1.12,0,0,1-.14-.57,1.62,1.62,0,0,1,.19-.81,1.41,1.41,0,0,1,.51-.49,2.08,2.08,0,0,1,.71-.26,4.28,4.28,0,0,1,.81-.08,4.17,4.17,0,0,1,.8.08,2.55,2.55,0,0,1,.7.27,1.62,1.62,0,0,1,.51.5,1.75,1.75,0,0,1,.24.78h-1.33a.61.61,0,0,0-.31-.55,1.45,1.45,0,0,0-.65-.14l-.26,0a1,1,0,0,0-.25.06.52.52,0,0,0-.19.14.41.41,0,0,0-.08.25.4.4,0,0,0,.14.31,1,1,0,0,0,.36.19,4.6,4.6,0,0,0,.51.14l.58.12.6.17a2,2,0,0,1,.51.26,1.32,1.32,0,0,1,.37.41,1.2,1.2,0,0,1,.14.59,1.6,1.6,0,0,1-.21.85,1.58,1.58,0,0,1-.52.54,2.27,2.27,0,0,1-.75.3,4.8,4.8,0,0,1-.85.08,4.14,4.14,0,0,1-.87-.09,2.27,2.27,0,0,1-.75-.3,1.77,1.77,0,0,1-.55-.54,1.82,1.82,0,0,1-.23-.86h1.33A.75.75,0,0,0,323.68,50.72Z"/><path class="cls-3" d="M330.6,46.89v.94h-1v2.52a.69.69,0,0,0,.12.48.66.66,0,0,0,.47.12h.23l.21,0V52l-.4,0h-.42a4,4,0,0,1-.62,0,1.41,1.41,0,0,1-.51-.18.81.81,0,0,1-.35-.36,1.27,1.27,0,0,1-.13-.62v-3h-.85v-.94h.85V45.36h1.4v1.53Z"/><path class="cls-3" d="M332.44,50.72a.93.93,0,0,0,.25.27.88.88,0,0,0,.34.15,1.29,1.29,0,0,0,.4,0l.31,0a1.45,1.45,0,0,0,.29-.11.7.7,0,0,0,.22-.2.5.5,0,0,0,.09-.31c0-.21-.14-.37-.42-.47a8.32,8.32,0,0,0-1.17-.32,5.69,5.69,0,0,1-.59-.16,1.67,1.67,0,0,1-.52-.25,1.19,1.19,0,0,1-.36-.38,1,1,0,0,1-.14-.57,1.52,1.52,0,0,1,.19-.81,1.41,1.41,0,0,1,.51-.49,2,2,0,0,1,.71-.26,4.09,4.09,0,0,1,1.61,0,2.55,2.55,0,0,1,.7.27,1.49,1.49,0,0,1,.5.5,1.53,1.53,0,0,1,.24.78h-1.33a.63.63,0,0,0-.3-.55,1.48,1.48,0,0,0-.65-.14l-.26,0a.92.92,0,0,0-.25.06.45.45,0,0,0-.19.14.36.36,0,0,0-.08.25.37.37,0,0,0,.14.31,1,1,0,0,0,.36.19,3.88,3.88,0,0,0,.5.14l.59.12.59.17a2,2,0,0,1,.52.26,1.29,1.29,0,0,1,.36.41,1.1,1.1,0,0,1,.14.59,1.6,1.6,0,0,1-.2.85,1.52,1.52,0,0,1-.53.54,2.13,2.13,0,0,1-.74.3,4.89,4.89,0,0,1-.85.08,4.14,4.14,0,0,1-.87-.09,2.24,2.24,0,0,1-.76-.3,1.64,1.64,0,0,1-.54-.54,1.71,1.71,0,0,1-.23-.86h1.33A.75.75,0,0,0,332.44,50.72Z"/><path class="cls-3" d="M336.21,46.86a.44.44,0,0,1,.12-.15.34.34,0,0,1,.16-.1.58.58,0,0,1,.19,0,.65.65,0,0,1,.19,0,.39.39,0,0,1,.16.1.58.58,0,0,1,.11.15.45.45,0,0,1,0,.2.46.46,0,0,1,0,.21.58.58,0,0,1-.11.15.54.54,0,0,1-.16.1.63.63,0,0,1-.19,0,.58.58,0,0,1-.19,0,.44.44,0,0,1-.16-.1.44.44,0,0,1-.12-.15.65.65,0,0,1,0-.21A.65.65,0,0,1,336.21,46.86Zm.13.36a.47.47,0,0,0,.07.12.42.42,0,0,0,.12.08l.15,0a.38.38,0,0,0,.26-.11.5.5,0,0,0,.08-.12.41.41,0,0,0,0-.16.4.4,0,0,0,0-.15.36.36,0,0,0-.08-.12.38.38,0,0,0-.26-.11.4.4,0,0,0-.15,0,.42.42,0,0,0-.12.08.35.35,0,0,0-.07.12.4.4,0,0,0,0,.15A.41.41,0,0,0,336.34,47.22Z"/><path class="cls-3" d="M336.6,47.1h0a.2.2,0,0,0,0,.09s0,0,0,0a0,0,0,0,0,0,0,.2.2,0,0,0,0,0v-.36h.11v.36a.15.15,0,0,1,0,.1.13.13,0,0,1-.13.07.14.14,0,0,1-.13-.05.24.24,0,0,1,0-.15h.1Z"/><path class="cls-3" d="M462.69,230.13a2.15,2.15,0,0,0-2-1.42,2.41,2.41,0,0,0,0,4.8,2.14,2.14,0,0,0,2-1.37h2.17a4.19,4.19,0,0,1-4.11,3.2,4.26,4.26,0,0,1-3-1.22,4.13,4.13,0,0,1-1.25-3.13,4.21,4.21,0,0,1,4.19-4.1,4.17,4.17,0,0,1,2.84,1,3.78,3.78,0,0,1,1.37,2.24Z"/><path class="cls-3" d="M465.85,235.19v-6.11h1.72v.65h0a1.51,1.51,0,0,1,1.53-.86v1.84c-1.09,0-1.44.41-1.44,1.11v3.37Z"/><path class="cls-3" d="M472.78,235.37a3.25,3.25,0,1,1,3.29-3.27A3.19,3.19,0,0,1,472.78,235.37Zm1.46-3.24a1.47,1.47,0,1,0-1.46,1.54A1.49,1.49,0,0,0,474.24,232.13Z"/><path class="cls-3" d="M479.7,230.79c0-.35-.26-.46-.56-.46s-.53.18-.53.41.3.49,1.15.72c1.45.38,1.92,1,1.92,1.86a2.23,2.23,0,0,1-2.49,2.08,2.29,2.29,0,0,1-2.48-2h1.81a.63.63,0,0,0,.7.56c.32,0,.63-.19.63-.47s-.2-.52-1.12-.81c-1.54-.47-2-1.07-2-1.79a2.18,2.18,0,0,1,2.37-2,2.1,2.1,0,0,1,2.34,1.92Z"/><path class="cls-3" d="M485.19,230.79c0-.35-.26-.46-.56-.46s-.53.18-.53.41.3.49,1.15.72c1.45.38,1.92,1,1.92,1.86a2.22,2.22,0,0,1-2.48,2.08,2.29,2.29,0,0,1-2.49-2H484a.64.64,0,0,0,.7.56c.32,0,.64-.19.64-.47s-.21-.52-1.13-.81c-1.54-.47-1.94-1.07-1.94-1.79a2.17,2.17,0,0,1,2.36-2,2.12,2.12,0,0,1,2.35,1.92Z"/><path class="cls-3" d="M508.57,235.19V227h2.61a6,6,0,0,1,1.3.1,2.05,2.05,0,0,1,1.69,2,1.84,1.84,0,0,1-.94,1.65,1.84,1.84,0,0,1,1.34,1.89,2.3,2.3,0,0,1-1,1.93,3.32,3.32,0,0,1-2.34.55Zm2.82-5.06c.51,0,.79-.22.79-.65s-.26-.61-.78-.61h-.84v1.26Zm.24,3.23c.58,0,1-.25,1-.78s-.32-.71-.94-.71h-1.08v1.49Z"/><path class="cls-3" d="M515.6,235.19v-6.11h1.72v.65h0a1.51,1.51,0,0,1,1.53-.86v1.84c-1.09,0-1.44.41-1.44,1.11v3.37Z"/><path class="cls-3" d="M522.53,235.37a3.25,3.25,0,1,1,3.29-3.27A3.2,3.2,0,0,1,522.53,235.37Zm1.46-3.24a1.47,1.47,0,1,0-1.46,1.54A1.5,1.5,0,0,0,524,232.13Z"/><path class="cls-3" d="M531.68,235.19l-1-4h0l-1,4h-1.69l-1.87-6.11h1.89l.91,3.79h0l1-3.79h1.54l1,3.79h0l.92-3.79h1.88l-1.88,6.11Z"/><path class="cls-3" d="M538.58,230.79c0-.35-.26-.46-.56-.46s-.53.18-.53.41.3.49,1.15.72c1.45.38,1.92,1,1.92,1.86a2.22,2.22,0,0,1-2.48,2.08,2.29,2.29,0,0,1-2.49-2h1.82a.62.62,0,0,0,.69.56c.32,0,.64-.19.64-.47s-.21-.52-1.13-.81c-1.54-.47-1.94-1.07-1.94-1.79a2.17,2.17,0,0,1,2.36-2,2.12,2.12,0,0,1,2.35,1.92Z"/><path class="cls-3" d="M543,232.69a1.36,1.36,0,0,0,1.43,1.15,1.25,1.25,0,0,0,1.11-.57h1.88a3.27,3.27,0,0,1-3,2.11,3.26,3.26,0,1,1,3.2-3.18,2.63,2.63,0,0,1-.05.49Zm2.8-1.23a1.45,1.45,0,0,0-2.78,0Z"/><path class="cls-3" d="M547.63,228.28a.61.61,0,0,1,.12-.16.48.48,0,0,1,.35-.13.64.64,0,0,1,.2,0l.16.1a.42.42,0,0,1,.11.16.46.46,0,0,1,0,.21.46.46,0,0,1,0,.2.36.36,0,0,1-.11.16.54.54,0,0,1-.16.1.64.64,0,0,1-.2,0,.63.63,0,0,1-.19,0,.44.44,0,0,1-.16-.1.48.48,0,0,1-.12-.16.45.45,0,0,1,0-.2A.46.46,0,0,1,547.63,228.28Zm.13.36a.35.35,0,0,0,.08.13.36.36,0,0,0,.12.08.32.32,0,0,0,.14,0,.4.4,0,0,0,.15,0,.5.5,0,0,0,.12-.08.57.57,0,0,0,.08-.13.4.4,0,0,0,0-.15.41.41,0,0,0,0-.16.36.36,0,0,0-.08-.12.34.34,0,0,0-.12-.09.4.4,0,0,0-.15,0,.32.32,0,0,0-.14,0,.27.27,0,0,0-.12.09.25.25,0,0,0-.08.12.41.41,0,0,0,0,.16A.4.4,0,0,0,547.76,228.64Z"/><path class="cls-3" d="M548,228.52h0a.2.2,0,0,0,0,.09,0,0,0,0,0,.05,0,.05.05,0,0,0,0,0v-.42h.11v.36a.18.18,0,0,1,0,.11s-.07.06-.14.06-.11,0-.13,0a.27.27,0,0,1,0-.15H548Z"/><polygon class="cls-11" points="506.42 237.28 507.46 236.24 493.3 222.08 492.26 223.12 491.18 224.2 491.18 224.2 490.14 225.24 490.14 225.24 489.05 226.33 488.01 227.37 502.17 241.52 503.21 240.49 490.09 227.37 491.18 226.28 504.3 239.4 505.34 238.36 492.22 225.24 493.3 224.16 506.42 237.28"/><polygon class="cls-12" points="506.42 226.33 493.3 239.45 492.22 238.36 505.34 225.24 504.3 224.2 491.18 237.32 490.09 236.24 503.21 223.12 502.17 222.08 489.05 235.2 488.01 236.24 489.05 237.28 489.05 237.28 490.14 238.36 490.14 238.36 491.18 239.4 491.18 239.4 492.26 240.49 492.26 240.49 493.3 241.52 494.34 240.49 507.46 227.37 506.42 226.33"/><path class="cls-13" d="M330.14,229.47v1.92c0,.8-.25,1.32-1.05,1.4-.24,0-.31.1-.31.35,0,1.2-.23,3-.23,4.16a1.32,1.32,0,0,1-1.07,1.33h-1.9a1.31,1.31,0,0,1-1.25-1.13,2.81,2.81,0,0,1,0-.29c0-1.16-.23-2.9-.23-4.06,0-.27-.06-.34-.32-.37-.68-.07-.9-.46-1-1.11a1.48,1.48,0,0,1,0-.21c0-1.32,0-2.64,0-4a1.56,1.56,0,0,1,1.54-1.58c1.43,0,2.87,0,4.3,0a1.58,1.58,0,0,1,1.56,1.6v1.94Z"/><path class="cls-13" d="M326.42,224.77a.78.78,0,0,1-.55-.22l-1.82-1.78a.76.76,0,0,1,0-1.08l1.82-1.79a.78.78,0,0,1,.55-.22.82.82,0,0,1,.55.22l1.81,1.79a.74.74,0,0,1,0,1.08L327,224.55A.82.82,0,0,1,326.42,224.77Zm.08-.84Zm-1.74-1.7,1.66,1.63,1.66-1.63-1.66-1.63Z"/><path class="cls-3" d="M274.81,235.26a5.63,5.63,0,0,1-.15,1.55,2.62,2.62,0,0,1-.52.87,2.12,2.12,0,0,1-1,.58,6.59,6.59,0,0,1-1.58.17,6.17,6.17,0,0,1-1.63-.18,2,2,0,0,1-1-.63,2.76,2.76,0,0,1-.55-1,7.27,7.27,0,0,1-.17-1.89v-.48h2.75v1.17a3,3,0,0,0,.08.88c.05.16.2.24.43.24.39,0,.59-.34.59-1a4.64,4.64,0,0,0-.08-1,1.38,1.38,0,0,0-.44-.7,26.45,26.45,0,0,1-2.34-1.83,3.82,3.82,0,0,1-1.09-3,7,7,0,0,1,.09-1.21,2.68,2.68,0,0,1,.34-1,1.8,1.8,0,0,1,1-.82,5.64,5.64,0,0,1,1.76-.22,8.26,8.26,0,0,1,1.68.13,1.84,1.84,0,0,1,1,.56,2.21,2.21,0,0,1,.53,1.12,9.38,9.38,0,0,1,.08,1.48v.17h-2.74v-.57a3.76,3.76,0,0,0,0-.6.43.43,0,0,0-.45-.43q-.54,0-.54,1a1.92,1.92,0,0,0,.25,1.1,7.75,7.75,0,0,0,1.53,1.15,4.69,4.69,0,0,1,1.86,1.9A6.6,6.6,0,0,1,274.81,235.26Z"/><path class="cls-3" d="M282.23,238.37h-2.9l.05-.86a1.91,1.91,0,0,1-.68.68,2.05,2.05,0,0,1-1,.2h-.22a3.69,3.69,0,0,1-.73-.06,1,1,0,0,1-.53-.32,1.78,1.78,0,0,1-.46-.93,9.7,9.7,0,0,1-.09-1.54v-7.48h2.86v8a1.34,1.34,0,0,0,.08.52.31.31,0,0,0,.3.18.43.43,0,0,0,.43-.35,3,3,0,0,0,0-.51v-7.81h2.85Z"/><path class="cls-3" d="M287.82,231.51h-.2c-.71,0-1.15.23-1.32.68a7.65,7.65,0,0,0-.17,2.1v4.08h-2.84V228.06h2.84l-.12,1.35a3.4,3.4,0,0,1,.67-1.06,2,2,0,0,1,1.14-.48Z"/><path class="cls-3" d="M294.9,234.81v.33a6,6,0,0,1-.09,1.16,2.91,2.91,0,0,1-.46,1,2.15,2.15,0,0,1-1,.88,3.81,3.81,0,0,1-1.5.23,4.16,4.16,0,0,1-2-.43,2.27,2.27,0,0,1-1.1-1.38,3.37,3.37,0,0,1-.17-1c0-.42,0-.72,0-.92v-3c0-.42,0-.79.05-1.09a3.47,3.47,0,0,1,.21-.9,2.14,2.14,0,0,1,1-1.2,3.93,3.93,0,0,1,1.82-.37,4.36,4.36,0,0,1,1.6.26,2.26,2.26,0,0,1,1,.87,3.05,3.05,0,0,1,.45,1.21,9.91,9.91,0,0,1,.12,1.64v1.38h-3.5v2.21a5.82,5.82,0,0,0,0,.79c0,.2.15.31.4.31a.42.42,0,0,0,.43-.28,2,2,0,0,0,.12-.78v-1.25h2.51Zm-2.68-3.09v-1.05a2.58,2.58,0,0,0-.07-.75.3.3,0,0,0-.31-.2.37.37,0,0,0-.36.17,1.52,1.52,0,0,0-.08.58v1.25Z"/><path class="cls-3" d="M303.64,238.41h-3.31v-5.29h-.95v5.29h-3.3V225.83h3.3v4.5h.95v-4.5h3.31Z"/><path class="cls-3" d="M307.91,227.4h-3.08v-1.61h3.08Zm0,11h-3.08V228.06h3.08Z"/><path class="cls-3" d="M313.62,231.51h-.21c-.71,0-1.15.23-1.32.68a7.82,7.82,0,0,0-.16,2.1v4.08h-2.85V228.06h2.85l-.13,1.35a3.4,3.4,0,0,1,.68-1.06,1.92,1.92,0,0,1,1.14-.48Z"/><path class="cls-3" d="M320.7,234.81v.33a6,6,0,0,1-.09,1.16,3.36,3.36,0,0,1-.46,1,2.17,2.17,0,0,1-1,.88,3.78,3.78,0,0,1-1.49.23,4.23,4.23,0,0,1-2-.43,2.31,2.31,0,0,1-1.1-1.38,3.39,3.39,0,0,1-.16-1c0-.42,0-.72,0-.92v-3c0-.42,0-.79,0-1.09a3.12,3.12,0,0,1,.22-.9,2.12,2.12,0,0,1,1-1.2,4,4,0,0,1,1.83-.37,4.34,4.34,0,0,1,1.59.26,2.33,2.33,0,0,1,1.05.87,3.05,3.05,0,0,1,.45,1.21,9.91,9.91,0,0,1,.12,1.64v1.38h-3.51v2.21c0,.32,0,.58,0,.79s.16.31.4.31a.42.42,0,0,0,.43-.28,2,2,0,0,0,.12-.78v-1.25h2.52ZM318,231.72v-1.05a3,3,0,0,0-.07-.75.31.31,0,0,0-.32-.2.35.35,0,0,0-.35.17,1.31,1.31,0,0,0-.09.58v1.25Z"/><path class="cls-13" d="M330.77,226.49a.76.76,0,0,1,.13-.17.42.42,0,0,1,.18-.11.54.54,0,0,1,.22,0,.52.52,0,0,1,.21,0,.42.42,0,0,1,.18.11.55.55,0,0,1,.13.17.68.68,0,0,1,0,.46.55.55,0,0,1-.13.17.42.42,0,0,1-.18.11.52.52,0,0,1-.21,0,.54.54,0,0,1-.22,0,.42.42,0,0,1-.18-.11.76.76,0,0,1-.13-.17.68.68,0,0,1,0-.46Zm.14.4a.34.34,0,0,0,.09.14.38.38,0,0,0,.13.09.36.36,0,0,0,.33,0,.38.38,0,0,0,.13-.09.34.34,0,0,0,.09-.14.5.5,0,0,0,0-.34.34.34,0,0,0-.09-.14.38.38,0,0,0-.13-.09.45.45,0,0,0-.16,0,.47.47,0,0,0-.17,0,.38.38,0,0,0-.13.09.34.34,0,0,0-.09.14.5.5,0,0,0,0,.34Z"/><path class="cls-13" d="M331.21,226.76h0a.22.22,0,0,0,0,.1s0,0,0,0a0,0,0,0,0,.05,0,.13.13,0,0,0,0-.06v-.41h.12v.4a.37.37,0,0,1,0,.12.17.17,0,0,1-.16.08c-.07,0-.12,0-.14-.06a.29.29,0,0,1,0-.17h.11Z"/><path class="cls-3" d="M300.22,125.29h-2.58v-1.4h7.3v1.4h-2.58v9.85h-2.14Z"/><path class="cls-3" d="M311.74,129.87h-3.55v3.88h4.06l-.28,1.39h-5.92V123.89h5.89v1.4h-3.75v3.2h3.55Z"/><path class="cls-3" d="M315.93,131.89l-.64,3.25h-2.18l2.6-11.25h3l2.7,11.25H319.2l-.71-3.25Zm2.3-1.39c-.45-2.15-.82-4-1-5.19h-.08c-.06.91-.58,3.36-1,5.19Z"/><path class="cls-3" d="M330.77,130.74c0-2,0-4.29.09-5.54h0c-.38,1.93-1.4,6.65-2.17,9.94h-2c-.57-2.91-1.62-7.91-2-9.95h-.05c.05,1.31.12,3.85.12,5.79v4.16h-1.95V123.89h3.18c.73,3.06,1.54,6.65,1.76,8.16h0c.26-1.51,1.28-5.28,2-8.16h3.1v11.25h-2.05Z"/><path class="cls-3" d="M302.54,144.91v.41c0,1.35-.23,3.05-2.5,3.05-2.06,0-2.46-1.33-2.46-3v-5.69c0-1.76.79-2.85,2.48-2.85,2.05,0,2.43,1.37,2.43,2.9v.47H301v-.63c0-.81-.16-1.36-.9-1.36s-.91.51-.91,1.38v5.9c0,.9.19,1.54.94,1.54s.91-.61.91-1.54v-.56Z"/><path class="cls-3" d="M308.46,142.13v3.45c0,1.87-.92,2.77-2.47,2.77s-2.44-.91-2.44-2.74v-3.53a2.34,2.34,0,0,1,2.49-2.65C307.58,139.43,308.46,140.38,308.46,142.13Zm-3.37-.07v3.6c0,.8.25,1.35.93,1.35s.91-.44.91-1.37v-3.59c0-.74-.23-1.28-.92-1.28S305.09,141.22,305.09,142.06Z"/><path class="cls-3" d="M314.59,145.77c0,1.2,0,2,0,2.44h-1.46a6.64,6.64,0,0,1-.06-.85,1.52,1.52,0,0,1-1.62,1c-.78,0-1.73-.34-1.73-2.24v-6.55h1.53v6.16c0,.89.26,1.27.83,1.27s1-.36,1-1.7v-5.73h1.53Z"/><path class="cls-3" d="M316.13,142.22c0-1.75,0-2.25,0-2.66h1.46a6,6,0,0,1,.06.82,1.62,1.62,0,0,1,1.62-.95c1,0,1.77.59,1.77,2.21v6.57h-1.53v-6.28c0-.81-.28-1.14-.83-1.14s-1,.34-1,1.7v5.72h-1.53Z"/><path class="cls-3" d="M326.94,145.4v.12c0,1.53-.39,2.83-2.34,2.83s-2.28-1.27-2.28-3v-3.13c0-1.44.5-2.75,2.36-2.75s2.26,1.43,2.26,2.54v.33h-1.51V142c0-.72-.12-1.26-.78-1.26s-.8.44-.8,1.29v3.73c0,.68.13,1.34.79,1.34s.79-.45.79-1.32v-.35Z"/><path class="cls-3" d="M328.1,139.56h1.54v8.65H328.1Zm0-3.08h1.54v1.8h-1.54Z"/><path class="cls-3" d="M331.18,148.21V136.48h1.53v11.73Z"/><path class="cls-14" d="M284.06,131.67a2.34,2.34,0,0,0-2.31-2.39c-2.15,0-4.29,0-6.44,0a2.33,2.33,0,0,0-2.3,2.36c0,2,0,4,0,5.92a1.67,1.67,0,0,0,0,.32c.18,1,.5,1.55,1.52,1.66.39,0,.48.15.48.55,0,1.74.34,4.33.34,6.07,0,.14,0,.29,0,.43a2,2,0,0,0,1.86,1.7h2.58a1.24,1.24,0,0,0,.27,0,2,2,0,0,0,1.6-2c0-1.79.34-4.43.34-6.22,0-.37.1-.48.47-.52,1.19-.12,1.55-.9,1.55-2.09,0-1,0-1.92,0-2.88v-2.86A.08.08,0,0,0,284.06,131.67Z"/><path class="cls-15" d="M277.69,127.22a1.17,1.17,0,0,0,.82.33,1.18,1.18,0,0,0,.82-.33l2.71-2.67a1.11,1.11,0,0,0,0-1.61l-2.71-2.67a1.18,1.18,0,0,0-.82-.33,1.17,1.17,0,0,0-.82.33L275,122.94a1.13,1.13,0,0,0,0,1.61Zm.82-5.91,2.48,2.43-2.48,2.44L276,123.74Z"/><path class="cls-16" d="M272.64,146.68c-.85,0-1.71,0-2.56,0-.4,0-.53-.12-.56-.52-.11-1.52,0-.48-.14-2a2.17,2.17,0,0,0-.55-1.3,2.11,2.11,0,0,0-1.42-.72c-.47,0-.57-.14-.6-.58l-.21-2.84c-.07-1-.15-1.93-.22-2.9a.7.7,0,0,1,.67-.79c.3,0,.6,0,.9,0,.53,0,1.08,0,1.61,0a.88.88,0,0,0,.51-.27.67.67,0,0,0,.06-.81.85.85,0,0,0-.8-.48c-.84,0-1.69,0-2.53,0a2.14,2.14,0,0,0-2,2.29c.15,2,.29,4,.44,6a2.1,2.1,0,0,0,.49,1.17,2.13,2.13,0,0,0,1.51.77c.41,0,.53.15.56.56,0-.25,0-.57,0-.13a.57.57,0,0,1,0,.13h0c0,.35,0,.23,0,0,.06.72.1,1.45.18,2.17a2.12,2.12,0,0,0,2,1.78h2.9a.68.68,0,0,0,.68-.66A.86.86,0,0,0,272.64,146.68Z"/><path class="cls-17" d="M267.8,144.26v0Z"/><path class="cls-18" d="M290.88,133.46c-.84,0-1.68,0-2.53,0a.86.86,0,0,0-.8.48.66.66,0,0,0,.07.81.83.83,0,0,0,.5.27c.53,0,1.08,0,1.62,0,.29,0,.59,0,.89,0a.7.7,0,0,1,.67.79c-.07,1-.14,1.94-.22,2.9s-.13,1.89-.2,2.84c0,.44-.14.55-.61.58a2.16,2.16,0,0,0-2,2c-.12,1.52,0,.48-.15,2,0,.4-.16.52-.56.52-.85,0-1.7,0-2.56,0a.86.86,0,0,0-.92.9.68.68,0,0,0,.68.66h2.9a2.12,2.12,0,0,0,2-1.78c.08-.72.12-1.45.18-2.17,0,.19,0,.31,0,0h0s0-.09,0-.13c0-.44,0-.12,0,.13,0-.41.15-.54.56-.56a2.16,2.16,0,0,0,2-1.94q.22-3,.44-6A2.14,2.14,0,0,0,290.88,133.46Z"/><path class="cls-19" d="M289.88,144.3v0h0Z"/><path class="cls-20" d="M286.65,132a1.12,1.12,0,0,0,1.61,0l2.67-2.66a1.16,1.16,0,0,0,0-1.62L288.26,125a1.12,1.12,0,0,0-1.61,0L284,127.67a1.16,1.16,0,0,0,0,1.62Z"/><path class="cls-21" d="M269.11,132a1.14,1.14,0,0,0,.81.34,1.13,1.13,0,0,0,.81-.34l2.67-2.66a1.16,1.16,0,0,0,0-1.62l-2.67-2.66a1.13,1.13,0,0,0-.81-.34,1.1,1.1,0,0,0-.8.34l-2.67,2.66a1.14,1.14,0,0,0,0,1.62Z"/><path class="cls-3" d="M333.89,136.91a.52.52,0,0,1,.14-.19.57.57,0,0,1,.21-.13.64.64,0,0,1,.24-.05.7.7,0,0,1,.25.05.63.63,0,0,1,.2.13.7.7,0,0,1,.15.19.75.75,0,0,1,.05.26.76.76,0,0,1-.05.27,1,1,0,0,1-.15.2.82.82,0,0,1-.2.12.7.7,0,0,1-.25.05.64.64,0,0,1-.24-.05.72.72,0,0,1-.21-.12.66.66,0,0,1-.14-.2.6.6,0,0,1-.06-.27A.58.58,0,0,1,333.89,136.91Zm.15.46a.62.62,0,0,0,.1.16.72.72,0,0,0,.15.11.62.62,0,0,0,.38,0,.72.72,0,0,0,.15-.11.62.62,0,0,0,.1-.16.59.59,0,0,0,0-.2.58.58,0,0,0,0-.19.62.62,0,0,0-.1-.16.65.65,0,0,0-.15-.1.47.47,0,0,0-.38,0,.65.65,0,0,0-.15.1.62.62,0,0,0-.1.16.58.58,0,0,0,0,.19A.59.59,0,0,0,334,137.37Z"/><path class="cls-3" d="M334.39,137.22v0a.34.34,0,0,0,0,.11.06.06,0,0,0,.06,0,.05.05,0,0,0,.06,0s0,0,0-.07v-.46h.14v.46a.29.29,0,0,1,0,.14.19.19,0,0,1-.17.08c-.09,0-.14,0-.17-.07a.3.3,0,0,1,0-.18v0Z"/><path class="cls-3" d="M65.26,338l-2.33-6c-.3-.76-.48-1-.7-1.15v-.14l1,0,1.28,0v.14c-.3.06-.4.19-.4.41a2.4,2.4,0,0,0,.17.77l1.51,4L67,332.69a3.92,3.92,0,0,0,.27-1.26c0-.28-.09-.49-.36-.55v-.14l1,0,.77,0v.14c-.55.19-.73.42-1.31,2L65.54,338Z"/><path class="cls-3" d="M70.31,337.81l-1,0-1,0v-.14c.29-.06.42-.11.42-.88v-2.33c0-.59,0-.79-.3-.87v-.14a3.72,3.72,0,0,0,1.5-.3v3.64c0,.77.12.82.41.88Zm-1-5a.58.58,0,0,1-.59-.59.59.59,0,0,1,.59-.63.61.61,0,0,1,.63.63A.6.6,0,0,1,69.3,332.78Z"/><path class="cls-3" d="M73.6,334.45c-.2-.72-.6-1-1.14-1a.58.58,0,0,0-.64.61c0,1.09,2.18.64,2.18,2.37a1.54,1.54,0,0,1-1.72,1.46c-.46,0-.71-.14-1-.14a1,1,0,0,0-.33,0c.06-.32,0-1.15.12-1.54h.14c0,.79.45,1.38,1.1,1.38a.65.65,0,0,0,.69-.72c0-1.25-2.1-.85-2.1-2.38,0-.78.58-1.34,1.58-1.34.51,0,.8.11,1.13.11h.18a2.05,2.05,0,0,0,0,.37c0,.19,0,.52,0,.83Z"/><path class="cls-3" d="M76.57,337.81l-1,0-1,0v-.14c.29-.06.42-.11.42-.88v-2.33c0-.59,0-.79-.3-.87v-.14a3.72,3.72,0,0,0,1.5-.3v3.64c0,.77.13.82.42.88Zm-1-5a.58.58,0,0,1-.59-.59.59.59,0,0,1,.59-.63.6.6,0,0,1,.63.63A.59.59,0,0,1,75.55,332.78Z"/><path class="cls-3" d="M79.4,337.85a2.35,2.35,0,1,1,2.44-2.32A2.37,2.37,0,0,1,79.4,337.85Zm1.11-2.32c0-1.4-.22-2.12-1.11-2.12s-1.1.72-1.1,2.12.21,2.06,1.1,2.06S80.51,336.85,80.51,335.53Z"/><path class="cls-3" d="M87.28,337.81l-1,0-1,0v-.14c.29-.06.42-.11.42-.88v-2.07c0-.83-.3-1.16-.87-1.16a1.28,1.28,0,0,0-.9.44v2.79c0,.77.12.82.41.88v.14l-1,0-1,0v-.14c.29-.06.41-.11.41-.88v-2.33c0-.59,0-.79-.29-.87v-.14a3.72,3.72,0,0,0,1.5-.3v.55a2.12,2.12,0,0,1,1.44-.55c.67,0,1.53.19,1.53,1.57v2.07c0,.77.12.82.41.88Z"/><path class="cls-3" d="M92.53,337.81l-1.13,0-1.13,0v-.14c.44-.08.48-.28.48-1.37v-4.05c0-1.09,0-1.29-.48-1.37v-.14l1.13,0,1.24,0c1.7,0,2.58.9,2.58,2a1.92,1.92,0,0,1-2.09,1.83,1.94,1.94,0,0,1-1-.22l.08-.13a1.31,1.31,0,0,0,.58.13c.77,0,1-.66,1-1.61,0-1.11-.46-1.68-1.32-1.68a1.21,1.21,0,0,0-.45.08v5.19c0,1.09,0,1.29.48,1.37Z"/><path class="cls-3" d="M99.53,337.39a1.07,1.07,0,0,1-.9.5.71.71,0,0,1-.72-.47,2.09,2.09,0,0,1-1.31.47c-.75,0-1.42-.39-1.42-1.1s.83-1.26,1.75-1.26a2.32,2.32,0,0,1,.92.18v-1.15c0-.91-.27-1.15-.66-1.15s-.66.39-.66,1.23H95.36a1.69,1.69,0,0,1,1.9-1.49c1.07,0,1.79.51,1.79,1.66v1.95c0,.44.06.55.23.55a.34.34,0,0,0,.17-.05ZM97.85,336a1.75,1.75,0,0,0-.65-.13c-.45,0-.75.21-.75.79s.32.84.7.84a1.09,1.09,0,0,0,.71-.28,1.77,1.77,0,0,1,0-.24Z"/><path class="cls-3" d="M101.93,337.81l-1,0-1,0v-.14c.29-.06.41-.11.41-.88v-2.33c0-.59,0-.79-.3-.87v-.14a3.65,3.65,0,0,0,1.5-.3v.79c.57-.56.84-.79,1.27-.79s.88.32.88,1.35h-1.17c0-.42-.16-.56-.41-.56a.75.75,0,0,0-.57.31v2.54c0,.77.13.82.42.88Z"/><path class="cls-3" d="M106.79,337a1.1,1.1,0,0,1-1.1.9,1.22,1.22,0,0,1-1.36-1.34v-2.68h-.47v-.14a3.26,3.26,0,0,0,1.5-2.05l.24.05a14.42,14.42,0,0,0-.07,1.51h.29a1,1,0,0,0,.84-.23l.09.12a7.61,7.61,0,0,0-.44.74h-.78v2.47c0,.73.17,1,.58,1s.43-.2.56-.46Z"/><path class="cls-3" d="M112.05,337.81l-1,0-1,0v-.14c.3-.06.42-.11.42-.88v-2.07c0-.83-.3-1.16-.87-1.16a1.28,1.28,0,0,0-.9.44v2.79c0,.77.13.82.42.88v.14l-1,0-1,0v-.14c.29-.06.42-.11.42-.88v-2.33c0-.59,0-.79-.3-.87v-.14a3.72,3.72,0,0,0,1.5-.3v.55a2.13,2.13,0,0,1,1.44-.55c.67,0,1.53.19,1.53,1.57v2.07c0,.77.13.82.42.88Z"/><path class="cls-3" d="M116.58,336.8a2.15,2.15,0,0,1-1.83,1.09,2.37,2.37,0,0,1-.07-4.74,1.77,1.77,0,0,1,1.94,1.92h-3v.12c0,1.25.66,2.07,1.6,2.07a1.82,1.82,0,0,0,1.29-.59Zm-1.15-2c0-.88-.26-1.35-.78-1.35s-.93.62-1,1.35Z"/><path class="cls-3" d="M119.12,337.81l-1,0-1,0v-.14c.29-.06.42-.11.42-.88v-2.33c0-.59,0-.79-.3-.87v-.14a3.72,3.72,0,0,0,1.5-.3v.79c.56-.56.83-.79,1.27-.79s.88.32.88,1.35h-1.17c0-.42-.17-.56-.42-.56a.74.74,0,0,0-.56.31v2.54c0,.77.12.82.41.88Z"/><path class="cls-3" d="M124,334.45c-.2-.72-.6-1-1.14-1a.58.58,0,0,0-.64.61c0,1.09,2.18.64,2.18,2.37a1.54,1.54,0,0,1-1.72,1.46c-.46,0-.71-.14-1-.14a1,1,0,0,0-.33,0c.06-.32,0-1.15.12-1.54h.14c0,.79.45,1.38,1.1,1.38a.64.64,0,0,0,.68-.72c0-1.25-2.09-.85-2.09-2.38,0-.78.58-1.34,1.58-1.34.51,0,.8.11,1.13.11h.18a2.05,2.05,0,0,0,0,.37c0,.19,0,.52,0,.83Z"/><circle class="cls-22" cx="94.38" cy="303.88" r="1.2"/><circle class="cls-22" cx="94.38" cy="324.23" r="1.2"/><circle class="cls-22" cx="104.55" cy="314.05" r="1.2"/><circle class="cls-22" cx="84.2" cy="314.05" r="1.2"/><circle class="cls-22" cx="87.18" cy="306.86" r="1.2"/><circle class="cls-22" cx="101.57" cy="321.25" r="1.2"/><circle class="cls-22" cx="101.57" cy="306.86" r="1.2"/><circle class="cls-22" cx="87.18" cy="321.25" r="1.2"/><circle class="cls-22" cx="89.29" cy="308.96" r="0.85"/><circle class="cls-22" cx="99.46" cy="319.14" r="0.85"/><circle class="cls-22" cx="99.46" cy="308.96" r="0.85"/><circle class="cls-22" cx="89.29" cy="319.14" r="0.85"/><circle class="cls-22" cx="89.29" cy="308.96" r="0.85"/><circle class="cls-22" cx="99.46" cy="319.14" r="0.85"/><circle class="cls-22" cx="99.46" cy="308.96" r="0.85"/><circle class="cls-22" cx="89.29" cy="319.14" r="0.85"/><circle class="cls-22" cx="94.38" cy="306.86" r="0.85"/><circle class="cls-22" cx="94.38" cy="321.25" r="0.85"/><circle class="cls-22" cx="101.57" cy="314.05" r="0.85"/><circle class="cls-22" cx="87.18" cy="314.05" r="0.85"/><circle class="cls-22" cx="89.29" cy="308.96" r="0.85"/><circle class="cls-22" cx="99.46" cy="319.14" r="0.85"/><circle class="cls-22" cx="99.46" cy="308.96" r="0.85"/><circle class="cls-22" cx="89.29" cy="319.14" r="0.85"/><circle class="cls-22" cx="94.38" cy="309.5" r="0.54"/><circle class="cls-22" cx="94.38" cy="318.6" r="0.54"/><circle class="cls-22" cx="98.93" cy="314.05" r="0.54"/><circle class="cls-22" cx="89.83" cy="314.05" r="0.54"/><circle class="cls-22" cx="91.16" cy="310.83" r="0.54"/><circle class="cls-22" cx="97.6" cy="317.27" r="0.54"/><circle class="cls-22" cx="97.6" cy="310.83" r="0.54"/><circle class="cls-22" cx="91.16" cy="317.27" r="0.54"/><circle class="cls-22" cx="94.38" cy="309.5" r="0.54"/><circle class="cls-22" cx="94.38" cy="318.6" r="0.54"/><circle class="cls-22" cx="98.93" cy="314.05" r="0.54"/><circle class="cls-22" cx="89.83" cy="314.05" r="0.54"/><circle class="cls-22" cx="91.16" cy="310.83" r="0.54"/><circle class="cls-22" cx="97.6" cy="317.27" r="0.54"/><circle class="cls-22" cx="97.6" cy="310.83" r="0.54"/><circle class="cls-22" cx="91.16" cy="317.27" r="0.54"/><circle class="cls-22" cx="94.38" cy="311.51" r="0.3"/><circle class="cls-22" cx="94.38" cy="316.59" r="0.3"/><circle class="cls-22" cx="96.92" cy="314.05" r="0.3"/><circle class="cls-22" cx="91.84" cy="314.05" r="0.3"/><circle class="cls-22" cx="92.58" cy="312.25" r="0.3"/><circle class="cls-22" cx="96.17" cy="315.85" r="0.3"/><circle class="cls-22" cx="96.17" cy="312.25" r="0.3"/><circle class="cls-22" cx="92.58" cy="315.85" r="0.3"/><path class="cls-3" d="M125.07,332.83a.81.81,0,0,1,.18-.26.73.73,0,0,1,.28-.17.87.87,0,0,1,.32-.06.88.88,0,0,1,.33.06.77.77,0,0,1,.27.17.7.7,0,0,1,.19.26.77.77,0,0,1,.07.34.78.78,0,0,1-.07.35.7.7,0,0,1-.19.26.77.77,0,0,1-.27.17.88.88,0,0,1-.33.06.87.87,0,0,1-.32-.06.73.73,0,0,1-.28-.17.81.81,0,0,1-.18-.26.78.78,0,0,1-.08-.35A.77.77,0,0,1,125.07,332.83Zm.2.61a.6.6,0,0,0,.14.21.46.46,0,0,0,.2.13.49.49,0,0,0,.24.05.66.66,0,0,0,.45-.18.57.57,0,0,0,.13-.21.59.59,0,0,0,0-.27.71.71,0,0,0-.18-.47.69.69,0,0,0-.2-.13.53.53,0,0,0-.25-.05.49.49,0,0,0-.24.05.58.58,0,0,0-.2.13.6.6,0,0,0-.14.21.75.75,0,0,0,0,.26A.76.76,0,0,0,125.27,333.44Z"/><path class="cls-3" d="M125.73,333.24v0a.46.46,0,0,0,0,.14s0,0,.08,0,.07,0,.08,0a.22.22,0,0,0,0-.09v-.62h.19v.61a.4.4,0,0,1,0,.18.25.25,0,0,1-.23.11.26.26,0,0,1-.23-.09.43.43,0,0,1-.06-.24v0Z"/><path class="cls-3" d="M129.49,221.73a.91.91,0,0,1,.27-.37,1,1,0,0,1,.39-.24,1.18,1.18,0,0,1,.46-.09,1.22,1.22,0,0,1,.46.09,1,1,0,0,1,.39.24,1.14,1.14,0,0,1,.27.37,1.13,1.13,0,0,1,.1.49,1.1,1.1,0,0,1-.1.49,1.19,1.19,0,0,1-.27.38,1.28,1.28,0,0,1-.39.24,1.44,1.44,0,0,1-.46.08,1.39,1.39,0,0,1-.46-.08,1.28,1.28,0,0,1-.39-.24.94.94,0,0,1-.27-.38,1.1,1.1,0,0,1-.1-.49A1.13,1.13,0,0,1,129.49,221.73Zm.29.87a1,1,0,0,0,.19.29.84.84,0,0,0,.29.2.81.81,0,0,0,.35.07.84.84,0,0,0,.35-.07.8.8,0,0,0,.28-.2.81.81,0,0,0,.19-.29,1,1,0,0,0,.08-.38.91.91,0,0,0-.08-.37.85.85,0,0,0-.19-.3.92.92,0,0,0-.28-.19.84.84,0,0,0-.35-.07.81.81,0,0,0-.35.07,1,1,0,0,0-.29.19,1,1,0,0,0-.19.3,1.11,1.11,0,0,0-.07.37A1.17,1.17,0,0,0,129.78,222.6Zm.86-1a.67.67,0,0,1,.38.09.34.34,0,0,1,.14.31.33.33,0,0,1,0,.15.3.3,0,0,1-.07.11.41.41,0,0,1-.11.07l-.14,0,.36.59h-.28l-.33-.57h-.16v.57h-.26v-1.34Zm0,.56a.5.5,0,0,0,.19,0,.14.14,0,0,0,.08-.15.12.12,0,0,0,0-.09l-.06-.05-.09,0h-.32v.35Z"/><rect class="cls-3" x="130.51" y="221.11" width="0.26" height="2.21" transform="translate(195.39 -27.29) rotate(45)"/><path class="cls-3" d="M59.8,228.27c.11.68.64,1.13,1.72,1.13.81,0,1.42-.21,1.42-.85,0-.48-.28-.76-1.66-1.11-2.4-.62-3.21-1.34-3.21-2.6,0-1.81,1.57-3,4.09-3,3,0,4,1.41,4.12,2.76H63.65c-.08-.44-.37-.94-1.5-.94-.71,0-1.13.33-1.13.8s.41.66,1.64,1c2.58.64,3.25,1.51,3.25,2.79,0,1.79-1.59,3-4.52,3-2.66,0-4.12-1-4.28-3Z"/><path class="cls-3" d="M68,224.33h1.08l.43-1.9h2.72l-.44,1.9H73.1l-.37,1.75h-1.3l-.55,2.53c-.1.47-.06.71.5.71a3.73,3.73,0,0,0,.59,0l-.35,1.7a7.76,7.76,0,0,1-1.55.15c-1.88,0-2.27-.82-2-2.16l.63-2.89H67.63Z"/><path class="cls-3" d="M74.87,224.33h2.71l-1.42,6.72H73.44Zm.56-2.75h2.73l-.38,1.82H75.05Z"/><path class="cls-3" d="M86.1,228.6c-.43,1.48-1.58,2.63-4,2.63s-3.36-1.47-3.36-2.93A4,4,0,0,1,83,224.15c3,0,3.46,1.81,3.41,2.67H83.8c0-.49-.12-1-.85-1-1,0-1.53,1.53-1.53,2.59,0,.72.27,1.12.87,1.12s.91-.31,1.19-.94Z"/><path class="cls-3" d="M90.92,226.93c.72-.77,1.78-1.73,2.62-2.6h3.19c-1.08.89-2.08,1.73-3.09,2.63.19.49,1.62,3.59,1.82,4.09h-3c0-.15-.86-2.5-.89-2.63l-1.13.81-.38,1.82H87.34l2-9.47h2.71Z"/><path class="cls-3" d="M99.91,224.33c.27,2.3.36,4,.39,4.81h.06c.33-.78,1.12-2.6,2.15-4.81h2.89L102,230.45c-1.48,2.67-2.07,3.46-4.36,3.46a9.62,9.62,0,0,1-1.41-.11l.44-2a5.55,5.55,0,0,0,.72.05,1.14,1.14,0,0,0,1.07-.53l-1.34-7Z"/><path class="cls-23" d="M125.5,232.1a.53.53,0,0,1-.37-.15l-16-15.55a.53.53,0,0,1,0-.75.53.53,0,0,1,.75,0l16,15.55a.53.53,0,0,1,0,.75A.51.51,0,0,1,125.5,232.1Z"/><path class="cls-23" d="M110.13,233.09a.53.53,0,0,1-.37-.15.53.53,0,0,1,0-.75l16.59-16.47a.53.53,0,0,1,.75,0,.53.53,0,0,1,0,.75l-16.59,16.46A.55.55,0,0,1,110.13,233.09Z"/><path class="cls-23" d="M130.29,224.93h0l-24.47-.05a.53.53,0,0,1-.53-.53.53.53,0,0,1,.53-.53h0l24.47.05a.53.53,0,0,1,0,1.06Z"/><path class="cls-23" d="M118.36,234.93a.54.54,0,0,1-.53-.53l-.28-21.77a.53.53,0,0,1,.52-.54h0a.52.52,0,0,1,.53.52l.28,21.78a.52.52,0,0,1-.52.53Z"/><path class="cls-23" d="M118.47,230.4l-.44-.28c-.68-.42-2.69-1.42-3.81-1.05a.73.73,0,0,1-.58-.06c-.38-.22-.48-.7-.59-1.21a3.08,3.08,0,0,0-.11-.44,1.92,1.92,0,0,1-.16-.56c-.06-.4-.15-1-2-2.11l-.82-.5.85-.42c.1-.06,1.94-1.1,1-4.88l-.18-.7.73,0a7.84,7.84,0,0,0,5.28-1.9L118,216l.35.29c1.29,1.05,3.74,2.62,4.79,2.37l.74-.18-.1.77s-.37,3.06,1.13,4.63l.45.48-.56.34s-2.78,1.77-1.86,3.78l.54,1.19-1.21-.48c-.1,0-2.45-.91-3.48.74Zm-3.69-2.47a7.89,7.89,0,0,1,3.38,1,3.72,3.72,0,0,1,3.51-1c-.17-1.61,1-3,2-3.81a7.42,7.42,0,0,1-1.06-4.41c-1.62-.14-3.79-1.68-4.66-2.34a8.93,8.93,0,0,1-5,1.88c.51,2.75-.36,4.21-1,4.9,1.56,1.07,1.8,1.77,1.91,2.44a1.12,1.12,0,0,0,.06.26,2.92,2.92,0,0,1,.2.7c0,.11.06.27.09.39A3,3,0,0,1,114.78,227.93Z"/><path class="cls-23" d="M118.3,228.22l-.36-.23a4.81,4.81,0,0,0-2.18-.81h-.36l-.13-.33a4.4,4.4,0,0,0-1.65-2l-.5-.24.26-.48c.65-1.23,1.09-2.83.7-3.07l.51-.93c.08.05,2,1,3-.62l.34-.54.47.43c1.14,1,2.39,1.71,2.66,1.57l1-.5-.21,1.08a3.76,3.76,0,0,0,.39,2.52l.42.54-.63.27a2.2,2.2,0,0,0-1.18,1.7l0,.36-.34.09a4.75,4.75,0,0,0-1.83.89Zm-2.19-2.08a6,6,0,0,1,2.08.76,5.87,5.87,0,0,1,1.64-.79,3.26,3.26,0,0,1,1.24-1.88,4.69,4.69,0,0,1-.37-2.2,6.39,6.39,0,0,1-2.58-1.45,3,3,0,0,1-2.84.89,6.77,6.77,0,0,1-.74,2.71A5.65,5.65,0,0,1,116.11,226.14Z"/><path class="cls-23" d="M118.15,233.55l-.35-.29a7.38,7.38,0,0,0-5.94-1.49l-.69.17,0-.71a6.69,6.69,0,0,0-4.49-6.5l-1-.37,1-.58c.18-.11,4.23-2.65,2.77-7.05l-.25-.74.79,0s5.22.29,7.64-2.67l.38-.45.41.41s3.9,3.88,7,3.7l.53,0,0,.53s.29,4.6,2.22,6.35l.55.5-.64.36s-3.5,2-3.5,5.08v.42l-.41.09a14.78,14.78,0,0,0-5.6,2.93Zm-4.88-3a8.65,8.65,0,0,1,4.86,1.65,15.76,15.76,0,0,1,5.33-2.77c.22-2.66,2.4-4.5,3.46-5.23-1.48-1.81-1.93-4.89-2.06-6.09-2.79-.14-5.77-2.64-6.85-3.62-2.25,2.3-5.86,2.62-7.41,2.64a7.09,7.09,0,0,1-2.64,7,7.72,7.72,0,0,1,4.28,6.51A7.37,7.37,0,0,1,113.27,230.53Z"/><path class="cls-3" d="M57.92,237.9l.43,1.65c.1.36.18.69.24,1h0c.08-.33.19-.68.29-1l.53-1.65h.5l.5,1.62c.12.39.22.73.29,1.06h0a8.85,8.85,0,0,1,.25-1.06l.46-1.62H62l-1,3.24h-.54L60,239.59a9.19,9.19,0,0,1-.29-1.06h0c-.08.38-.18.72-.29,1.07l-.52,1.54H58.3l-1-3.24Z"/><path class="cls-3" d="M63.94,239.63a1,1,0,0,0,1.11,1.12,2.08,2.08,0,0,0,.9-.17l.1.43a2.74,2.74,0,0,1-1.08.2,1.51,1.51,0,0,1-1.6-1.64,1.58,1.58,0,0,1,1.52-1.75,1.37,1.37,0,0,1,1.34,1.53,1.8,1.8,0,0,1,0,.28Zm1.72-.43a.84.84,0,0,0-.81-1,1,1,0,0,0-.91,1Z"/><path class="cls-3" d="M68,241.14c0-.22,0-.55,0-.84v-3.92h.58v2h0a1.23,1.23,0,0,1,1.11-.6c.8,0,1.37.67,1.37,1.66a1.54,1.54,0,0,1-1.46,1.73,1.14,1.14,0,0,1-1.08-.61h0l0,.54Zm.61-1.3a.71.71,0,0,0,0,.21.9.9,0,0,0,.88.69c.62,0,1-.5,1-1.24s-.34-1.21-1-1.21a1,1,0,0,0-.9.73,1.29,1.29,0,0,0,0,.24Z"/><path class="cls-3" d="M75.68,239.63a1,1,0,0,0,1.11,1.12,2,2,0,0,0,.9-.17l.1.43a2.66,2.66,0,0,1-1.08.2,1.51,1.51,0,0,1-1.59-1.64,1.58,1.58,0,0,1,1.52-1.75A1.37,1.37,0,0,1,78,239.35a1.8,1.8,0,0,1,0,.28Zm1.73-.43a.84.84,0,0,0-.82-1,1,1,0,0,0-.9,1Z"/><path class="cls-3" d="M80,237.9l.46.69c.12.18.22.35.33.53h0c.11-.19.21-.36.32-.53l.46-.69h.63l-1.1,1.56,1.14,1.68h-.67l-.48-.73c-.13-.19-.23-.37-.35-.56h0l-.34.56-.47.73h-.65l1.15-1.66-1.1-1.58Z"/><path class="cls-3" d="M83.9,239c0-.42,0-.76,0-1.06h.53l0,.55h0a1.28,1.28,0,0,1,1.15-.63A1.47,1.47,0,0,1,87,239.47a1.53,1.53,0,0,1-1.48,1.74,1.13,1.13,0,0,1-1-.51h0v1.77H83.9Zm.58.86a.88.88,0,0,0,0,.24.9.9,0,0,0,.88.69c.63,0,1-.51,1-1.25s-.34-1.21-1-1.21a.94.94,0,0,0-.89.73,1,1,0,0,0,0,.24Z"/><path class="cls-3" d="M89.09,239.63a1,1,0,0,0,1.11,1.12,2,2,0,0,0,.9-.17l.1.43a2.7,2.7,0,0,1-1.08.2,1.5,1.5,0,0,1-1.59-1.64,1.57,1.57,0,0,1,1.52-1.75,1.37,1.37,0,0,1,1.34,1.53,1.8,1.8,0,0,1,0,.28Zm1.73-.43a.84.84,0,0,0-.82-1,1,1,0,0,0-.9,1Z"/><path class="cls-3" d="M93.17,238.91c0-.38,0-.71,0-1h.52l0,.63h0a1,1,0,0,1,.9-.71l.16,0v.56l-.2,0a.83.83,0,0,0-.79.76,2,2,0,0,0,0,.27v1.73h-.58Z"/><path class="cls-3" d="M97.1,237a.35.35,0,0,1-.38.37.37.37,0,0,1,0-.73A.35.35,0,0,1,97.1,237Zm-.66,4.16V237.9H97v3.24Z"/><path class="cls-3" d="M99.39,239.63a1,1,0,0,0,1.11,1.12,2,2,0,0,0,.9-.17l.1.43a2.7,2.7,0,0,1-1.08.2,1.5,1.5,0,0,1-1.59-1.64,1.57,1.57,0,0,1,1.52-1.75,1.37,1.37,0,0,1,1.34,1.53,1.8,1.8,0,0,1,0,.28Zm1.73-.43a.84.84,0,0,0-.82-1,1,1,0,0,0-.9,1Z"/><path class="cls-3" d="M103.47,238.77c0-.33,0-.61,0-.87H104l0,.53h0a1.2,1.2,0,0,1,1.08-.61c.45,0,1.14.27,1.14,1.38v1.94h-.59v-1.87c0-.52-.19-1-.75-1a.84.84,0,0,0-.79.6.82.82,0,0,0,0,.28v1.95h-.59Z"/><path class="cls-3" d="M110.56,241a2.22,2.22,0,0,1-.94.19,1.54,1.54,0,0,1-1.61-1.66,1.64,1.64,0,0,1,1.74-1.72,2,2,0,0,1,.82.17l-.14.45a1.37,1.37,0,0,0-.68-.15,1.22,1.22,0,0,0,0,2.44,1.66,1.66,0,0,0,.72-.16Z"/><path class="cls-3" d="M112.58,239.63a1,1,0,0,0,1.12,1.12,2.08,2.08,0,0,0,.9-.17l.1.43a2.74,2.74,0,0,1-1.08.2,1.51,1.51,0,0,1-1.6-1.64,1.58,1.58,0,0,1,1.52-1.75,1.37,1.37,0,0,1,1.34,1.53,1.8,1.8,0,0,1,0,.28Zm1.73-.43a.84.84,0,0,0-.81-1,1,1,0,0,0-.91,1Z"/><path class="cls-3" d="M116.59,240.54a1.56,1.56,0,0,0,.77.23c.43,0,.63-.21.63-.48s-.16-.44-.6-.6-.86-.53-.86-.92a1,1,0,0,1,1.12-1,1.7,1.7,0,0,1,.8.2l-.15.43a1.26,1.26,0,0,0-.66-.19c-.35,0-.55.21-.55.45s.2.39.62.55.85.49.85,1-.44,1-1.21,1a1.88,1.88,0,0,1-.91-.22Z"/></g></g></svg>