<svg xmlns="http://www.w3.org/2000/svg" xmlns:xlink="http://www.w3.org/1999/xlink" viewBox="0 0 597 374"><defs><style>.cls-1{fill:#fff;}.cls-2{fill:#b6a749;}.cls-3{fill:#7d5d83;}.cls-4{fill:#2fa05a;}.cls-5{fill:#8cc541;}.cls-6{fill:#2d2d2d;}.cls-7{fill:#abbd91;}.cls-8{fill:#c14858;}.cls-9{fill:#357cb7;}.cls-10{fill:#231f20;}.cls-11{fill:#1f355d;}.cls-12{fill:#85c778;}.cls-13{fill:#372324;}.cls-14{fill:#3f73b6;}.cls-15{fill:#146670;}.cls-16{fill:#5e5f5f;}.cls-17{fill:url(#linear-gradient);}.cls-18{fill:url(#Orange_Yellow_2);}.cls-19{fill:#c04958;}.cls-20{fill:#5e3040;}.cls-21{fill:#af367a;}.cls-22{fill:#5f6db1;}.cls-23{fill:url(#linear-gradient-2);}.cls-24{fill:url(#linear-gradient-3);}.cls-25{fill:url(#linear-gradient-4);}.cls-26{fill:url(#linear-gradient-5);}.cls-27{fill:url(#linear-gradient-6);}.cls-28{fill:url(#linear-gradient-7);}.cls-29{fill:url(#linear-gradient-8);}.cls-30{fill:url(#linear-gradient-9);}.cls-31{fill:#162249;}.cls-32{fill:#79939c;}.cls-33{fill:#1f2e5d;}.cls-34{fill:#59595b;}.cls-35{fill:#73bf44;}.cls-36{fill:#644c9f;}</style><linearGradient id="linear-gradient" x1="95.9" y1="143.56" x2="85.83" y2="133.75" gradientUnits="userSpaceOnUse"><stop offset="0.28" stop-color="#fdc812"/><stop offset="0.67" stop-color="#f3903f"/><stop offset="0.89" stop-color="#ed673c"/><stop offset="1" stop-color="#e93f39"/></linearGradient><linearGradient id="Orange_Yellow_2" x1="81.61" y1="138.13" x2="99.04" y2="138.13" gradientUnits="userSpaceOnUse"><stop offset="0" stop-color="#fcef44"/><stop offset="0.05" stop-color="#fce234"/><stop offset="0.12" stop-color="#fdd421"/><stop offset="0.2" stop-color="#fdcb16"/><stop offset="0.28" stop-color="#fdc812"/><stop offset="0.67" stop-color="#f3903f"/><stop offset="0.89" stop-color="#ed673c"/><stop offset="1" stop-color="#e93f39"/></linearGradient><linearGradient id="linear-gradient-2" x1="282.65" y1="244.08" x2="282.65" y2="231.8" gradientUnits="userSpaceOnUse"><stop offset="0" stop-color="#4479bd"/><stop offset="0.08" stop-color="#586cb3"/><stop offset="0.19" stop-color="#6b5faa"/><stop offset="0.31" stop-color="#7657a5"/><stop offset="0.42" stop-color="#7a55a3"/><stop offset="1" stop-color="#bd1d7b"/></linearGradient><linearGradient id="linear-gradient-3" x1="282.62" y1="244.08" x2="282.62" y2="231.8" xlink:href="#linear-gradient-2"/><linearGradient id="linear-gradient-4" x1="274.94" y1="244.08" x2="274.94" y2="231.8" xlink:href="#linear-gradient-2"/><linearGradient id="linear-gradient-5" x1="273.81" y1="244.08" x2="273.81" y2="231.8" xlink:href="#linear-gradient-2"/><linearGradient id="linear-gradient-6" x1="290.86" y1="244.08" x2="290.86" y2="231.8" xlink:href="#linear-gradient-2"/><linearGradient id="linear-gradient-7" x1="291.99" y1="244.08" x2="291.99" y2="231.8" xlink:href="#linear-gradient-2"/><linearGradient id="linear-gradient-8" x1="290" y1="244.08" x2="290" y2="231.8" xlink:href="#linear-gradient-2"/><linearGradient id="linear-gradient-9" x1="275.55" y1="244.08" x2="275.55" y2="231.8" xlink:href="#linear-gradient-2"/></defs><g id="Layer_2" data-name="Layer 2"><g id="Layer_1-2" data-name="Layer 1"><rect class="cls-1" width="597" height="374"/><path class="cls-2" d="M530.48,240.76c.15,0,.23.07.25.35.29,3.61-3.19,7.4-8.64,7.83-7.57.6-13.83-2.59-18.78-2.2-4.5.36-6,3-5.85,5.16.12,1.5,1.05,2.26,2.22,2.16a1.9,1.9,0,0,0,.77-3.54s-.26-.13-.27-.27a.24.24,0,0,1,.18-.27.73.73,0,0,1,.33.09,2.39,2.39,0,0,1,1.25,1.87,2.55,2.55,0,0,1-2.21,2.75c-1.49.12-2.67-.85-2.82-2.75-.19-2.42,1.45-5.43,6.35-5.82,5.42-.43,11.61,2.77,18.85,2.19,5.2-.41,8.46-3.87,8.2-7.19C530.29,241,530.33,240.77,530.48,240.76Z"/><path class="cls-2" d="M468,237.69c-.15,0-.24-.05-.27-.31-.44-3.25,3-6.93,8.61-7.68,7.8-1,14.39,1.42,19.49.73,4.64-.62,6.1-3.17,5.84-5.07a2,2,0,0,0-2.38-1.81,1.88,1.88,0,0,0-1.69,2,1.76,1.76,0,0,0,1,1.27s.28.09.29.22a.22.22,0,0,1-.17.26.86.86,0,0,1-.35-.06,2.2,2.2,0,0,1-1.36-1.61,2.49,2.49,0,0,1,2.17-2.65,2.52,2.52,0,0,1,3,2.31c.29,2.18-1.28,5-6.33,5.71-5.59.75-12.11-1.74-19.57-.73-5.35.72-8.58,4.08-8.17,7.08C468.17,237.51,468.14,237.67,468,237.69Z"/><path class="cls-2" d="M488.82,215.06a6.92,6.92,0,0,1,9.77-1.32c2.61,1.9,2.81,5.52,2.81,5.52,1.91-2.41,5.43-3.68,8.25-1.63,2.16,1.57,3,4.48.46,8-4.5,6.19-14.55,8.5-17,8.19a.63.63,0,0,1-.25-.1.3.3,0,0,1-.09-.42c.12-.16.42-.14.42-.14,2.38.29,12.05-1.93,16.4-7.91,2.31-3.18,1.53-5.78-.32-7.13-2.66-1.94-5.95-.49-7.67,1.88,0,0-.35.43-.72.16s-.16-.6-.16-.6-.15-3.58-2.53-5.3a6.13,6.13,0,0,0-8.79,1.23c-3.79,5.22,2.47,13,5.59,14.87,0,0,.33.2.14.46a.39.39,0,0,1-.47.1C491.13,228.78,484.76,220.64,488.82,215.06Z"/><path class="cls-3" d="M466.94,247.18l4.88-11.1,1.46-.18.62,10.45-1.76.21-.06-2.25-2.4.29-1,2.37Zm5.1-4.29-.09-3.8h0l-1.63,4Z"/><path class="cls-3" d="M478.41,240.42a.54.54,0,0,0-.16-.56.8.8,0,0,0-.58-.12,1.08,1.08,0,0,0-.68.31,1,1,0,0,0-.33.56.67.67,0,0,0,0,.4c.06.13.24.23.55.3l1,.24a1.58,1.58,0,0,1,1.17.75,1.81,1.81,0,0,1,.13,1.21,2.72,2.72,0,0,1-.38.92,3.79,3.79,0,0,1-1.62,1.4,3.69,3.69,0,0,1-1.09.31,2.15,2.15,0,0,1-1.68-.38,1.37,1.37,0,0,1-.44-.65,1.93,1.93,0,0,1,0-1l1.65-.2a1.06,1.06,0,0,0,.14.56c.09.16.31.23.64.19a1.5,1.5,0,0,0,.73-.3,1.06,1.06,0,0,0,.42-.65.66.66,0,0,0-.08-.53,1,1,0,0,0-.61-.31l-.8-.17a1.89,1.89,0,0,1-1.14-.65,1.49,1.49,0,0,1-.22-1.25,2.8,2.8,0,0,1,.39-.93,3.66,3.66,0,0,1,1.61-1.34,3.49,3.49,0,0,1,1-.28,2.53,2.53,0,0,1,1,0,1.55,1.55,0,0,1,.69.38,1.49,1.49,0,0,1,.38.66,1.91,1.91,0,0,1,0,.86Z"/><path class="cls-3" d="M479.67,245.66l2.13-10.78,1.76-.21-.76,3.85h0a3.55,3.55,0,0,1,.78-.67,2.43,2.43,0,0,1,1-.36,2.28,2.28,0,0,1,.64,0,1.07,1.07,0,0,1,.52.26,1.1,1.1,0,0,1,.3.53,1.9,1.9,0,0,1,0,.85L484.94,245l-1.76.21,1.05-5.31a.76.76,0,0,0-.1-.64.63.63,0,0,0-.59-.17,1.07,1.07,0,0,0-.74.36,1.89,1.89,0,0,0-.35.81l-1,5.16Z"/><path class="cls-3" d="M487.88,234.16l1.76-.21-1.7,8.61c-.06.29,0,.48.07.57a.91.91,0,0,0,.64.13l-.29,1.45a6.84,6.84,0,0,1-1.07,0,1.59,1.59,0,0,1-.77-.23.92.92,0,0,1-.4-.58,2.7,2.7,0,0,1,0-1.08Z"/><path class="cls-3" d="M494.84,240.74l-3.49.41-.21,1a.54.54,0,0,0,.13.53.75.75,0,0,0,.59.12,1,1,0,0,0,.71-.34,1.51,1.51,0,0,0,.3-.53l1.77-.21a3,3,0,0,1-1,1.71,4.11,4.11,0,0,1-.93.6,3.78,3.78,0,0,1-1.13.32,2.53,2.53,0,0,1-1.34-.14,1.43,1.43,0,0,1-.74-.69,1.71,1.71,0,0,1-.12-.67,5.57,5.57,0,0,1,.1-.85l.5-2.53a5.24,5.24,0,0,1,.24-.87,2.72,2.72,0,0,1,.4-.73,3.46,3.46,0,0,1,1.05-.91,3.75,3.75,0,0,1,1.46-.47,2.79,2.79,0,0,1,1.06.05,1.6,1.6,0,0,1,.74.4,1.75,1.75,0,0,1,.36,1.63Zm-3.25-.8,1.73-.2.17-.88a.57.57,0,0,0-.69-.78,1.18,1.18,0,0,0-.67.3,1.16,1.16,0,0,0-.37.68Z"/><path class="cls-3" d="M495.42,236.49l1.86-.22.27,4.64h0l2.14-4.92,1.81-.22-4.3,9.31a3.65,3.65,0,0,1-.55.89,3.34,3.34,0,0,1-.69.62,3.38,3.38,0,0,1-.76.38,4.36,4.36,0,0,1-.78.17l-.48.06.28-1.45.4-.05a1.55,1.55,0,0,0,.46-.12,1,1,0,0,0,.4-.31,3.35,3.35,0,0,0,.38-.63c.13-.27.29-.63.48-1.1Z"/><path class="cls-3" d="M507.17,239.51l-.13.66a2.89,2.89,0,0,1-.4,1,4.17,4.17,0,0,1-.76.87,4.56,4.56,0,0,1-1,.66,3.26,3.26,0,0,1-1.13.33,4.18,4.18,0,0,1-1,0,1.71,1.71,0,0,1-.85-.31,1.58,1.58,0,0,1-.53-.7,2.18,2.18,0,0,1,0-1.18l1.17-5.93a2.93,2.93,0,0,1,.4-1,3.56,3.56,0,0,1,.74-.86,4.52,4.52,0,0,1,1-.63,4.11,4.11,0,0,1,1.2-.33,2.23,2.23,0,0,1,1.89.47,1.65,1.65,0,0,1,.43.75,2.28,2.28,0,0,1,0,1l-.12.61-1.76.21.1-.51a.92.92,0,0,0-.14-.76.75.75,0,0,0-.73-.23,1.29,1.29,0,0,0-.94.46,2.19,2.19,0,0,0-.39.92l-1.09,5.51a1,1,0,0,0,.08.76c.11.19.37.27.77.22a1.53,1.53,0,0,0,.38-.1,1.49,1.49,0,0,0,.41-.22,1.45,1.45,0,0,0,.33-.36,1.64,1.64,0,0,0,.2-.54l.11-.53Z"/><path class="cls-3" d="M507.36,242.48l1.51-7.67,1.76-.21-.16.82a8.27,8.27,0,0,1,1.19-.8,3.78,3.78,0,0,1,1.32-.39l-.32,1.63a1.49,1.49,0,0,0-.52,0,2.7,2.7,0,0,0-.61.15,2.45,2.45,0,0,0-.63.35,2.14,2.14,0,0,0-.55.57,2,2,0,0,0-.33.81l-.9,4.55Z"/><path class="cls-3" d="M514.85,241.59l.16-.79h0a5.33,5.33,0,0,1-.83.74,2.32,2.32,0,0,1-1,.34,2.08,2.08,0,0,1-.61,0,1.17,1.17,0,0,1-.56-.24.94.94,0,0,1-.35-.56,2.31,2.31,0,0,1,0-1,5.67,5.67,0,0,1,.35-1.16,2.58,2.58,0,0,1,.61-.88,3,3,0,0,1,.94-.58,6.32,6.32,0,0,1,1.4-.32l.19,0h.64l.16-.81a.88.88,0,0,0-.06-.62c-.09-.16-.31-.22-.64-.18a1.53,1.53,0,0,0-.67.27,1.41,1.41,0,0,0-.48.62l-1.71.21a3.37,3.37,0,0,1,1.12-1.76,3.74,3.74,0,0,1,2-.88,3,3,0,0,1,1,0,1.63,1.63,0,0,1,.76.36,1.39,1.39,0,0,1,.4.69,2.22,2.22,0,0,1,0,1l-1,5.35Zm.66-3.3a2.44,2.44,0,0,0-.48,0,2.34,2.34,0,0,0-1,.35,1.34,1.34,0,0,0-.58.9.85.85,0,0,0,.11.69.64.64,0,0,0,.62.19,1.36,1.36,0,0,0,.75-.34,1.39,1.39,0,0,0,.39-.76Z"/><path class="cls-3" d="M517.6,241.26l1.28-6.47-.87.11.24-1.21.86-.11.21-1a2.63,2.63,0,0,1,.38-1,2.86,2.86,0,0,1,.64-.7,2.6,2.6,0,0,1,.79-.45,3.38,3.38,0,0,1,.86-.21l.81-.1-.28,1.46-.8.09a.67.67,0,0,0-.62.59l-.22,1.12,1.31-.15-.24,1.21-1.31.15-1.28,6.47Z"/><path class="cls-3" d="M523.85,233.22l.46-2.33,1.76-.22-.46,2.34,1.09-.14-.24,1.22-1.09.13-.84,4.25a1,1,0,0,0,0,.42.28.28,0,0,0,.15.2.62.62,0,0,0,.32,0l.49,0-.29,1.45-.72.09a2.5,2.5,0,0,1-1,0,1.16,1.16,0,0,1-.57-.35,1.21,1.21,0,0,1-.24-.54,1.79,1.79,0,0,1,0-.61l.92-4.66-.88.1.23-1.21Z"/><path class="cls-3" d="M529.92,234.37a.54.54,0,0,0-.17-.56.76.76,0,0,0-.57-.12,1.16,1.16,0,0,0-.69.31,1.1,1.1,0,0,0-.33.56.71.71,0,0,0,0,.41c0,.12.24.22.55.29l1,.24a1.63,1.63,0,0,1,1.18.75,1.88,1.88,0,0,1,.12,1.21,2.7,2.7,0,0,1-.37.92,3.8,3.8,0,0,1-2.71,1.71,2.15,2.15,0,0,1-1.68-.37,1.42,1.42,0,0,1-.44-.65,2,2,0,0,1,0-1l1.66-.2a1.05,1.05,0,0,0,.13.56c.1.17.32.23.65.19a1.54,1.54,0,0,0,.73-.3,1,1,0,0,0,.42-.65.68.68,0,0,0-.08-.52,1,1,0,0,0-.62-.31l-.79-.17a1.89,1.89,0,0,1-1.14-.66,1.49,1.49,0,0,1-.22-1.25,2.5,2.5,0,0,1,.39-.93,3.26,3.26,0,0,1,.71-.78,3.48,3.48,0,0,1,.9-.56,3.43,3.43,0,0,1,1-.28,2.5,2.5,0,0,1,1,.05,1.52,1.52,0,0,1,.7.37,1.44,1.44,0,0,1,.37.66,1.77,1.77,0,0,1,0,.86Z"/><path class="cls-3" d="M532.37,232.6a.89.89,0,1,1,.89-.89A.89.89,0,0,1,532.37,232.6Zm0-1.64a.76.76,0,1,0,.76.75A.76.76,0,0,0,532.37,231Z"/><path class="cls-3" d="M532.26,231.84a.31.31,0,0,1,0,.1.11.11,0,0,1,0,.08.2.2,0,0,1-.07.06l-.13,0a.15.15,0,0,1-.1,0,.13.13,0,0,1-.07-.05.16.16,0,0,1,0-.07.3.3,0,0,1,0-.1v0h.13v0a.15.15,0,0,0,0,.1.09.09,0,0,0,.08,0h.05l0,0s0,0,0-.05v-.57h.13Z"/><path class="cls-3" d="M532.42,231.34H533v.11h-.4v.2h.37v.1h-.37V232H533v.11h-.54Z"/><path class="cls-4" d="M69.22,227.52h6c2.49,0,3.68,1.08,3.68,2.7a2.61,2.61,0,0,1-2.08,2.54A2.36,2.36,0,0,1,78.31,235c0,2.65-2.49,3.48-4.88,3.48H66.91Zm1.47,8.66H73c1.12,0,1.75-.33,1.75-1.22,0-.6-.42-1-1.39-1H71.16Zm3.2-4.45c.86,0,1.49-.26,1.49-1,0-.63-.45-.9-1.19-.9H72.05l-.42,1.94Z"/><path class="cls-4" d="M84.53,227.52l-2.32,10.91H78.85l2.31-10.91Z"/><path class="cls-4" d="M95.05,238.43H92.77a4,4,0,0,1,0-1,4.27,4.27,0,0,1-3.43,1.2c-3.27,0-4.64-2.26-4.64-4.78a6.47,6.47,0,0,1,6.78-6.62c3.3,0,5,1.58,5.16,3.55H93.24c-.07-.53-.47-1.25-1.92-1.25-1.92,0-3,2.13-3,4.18,0,1.65.64,2.56,2,2.56a2.18,2.18,0,0,0,2.33-1.8l0-.05H90.43l.64-2.38h5.32Z"/><path class="cls-5" d="M106.69,227.52l-2.31,10.91H101l2.31-10.91Z"/><path class="cls-5" d="M117.22,238.43h-2.29a4.79,4.79,0,0,1,0-1,4.3,4.3,0,0,1-3.44,1.2c-3.27,0-4.63-2.26-4.63-4.78a6.47,6.47,0,0,1,6.78-6.62c3.3,0,5,1.58,5.16,3.55h-3.38c-.07-.53-.47-1.25-1.92-1.25-1.92,0-3.06,2.13-3.06,4.18,0,1.65.65,2.56,2,2.56a2.18,2.18,0,0,0,2.33-1.8l0-.05H112.6l.64-2.38h5.32Z"/><path class="cls-5" d="M100.81,239l0-.94A17.89,17.89,0,0,0,99,231.08a1.15,1.15,0,0,0-.71-1.83,1,1,0,0,0-1.07,1,1.13,1.13,0,0,0,.94,1.22h.08A20.35,20.35,0,0,1,99.37,238l0,.83c0,.27-.06.54-.08.81a11.62,11.62,0,0,1-.31,1.58,8.06,8.06,0,0,1-1.38,2.69,4.24,4.24,0,0,1-2.27,1.5l-.66.09c-.22,0-.44,0-.66,0a4.5,4.5,0,0,1-1.34-.37A2.22,2.22,0,0,1,91.3,243c0-.31.22-1.12.25-1.45.38,1.72,1.26,2.12,1.26,2.12-1.23-1.86.06-5.59.06-5.59a12.78,12.78,0,0,0-.87,1.2l-.25.35a6.52,6.52,0,0,0-1.48,3.29,3.82,3.82,0,0,0,.32,2.1,3.47,3.47,0,0,0,1.46,1.52,5.86,5.86,0,0,0,1.76.61c.31,0,.62.07.93.07s.62-.06.93-.11a5.48,5.48,0,0,0,3.09-2,9.14,9.14,0,0,0,1.67-3.36,13.26,13.26,0,0,0,.31-1.87C100.76,239.58,100.81,239.26,100.81,239Zm-3.13-8.65a.5.5,0,0,1,.54-.49.56.56,0,0,1,.46.6.49.49,0,0,1-.53.5A.56.56,0,0,1,97.68,230.3Z"/><path class="cls-4" d="M97.7,229.37s0,.1,0,.15v0h.3c0-.07-.06-.17-.09-.26Z"/><path class="cls-4" d="M122.06,224c-1.66-6.23-8.45-10-15.17-8.53a11.83,11.83,0,0,0-9.51,10.71.23.23,0,0,0,0,.32l0,0a11.5,11.5,0,0,0,.29,2.65l.25-.07a.46.46,0,0,0,0-.09,9.64,9.64,0,0,1-.32-2.42.28.28,0,0,0,.15,0,.23.23,0,0,0,.06-.34.3.3,0,0,0-.2-.1,9.36,9.36,0,0,1,.9-3.57s0,0,0,.05a.29.29,0,0,0,.37.06.24.24,0,0,0,.07-.34.3.3,0,0,0-.31-.09,10.93,10.93,0,0,1,3.12-3.67.35.35,0,0,0,0,.45.46.46,0,0,0,.59.09.37.37,0,0,0,.1-.54.44.44,0,0,0-.54-.11,12.37,12.37,0,0,1,4.61-2.09c.36-.08.72-.14,1.08-.19a.51.51,0,0,0,0,.61.66.66,0,0,0,.86.13.54.54,0,0,0,.15-.79l-.06,0a12.14,12.14,0,0,1,6.16,1.3.66.66,0,0,0-.26.11.61.61,0,0,0-.17.9.76.76,0,0,0,1,.15.63.63,0,0,0,.27-.69,10.71,10.71,0,0,1,4.81,6.35,10.17,10.17,0,0,1,.34,2.71l-.17-.08s0,0,0,0c.27-1-.14-2-.89-2.13a1.57,1.57,0,0,0-1.57.89l-.16-.12c.14-.21.17-.43,0-.52s-.43,0-.64.23-.25.51-.1.61.36,0,.55-.15l.21.14a2.5,2.5,0,0,0-.18.48c-.26,1,.14,2,.9,2.12a1.64,1.64,0,0,0,1.68-1.1l.3.15a10.09,10.09,0,0,1-.88,3.47l1.81,0A10.72,10.72,0,0,0,122.06,224Z"/><path class="cls-6" d="M271.7,54.79h-.16l-.88-2.55-.82,2.55h-.16L268.51,51H269l.74,2.58.81-2.58h.18l.8,2.58.75-2.58h.53Z"/><path class="cls-6" d="M276.07,53.43h-1.95a1,1,0,0,0,.26.73.82.82,0,0,0,.59.22,1,1,0,0,0,.69-.24l.2.35a.89.89,0,0,1-.34.19,1.87,1.87,0,0,1-.64.11,1.22,1.22,0,0,1-.87-.35,1.35,1.35,0,0,1-.39-1,1.43,1.43,0,0,1,.4-1.07,1.2,1.2,0,0,1,.86-.36,1.22,1.22,0,0,1,.91.32,1.13,1.13,0,0,1,.32.83A1.27,1.27,0,0,1,276.07,53.43Zm-1.16-1a.73.73,0,0,0-.54.21.69.69,0,0,0-.23.49h1.49a.69.69,0,0,0-.18-.49A.7.7,0,0,0,274.91,52.39Z"/><path class="cls-6" d="M277.83,54.54l-.17.25h-.24V50.93h.48v1.31a.62.62,0,0,1,.26-.18,1,1,0,0,1,.37-.07,1.14,1.14,0,0,1,.9.38,1.4,1.4,0,0,1,.34,1,1.49,1.49,0,0,1-.35,1.06,1.18,1.18,0,0,1-.93.39,1.27,1.27,0,0,1-.38-.07A.85.85,0,0,1,277.83,54.54Zm.07-1.94v1.56s.06.07.18.13a.69.69,0,0,0,.27.09.88.88,0,0,0,.7-.23,1.13,1.13,0,0,0,.22-.79,1,1,0,0,0-.25-.71.9.9,0,0,0-.67-.26.48.48,0,0,0-.24.08A.58.58,0,0,0,277.9,52.6Z"/><path class="cls-6" d="M280.93,54.58l.17-.46a1.28,1.28,0,0,0,.65.26c.29,0,.44-.12.44-.37s-.14-.33-.43-.46a3.81,3.81,0,0,1-.44-.23.86.86,0,0,1-.2-.18.57.57,0,0,1-.13-.21.86.86,0,0,1,0-.24.63.63,0,0,1,.24-.52,1.08,1.08,0,0,1,.64-.18,2.11,2.11,0,0,1,.74.18l-.14.45a.93.93,0,0,0-.57-.23.55.55,0,0,0-.29.08.24.24,0,0,0-.11.2.42.42,0,0,0,.29.4l.34.15a1.24,1.24,0,0,1,.46.33.71.71,0,0,1,.15.46.68.68,0,0,1-.26.57,1.06,1.06,0,0,1-.7.21A1.63,1.63,0,0,1,280.93,54.58Z"/><path class="cls-6" d="M284.24,54.74v-2.3h-.37V52h.85v2.7Zm.27-3.72a.28.28,0,0,1,.21.08.32.32,0,0,1,0,.42.3.3,0,1,1-.42-.42A.25.25,0,0,1,284.51,51Z"/><path class="cls-6" d="M286.47,52.41h-.32V52h.32v-.57l.48-.18V52h.74v.37H287v1.35a.77.77,0,0,0,.11.48.44.44,0,0,0,.37.14.92.92,0,0,0,.38-.09l.07.42a2.63,2.63,0,0,1-.65.08.68.68,0,0,1-.54-.24.84.84,0,0,1-.22-.6Z"/><path class="cls-6" d="M291.43,53.43h-1.95a1,1,0,0,0,.26.73.8.8,0,0,0,.59.22,1,1,0,0,0,.69-.24l.2.35a1,1,0,0,1-.34.19,1.87,1.87,0,0,1-.64.11,1.22,1.22,0,0,1-.87-.35,1.35,1.35,0,0,1-.39-1,1.43,1.43,0,0,1,.4-1.07,1.2,1.2,0,0,1,.86-.36,1.22,1.22,0,0,1,.91.32,1.13,1.13,0,0,1,.32.83A1.27,1.27,0,0,1,291.43,53.43Zm-1.16-1a.73.73,0,0,0-.54.21.74.74,0,0,0-.24.49H291a.69.69,0,0,0-.18-.49A.73.73,0,0,0,290.27,52.39Z"/><path class="cls-6" d="M295.93,54.74h-.74V51l.91,0a1.59,1.59,0,0,1,1.22.47,1.73,1.73,0,0,1,.45,1.25C297.77,54.07,297.16,54.74,295.93,54.74Zm-.24-3.24v2.76a2.56,2.56,0,0,0,.42,0,1,1,0,0,0,.83-.39,1.83,1.83,0,0,0,.3-1.11c0-.87-.39-1.31-1.17-1.31Z"/><path class="cls-6" d="M301.4,53.43h-1.95a1,1,0,0,0,.26.73.82.82,0,0,0,.59.22,1,1,0,0,0,.69-.24l.2.35a.89.89,0,0,1-.34.19,1.83,1.83,0,0,1-.64.11,1.22,1.22,0,0,1-.87-.35,1.35,1.35,0,0,1-.39-1,1.4,1.4,0,0,1,.41-1.07,1.16,1.16,0,0,1,.85-.36,1.22,1.22,0,0,1,.91.32,1.13,1.13,0,0,1,.32.83A.88.88,0,0,1,301.4,53.43Zm-1.16-1a.75.75,0,0,0-.54.21.69.69,0,0,0-.23.49H301a.69.69,0,0,0-.18-.49A.7.7,0,0,0,300.24,52.39Z"/><path class="cls-6" d="M303.73,54.79h-.13L302.44,52H303l.71,1.89.73-1.89h.5Z"/><path class="cls-6" d="M308.37,53.43h-1.95a1,1,0,0,0,.26.73.8.8,0,0,0,.59.22,1,1,0,0,0,.69-.24l.2.35a1,1,0,0,1-.34.19,1.87,1.87,0,0,1-.64.11,1.22,1.22,0,0,1-.87-.35,1.35,1.35,0,0,1-.39-1,1.43,1.43,0,0,1,.4-1.07,1.18,1.18,0,0,1,.86-.36,1.22,1.22,0,0,1,.91.32,1.13,1.13,0,0,1,.32.83A1.27,1.27,0,0,1,308.37,53.43Zm-1.16-1a.73.73,0,0,0-.54.21.74.74,0,0,0-.24.49h1.5a.69.69,0,0,0-.18-.49A.73.73,0,0,0,307.21,52.39Z"/><path class="cls-6" d="M309.76,54v-3h.48v3a.45.45,0,0,0,.12.34.43.43,0,0,0,.33.13v.43C310.07,54.79,309.76,54.52,309.76,54Z"/><path class="cls-6" d="M311.88,53.38a1.5,1.5,0,0,1,.33-1,1.26,1.26,0,0,1,1.79,0,1.78,1.78,0,0,1,0,2,1.12,1.12,0,0,1-.89.38,1.14,1.14,0,0,1-.9-.38A1.59,1.59,0,0,1,311.88,53.38Zm.5,0q0,1,.72,1a.61.61,0,0,0,.53-.28,1.33,1.33,0,0,0,.19-.74c0-.67-.24-1-.72-1a.62.62,0,0,0-.52.26A1.25,1.25,0,0,0,312.38,53.38Z"/><path class="cls-6" d="M316.12,54.59V55.8h-.48V52h.48v.22a.89.89,0,0,1,.65-.27,1.16,1.16,0,0,1,.9.35,1.82,1.82,0,0,1,0,2.06,1.16,1.16,0,0,1-.94.39,1.23,1.23,0,0,1-.36-.06A.46.46,0,0,1,316.12,54.59Zm0-2v1.57a.37.37,0,0,0,.19.13.71.71,0,0,0,.28.06c.6,0,.89-.33.89-1a1.08,1.08,0,0,0-.21-.75.85.85,0,0,0-.68-.24.56.56,0,0,0-.24.07A.71.71,0,0,0,316.12,52.62Z"/><path class="cls-6" d="M322.45,54.74V53c0-.43-.18-.64-.55-.64a.57.57,0,0,0-.33.11.5.5,0,0,0-.2.24v2h-.48V52.82a.39.39,0,0,0-.15-.32.68.68,0,0,0-.4-.11.58.58,0,0,0-.31.11.77.77,0,0,0-.23.25v2h-.48V52h.32l.16.31a.83.83,0,0,1,.69-.36.88.88,0,0,1,.81.36.6.6,0,0,1,.3-.26,1,1,0,0,1,.45-.1.85.85,0,0,1,.65.24,1,1,0,0,1,.23.7v1.81Z"/><path class="cls-6" d="M326.7,53.43h-1.95a1,1,0,0,0,.26.73.8.8,0,0,0,.59.22,1,1,0,0,0,.69-.24l.2.35a1,1,0,0,1-.34.19,1.91,1.91,0,0,1-.64.11,1.22,1.22,0,0,1-.87-.35,1.35,1.35,0,0,1-.39-1,1.43,1.43,0,0,1,.4-1.07,1.18,1.18,0,0,1,.86-.36,1.22,1.22,0,0,1,.91.32,1.12,1.12,0,0,1,.31.83A1.29,1.29,0,0,1,326.7,53.43Zm-1.17-1a.72.72,0,0,0-.53.21.74.74,0,0,0-.24.49h1.5a.69.69,0,0,0-.18-.49A.74.74,0,0,0,325.53,52.39Z"/><path class="cls-6" d="M329.71,54.74V53.17a1,1,0,0,0-.13-.61.52.52,0,0,0-.43-.17.69.69,0,0,0-.35.1.64.64,0,0,0-.27.24v2h-.48V52h.33l.15.34a.83.83,0,0,1,.77-.39c.59,0,.89.36.89,1.08v1.67Z"/><path class="cls-6" d="M331.85,52.41h-.31V52h.31v-.57l.48-.18V52h.74v.37h-.74v1.35a.77.77,0,0,0,.12.48.42.42,0,0,0,.37.14.92.92,0,0,0,.38-.09l.07.42a2.71,2.71,0,0,1-.66.08.71.71,0,0,1-.54-.24.89.89,0,0,1-.22-.6Z"/><path class="cls-7" d="M273.49,41a1.66,1.66,0,0,0-1.75-1.5c-1.34,0-2.13,1.06-2.13,2.88s.82,2.89,2.19,2.89a1.72,1.72,0,0,0,1.44-.69,1.93,1.93,0,0,0,.34-1l2.29.34a4.21,4.21,0,0,1-.91,2,4,4,0,0,1-3.09,1.2A4.48,4.48,0,0,1,268.6,46a5.08,5.08,0,0,1-1.28-3.6,5,5,0,0,1,1.33-3.63,4.49,4.49,0,0,1,3.17-1.15A3.86,3.86,0,0,1,275.08,39a3.39,3.39,0,0,1,.68,1.51Z"/><path class="cls-7" d="M294,42.3a12.65,12.65,0,0,1,.79,1.31c0-.51-.06-1-.06-1.63V39.46a13.05,13.05,0,0,0-.09-1.68H297a11.46,11.46,0,0,0-.09,1.68v5.86A12.49,12.49,0,0,0,297,47h-2.42a12.82,12.82,0,0,0-.83-1.4l-2-3.08a13.1,13.1,0,0,1-.79-1.35c.05.49.07,1.1.07,1.64v2.47A13,13,0,0,0,291,47h-2.35a10.8,10.8,0,0,0,.09-1.73v-5.8a11.8,11.8,0,0,0-.09-1.65h2.4a7.2,7.2,0,0,0,.78,1.38Z"/><path class="cls-7" d="M304.52,41a1.65,1.65,0,0,0-1.74-1.5c-1.35,0-2.13,1.06-2.13,2.88s.82,2.89,2.19,2.89a1.74,1.74,0,0,0,1.44-.69,1.84,1.84,0,0,0,.33-1l2.3.34a4.22,4.22,0,0,1-.92,2,4,4,0,0,1-3.09,1.2A4.5,4.5,0,0,1,299.63,46a5.12,5.12,0,0,1-1.28-3.6,5,5,0,0,1,1.34-3.63,4.48,4.48,0,0,1,3.17-1.15A3.83,3.83,0,0,1,306.11,39a3.4,3.4,0,0,1,.69,1.51Z"/><path class="cls-7" d="M311.4,37.78a9.86,9.86,0,0,0-.09,1.64v5.91A10.1,10.1,0,0,0,311.4,47H309a10,10,0,0,0,.09-1.63V39.42a9.94,9.94,0,0,0-.09-1.64Z"/><path class="cls-7" d="M315.8,44a1.47,1.47,0,0,0,.29.82,1.61,1.61,0,0,0,1.29.52c.85,0,1.36-.38,1.36-1a.84.84,0,0,0-.47-.78,9.62,9.62,0,0,0-1.65-.45,4.23,4.23,0,0,1-1.78-.64,2.48,2.48,0,0,1-1.07-2.12c0-1.7,1.37-2.77,3.54-2.77a3.6,3.6,0,0,1,3.07,1.26,3,3,0,0,1,.55,1.32l-2.34.26c-.13-.72-.53-1-1.37-1-.67,0-1.17.37-1.17.87a.76.76,0,0,0,.52.71,6.62,6.62,0,0,0,1.53.37,5.32,5.32,0,0,1,1.78.62,2.47,2.47,0,0,1,1.2,2.26,2.77,2.77,0,0,1-.78,2,4.07,4.07,0,0,1-2.9.93,5.15,5.15,0,0,1-2.46-.54,2.6,2.6,0,0,1-1.19-1.41,3.81,3.81,0,0,1-.24-1Z"/><path class="cls-7" d="M330.15,47a15.22,15.22,0,0,0-1.82-.08h-3.48c-.84,0-1.15,0-1.62,0a10.92,10.92,0,0,0,.09-1.61v-6a12.76,12.76,0,0,0-.09-1.61c.45,0,.76,0,1.62,0h3.52a14.76,14.76,0,0,0,1.64-.07v2.06a12.41,12.41,0,0,0-1.64-.08H325.5v1.62h2.38a14.63,14.63,0,0,0,1.66-.07v2a12.65,12.65,0,0,0-1.66-.08H325.5v1.86h2.85a16.06,16.06,0,0,0,1.8-.08Z"/><path class="cls-7" d="M331.16,37.89a1,1,0,0,1,.24-.33,1.13,1.13,0,0,1,.35-.21,1.09,1.09,0,0,1,.82,0,1.08,1.08,0,0,1,.34.21,1,1,0,0,1,.33.76,1,1,0,0,1-.09.44,1,1,0,0,1-.24.33.81.81,0,0,1-.34.21,1.09,1.09,0,0,1-.82,0,.84.84,0,0,1-.35-.21,1,1,0,0,1-.24-.33,1,1,0,0,1-.08-.44A1,1,0,0,1,331.16,37.89Zm.26.77a1,1,0,0,0,.17.26.9.9,0,0,0,.26.17.78.78,0,0,0,.31.06.81.81,0,0,0,.31-.06.85.85,0,0,0,.25-.17.78.78,0,0,0,.17-.26,1,1,0,0,0,.06-.34.88.88,0,0,0-.06-.33.78.78,0,0,0-.17-.26.85.85,0,0,0-.25-.17.81.81,0,0,0-.31-.06.78.78,0,0,0-.31.06.9.9,0,0,0-.26.17,1,1,0,0,0-.17.26.88.88,0,0,0-.06.33A1,1,0,0,0,331.42,38.66Zm.76-.93a.67.67,0,0,1,.35.08.29.29,0,0,1,.12.27.32.32,0,0,1,0,.14.2.2,0,0,1-.06.09.21.21,0,0,1-.1.06l-.12,0,.31.51h-.24l-.29-.5H332v.5h-.23V37.73Zm0,.49.17,0s.06-.07.06-.14a.19.19,0,0,0,0-.08s0,0-.06,0l-.08,0H332v.31Z"/><rect class="cls-7" x="332.07" y="37.34" width="0.23" height="1.96" transform="translate(124.39 -223.67) rotate(45)"/><path class="cls-8" d="M282,47.53a5.13,5.13,0,1,1,5.12-5.12A5.13,5.13,0,0,1,282,47.53ZM282,38a4.46,4.46,0,1,0,4.46,4.46A4.46,4.46,0,0,0,282,38Z"/><path class="cls-8" d="M282,44.35V43.9a.21.21,0,0,1,0-.07l2-3,0,0v.49l0,0c-.66,1-1.31,2-2,3l0,0Z"/><line class="cls-8" x1="284.02" y1="41.37" x2="280.39" y2="46.89"/><path class="cls-8" d="M282,38.19s0,.07,0,.1v5.17a.35.35,0,0,1,0,.07l0-.06,2-2.94a.15.15,0,0,0,0-.18,10.17,10.17,0,0,1-.11-1.47V38a4.77,4.77,0,0,0-1.81-.38v.18A1.78,1.78,0,0,1,282,38.19Z"/><path class="cls-9" d="M82.2,43.72c2.27,0,3.3,1,3.3,2.55a2.29,2.29,0,0,1-1.8,2.35v0c.69.21,1,.61,1.42,1.77l1,2.71H84.76l-.86-2.49c-.38-1.12-.82-1.48-1.82-1.48H80.43v4H79.21V43.72Zm-1.77,4.41h1.76c1.46,0,2.07-.75,2.07-1.77s-.78-1.6-2.15-1.6H80.43Z"/><path class="cls-9" d="M88.81,50.33l-1,2.8h-1.3l3.57-9.41H91.7l3.58,9.41H94l-1-2.8Zm3.45-1.93c-.48-1.31-.91-2.53-1.36-3.83h0c-.45,1.3-.89,2.52-1.36,3.83l-.32.86h3.37Z"/><path class="cls-9" d="M102.08,53.13,100.49,49c-.54-1.4-1.08-2.82-1.59-4.22h0c-.1,1.4-.23,2.82-.37,4.22l-.39,4.11H96.38l-3.57-9.41H94l1.44,3.81C96,49,96.56,50.48,97.09,52h0c.11-1.47.24-3,.39-4.44l.38-3.79h1.69l1.47,3.79c.59,1.48,1.15,3,1.69,4.44h0c.09-1.47.21-3,.33-4.42l.34-3.81h1.21l-.82,9.41Z"/><path class="cls-10" d="M77.58,63.82l-.79-2.91c-.25-1-.5-1.93-.74-2.9h0c-.23,1-.48,1.92-.74,2.9l-.79,2.91H72.83L71,57.11h1.18l.71,2.8c.25,1,.5,2,.74,3h0c.22-1,.47-2,.74-3l.77-2.86h1.66L77.64,60c.25,1,.5,2,.74,3h0c.24-1,.49-2,.74-3l.72-2.8H81l-1.78,6.71Z"/><path class="cls-10" d="M86.56,61.81h1.19a2.79,2.79,0,0,1-3,2.19c-2,0-3.16-1.44-3.16-3.63,0-2,1.16-3.45,3.12-3.45a2.87,2.87,0,0,1,2.93,2.34,6.43,6.43,0,0,1,.13,1.44h-5c.06,1.65.9,2.41,2,2.41A1.67,1.67,0,0,0,86.56,61.81Zm-3.75-2h3.85a1.93,1.93,0,1,0-3.85,0Z"/><path class="cls-10" d="M90.09,58a2.29,2.29,0,0,1,2-1.09c1.7,0,2.8,1.37,2.8,3.51S93.84,64,92.13,64a2.25,2.25,0,0,1-2-1.14h0v1H88.9V54.41h1.16V58ZM90,60.45c0,1.6.72,2.59,1.82,2.59s1.89-1,1.89-2.59-.74-2.58-1.89-2.58S90,58.87,90,60.45Z"/><path class="cls-10" d="M100.93,63.82v-1h0A2.27,2.27,0,0,1,98.84,64C97.12,64,96,62.59,96,60.45s1.09-3.51,2.8-3.51a2.29,2.29,0,0,1,2,1.09h0V54.41h1.16v9.41Zm-3.69-3.37C97.24,62,98,63,99.13,63s1.84-1,1.84-2.59-.73-2.58-1.84-2.58S97.24,58.88,97.24,60.45Z"/><path class="cls-10" d="M108,61.81h1.19a2.78,2.78,0,0,1-3,2.19c-2,0-3.15-1.44-3.15-3.63,0-2,1.16-3.45,3.11-3.45a2.88,2.88,0,0,1,2.94,2.34,6.43,6.43,0,0,1,.13,1.44h-5c0,1.65.9,2.41,2,2.41A1.67,1.67,0,0,0,108,61.81Zm-3.75-2h3.86a1.93,1.93,0,1,0-3.86,0Z"/><path class="cls-10" d="M112.15,63.82l-2.44-6.71H111l1,2.81c.34,1,.66,2,1,3h0c.32-1,.62-2,1-3l1-2.81h1.24l-2.43,6.71Z"/><path class="cls-9" d="M91.12,25.35l1.28.45L89.55,34l-1.28-.44Z"/><path class="cls-9" d="M93.93,32.24l-.86-1.05,2-1.57-1.94-1.39.79-1.09,3.37,2.4Z"/><path class="cls-9" d="M86.88,27.11l.78,1.1-1.93,1.38,2,1.58-.84,1.07-3.32-2.7Z"/><path class="cls-10" d="M117.25,57.27a.48.48,0,0,1,.12-.16.62.62,0,0,1,.17-.11.76.76,0,0,1,.21,0,.64.64,0,0,1,.2,0,.54.54,0,0,1,.18.11.64.64,0,0,1,.11.16.51.51,0,0,1,0,.44.64.64,0,0,1-.11.16A.54.54,0,0,1,118,58a.65.65,0,0,1-.2,0,.78.78,0,0,1-.21,0,.62.62,0,0,1-.17-.11.48.48,0,0,1-.12-.16.62.62,0,0,1,0-.44Zm.13.39a.38.38,0,0,0,.09.13l.12.08a.41.41,0,0,0,.16,0l.15,0a.33.33,0,0,0,.21-.21.5.5,0,0,0,0-.34.36.36,0,0,0-.08-.12.38.38,0,0,0-.13-.09l-.15,0a.41.41,0,0,0-.16,0,.34.34,0,0,0-.12.09.27.27,0,0,0-.09.12.5.5,0,0,0,0,.34Z"/><path class="cls-10" d="M117.67,57.53h0s0,.07,0,.09a.05.05,0,0,0,0,0s0,0,0,0,0,0,0-.06v-.38h.12v.38a.18.18,0,0,1,0,.11s-.07.07-.14.07a.17.17,0,0,1-.14,0,.25.25,0,0,1,0-.16h.11Z"/><path d="M96.16,20.39H91.4V22a7.84,7.84,0,0,1,0,15.61v1.63h4.76a9.44,9.44,0,0,0,0-18.87Z"/><path d="M90.7,39.26a9.44,9.44,0,1,1,9.44-9.43A9.45,9.45,0,0,1,90.7,39.26ZM90.7,22a7.84,7.84,0,1,0,7.84,7.84A7.85,7.85,0,0,0,90.7,22Z"/><path class="cls-11" d="M62.38,331.63a1.7,1.7,0,0,0-1.37.55,2.25,2.25,0,0,0-.48,1.54,2.15,2.15,0,0,0,.53,1.56,1.87,1.87,0,0,0,1.42.55,2.15,2.15,0,0,0,.81-.13,4.63,4.63,0,0,0,.64-.29,1.3,1.3,0,0,1,.31.39,1.25,1.25,0,0,1,.11.53,1,1,0,0,1-.53.81,3.12,3.12,0,0,1-1.61.33,4.71,4.71,0,0,1-1.47-.22,3.23,3.23,0,0,1-1.2-.68,3.36,3.36,0,0,1-.81-1.16,4.3,4.3,0,0,1-.29-1.69,4.23,4.23,0,0,1,.28-1.6A3.43,3.43,0,0,1,59.5,331a3.54,3.54,0,0,1,1.16-.72,4.11,4.11,0,0,1,1.42-.24,3.23,3.23,0,0,1,1.66.35,1,1,0,0,1,.58.89.92.92,0,0,1-.15.53,1.3,1.3,0,0,1-.35.35,3,3,0,0,0-.64-.34A2.2,2.2,0,0,0,62.38,331.63Z"/><path class="cls-11" d="M65.22,331.69a1.73,1.73,0,0,1,.37-.07,2.85,2.85,0,0,1,.51,0,2.13,2.13,0,0,1,.46,0,.78.78,0,0,1,.35.14.67.67,0,0,1,.21.28,1.24,1.24,0,0,1,.08.47V335a.9.9,0,0,0,.23.68,1,1,0,0,0,.68.2,1.69,1.69,0,0,0,.43,0l.26-.09v-4.07a1.73,1.73,0,0,1,.37-.07,3,3,0,0,1,.52,0,2.19,2.19,0,0,1,.46,0,.74.74,0,0,1,.34.14.69.69,0,0,1,.22.28,1.26,1.26,0,0,1,.07.47v3.54a.93.93,0,0,1-.49.87,3.17,3.17,0,0,1-1,.39,5.2,5.2,0,0,1-1.23.14,4.65,4.65,0,0,1-1.15-.14,2.79,2.79,0,0,1-.92-.43,2.07,2.07,0,0,1-.59-.75,2.68,2.68,0,0,1-.21-1.11Z"/><path class="cls-11" d="M74,337.25a2.74,2.74,0,0,1-.37.07,4.24,4.24,0,0,1-.51,0,3.13,3.13,0,0,1-.46,0,.78.78,0,0,1-.35-.14.64.64,0,0,1-.21-.29,1.21,1.21,0,0,1-.08-.47v-3.49a1.08,1.08,0,0,1,.1-.46,1,1,0,0,1,.29-.34,1.8,1.8,0,0,1,.46-.27,3.32,3.32,0,0,1,.58-.22,4.54,4.54,0,0,1,.66-.14,3.79,3.79,0,0,1,.67-.06,1.56,1.56,0,0,1,.89.22.79.79,0,0,1,.32.7.86.86,0,0,1,0,.32,2,2,0,0,1-.11.29l-.5,0-.5.07-.46.1a1.46,1.46,0,0,0-.37.12Z"/><path class="cls-11" d="M78.64,337.25a2.74,2.74,0,0,1-.37.07,4.41,4.41,0,0,1-.52,0,3.23,3.23,0,0,1-.46,0,.74.74,0,0,1-.34-.14.66.66,0,0,1-.22-.29,1.23,1.23,0,0,1-.07-.47v-3.49a1,1,0,0,1,.1-.46,1,1,0,0,1,.28-.34,2.23,2.23,0,0,1,.46-.27,3.77,3.77,0,0,1,.59-.22,4.69,4.69,0,0,1,.65-.14,3.91,3.91,0,0,1,.68-.06,1.53,1.53,0,0,1,.88.22.77.77,0,0,1,.33.7,1.13,1.13,0,0,1,0,.32,1.26,1.26,0,0,1-.12.29l-.5,0-.5.07-.46.1a1.52,1.52,0,0,0-.36.12Z"/><path class="cls-11" d="M84.21,337.45a4.28,4.28,0,0,1-1.27-.19,2.9,2.9,0,0,1-1-.58,2.62,2.62,0,0,1-.68-1,3.34,3.34,0,0,1-.25-1.36,3.14,3.14,0,0,1,.25-1.32,2.55,2.55,0,0,1,.65-.91,2.8,2.8,0,0,1,.94-.52,3.47,3.47,0,0,1,1.07-.17,3.1,3.1,0,0,1,1.12.19,2.5,2.5,0,0,1,.87.51,2.19,2.19,0,0,1,.57.78,2.31,2.31,0,0,1,.21,1,.78.78,0,0,1-.23.6,1.08,1.08,0,0,1-.61.27l-2.88.43a1,1,0,0,0,.53.58,2,2,0,0,0,.9.19,3.39,3.39,0,0,0,.91-.12,2.81,2.81,0,0,0,.69-.29,1,1,0,0,1,.31.33.8.8,0,0,1,.13.44.82.82,0,0,1-.49.78,2.76,2.76,0,0,1-.84.27A6.92,6.92,0,0,1,84.21,337.45Zm-.32-4.58a1.22,1.22,0,0,0-.49.1,1,1,0,0,0-.33.24.94.94,0,0,0-.19.32,1.53,1.53,0,0,0-.08.37l2-.33a.88.88,0,0,0-.25-.46A.85.85,0,0,0,83.89,332.87Z"/><path class="cls-11" d="M91.19,333.68a.63.63,0,0,0-.2-.53.86.86,0,0,0-.55-.17A1.76,1.76,0,0,0,90,333a1.15,1.15,0,0,0-.39.17v4a2.74,2.74,0,0,1-.37.07,4.41,4.41,0,0,1-.52,0,3.23,3.23,0,0,1-.46,0,.7.7,0,0,1-.56-.43,1.23,1.23,0,0,1-.07-.47v-3.49a.88.88,0,0,1,.13-.51,1.41,1.41,0,0,1,.37-.36,3.13,3.13,0,0,1,1-.45,4.67,4.67,0,0,1,1.34-.18,3.1,3.1,0,0,1,2,.58,1.91,1.91,0,0,1,.71,1.6v3.64a2.86,2.86,0,0,1-.36.07,4.41,4.41,0,0,1-.52,0,3.13,3.13,0,0,1-.46,0,.78.78,0,0,1-.35-.14.64.64,0,0,1-.21-.29,1.21,1.21,0,0,1-.08-.47Z"/><path class="cls-11" d="M96.37,335.32a.5.5,0,0,0,.19.43,1,1,0,0,0,.55.13l.36,0,.32-.08a1.41,1.41,0,0,1,.18.29.86.86,0,0,1,.08.38.91.91,0,0,1-.33.72,1.89,1.89,0,0,1-1.17.28A2.38,2.38,0,0,1,95,337a1.86,1.86,0,0,1-.55-1.51v-5a2.55,2.55,0,0,1,.36-.08,2.78,2.78,0,0,1,.51,0,1.51,1.51,0,0,1,.8.18.85.85,0,0,1,.28.76v.75H97.9a2.1,2.1,0,0,1,.13.32,1.42,1.42,0,0,1,.06.42.82.82,0,0,1-.18.59.65.65,0,0,1-.48.18H96.37Z"/><path class="cls-11" d="M98.82,331.84a1.15,1.15,0,0,1-.15-.35,1.45,1.45,0,0,1-.07-.47.86.86,0,0,1,.2-.65.72.72,0,0,1,.53-.2h5.07a1.27,1.27,0,0,1,.15.35,1.49,1.49,0,0,1,.07.47.86.86,0,0,1-.2.65.74.74,0,0,1-.53.2H102.6v5.37a2.12,2.12,0,0,1-.4.07,3.44,3.44,0,0,1-.54,0,2.33,2.33,0,0,1-.48,0,.88.88,0,0,1-.34-.15.64.64,0,0,1-.21-.29,1.55,1.55,0,0,1-.07-.49v-4.51Z"/><path class="cls-11" d="M107,337.25a2.53,2.53,0,0,1-.36.07,4.41,4.41,0,0,1-.52,0,3.23,3.23,0,0,1-.46,0,.7.7,0,0,1-.34-.14.59.59,0,0,1-.22-.29,1.23,1.23,0,0,1-.07-.47v-3.49a1.08,1.08,0,0,1,.09-.46,1.17,1.17,0,0,1,.29-.34,2,2,0,0,1,.46-.27,3.43,3.43,0,0,1,.59-.22,4.4,4.4,0,0,1,.65-.14,3.79,3.79,0,0,1,.67-.06,1.54,1.54,0,0,1,.89.22.77.77,0,0,1,.32.7,1.12,1.12,0,0,1,0,.32,1.26,1.26,0,0,1-.12.29l-.5,0-.5.07-.46.1a1.61,1.61,0,0,0-.37.12Z"/><path class="cls-11" d="M112.55,337.45a4.4,4.4,0,0,1-1.28-.19,2.86,2.86,0,0,1-1-.58,2.76,2.76,0,0,1-.69-1,3.51,3.51,0,0,1-.25-1.36,3.31,3.31,0,0,1,.25-1.32,2.71,2.71,0,0,1,.66-.91,2.66,2.66,0,0,1,.93-.52,3.57,3.57,0,0,1,1.07-.17,3.15,3.15,0,0,1,1.13.19,2.7,2.7,0,0,1,.87.51,2.31,2.31,0,0,1,.77,1.77.78.78,0,0,1-.22.6,1.11,1.11,0,0,1-.62.27l-2.87.43a1,1,0,0,0,.52.58,2.06,2.06,0,0,0,.91.19,3.26,3.26,0,0,0,.9-.12,2.73,2.73,0,0,0,.7-.29,1.1,1.1,0,0,1,.31.33.9.9,0,0,1,.13.44.84.84,0,0,1-.49.78,2.76,2.76,0,0,1-.84.27A6.92,6.92,0,0,1,112.55,337.45Zm-.33-4.58a1.17,1.17,0,0,0-.48.1.83.83,0,0,0-.33.24.8.8,0,0,0-.19.32,1.17,1.17,0,0,0-.08.37l2-.33a.84.84,0,0,0-.26-.46A.82.82,0,0,0,112.22,332.87Z"/><path class="cls-11" d="M119.53,333.68a.66.66,0,0,0-.2-.53.87.87,0,0,0-.56-.17,1.88,1.88,0,0,0-.46.06,1.15,1.15,0,0,0-.39.17v4a2.53,2.53,0,0,1-.36.07,4.41,4.41,0,0,1-.52,0,3.23,3.23,0,0,1-.46,0,.7.7,0,0,1-.34-.14.59.59,0,0,1-.22-.29,1.23,1.23,0,0,1-.07-.47v-3.49a.88.88,0,0,1,.13-.51,1.41,1.41,0,0,1,.37-.36,3,3,0,0,1,1-.45,4.65,4.65,0,0,1,1.33-.18,3.11,3.11,0,0,1,2,.58,1.94,1.94,0,0,1,.71,1.6v3.64a2.74,2.74,0,0,1-.37.07,4.28,4.28,0,0,1-.52,0,3.23,3.23,0,0,1-.46,0,.74.74,0,0,1-.34-.14.64.64,0,0,1-.21-.29,1.21,1.21,0,0,1-.08-.47Z"/><path class="cls-11" d="M122.49,334.43a3.4,3.4,0,0,1,.23-1.33,2.53,2.53,0,0,1,.64-.94,2.81,2.81,0,0,1,1-.55,3.85,3.85,0,0,1,1.19-.18,2.32,2.32,0,0,1,.46,0,2.28,2.28,0,0,1,.36.1v-1.88a2.44,2.44,0,0,1,.37-.08,3,3,0,0,1,.52,0,3.13,3.13,0,0,1,.46,0,.92.92,0,0,1,.35.14.7.7,0,0,1,.21.29,1.5,1.5,0,0,1,.07.47V336a1,1,0,0,1-.52.87,3.22,3.22,0,0,1-.87.39,4.2,4.2,0,0,1-1.23.17,4.09,4.09,0,0,1-1.36-.21,2.71,2.71,0,0,1-1-.61,2.47,2.47,0,0,1-.63-.95A3.45,3.45,0,0,1,122.49,334.43Zm3.3-1.45a1.24,1.24,0,0,0-1,.36,1.52,1.52,0,0,0-.34,1.09,1.63,1.63,0,0,0,.31,1.09,1.11,1.11,0,0,0,.91.37.92.92,0,0,0,.38-.07.89.89,0,0,0,.26-.14v-2.56A1.11,1.11,0,0,0,125.79,333Z"/><rect class="cls-12" x="84.46" y="321.41" width="18.05" height="3.4" rx="0.96"/><path class="cls-12" d="M95.42,312.44h-1.7a1.42,1.42,0,0,1-1.4-1.21,1.4,1.4,0,0,1,1.45-1.59h5.11a1.38,1.38,0,0,1,1.44,1.45c0,1.7,0,3.41,0,5.11a1.41,1.41,0,1,1-2.81,0c0-.55,0-1.11,0-1.67l-.14-.1a.92.92,0,0,1-.14.28L92.91,319a1.41,1.41,0,0,1-2.14,0c-.58-.58-1.16-1.15-1.74-1.74l-.24.22-.68.68a1.43,1.43,0,0,1-2,.1,1.36,1.36,0,0,1,0-2c1.42-1.45.58-.6,2-2a1.37,1.37,0,0,1,1.93,0l1.78,1.78Z"/><path class="cls-11" d="M129.76,331.41a.59.59,0,0,1,.13-.18.76.76,0,0,1,.19-.12.65.65,0,0,1,.45,0,.76.76,0,0,1,.19.12.59.59,0,0,1,.13.18.6.6,0,0,1,0,.48.59.59,0,0,1-.13.18.52.52,0,0,1-.19.11.57.57,0,0,1-.22,0,.59.59,0,0,1-.23,0,.52.52,0,0,1-.19-.11.59.59,0,0,1-.13-.18.6.6,0,0,1,0-.48Zm.14.42a.71.71,0,0,0,.1.14.36.36,0,0,0,.14.1.43.43,0,0,0,.17,0,.45.45,0,0,0,.16,0,.36.36,0,0,0,.14-.1.42.42,0,0,0,.09-.14.39.39,0,0,0,0-.18.34.34,0,0,0,0-.18.38.38,0,0,0-.09-.15.34.34,0,0,0-.14-.09.45.45,0,0,0-.16,0,.43.43,0,0,0-.17,0,.34.34,0,0,0-.14.09.56.56,0,0,0-.1.15.48.48,0,0,0,0,.18A.57.57,0,0,0,129.9,331.83Z"/><path class="cls-11" d="M130.22,331.69h0a.25.25,0,0,0,0,.1.06.06,0,0,0,.06,0s.05,0,.05,0,0,0,0-.06v-.43h.13v.43a.21.21,0,0,1,0,.12.17.17,0,0,1-.16.07.18.18,0,0,1-.15-.06.27.27,0,0,1,0-.17h.12Z"/><path class="cls-13" d="M476.74,333a7.23,7.23,0,1,1,7.36-7.32A7.25,7.25,0,0,1,476.74,333Zm5.33-7.19a5.22,5.22,0,1,0-5.21,5.33A5.26,5.26,0,0,0,482.07,325.76Z"/><path class="cls-13" d="M486.08,336.17V322.26h1.79v1.6h0a4.39,4.39,0,0,1,3.71-1.88,5.37,5.37,0,0,1,5.4,5.63,5.27,5.27,0,0,1-5.27,5.34,4.18,4.18,0,0,1-3.67-1.77h0v5Zm9-8.68a3.68,3.68,0,0,0-3.59-3.72,3.7,3.7,0,0,0,.07,7.39A3.57,3.57,0,0,0,495.05,327.49Z"/><path class="cls-13" d="M499.21,332.69v-8.64H497.8v-1.79h1.41v-3.5h2v3.5h1.71v1.79h-1.71v8.64Z"/><path class="cls-13" d="M504.2,321.06v-2.3h2v2.3Zm0,11.63V322.26h2v10.43Z"/><path class="cls-13" d="M522.49,332.69v-5.83c0-2-.83-3.09-2.46-3.09s-2.49,1-2.49,3.05v5.87h-2v-6.06c0-2.05-1-2.86-2.37-2.86-1.73,0-2.58,1-2.58,3.07v5.85h-1.95V322.26h1.8v1.13h0a3.47,3.47,0,0,1,3-1.41,3.59,3.59,0,0,1,3.24,1.75,3.67,3.67,0,0,1,3.44-1.75c2.71,0,4.26,1.69,4.26,4.39v6.32Z"/><path class="cls-13" d="M535.51,332.69v-1.62h0a4,4,0,0,1-3.53,1.88,5.49,5.49,0,1,1-.08-11,4.14,4.14,0,0,1,3.61,1.75h0v-1.47h2v10.43Zm0-5.2a3.59,3.59,0,0,0-3.63-3.72,3.7,3.7,0,1,0,3.63,3.72Z"/><path class="cls-13" d="M540.08,332.69V318.76h2v13.93Z"/><path class="cls-14" d="M479.7,328.36l-.59-.64a9.12,9.12,0,0,0-2.84-2.14,4.33,4.33,0,0,0-3.12-.23c-.91.29-1.81.68-2.71,1a7.89,7.89,0,0,1-2.26.63,5.3,5.3,0,0,1-4-1.74,5.4,5.4,0,0,0-.52-.45c.12.18.24.36.37.53a10.7,10.7,0,0,0,3,3,4,4,0,0,0,2.67.56,11,11,0,0,0,2.86-1,10.75,10.75,0,0,1,2.43-.83,5.79,5.79,0,0,1,4.57,1.21l.13.1Z"/><path class="cls-14" d="M471.88,325.46l-.58-.63a9.12,9.12,0,0,0-2.84-2.15,4.33,4.33,0,0,0-3.12-.22c-.91.28-1.81.68-2.72,1a7.4,7.4,0,0,1-2.26.62,5.29,5.29,0,0,1-4-1.73,4.29,4.29,0,0,0-.52-.45l.36.52a10.64,10.64,0,0,0,3,3,4,4,0,0,0,2.66.55,11.08,11.08,0,0,0,2.86-1,10.86,10.86,0,0,1,2.44-.84,5.79,5.79,0,0,1,4.56,1.22l.14.09Z"/><path class="cls-13" d="M543.05,320.59a.8.8,0,0,1,.15-.21.67.67,0,0,1,.22-.13.7.7,0,0,1,.25-.05.75.75,0,0,1,.26.05.62.62,0,0,1,.37.34.61.61,0,0,1,.06.28.6.6,0,0,1-.06.27.8.8,0,0,1-.15.21.61.61,0,0,1-.22.13.75.75,0,0,1-.26,0,.7.7,0,0,1-.25,0,.54.54,0,0,1-.22-.13.8.8,0,0,1-.15-.21.6.6,0,0,1-.06-.27A.61.61,0,0,1,543.05,320.59Zm.16.48a.71.71,0,0,0,.11.17.46.46,0,0,0,.16.11.41.41,0,0,0,.19,0,.45.45,0,0,0,.2,0,.57.57,0,0,0,.16-.11.48.48,0,0,0,.1-.17.45.45,0,0,0,0-.2.46.46,0,0,0,0-.21.48.48,0,0,0-.1-.17.91.91,0,0,0-.16-.11.64.64,0,0,0-.2,0,.58.58,0,0,0-.19,0,.64.64,0,0,0-.16.11.71.71,0,0,0-.11.17.65.65,0,0,0,0,.21A.65.65,0,0,0,543.21,321.07Z"/><path class="cls-13" d="M543.58,320.91v0a.31.31,0,0,0,0,.11s0,0,.07,0a.05.05,0,0,0,.06,0s0,0,0-.07v-.49h.14V321a.29.29,0,0,1,0,.14.18.18,0,0,1-.18.09.19.19,0,0,1-.18-.08.34.34,0,0,1,0-.19v0Z"/><path class="cls-15" d="M276.8,330.4H260.87a.87.87,0,0,1-.87-.86V318a.87.87,0,0,1,.87-.86H276.8a.86.86,0,0,1,.86.86v11.51A.86.86,0,0,1,276.8,330.4Zm-15.07-1.73h14.2V318.9h-14.2Z"/><path class="cls-15" d="M260.87,330.4a.89.89,0,0,1-.71-.36.87.87,0,0,1,.21-1.21l12.19-8.59a.86.86,0,0,1,1,1.41l-12.18,8.59A.85.85,0,0,1,260.87,330.4Z"/><path class="cls-15" d="M276.8,333.53H260.87a.87.87,0,1,1,0-1.73H276.8a.87.87,0,0,1,0,1.73Z"/><path class="cls-15" d="M271.86,336.65h-11a.87.87,0,1,1,0-1.73h11a.87.87,0,0,1,0,1.73Z"/><path class="cls-10" d="M286,324.72a1.17,1.17,0,0,0,.36.43,1.67,1.67,0,0,0,.54.25,2.72,2.72,0,0,0,1.12,0,1.56,1.56,0,0,0,.48-.14,1,1,0,0,0,.38-.3.72.72,0,0,0,.15-.47.67.67,0,0,0-.2-.5,1.4,1.4,0,0,0-.52-.32,5.1,5.1,0,0,0-.72-.23l-.83-.21A8,8,0,0,1,286,323a2.79,2.79,0,0,1-.72-.4,1.84,1.84,0,0,1-.52-.62,1.86,1.86,0,0,1-.2-.89,2,2,0,0,1,.25-1,2.39,2.39,0,0,1,.66-.72,2.77,2.77,0,0,1,.92-.42,3.58,3.58,0,0,1,1-.14,4.83,4.83,0,0,1,1.15.13,2.85,2.85,0,0,1,1,.43,2.1,2.1,0,0,1,.68.77,2.29,2.29,0,0,1,.25,1.12h-1.62a1.28,1.28,0,0,0-.14-.56,1,1,0,0,0-.33-.36,1.58,1.58,0,0,0-.46-.18,3.45,3.45,0,0,0-.57,0,1.9,1.9,0,0,0-.41,0,1.11,1.11,0,0,0-.37.15.87.87,0,0,0-.27.27.79.79,0,0,0,0,.77.77.77,0,0,0,.33.25,4.27,4.27,0,0,0,.7.24l1.16.3.59.15a3.21,3.21,0,0,1,.75.36,2.16,2.16,0,0,1,.65.66,1.86,1.86,0,0,1,.27,1,2.4,2.4,0,0,1-.2,1,2.07,2.07,0,0,1-.61.77,2.72,2.72,0,0,1-1,.51,4.69,4.69,0,0,1-1.37.18,4.91,4.91,0,0,1-1.22-.15,3.18,3.18,0,0,1-1.05-.49,2.44,2.44,0,0,1-.72-.84,2.58,2.58,0,0,1-.26-1.22h1.63A1.3,1.3,0,0,0,286,324.72Z"/><path class="cls-10" d="M294.55,321.08v1h-1.11v2.73a.76.76,0,0,0,.13.51.73.73,0,0,0,.51.13h.25l.22,0v1.17a2.61,2.61,0,0,1-.42,0h-.46a4.73,4.73,0,0,1-.67,0,1.78,1.78,0,0,1-.55-.19,1,1,0,0,1-.38-.4,1.31,1.31,0,0,1-.14-.67V322.1H291v-1h.92v-1.65h1.51v1.65Z"/><path class="cls-10" d="M295.31,322.65a2.63,2.63,0,0,1,.58-.92,2.52,2.52,0,0,1,.9-.59,3.09,3.09,0,0,1,1.17-.21,3.18,3.18,0,0,1,1.18.21,2.52,2.52,0,0,1,.9.59,2.63,2.63,0,0,1,.58.92,3.47,3.47,0,0,1,.2,1.2,3.41,3.41,0,0,1-.2,1.19,2.58,2.58,0,0,1-.58.91,2.52,2.52,0,0,1-.9.59,3.4,3.4,0,0,1-1.18.2,3.3,3.3,0,0,1-1.17-.2,2.52,2.52,0,0,1-.9-.59,2.58,2.58,0,0,1-.58-.91,3.41,3.41,0,0,1-.2-1.19A3.47,3.47,0,0,1,295.31,322.65Zm1.38,1.84a1.58,1.58,0,0,0,.22.57,1.12,1.12,0,0,0,.41.4,1.24,1.24,0,0,0,.64.15,1.3,1.3,0,0,0,.65-.15,1.12,1.12,0,0,0,.41-.4,1.78,1.78,0,0,0,.22-.57,3.39,3.39,0,0,0,.06-.64,3.49,3.49,0,0,0-.06-.65,1.62,1.62,0,0,0-.22-.57,1.21,1.21,0,0,0-.41-.4,1.3,1.3,0,0,0-.65-.16,1.24,1.24,0,0,0-.64.16,1.21,1.21,0,0,0-.41.4,1.45,1.45,0,0,0-.22.57,3.5,3.5,0,0,0-.07.65A3.39,3.39,0,0,0,296.69,324.49Z"/><path class="cls-10" d="M303,321.08v1h0a1.94,1.94,0,0,1,.28-.48,1.86,1.86,0,0,1,.42-.37,1.65,1.65,0,0,1,.5-.24,1.73,1.73,0,0,1,.56-.09,1.05,1.05,0,0,1,.33.06v1.4l-.26,0-.29,0a1.65,1.65,0,0,0-.7.14,1.26,1.26,0,0,0-.47.38,1.68,1.68,0,0,0-.25.56,3,3,0,0,0-.07.69v2.49h-1.52v-5.52Z"/><path class="cls-10" d="M308,328.24a2.1,2.1,0,0,1-1.21.29h-.47l-.46,0v-1.25l.44,0a2.16,2.16,0,0,0,.44,0,.62.62,0,0,0,.45-.23.82.82,0,0,0,.14-.45,1,1,0,0,0-.06-.34l-1.93-5.18h1.61l1.25,3.78h0l1.2-3.78H311l-2.3,6.2A1.85,1.85,0,0,1,308,328.24Z"/><path class="cls-10" d="M313,319v2.77h0a1.65,1.65,0,0,1,.76-.62,2.53,2.53,0,0,1,1-.2,2.15,2.15,0,0,1,.82.17,2.11,2.11,0,0,1,.74.53,2.6,2.6,0,0,1,.52.9,4.16,4.16,0,0,1,0,2.61,2.75,2.75,0,0,1-.52.91,2.21,2.21,0,0,1-.74.52,2.15,2.15,0,0,1-.82.17,2.9,2.9,0,0,1-1.09-.19,1.39,1.39,0,0,1-.72-.65h0v.7H311.5V319Zm2.46,4.19a1.67,1.67,0,0,0-.24-.56,1.13,1.13,0,0,0-1-.54,1.11,1.11,0,0,0-.58.15,1.07,1.07,0,0,0-.4.39,1.67,1.67,0,0,0-.24.56,3,3,0,0,0-.07.68,3,3,0,0,0,.07.66,1.67,1.67,0,0,0,.24.56,1.07,1.07,0,0,0,.4.39,1.11,1.11,0,0,0,.58.15,1.13,1.13,0,0,0,1-.54,1.67,1.67,0,0,0,.24-.56,3,3,0,0,0,.07-.66A3,3,0,0,0,315.47,323.17Z"/><path class="cls-10" d="M317.78,322.65a2.63,2.63,0,0,1,.58-.92,2.57,2.57,0,0,1,.89-.59,3.14,3.14,0,0,1,1.18-.21,3.18,3.18,0,0,1,1.18.21,2.52,2.52,0,0,1,.9.59,2.63,2.63,0,0,1,.58.92,3.47,3.47,0,0,1,.2,1.2,3.41,3.41,0,0,1-.2,1.19,2.58,2.58,0,0,1-.58.91,2.52,2.52,0,0,1-.9.59,3.4,3.4,0,0,1-1.18.2,3.36,3.36,0,0,1-1.18-.2,2.59,2.59,0,0,1-1.47-1.5,3.41,3.41,0,0,1-.2-1.19A3.47,3.47,0,0,1,317.78,322.65Zm1.38,1.84a1.58,1.58,0,0,0,.22.57,1.12,1.12,0,0,0,.41.4,1.24,1.24,0,0,0,.64.15,1.26,1.26,0,0,0,.64-.15,1.08,1.08,0,0,0,.42-.4,1.78,1.78,0,0,0,.22-.57,3.39,3.39,0,0,0,.06-.64,3.49,3.49,0,0,0-.06-.65,1.62,1.62,0,0,0-.22-.57,1.16,1.16,0,0,0-.42-.4,1.26,1.26,0,0,0-.64-.16,1.24,1.24,0,0,0-.64.16,1.21,1.21,0,0,0-.41.4,1.45,1.45,0,0,0-.22.57,3.5,3.5,0,0,0-.07.65A3.39,3.39,0,0,0,319.16,324.49Z"/><path class="cls-10" d="M324.21,322.78a1.83,1.83,0,0,1,.26-.89,1.89,1.89,0,0,1,.6-.56,2.45,2.45,0,0,1,.82-.31,4.68,4.68,0,0,1,.91-.09,5.93,5.93,0,0,1,.84.06,2.63,2.63,0,0,1,.78.23,1.43,1.43,0,0,1,.58.48,1.31,1.31,0,0,1,.22.8v2.87a5.55,5.55,0,0,0,0,.72,1.29,1.29,0,0,0,.15.51h-1.54a2.34,2.34,0,0,1-.11-.53,1.92,1.92,0,0,1-.85.52,3.41,3.41,0,0,1-1,.15,2.5,2.5,0,0,1-.74-.1,1.54,1.54,0,0,1-.6-.3,1.36,1.36,0,0,1-.4-.51,1.64,1.64,0,0,1-.14-.73,1.61,1.61,0,0,1,.16-.78,1.33,1.33,0,0,1,.43-.48,1.66,1.66,0,0,1,.6-.28,5.32,5.32,0,0,1,.67-.14l.68-.09a4.18,4.18,0,0,0,.58-.09,1,1,0,0,0,.41-.19.4.4,0,0,0,.14-.36.87.87,0,0,0-.08-.39.63.63,0,0,0-.21-.22,1,1,0,0,0-.31-.11l-.38,0a1.15,1.15,0,0,0-.71.19.87.87,0,0,0-.3.64Zm3.5,1.12a.7.7,0,0,1-.24.13,1.57,1.57,0,0,1-.31.08l-.35.06-.36.05a2.14,2.14,0,0,0-.34.09,1,1,0,0,0-.29.14.71.71,0,0,0-.19.23.72.72,0,0,0-.08.35.68.68,0,0,0,.08.34.48.48,0,0,0,.2.22.72.72,0,0,0,.3.11,2,2,0,0,0,.35,0,1.37,1.37,0,0,0,.7-.15,1,1,0,0,0,.36-.36,1.16,1.16,0,0,0,.14-.42,2.75,2.75,0,0,0,0-.34Z"/><path class="cls-10" d="M331.84,321.08v1h0a2,2,0,0,1,.29-.48,1.86,1.86,0,0,1,.42-.37,1.54,1.54,0,0,1,.5-.24,1.71,1.71,0,0,1,.55-.09,1.05,1.05,0,0,1,.33.06v1.4l-.25,0-.29,0a1.7,1.7,0,0,0-.71.14,1.22,1.22,0,0,0-.46.38,1.5,1.5,0,0,0-.25.56,3,3,0,0,0-.08.69v2.49H330.4v-5.52Z"/><path class="cls-10" d="M338.28,325.9a1.59,1.59,0,0,1-.7.64,2.55,2.55,0,0,1-2.07,0,2.21,2.21,0,0,1-.77-.65,3,3,0,0,1-.46-1,4,4,0,0,1-.16-1.11,3.85,3.85,0,0,1,.16-1.07,2.69,2.69,0,0,1,.46-.91,2.24,2.24,0,0,1,.76-.64,2.28,2.28,0,0,1,1.07-.24,2.11,2.11,0,0,1,.93.21,1.6,1.6,0,0,1,.7.61h0V319h1.52v7.62H338.3v-.7Zm-.07-2.73a1.46,1.46,0,0,0-.22-.56,1.15,1.15,0,0,0-.4-.39,1.16,1.16,0,0,0-.62-.15,1.28,1.28,0,0,0-.63.15,1.21,1.21,0,0,0-.41.4,1.87,1.87,0,0,0-.22.56,2.84,2.84,0,0,0-.07.66,2.87,2.87,0,0,0,.08.64,1.45,1.45,0,0,0,.24.57,1.3,1.3,0,0,0,.41.4,1.08,1.08,0,0,0,.6.16,1.22,1.22,0,0,0,.63-.15,1.1,1.1,0,0,0,.4-.4,1.77,1.77,0,0,0,.21-.57,3,3,0,0,0,.07-.67A2.81,2.81,0,0,0,338.21,323.17Z"/><path class="cls-10" d="M286,334.68a1.17,1.17,0,0,0,.36.43,1.91,1.91,0,0,0,.54.25,2.74,2.74,0,0,0,.64.08,4.23,4.23,0,0,0,.48,0,1.9,1.9,0,0,0,.48-.14,1.13,1.13,0,0,0,.38-.3.72.72,0,0,0,.15-.47.65.65,0,0,0-.2-.5,1.55,1.55,0,0,0-.52-.33,5.15,5.15,0,0,0-.72-.22l-.83-.21A8,8,0,0,1,286,333a3.12,3.12,0,0,1-.72-.4,1.84,1.84,0,0,1-.52-.62,1.86,1.86,0,0,1-.2-.89,2,2,0,0,1,.25-1,2.28,2.28,0,0,1,.66-.72,3,3,0,0,1,.92-.43,4,4,0,0,1,1-.14,4.83,4.83,0,0,1,1.15.14,2.85,2.85,0,0,1,1,.43,2.07,2.07,0,0,1,.68.76,2.33,2.33,0,0,1,.25,1.13h-1.62a1.33,1.33,0,0,0-.14-.57,1,1,0,0,0-.33-.35,1.58,1.58,0,0,0-.46-.18,2.63,2.63,0,0,0-.57-.05,1.9,1.9,0,0,0-.41,0,1.11,1.11,0,0,0-.37.15.87.87,0,0,0-.27.27.7.7,0,0,0-.11.4.64.64,0,0,0,.09.36.71.71,0,0,0,.33.26,4.27,4.27,0,0,0,.7.24l1.16.29c.14,0,.34.08.59.16a2.57,2.57,0,0,1,.75.36,2.24,2.24,0,0,1,.65.65,1.91,1.91,0,0,1,.27,1.05,2.45,2.45,0,0,1-.2,1,2.15,2.15,0,0,1-.61.77,2.72,2.72,0,0,1-1,.51,4.69,4.69,0,0,1-1.37.18,4.49,4.49,0,0,1-1.22-.16,3,3,0,0,1-1.05-.48,2.39,2.39,0,0,1-.72-.85,2.54,2.54,0,0,1-.26-1.21h1.63A1.33,1.33,0,0,0,286,334.68Z"/><path class="cls-10" d="M293,331v.7h0a1.7,1.7,0,0,1,.71-.65,2.23,2.23,0,0,1,.94-.2,2.32,2.32,0,0,1,1.12.25,2.34,2.34,0,0,1,.78.65,2.66,2.66,0,0,1,.46.94,4.22,4.22,0,0,1,.15,1.13,3.72,3.72,0,0,1-.15,1.06,2.52,2.52,0,0,1-.46.91,2.08,2.08,0,0,1-.75.63,2.28,2.28,0,0,1-1.07.24,2.12,2.12,0,0,1-.94-.21,1.7,1.7,0,0,1-.71-.62h0v2.62h-1.52V331Zm2,4.38a1.18,1.18,0,0,0,.41-.39,1.87,1.87,0,0,0,.22-.56,3.6,3.6,0,0,0,.06-.66,2.88,2.88,0,0,0-.07-.65,1.59,1.59,0,0,0-.23-.57,1.12,1.12,0,0,0-.41-.4,1.09,1.09,0,0,0-.61-.16,1.14,1.14,0,0,0-.63.16,1.18,1.18,0,0,0-.4.4,1.46,1.46,0,0,0-.22.56,3.7,3.7,0,0,0-.07.66,3.6,3.6,0,0,0,.07.66,1.88,1.88,0,0,0,.23.56,1.18,1.18,0,0,0,.41.39,1.21,1.21,0,0,0,.62.15A1.16,1.16,0,0,0,294.93,335.42Z"/><path class="cls-10" d="M299.67,335.23a1.53,1.53,0,0,0,1.77.11,1,1,0,0,0,.41-.49h1.33a2.51,2.51,0,0,1-1,1.42,2.94,2.94,0,0,1-1.6.43,3.14,3.14,0,0,1-1.18-.21,2.48,2.48,0,0,1-.88-.59A2.62,2.62,0,0,1,298,335a3.21,3.21,0,0,1-.2-1.18,3.35,3.35,0,0,1,.2-1.15,2.82,2.82,0,0,1,.58-.92,2.69,2.69,0,0,1,.89-.62,2.84,2.84,0,0,1,1.15-.22,2.61,2.61,0,0,1,1.22.27,2.45,2.45,0,0,1,.86.73,3,3,0,0,1,.49,1.05,4.15,4.15,0,0,1,.11,1.23h-4A1.54,1.54,0,0,0,299.67,335.23Zm1.71-2.9a1.07,1.07,0,0,0-.83-.3,1.34,1.34,0,0,0-.6.12,1.2,1.2,0,0,0-.38.31,1.11,1.11,0,0,0-.21.38,2,2,0,0,0-.07.37h2.47A1.75,1.75,0,0,0,301.38,332.33Z"/><path class="cls-10" d="M306.81,332a1.07,1.07,0,0,0-.61.17,1.34,1.34,0,0,0-.4.42,1.93,1.93,0,0,0-.22.58,3.36,3.36,0,0,0-.06.63,3.13,3.13,0,0,0,.06.6,1.63,1.63,0,0,0,.21.56,1.31,1.31,0,0,0,.39.42,1.11,1.11,0,0,0,.6.16,1.14,1.14,0,0,0,.84-.31,1.45,1.45,0,0,0,.36-.82h1.47a2.49,2.49,0,0,1-.86,1.68,2.78,2.78,0,0,1-1.8.58,3,3,0,0,1-1.14-.21,2.55,2.55,0,0,1-.88-.58,2.83,2.83,0,0,1-.57-.89,3.25,3.25,0,0,1-.2-1.14,3.5,3.5,0,0,1,.19-1.19,2.59,2.59,0,0,1,1.43-1.58,3,3,0,0,1,1.2-.22,3.24,3.24,0,0,1,.94.13,2.31,2.31,0,0,1,.82.39,2.14,2.14,0,0,1,.58.65,2.06,2.06,0,0,1,.25.92h-1.48A1,1,0,0,0,306.81,332Z"/><path class="cls-10" d="M310.34,330.18v-1.24h1.52v1.24Zm1.52.86v5.52h-1.52V331Z"/><path class="cls-10" d="M313,332.74a1.73,1.73,0,0,1,.27-.89,1.89,1.89,0,0,1,.59-.57,2.77,2.77,0,0,1,.82-.3,4.68,4.68,0,0,1,.91-.09,6.18,6.18,0,0,1,.85.06,2.52,2.52,0,0,1,.78.23,1.53,1.53,0,0,1,.57.47,1.34,1.34,0,0,1,.23.81v2.87a5.58,5.58,0,0,0,0,.72,1.41,1.41,0,0,0,.15.51h-1.54a2.5,2.5,0,0,1-.07-.26,1.27,1.27,0,0,1,0-.28,2,2,0,0,1-.86.53,3.41,3.41,0,0,1-1,.15,2.88,2.88,0,0,1-.74-.1,1.54,1.54,0,0,1-.6-.3,1.36,1.36,0,0,1-.4-.51,1.84,1.84,0,0,1-.14-.74,1.6,1.6,0,0,1,.16-.77,1.47,1.47,0,0,1,.43-.49,2,2,0,0,1,.6-.27,5.12,5.12,0,0,1,.68-.14c.22,0,.45-.07.67-.09a4.34,4.34,0,0,0,.59-.09,1.15,1.15,0,0,0,.4-.19.4.4,0,0,0,.14-.36.87.87,0,0,0-.08-.39.56.56,0,0,0-.21-.22.76.76,0,0,0-.31-.11,2.34,2.34,0,0,0-.38,0,1.17,1.17,0,0,0-.71.2.81.81,0,0,0-.29.64Zm3.5,1.12a.68.68,0,0,1-.24.13l-.31.08-.35.05-.36.06-.33.08a1.13,1.13,0,0,0-.29.15.64.64,0,0,0-.2.23.73.73,0,0,0-.07.35.71.71,0,0,0,.07.34.61.61,0,0,0,.2.22,1,1,0,0,0,.3.11,2.07,2.07,0,0,0,.35,0,1.37,1.37,0,0,0,.7-.15,1,1,0,0,0,.36-.35,1,1,0,0,0,.14-.43,2.47,2.47,0,0,0,0-.34Z"/><path class="cls-10" d="M320.74,328.94v7.62h-1.52v-7.62Z"/><path class="cls-10" d="M322,330.18v-1.24h1.51v1.24Zm1.51.86v5.52H322V331Z"/><path class="cls-10" d="M326,335.19a.77.77,0,0,0,.26.28,1.05,1.05,0,0,0,.37.17,1.49,1.49,0,0,0,.43.05l.33,0a1.33,1.33,0,0,0,.32-.12.7.7,0,0,0,.24-.21.55.55,0,0,0,.1-.34q0-.35-.45-.51a9.33,9.33,0,0,0-1.27-.35c-.22-.05-.43-.1-.64-.17a2.24,2.24,0,0,1-.56-.27,1.3,1.3,0,0,1-.4-.41,1.21,1.21,0,0,1-.15-.62,1.62,1.62,0,0,1,.21-.87,1.5,1.5,0,0,1,.55-.54,2.35,2.35,0,0,1,.77-.28,4.77,4.77,0,0,1,1.74,0,2.66,2.66,0,0,1,.76.29,1.89,1.89,0,0,1,.55.54,1.94,1.94,0,0,1,.26.85H328a.68.68,0,0,0-.34-.59,1.51,1.51,0,0,0-.7-.16l-.28,0a.77.77,0,0,0-.27.07.62.62,0,0,0-.21.15.47.47,0,0,0-.08.28.43.43,0,0,0,.15.33,1.42,1.42,0,0,0,.39.21,4.86,4.86,0,0,0,.55.14l.63.14c.22.05.43.11.64.18a2.26,2.26,0,0,1,.56.28,1.4,1.4,0,0,1,.4.44,1.28,1.28,0,0,1,.15.65,1.83,1.83,0,0,1-.22.91,1.89,1.89,0,0,1-.57.59,2.41,2.41,0,0,1-.81.32,4.7,4.7,0,0,1-.92.09,4.83,4.83,0,0,1-.94-.1,2.38,2.38,0,0,1-.82-.32,2,2,0,0,1-.59-.59,2,2,0,0,1-.25-.93h1.44A.83.83,0,0,0,326,335.19Z"/><path class="cls-10" d="M333.45,331v1h-1.11v2.74a.52.52,0,0,0,.64.64h.25l.22,0v1.18l-.42,0h-.46a3.58,3.58,0,0,1-.67-.05,1.55,1.55,0,0,1-.55-.18,1,1,0,0,1-.38-.4,1.31,1.31,0,0,1-.14-.67v-3.26h-.92v-1h.92v-1.66h1.51V331Z"/><path class="cls-10" d="M335.46,335.19a.77.77,0,0,0,.26.28,1.05,1.05,0,0,0,.37.17,1.49,1.49,0,0,0,.43.05l.33,0a1.33,1.33,0,0,0,.32-.12.7.7,0,0,0,.24-.21.55.55,0,0,0,.1-.34q0-.35-.45-.51a9.33,9.33,0,0,0-1.27-.35c-.22-.05-.43-.1-.64-.17a2.24,2.24,0,0,1-.56-.27,1.3,1.3,0,0,1-.4-.41,1.21,1.21,0,0,1-.15-.62,1.62,1.62,0,0,1,.21-.87,1.5,1.5,0,0,1,.55-.54,2.35,2.35,0,0,1,.77-.28,4.77,4.77,0,0,1,1.74,0,2.66,2.66,0,0,1,.76.29,1.89,1.89,0,0,1,.55.54,1.94,1.94,0,0,1,.26.85h-1.44a.68.68,0,0,0-.34-.59,1.51,1.51,0,0,0-.7-.16l-.28,0a.77.77,0,0,0-.27.07.62.62,0,0,0-.21.15.47.47,0,0,0-.08.28.43.43,0,0,0,.15.33,1.42,1.42,0,0,0,.39.21,4.86,4.86,0,0,0,.55.14l.63.14c.22.05.43.11.64.18a2.26,2.26,0,0,1,.56.28,1.4,1.4,0,0,1,.4.44,1.28,1.28,0,0,1,.15.65,1.83,1.83,0,0,1-.22.91,1.89,1.89,0,0,1-.57.59,2.41,2.41,0,0,1-.81.32,4.7,4.7,0,0,1-.92.09,4.83,4.83,0,0,1-.94-.1,2.38,2.38,0,0,1-.82-.32,2,2,0,0,1-.59-.59,2,2,0,0,1-.25-.93h1.44A.83.83,0,0,0,335.46,335.19Z"/><path class="cls-10" d="M339.54,331a.48.48,0,0,1,.12-.16.62.62,0,0,1,.17-.11.78.78,0,0,1,.21,0,.65.65,0,0,1,.2,0,.54.54,0,0,1,.18.11.48.48,0,0,1,.12.16.54.54,0,0,1,0,.22.51.51,0,0,1,0,.22.52.52,0,0,1-.12.17.54.54,0,0,1-.18.11.64.64,0,0,1-.2,0l-.21,0a.62.62,0,0,1-.17-.11.52.52,0,0,1-.12-.17.51.51,0,0,1-.05-.22A.54.54,0,0,1,339.54,331Zm.13.39a.41.41,0,0,0,.08.13.38.38,0,0,0,.13.09.41.41,0,0,0,.16,0l.15,0a.38.38,0,0,0,.13-.09.43.43,0,0,0,.09-.13.47.47,0,0,0,0-.17.41.41,0,0,0,0-.16.43.43,0,0,0-.09-.13.38.38,0,0,0-.13-.09l-.15,0a.41.41,0,0,0-.16,0,.38.38,0,0,0-.13.09.43.43,0,0,0-.11.29A.47.47,0,0,0,339.67,331.39Z"/><path class="cls-10" d="M340,331.26v0a.22.22,0,0,0,0,.09l0,0s.05,0,.05,0a.07.07,0,0,0,0-.05v-.39h.12v.38a.21.21,0,0,1,0,.12.15.15,0,0,1-.14.07.18.18,0,0,1-.15-.06.33.33,0,0,1,0-.15v0Z"/><path class="cls-16" d="M58.94,136.49a1.89,1.89,0,0,0-1.76-1.27,2.16,2.16,0,0,0,0,4.3,1.9,1.9,0,0,0,1.75-1.23h2a3.85,3.85,0,0,1-6.42,1.77,3.69,3.69,0,0,1-1.12-2.8,3.78,3.78,0,0,1,3.76-3.68,3.71,3.71,0,0,1,2.54.9,3.41,3.41,0,0,1,1.24,2Z"/><path class="cls-16" d="M61.78,141v-5.47h1.54v.58h0a1.35,1.35,0,0,1,1.37-.77V137c-1,0-1.29.37-1.29,1v3Z"/><path class="cls-16" d="M68,141.19a2.91,2.91,0,1,1,3-2.93A2.86,2.86,0,0,1,68,141.19Zm1.31-2.91A1.31,1.31,0,1,0,68,139.66,1.34,1.34,0,0,0,69.3,138.28Z"/><path class="cls-16" d="M74.2,137.08c0-.31-.24-.41-.51-.41s-.47.16-.47.37.27.44,1,.64c1.3.34,1.72.86,1.72,1.66a2,2,0,0,1-2.23,1.87,2.05,2.05,0,0,1-2.23-1.82h1.63a.57.57,0,0,0,.62.51c.29,0,.57-.17.57-.43s-.18-.46-1-.72c-1.38-.42-1.75-1-1.75-1.61a2,2,0,0,1,2.12-1.78,1.88,1.88,0,0,1,2.1,1.72Z"/><path class="cls-16" d="M79.12,137.08c0-.31-.24-.41-.5-.41s-.48.16-.48.37.27.44,1,.64c1.3.34,1.73.86,1.73,1.66a2,2,0,0,1-2.23,1.87,2,2,0,0,1-2.23-1.82h1.62a.57.57,0,0,0,.62.51c.29,0,.58-.17.58-.43s-.19-.46-1-.72c-1.38-.42-1.75-1-1.75-1.61a2,2,0,0,1,2.13-1.78,1.89,1.89,0,0,1,2.1,1.72Z"/><path class="cls-16" d="M100.07,141v-7.3h2.34a5.55,5.55,0,0,1,1.17.09,1.84,1.84,0,0,1,1.52,1.81,1.63,1.63,0,0,1-.85,1.48,1.66,1.66,0,0,1,1.2,1.7,2.06,2.06,0,0,1-.85,1.73,3,3,0,0,1-2.1.49Zm2.53-4.53c.46,0,.71-.19.71-.58s-.24-.55-.7-.55h-.75v1.13Zm.22,2.89c.52,0,.85-.22.85-.7s-.29-.63-.84-.63h-1v1.33Z"/><path class="cls-16" d="M106.38,141v-5.47h1.54v.58h0a1.34,1.34,0,0,1,1.37-.77V137c-1,0-1.29.37-1.29,1v3Z"/><path class="cls-16" d="M112.59,141.19a2.91,2.91,0,1,1,3-2.93A2.86,2.86,0,0,1,112.59,141.19Zm1.31-2.91a1.32,1.32,0,1,0-1.31,1.38A1.34,1.34,0,0,0,113.9,138.28Z"/><path class="cls-16" d="M120.79,141l-.91-3.54h0l-.92,3.54h-1.52l-1.68-5.47h1.7l.82,3.4h0l.9-3.4h1.38l.91,3.4h0l.82-3.4H124L122.3,141Z"/><path class="cls-16" d="M127,137.08c0-.31-.24-.41-.5-.41s-.48.16-.48.37.27.44,1,.64c1.3.34,1.73.86,1.73,1.66a2,2,0,0,1-2.23,1.87,2,2,0,0,1-2.23-1.82h1.62a.57.57,0,0,0,.63.51c.28,0,.57-.17.57-.43s-.19-.46-1-.72c-1.38-.42-1.74-1-1.74-1.61a1.94,1.94,0,0,1,2.12-1.78,1.89,1.89,0,0,1,2.1,1.72Z"/><path class="cls-16" d="M130.9,138.78a1.23,1.23,0,0,0,1.28,1,1.16,1.16,0,0,0,1-.52h1.67a2.89,2.89,0,1,1-2.7-3.94,2.88,2.88,0,0,1,2.89,3,2,2,0,0,1,0,.43Zm2.5-1.1a1.22,1.22,0,0,0-1.25-.94,1.2,1.2,0,0,0-1.23.94Z"/><path class="cls-16" d="M135.09,134.83a.71.71,0,0,1,.1-.14.46.46,0,0,1,.15-.09.51.51,0,0,1,.17,0l.18,0a.42.42,0,0,1,.14.09.49.49,0,0,1,.11.14.57.57,0,0,1,0,.18.54.54,0,0,1,0,.19.38.38,0,0,1-.11.14.42.42,0,0,1-.14.09l-.18,0a.51.51,0,0,1-.17,0,.46.46,0,0,1-.15-.09.5.5,0,0,1-.1-.14.54.54,0,0,1,0-.19A.57.57,0,0,1,135.09,134.83Zm.11.33a.28.28,0,0,0,.08.11l.1.07a.31.31,0,0,0,.13,0,.35.35,0,0,0,.14,0l.1-.07a.26.26,0,0,0,.07-.11.37.37,0,0,0,0-.15.35.35,0,0,0,0-.14.26.26,0,0,0-.07-.11l-.1-.07a.35.35,0,0,0-.14,0,.31.31,0,0,0-.13,0l-.1.07a.28.28,0,0,0-.08.11.54.54,0,0,0,0,.29Z"/><path class="cls-16" d="M135.45,135.05h0a.17.17,0,0,0,0,.08.05.05,0,0,0,0,0s0,0,0,0,0,0,0,0v-.33h.1v.32a.25.25,0,0,1,0,.1.12.12,0,0,1-.12.06.14.14,0,0,1-.12-.05.18.18,0,0,1,0-.13h.1Z"/><polygon class="cls-17" points="98.11 143.03 99.04 142.1 86.35 129.41 85.42 130.34 84.44 131.31 84.44 131.31 83.51 132.25 83.51 132.25 82.54 133.22 81.61 134.15 94.3 146.84 95.23 145.91 83.47 134.15 84.44 133.18 96.2 144.94 97.14 144.01 85.37 132.25 86.35 131.27 98.11 143.03"/><polygon class="cls-18" points="98.11 133.22 86.35 144.98 85.37 144.01 97.14 132.25 96.2 131.31 84.44 143.07 83.47 142.1 95.23 130.34 94.3 129.41 82.54 141.17 81.61 142.1 82.54 143.03 82.54 143.03 83.51 144.01 83.51 144.01 84.44 144.94 84.44 144.94 85.42 145.91 85.42 145.91 86.35 146.84 87.28 145.91 99.04 134.15 98.11 133.22"/><path class="cls-19" d="M332.3,136.84v2c0,.85-.26,1.4-1.11,1.49-.26,0-.33.1-.33.36,0,1.27-.24,3.15-.24,4.42a1.4,1.4,0,0,1-1.14,1.4.62.62,0,0,1-.19,0h-1.83a1.38,1.38,0,0,1-1.32-1.21c0-.1,0-.2,0-.3,0-1.23-.24-3.07-.24-4.31,0-.28-.07-.35-.35-.38-.72-.08-1-.5-1.08-1.18a1.77,1.77,0,0,1,0-.23v-4.2a1.66,1.66,0,0,1,1.63-1.68c1.53,0,3.05,0,4.57,0a1.68,1.68,0,0,1,1.65,1.7v2.06Z"/><path class="cls-19" d="M328.35,131.86a.83.83,0,0,1-.58-.24l-1.93-1.89a.81.81,0,0,1,0-1.15l1.93-1.89a.82.82,0,0,1,1.16,0l1.93,1.89a.81.81,0,0,1,0,1.15l-1.93,1.89A.83.83,0,0,1,328.35,131.86Zm.09-.89Zm-1.85-1.81,1.76,1.72,1.76-1.72-1.76-1.73Z"/><path class="cls-20" d="M273.62,143a5.67,5.67,0,0,1-.17,1.64,2.63,2.63,0,0,1-.55.93,2.26,2.26,0,0,1-1.09.61,6.83,6.83,0,0,1-1.67.18,6.55,6.55,0,0,1-1.74-.19,2.2,2.2,0,0,1-1.08-.66,3,3,0,0,1-.58-1.1,8,8,0,0,1-.18-2v-.5h2.91v1.24a3.21,3.21,0,0,0,.09.93c.06.17.21.25.46.25.41,0,.62-.36.62-1.08a4.62,4.62,0,0,0-.08-1.05,1.57,1.57,0,0,0-.46-.74,24.9,24.9,0,0,1-2.49-1.94,4.06,4.06,0,0,1-1.15-3.14,7.93,7.93,0,0,1,.09-1.28,2.76,2.76,0,0,1,.36-1,1.92,1.92,0,0,1,1.09-.87,5.87,5.87,0,0,1,1.86-.24,9,9,0,0,1,1.78.14,1.93,1.93,0,0,1,1.08.6,2.33,2.33,0,0,1,.57,1.19,10.42,10.42,0,0,1,.08,1.57v.17h-2.9V136c0-.35,0-.56,0-.64a.47.47,0,0,0-.49-.45c-.38,0-.56.35-.56,1.05a2,2,0,0,0,.26,1.17,7.89,7.89,0,0,0,1.62,1.22,4.81,4.81,0,0,1,2,2A6.77,6.77,0,0,1,273.62,143Z"/><path class="cls-20" d="M281.48,146.28h-3.07l0-.91a2,2,0,0,1-.73.72,2.21,2.21,0,0,1-1,.21h-.23a3.46,3.46,0,0,1-.78-.07,1,1,0,0,1-.56-.33,2,2,0,0,1-.49-1,10.82,10.82,0,0,1-.1-1.64v-7.94h3v8.46a1.27,1.27,0,0,0,.09.55.31.31,0,0,0,.32.19.45.45,0,0,0,.45-.37,3.31,3.31,0,0,0,0-.54v-8.29h3Z"/><path class="cls-20" d="M287.42,139h-.22c-.75,0-1.22.24-1.4.72a8.12,8.12,0,0,0-.17,2.23v4.32h-3V135.34h3l-.14,1.44a3.44,3.44,0,0,1,.72-1.13,2.05,2.05,0,0,1,1.21-.5Z"/><path class="cls-20" d="M294.93,142.5v.35a6.44,6.44,0,0,1-.1,1.23,3.19,3.19,0,0,1-.49,1,2.37,2.37,0,0,1-1,.94,4.19,4.19,0,0,1-1.58.24,4.5,4.5,0,0,1-2.16-.45,2.49,2.49,0,0,1-1.17-1.47,3.71,3.71,0,0,1-.18-1.1c0-.44,0-.77,0-1v-3.19c0-.45,0-.84.05-1.16a3.56,3.56,0,0,1,.23-1,2.24,2.24,0,0,1,1.1-1.27,4.09,4.09,0,0,1,1.93-.4,4.36,4.36,0,0,1,1.69.28,2.43,2.43,0,0,1,1.11.92,3.11,3.11,0,0,1,.48,1.28,11.27,11.27,0,0,1,.13,1.75V141h-3.72v2.34a6.54,6.54,0,0,0,0,.84c0,.22.17.33.43.33a.45.45,0,0,0,.45-.29,2.11,2.11,0,0,0,.13-.84v-1.32h2.67Zm-2.84-3.28v-1.11a2.72,2.72,0,0,0-.08-.79.31.31,0,0,0-.33-.21c-.2,0-.32,0-.38.17a1.49,1.49,0,0,0-.09.62v1.32Z"/><path class="cls-20" d="M304.19,146.32h-3.5v-5.61h-1v5.61h-3.5V133h3.5v4.78h1V133h3.5Z"/><path class="cls-20" d="M308.72,134.64h-3.27v-1.71h3.27Zm0,11.64h-3.27V135.34h3.27Z"/><path class="cls-20" d="M314.77,139h-.21c-.75,0-1.22.24-1.4.72A8,8,0,0,0,313,142v4.32h-3V135.34h3l-.13,1.44a3.44,3.44,0,0,1,.72-1.13,2,2,0,0,1,1.2-.5Z"/><path class="cls-20" d="M322.29,142.5v.35a6.44,6.44,0,0,1-.1,1.23,3.19,3.19,0,0,1-.49,1,2.37,2.37,0,0,1-1,.94,4.22,4.22,0,0,1-1.59.24,4.56,4.56,0,0,1-2.16-.45,2.51,2.51,0,0,1-1.16-1.47,3.41,3.41,0,0,1-.18-1.1c0-.44,0-.77,0-1v-3.19c0-.45,0-.84.05-1.16a4,4,0,0,1,.22-1,2.27,2.27,0,0,1,1.1-1.27,4.16,4.16,0,0,1,1.94-.4,4.39,4.39,0,0,1,1.69.28,2.43,2.43,0,0,1,1.11.92,3.25,3.25,0,0,1,.48,1.28,11.27,11.27,0,0,1,.13,1.75V141h-3.72v2.34a6.54,6.54,0,0,0,0,.84c0,.22.17.33.43.33a.45.45,0,0,0,.45-.29,2.11,2.11,0,0,0,.13-.84v-1.32h2.67Zm-2.85-3.28v-1.11a2.82,2.82,0,0,0-.07-.79.33.33,0,0,0-.33-.21c-.2,0-.33,0-.38.17a1.49,1.49,0,0,0-.09.62v1.32Z"/><path class="cls-19" d="M333,133.68a.62.62,0,0,1,.14-.18.62.62,0,0,1,.19-.12.59.59,0,0,1,.23,0,.54.54,0,0,1,.22,0,.67.67,0,0,1,.2.12.59.59,0,0,1,.13.18.6.6,0,0,1,0,.48.53.53,0,0,1-.13.19.67.67,0,0,1-.2.12.78.78,0,0,1-.22,0,.85.85,0,0,1-.23,0,.62.62,0,0,1-.19-.12.55.55,0,0,1-.14-.19.6.6,0,0,1,0-.48Zm.15.43a.42.42,0,0,0,.09.14.45.45,0,0,0,.14.1.52.52,0,0,0,.18,0,.51.51,0,0,0,.17,0,.45.45,0,0,0,.14-.1.42.42,0,0,0,.09-.14.41.41,0,0,0,0-.19.37.37,0,0,0,0-.18.38.38,0,0,0-.09-.15.42.42,0,0,0-.14-.09.35.35,0,0,0-.17,0,.37.37,0,0,0-.18,0,.42.42,0,0,0-.14.09.38.38,0,0,0-.09.15.53.53,0,0,0,0,.18A.58.58,0,0,0,333.12,134.11Z"/><path class="cls-19" d="M333.44,134h0a.25.25,0,0,0,0,.1.07.07,0,0,0,.12,0v-.5h.13V134a.44.44,0,0,1,0,.13.18.18,0,0,1-.17.07.16.16,0,0,1-.15-.06.29.29,0,0,1,0-.17h.12Z"/><path class="cls-21" d="M300.5,224.77h-2.12v-1.15h6v1.15h-2.13v8.11H300.5Z"/><path class="cls-21" d="M310,228.54h-2.92v3.2h3.34l-.23,1.14H305.3v-9.26h4.85v1.15h-3.08v2.63H310Z"/><path class="cls-21" d="M313.44,230.2l-.53,2.68h-1.79l2.14-9.26h2.5l2.22,9.26h-1.84l-.59-2.68Zm1.9-1.14c-.37-1.77-.68-3.3-.82-4.27h-.06c-.06.74-.49,2.77-.79,4.27Z"/><path class="cls-21" d="M325.66,229.26c0-1.63,0-3.53.08-4.57h0c-.32,1.59-1.16,5.48-1.79,8.19h-1.69c-.47-2.4-1.33-6.52-1.64-8.19h0c0,1.07.11,3.17.11,4.76v3.43h-1.61v-9.26h2.62c.6,2.51,1.27,5.47,1.45,6.72h0c.21-1.25,1.05-4.35,1.65-6.72h2.55v9.26h-1.69Z"/><path class="cls-22" d="M302.41,240.93v.34c0,1.11-.19,2.51-2.06,2.51-1.7,0-2-1.1-2-2.49V236.6c0-1.45.66-2.34,2.05-2.34,1.69,0,2,1.13,2,2.38v.4H301.1v-.52c0-.67-.14-1.13-.74-1.13s-.75.43-.75,1.14v4.86c0,.74.16,1.27.77,1.27s.75-.5.75-1.27v-.46Z"/><path class="cls-22" d="M307.29,238.64v2.84c0,1.54-.76,2.28-2,2.28s-2-.75-2-2.25V238.6a1.93,1.93,0,0,1,2.05-2.19C306.56,236.41,307.29,237.2,307.29,238.64Zm-2.78-.06v3c0,.66.21,1.11.76,1.11s.75-.36.75-1.13v-3c0-.61-.18-1-.75-1S304.51,237.89,304.51,238.58Z"/><path class="cls-22" d="M312.34,241.64c0,1,0,1.65,0,2h-1.2a4.58,4.58,0,0,1,0-.7,1.25,1.25,0,0,1-1.33.81c-.64,0-1.43-.28-1.43-1.84v-5.4h1.26v5.08c0,.73.21,1.05.69,1.05s.79-.3.79-1.41v-4.72h1.26Z"/><path class="cls-22" d="M313.6,238.71c0-1.44,0-1.85,0-2.19h1.2a4.31,4.31,0,0,1,0,.68,1.34,1.34,0,0,1,1.33-.79c.85,0,1.47.5,1.47,1.83v5.41h-1.27v-5.18c0-.66-.23-.94-.68-.94s-.82.28-.82,1.41v4.71H313.6Z"/><path class="cls-22" d="M322.51,241.33v.1c0,1.26-.32,2.33-1.92,2.33s-1.89-1-1.89-2.5v-2.58c0-1.18.41-2.27,1.95-2.27s1.86,1.19,1.86,2.1v.27h-1.24v-.28c0-.58-.1-1-.64-1s-.66.36-.66,1.06v3.08c0,.56.1,1.1.65,1.1s.65-.37.65-1.09v-.29Z"/><path class="cls-22" d="M323.47,236.52h1.26v7.13h-1.26Zm0-2.54h1.26v1.49h-1.26Z"/><path class="cls-22" d="M326,243.65V234h1.26v9.67Z"/><path class="cls-22" d="M328.23,234.34a.61.61,0,0,1,.12-.16.59.59,0,0,1,.17-.1.45.45,0,0,1,.2,0,.52.52,0,0,1,.21,0,.59.59,0,0,1,.17.1.91.91,0,0,1,.11.16.54.54,0,0,1,.05.22.46.46,0,0,1-.05.21.71.71,0,0,1-.11.17.59.59,0,0,1-.17.1.52.52,0,0,1-.21,0,.45.45,0,0,1-.2,0,.59.59,0,0,1-.17-.1.52.52,0,0,1-.12-.17.46.46,0,0,1,0-.21A.54.54,0,0,1,328.23,234.34Zm.13.38a.41.41,0,0,0,.08.13.38.38,0,0,0,.13.09.4.4,0,0,0,.15,0,.41.41,0,0,0,.16,0,.47.47,0,0,0,.12-.09.41.41,0,0,0,.08-.13.42.42,0,0,0,0-.16.47.47,0,0,0,0-.17.5.5,0,0,0-.08-.12.47.47,0,0,0-.12-.09.41.41,0,0,0-.16,0,.4.4,0,0,0-.15,0,.38.38,0,0,0-.13.09.5.5,0,0,0-.08.12.47.47,0,0,0,0,.17A.41.41,0,0,0,328.36,234.72Z"/><path class="cls-22" d="M328.64,234.6h0a.64.64,0,0,0,0,.09s0,0,0,0,0,0,.05,0a.35.35,0,0,0,0-.06v-.38h.11v.38a.36.36,0,0,1,0,.11.18.18,0,0,1-.15.07.16.16,0,0,1-.14-.06.33.33,0,0,1,0-.15h.1Z"/><path class="cls-23" d="M287.2,230a1.93,1.93,0,0,0-1.91-2c-1.76,0-3.53,0-5.3,0a1.91,1.91,0,0,0-1.9,1.94v4.88a1.14,1.14,0,0,0,0,.26c.15.8.41,1.28,1.25,1.37.32,0,.4.12.4.45,0,1.43.28,3.57.28,5,0,.12,0,.24,0,.35a1.61,1.61,0,0,0,1.53,1.4h2.12a.86.86,0,0,0,.23,0,1.62,1.62,0,0,0,1.31-1.63c0-1.48.28-3.65.28-5.13,0-.3.09-.39.39-.42,1-.1,1.28-.74,1.28-1.73V230Z"/><path class="cls-24" d="M282,226.36a1,1,0,0,0,1.35,0l2.24-2.2a.94.94,0,0,0,0-1.33l-2.24-2.2a1,1,0,0,0-1.35,0l-2.24,2.2a.94.94,0,0,0,0,1.33Zm.67-4.87,2.05,2-2.05,2-2-2Z"/><path class="cls-25" d="M277.79,242.39h-2.11c-.33,0-.43-.1-.46-.43-.09-1.25,0-.39-.12-1.65a1.79,1.79,0,0,0-.45-1.07,1.73,1.73,0,0,0-1.17-.59c-.38,0-.47-.12-.5-.48-.05-.78-.11-1.56-.17-2.34s-.12-1.59-.17-2.38a.58.58,0,0,1,.55-.66c.24,0,.49,0,.73,0,.45,0,.89,0,1.33,0a.69.69,0,0,0,.42-.22.55.55,0,0,0,.05-.67.69.69,0,0,0-.66-.39c-.69,0-1.39,0-2.08,0a1.76,1.76,0,0,0-1.65,1.89c.12,1.65.24,3.3.37,5a1.64,1.64,0,0,0,.4,1,1.69,1.69,0,0,0,1.24.63c.34,0,.44.13.46.46,0-.2,0-.47,0-.1v.11h0c0,.28,0,.18,0,0,0,.59.07,1.19.14,1.79a1.75,1.75,0,0,0,1.65,1.46H278a.57.57,0,0,0,.56-.55A.7.7,0,0,0,277.79,242.39Z"/><path class="cls-26" d="M273.8,240.39v0Z"/><path class="cls-27" d="M292.82,231.5c-.69,0-1.39,0-2.09,0a.71.71,0,0,0-.66.39.55.55,0,0,0,.06.67.67.67,0,0,0,.41.22c.44,0,.89,0,1.33,0,.25,0,.5,0,.74,0a.58.58,0,0,1,.55.66l-.18,2.38c-.05.78-.11,1.56-.17,2.34,0,.36-.11.45-.49.48a1.75,1.75,0,0,0-1.18.59,1.78,1.78,0,0,0-.44,1.07c-.1,1.26,0,.4-.13,1.65,0,.33-.12.42-.46.43H288a.7.7,0,0,0-.76.74.56.56,0,0,0,.56.55h2.39a1.75,1.75,0,0,0,1.65-1.46c.06-.6.1-1.2.14-1.79,0,.15,0,.25,0,0h0v-.11c0-.36,0-.1,0,.1,0-.33.13-.44.46-.46a1.76,1.76,0,0,0,1.65-1.59l.36-5A1.75,1.75,0,0,0,292.82,231.5Z"/><path class="cls-28" d="M292,240.43v0h0Z"/><path class="cls-29" d="M289.33,230.26a1,1,0,0,0,1.33,0l2.2-2.2a1,1,0,0,0,0-1.33l-2.2-2.19a.93.93,0,0,0-1.33,0l-2.2,2.19a1,1,0,0,0,0,1.33Z"/><path class="cls-30" d="M274.89,230.31a.94.94,0,0,0,.66.27,1,1,0,0,0,.67-.27l2.19-2.2a.94.94,0,0,0,0-1.33l-2.19-2.2a1,1,0,0,0-.67-.27.94.94,0,0,0-.66.27l-2.2,2.2a.94.94,0,0,0,0,1.33Z"/><path class="cls-31" d="M467.11,60.62l-2.63-6.74c-.34-.86-.54-1.15-.79-1.3v-.17c.23,0,.79,0,1.16,0s1.21,0,1.45,0v.17c-.33.06-.45.21-.45.46a2.67,2.67,0,0,0,.19.87l1.71,4.54,1.32-3.83a4.81,4.81,0,0,0,.31-1.42c0-.32-.11-.56-.41-.62v-.17c.24,0,.71,0,1.12,0s.63,0,.86,0v.17c-.61.21-.82.47-1.48,2.3l-2,5.74Z"/><path class="cls-31" d="M472.82,60.4l-1.15,0-1.15,0v-.16c.33-.07.47-.12.47-1V56.62c0-.66,0-.89-.33-1v-.17a4.24,4.24,0,0,0,1.69-.33v4.11c0,.87.14.92.47,1Zm-1.15-5.68a.66.66,0,0,1-.66-.67.67.67,0,0,1,.66-.71.68.68,0,0,1,.71.71A.67.67,0,0,1,471.67,54.72Z"/><path class="cls-31" d="M476.54,56.61c-.23-.82-.68-1.18-1.29-1.18a.65.65,0,0,0-.72.69c0,1.23,2.45.72,2.45,2.68A1.74,1.74,0,0,1,475,60.45c-.51,0-.8-.17-1.16-.17a1,1,0,0,0-.37.06c.06-.36,0-1.3.13-1.74h.16c0,.89.51,1.55,1.24,1.55a.73.73,0,0,0,.78-.81c0-1.41-2.37-1-2.37-2.69,0-.88.65-1.51,1.79-1.51.56,0,.89.13,1.27.13h.2a2.46,2.46,0,0,0,0,.41c0,.22,0,.59,0,.94Z"/><path class="cls-31" d="M479.88,60.4l-1.15,0-1.14,0v-.16c.32-.07.47-.12.47-1V56.62c0-.66,0-.89-.34-1v-.17a4.24,4.24,0,0,0,1.69-.33v4.11c0,.87.14.92.47,1Zm-1.15-5.68a.66.66,0,0,1-.66-.67.67.67,0,0,1,.66-.71.68.68,0,0,1,.71.71A.67.67,0,0,1,478.73,54.72Z"/><path class="cls-31" d="M483.08,60.45a2.66,2.66,0,1,1,2.76-2.63A2.68,2.68,0,0,1,483.08,60.45Zm1.25-2.63c0-1.57-.24-2.39-1.25-2.39s-1.24.82-1.24,2.39.24,2.33,1.24,2.33S484.33,59.32,484.33,57.82Z"/><path class="cls-31" d="M492,60.4l-1.14,0-1.15,0v-.16c.33-.07.47-.12.47-1V56.92c0-.94-.34-1.31-1-1.31a1.4,1.4,0,0,0-1,.49v3.15c0,.87.14.92.47,1v.16l-1.15,0-1.15,0v-.16c.33-.07.47-.12.47-1V56.62c0-.66,0-.89-.34-1v-.17a4.26,4.26,0,0,0,1.7-.33v.62a2.43,2.43,0,0,1,1.63-.62c.75,0,1.72.21,1.72,1.78v2.33c0,.87.15.92.47,1Z"/><path class="cls-31" d="M497.91,60.4l-1.28,0-1.28,0v-.16c.5-.09.55-.32.55-1.54V54.12c0-1.22,0-1.45-.55-1.54v-.17c.24,0,.88,0,1.28,0,.61,0,1.08,0,1.4,0,1.92,0,2.92,1,2.92,2.23a2.17,2.17,0,0,1-2.36,2.07,2.12,2.12,0,0,1-1.14-.25l.09-.14a1.49,1.49,0,0,0,.65.14c.87,0,1.17-.75,1.17-1.82,0-1.25-.51-1.9-1.48-1.9a1.33,1.33,0,0,0-.52.1V58.7c0,1.22.05,1.45.55,1.54Z"/><path class="cls-31" d="M505.81,59.92a1.18,1.18,0,0,1-1,.57A.79.79,0,0,1,504,60a2.37,2.37,0,0,1-1.49.52c-.84,0-1.59-.44-1.59-1.24s.92-1.43,2-1.43a2.51,2.51,0,0,1,1,.21v-1.3c0-1-.29-1.3-.74-1.3s-.75.44-.75,1.39H501.1a1.91,1.91,0,0,1,2.14-1.68c1.22,0,2,.57,2,1.88v2.19c0,.5.07.63.26.63a.47.47,0,0,0,.2-.06Zm-1.9-1.6a1.77,1.77,0,0,0-.73-.16c-.5,0-.84.24-.84.9s.36.95.78.95a1.22,1.22,0,0,0,.8-.32,2.26,2.26,0,0,1,0-.27Z"/><path class="cls-31" d="M508.52,60.4l-1.14,0-1.15,0v-.16c.33-.07.47-.12.47-1V56.62c0-.66,0-.89-.34-1v-.17a4.24,4.24,0,0,0,1.69-.33V56c.64-.63.94-.89,1.44-.89s1,.36,1,1.53h-1.32c0-.49-.19-.64-.47-.64a.84.84,0,0,0-.64.35v2.87c0,.87.15.92.47,1Z"/><path class="cls-31" d="M514,59.43a1.24,1.24,0,0,1-1.24,1,1.37,1.37,0,0,1-1.53-1.52v-3h-.54v-.16a3.63,3.63,0,0,0,1.69-2.32l.28.06a15.08,15.08,0,0,0-.08,1.7h.33a1.17,1.17,0,0,0,.94-.25l.11.13a7.43,7.43,0,0,0-.5.84h-.88V58.7c0,.82.19,1.15.66,1.15s.48-.22.63-.52Z"/><path class="cls-31" d="M520,60.4l-1.15,0-1.15,0v-.16c.33-.07.47-.12.47-1V56.92c0-.94-.34-1.31-1-1.31a1.44,1.44,0,0,0-1,.49v3.15c0,.87.14.92.47,1v.16l-1.15,0-1.14,0v-.16c.33-.07.47-.12.47-1V56.62c0-.66,0-.89-.34-1v-.17a4.24,4.24,0,0,0,1.69-.33v.62a2.45,2.45,0,0,1,1.63-.62c.76,0,1.73.21,1.73,1.78v2.33c0,.87.14.92.47,1Z"/><path class="cls-31" d="M525.06,59.26A2.41,2.41,0,0,1,523,60.49a2.68,2.68,0,0,1-.08-5.35,2,2,0,0,1,2.19,2.17H521.7v.13c0,1.41.75,2.34,1.81,2.34a2.1,2.1,0,0,0,1.46-.67Zm-1.3-2.3c0-1-.28-1.53-.87-1.53s-1,.7-1.16,1.53Z"/><path class="cls-31" d="M527.94,60.4l-1.15,0-1.15,0v-.16c.33-.07.47-.12.47-1V56.62c0-.66,0-.89-.33-1v-.17a4.24,4.24,0,0,0,1.69-.33V56c.63-.63.94-.89,1.43-.89s1,.36,1,1.53h-1.33c0-.49-.18-.64-.47-.64a.84.84,0,0,0-.63.35v2.87c0,.87.14.92.47,1Z"/><path class="cls-31" d="M533.45,56.61c-.23-.82-.68-1.18-1.29-1.18a.65.65,0,0,0-.72.69c0,1.23,2.46.72,2.46,2.68A1.75,1.75,0,0,1,532,60.45c-.51,0-.8-.17-1.16-.17a1,1,0,0,0-.37.06c.07-.36,0-1.3.13-1.74h.17c0,.89.5,1.55,1.23,1.55a.73.73,0,0,0,.78-.81c0-1.41-2.36-1-2.36-2.69,0-.88.64-1.51,1.78-1.51.57,0,.9.13,1.28.13h.19a2.46,2.46,0,0,0,0,.41c0,.22,0,.59,0,.94Z"/><circle class="cls-32" cx="499.99" cy="22.08" r="1.35"/><circle class="cls-32" cx="499.99" cy="45.06" r="1.35"/><circle class="cls-32" cx="511.48" cy="33.57" r="1.35"/><circle class="cls-32" cx="488.5" cy="33.57" r="1.35"/><circle class="cls-32" cx="491.87" cy="25.45" r="1.35"/><circle class="cls-32" cx="508.12" cy="41.7" r="1.35"/><circle class="cls-32" cx="508.12" cy="25.45" r="1.35"/><circle class="cls-32" cx="491.87" cy="41.7" r="1.35"/><circle class="cls-32" cx="494.25" cy="27.83" r="0.96"/><circle class="cls-32" cx="505.74" cy="39.32" r="0.96"/><circle class="cls-32" cx="505.74" cy="27.83" r="0.96"/><circle class="cls-32" cx="494.25" cy="39.32" r="0.96"/><circle class="cls-32" cx="494.25" cy="27.83" r="0.96"/><circle class="cls-32" cx="505.74" cy="39.32" r="0.96"/><circle class="cls-32" cx="505.74" cy="27.83" r="0.96"/><circle class="cls-32" cx="494.25" cy="39.32" r="0.96"/><circle class="cls-32" cx="499.99" cy="25.45" r="0.96"/><circle class="cls-32" cx="499.99" cy="41.7" r="0.96"/><circle class="cls-32" cx="508.12" cy="33.57" r="0.96"/><circle class="cls-32" cx="491.87" cy="33.57" r="0.96"/><circle class="cls-32" cx="494.25" cy="27.83" r="0.96"/><circle class="cls-32" cx="505.74" cy="39.32" r="0.96"/><circle class="cls-32" cx="505.74" cy="27.83" r="0.96"/><circle class="cls-32" cx="494.25" cy="39.32" r="0.96"/><circle class="cls-32" cx="499.99" cy="28.43" r="0.61"/><circle class="cls-32" cx="499.99" cy="38.71" r="0.61"/><circle class="cls-32" cx="505.13" cy="33.57" r="0.61"/><circle class="cls-32" cx="494.85" cy="33.57" r="0.61"/><circle class="cls-32" cx="496.36" cy="29.94" r="0.61"/><circle class="cls-32" cx="503.63" cy="37.21" r="0.61"/><circle class="cls-32" cx="503.63" cy="29.94" r="0.61"/><circle class="cls-32" cx="496.36" cy="37.21" r="0.61"/><circle class="cls-32" cx="499.99" cy="28.43" r="0.61"/><circle class="cls-32" cx="499.99" cy="38.71" r="0.61"/><circle class="cls-32" cx="505.13" cy="33.57" r="0.61"/><circle class="cls-32" cx="494.85" cy="33.57" r="0.61"/><circle class="cls-32" cx="496.36" cy="29.94" r="0.61"/><circle class="cls-32" cx="503.63" cy="37.21" r="0.61"/><circle class="cls-32" cx="503.63" cy="29.94" r="0.61"/><circle class="cls-32" cx="496.36" cy="37.21" r="0.61"/><circle class="cls-32" cx="499.99" cy="30.7" r="0.34"/><circle class="cls-32" cx="499.99" cy="36.44" r="0.34"/><circle class="cls-32" cx="502.86" cy="33.57" r="0.34"/><circle class="cls-32" cx="497.13" cy="33.57" r="0.34"/><circle class="cls-32" cx="497.97" cy="31.54" r="0.34"/><circle class="cls-32" cx="502.02" cy="35.6" r="0.34"/><circle class="cls-32" cx="502.02" cy="31.54" r="0.34"/><circle class="cls-32" cx="497.97" cy="35.6" r="0.34"/><path class="cls-33" d="M534.65,54.78a.81.81,0,0,1,.21-.3,1.08,1.08,0,0,1,.31-.19,1,1,0,0,1,.74,0,1.23,1.23,0,0,1,.31.19.81.81,0,0,1,.21.3.93.93,0,0,1,.08.39,1,1,0,0,1-.08.39,1,1,0,0,1-.21.3,1.23,1.23,0,0,1-.31.19,1.17,1.17,0,0,1-.74,0,1.08,1.08,0,0,1-.31-.19,1,1,0,0,1-.21-.3,1,1,0,0,1-.08-.39A.93.93,0,0,1,534.65,54.78Zm.23.68a.82.82,0,0,0,.15.24.73.73,0,0,0,.23.16.81.81,0,0,0,.56,0,.69.69,0,0,0,.22-.16.55.55,0,0,0,.15-.24.72.72,0,0,0,.06-.29.73.73,0,0,0-.06-.3.51.51,0,0,0-.15-.23.69.69,0,0,0-.22-.16.81.81,0,0,0-.56,0,.73.73,0,0,0-.23.16.76.76,0,0,0-.15.23.94.94,0,0,0,0,.3A.93.93,0,0,0,534.88,55.46Z"/><path class="cls-33" d="M535.4,55.24v0a.51.51,0,0,0,0,.16.11.11,0,0,0,.09,0s.08,0,.09,0a.27.27,0,0,0,0-.11v-.69h.2v.69a.37.37,0,0,1,0,.2.26.26,0,0,1-.26.13.28.28,0,0,1-.25-.1.47.47,0,0,1-.07-.28v0Z"/><path class="cls-34" d="M460.25,141.38l.47,1.81c.1.4.2.77.26,1.13h0c.08-.36.2-.74.31-1.12l.59-1.82h.54l.55,1.78c.14.43.24.8.32,1.16h0a10.57,10.57,0,0,1,.28-1.15l.51-1.79h.64l-1.15,3.56H463l-.55-1.7c-.12-.4-.23-.75-.32-1.17h0a10.16,10.16,0,0,1-.33,1.18l-.57,1.69h-.59l-1.08-3.56Z"/><path class="cls-34" d="M466.86,143.28a1.14,1.14,0,0,0,1.22,1.24,2.22,2.22,0,0,0,1-.19l.11.47A3,3,0,0,1,468,145a1.66,1.66,0,0,1-1.75-1.8,1.73,1.73,0,0,1,1.67-1.93,1.52,1.52,0,0,1,1.48,1.69,1.87,1.87,0,0,1,0,.3Zm1.9-.47a.92.92,0,0,0-.9-1.05,1.06,1.06,0,0,0-1,1.05Z"/><path class="cls-34" d="M471.32,144.94c0-.24,0-.6,0-.92v-4.31H472V142h0a1.33,1.33,0,0,1,1.22-.66c.88,0,1.51.74,1.5,1.83a1.69,1.69,0,0,1-1.6,1.9,1.25,1.25,0,0,1-1.19-.67h0l0,.59Zm.67-1.43a.93.93,0,0,0,0,.24,1,1,0,0,0,1,.76c.68,0,1.08-.55,1.08-1.37s-.36-1.33-1.06-1.33a1,1,0,0,0-1,.8,1.7,1.7,0,0,0,0,.26Z"/><path class="cls-34" d="M479.78,143.28a1.14,1.14,0,0,0,1.22,1.24,2.22,2.22,0,0,0,1-.19l.11.47a3,3,0,0,1-1.19.22,1.66,1.66,0,0,1-1.75-1.8,1.73,1.73,0,0,1,1.67-1.93,1.52,1.52,0,0,1,1.48,1.69,1.87,1.87,0,0,1,0,.3Zm1.9-.47a.92.92,0,0,0-.9-1.05,1.06,1.06,0,0,0-1,1.05Z"/><path class="cls-34" d="M484.55,141.38l.5.76c.14.2.25.39.37.58h0l.35-.59.5-.75h.7l-1.21,1.72,1.25,1.84h-.74l-.52-.8c-.14-.21-.26-.41-.38-.62h0l-.37.62-.52.8h-.72l1.27-1.82-1.21-1.74Z"/><path class="cls-34" d="M488.81,142.54c0-.46,0-.83,0-1.16h.59l0,.61h0a1.41,1.41,0,0,1,1.27-.7,1.62,1.62,0,0,1,1.51,1.82,1.68,1.68,0,0,1-1.62,1.91,1.24,1.24,0,0,1-1.1-.56h0v1.94h-.64Zm.64,1a2,2,0,0,0,0,.27,1,1,0,0,0,1,.76c.68,0,1.08-.56,1.08-1.38s-.38-1.33-1.06-1.33a1,1,0,0,0-1,.8,1.28,1.28,0,0,0-.05.27Z"/><path class="cls-34" d="M494.52,143.28a1.15,1.15,0,0,0,1.23,1.24,2.28,2.28,0,0,0,1-.19l.11.47a3,3,0,0,1-1.19.22,1.66,1.66,0,0,1-1.76-1.8,1.74,1.74,0,0,1,1.68-1.93,1.52,1.52,0,0,1,1.47,1.69,2.11,2.11,0,0,1,0,.3Zm1.91-.47a.93.93,0,0,0-.9-1.05,1.07,1.07,0,0,0-1,1.05Z"/><path class="cls-34" d="M499,142.49c0-.42,0-.78,0-1.11h.57l0,.7h0a1.08,1.08,0,0,1,1-.79.48.48,0,0,1,.18,0v.61a.72.72,0,0,0-.22,0,.91.91,0,0,0-.87.83,2.53,2.53,0,0,0,0,.3v1.9H499Z"/><path class="cls-34" d="M503.33,140.37a.38.38,0,0,1-.41.4.4.4,0,0,1,0-.8A.38.38,0,0,1,503.33,140.37Zm-.72,4.57v-3.56h.65v3.56Z"/><path class="cls-34" d="M505.85,143.28a1.15,1.15,0,0,0,1.23,1.24,2.2,2.2,0,0,0,1-.19l.11.47A2.87,2.87,0,0,1,507,145a1.66,1.66,0,0,1-1.76-1.8,1.74,1.74,0,0,1,1.68-1.93,1.52,1.52,0,0,1,1.47,1.69,2.11,2.11,0,0,1,0,.3Zm1.9-.47a.92.92,0,0,0-.89-1.05,1.07,1.07,0,0,0-1,1.05Z"/><path class="cls-34" d="M510.34,142.34c0-.37,0-.67,0-1h.58l0,.59h0a1.31,1.31,0,0,1,1.18-.68c.49,0,1.26.3,1.26,1.52v2.13h-.65v-2.05c0-.58-.21-1.06-.83-1.06a.92.92,0,0,0-.87.67.91.91,0,0,0,0,.3v2.14h-.65Z"/><path class="cls-34" d="M518.13,144.81a2.33,2.33,0,0,1-1,.21,1.7,1.7,0,0,1-1.78-1.82,1.82,1.82,0,0,1,1.92-1.9,2.16,2.16,0,0,1,.9.19l-.15.5a1.51,1.51,0,0,0-.75-.17,1.34,1.34,0,0,0,0,2.68,1.72,1.72,0,0,0,.8-.18Z"/><path class="cls-34" d="M520.36,143.28a1.15,1.15,0,0,0,1.23,1.24,2.28,2.28,0,0,0,1-.19l.11.47a3,3,0,0,1-1.19.22,1.66,1.66,0,0,1-1.76-1.8,1.74,1.74,0,0,1,1.68-1.93,1.52,1.52,0,0,1,1.47,1.69,2.11,2.11,0,0,1,0,.3Zm1.91-.47a.93.93,0,0,0-.9-1.05,1.07,1.07,0,0,0-1,1.05Z"/><path class="cls-34" d="M524.76,144.28a1.68,1.68,0,0,0,.86.26c.47,0,.69-.24.69-.53s-.18-.48-.66-.66c-.64-.23-.95-.58-.95-1a1.11,1.11,0,0,1,1.24-1.05,1.73,1.73,0,0,1,.87.23l-.16.47a1.38,1.38,0,0,0-.73-.21c-.38,0-.6.22-.6.49s.22.43.68.6c.62.24.94.55.94,1.08s-.49,1.07-1.34,1.07a2,2,0,0,1-1-.25Z"/><path class="cls-10" d="M538.61,123.6a1.29,1.29,0,0,1,.3-.42,1.34,1.34,0,0,1,.43-.26,1.44,1.44,0,0,1,.51-.09,1.52,1.52,0,0,1,.51.09,1.29,1.29,0,0,1,.42.26,1.15,1.15,0,0,1,.3.42,1.38,1.38,0,0,1,0,1.08,1.12,1.12,0,0,1-.3.41,1.14,1.14,0,0,1-.42.26,1.52,1.52,0,0,1-.51.09,1.44,1.44,0,0,1-.51-.09,1.18,1.18,0,0,1-.43-.26,1.24,1.24,0,0,1-.3-.41,1.38,1.38,0,0,1,0-1.08Zm.33,1a1.15,1.15,0,0,0,.21.33,1,1,0,0,0,.31.21,1,1,0,0,0,.39.08,1,1,0,0,0,.38-.08,1,1,0,0,0,.31-.21,1.15,1.15,0,0,0,.21-.33,1,1,0,0,0,.08-.41,1,1,0,0,0-.29-.74,1,1,0,0,0-.31-.21,1,1,0,0,0-.38-.08,1,1,0,0,0-.39.08,1,1,0,0,0-.31.21,1,1,0,0,0-.21.32,1.16,1.16,0,0,0-.08.42A1.15,1.15,0,0,0,538.94,124.55Zm.94-1.15a.73.73,0,0,1,.42.1.36.36,0,0,1,.15.33.48.48,0,0,1,0,.18.31.31,0,0,1-.08.11.42.42,0,0,1-.12.08l-.15,0,.39.64h-.31l-.35-.63h-.18v.63h-.29V123.4Zm0,.61a.58.58,0,0,0,.21,0,.18.18,0,0,0,.08-.17.12.12,0,0,0,0-.09.13.13,0,0,0-.07-.06l-.1,0h-.34V124Z"/><rect class="cls-10" x="539.73" y="122.91" width="0.29" height="2.43" transform="translate(245.9 -345.39) rotate(45)"/><path class="cls-35" d="M462,130.79c.13.74.72,1.24,1.9,1.24.89,0,1.56-.23,1.56-.93,0-.54-.31-.84-1.83-1.23-2.63-.67-3.52-1.47-3.52-2.86,0-2,1.73-3.31,4.49-3.31,3.32,0,4.46,1.56,4.53,3H466.2c-.08-.48-.41-1-1.65-1-.78,0-1.24.36-1.24.87s.45.73,1.81,1.07c2.83.7,3.57,1.67,3.57,3.07,0,2-1.75,3.35-5,3.35-2.92,0-4.53-1.15-4.71-3.28Z"/><path class="cls-35" d="M471,126.45h1.19l.47-2.09h3l-.47,2.09h1.44l-.41,1.92h-1.43l-.61,2.79c-.11.52-.06.78.55.78a3.53,3.53,0,0,0,.66-.05l-.4,1.88a8.43,8.43,0,0,1-1.69.16c-2.08,0-2.5-.9-2.2-2.37l.7-3.19h-1.19Z"/><path class="cls-35" d="M478.54,126.45h3L480,133.84h-3Zm.62-3h3l-.42,2h-3Z"/><path class="cls-35" d="M490.89,131.15c-.47,1.63-1.73,2.89-4.45,2.89s-3.69-1.61-3.69-3.21a4.43,4.43,0,0,1,4.74-4.58c3.29,0,3.8,2,3.75,2.94h-2.87c0-.54-.14-1.08-.94-1.08-1.12,0-1.68,1.68-1.68,2.85,0,.79.3,1.22.95,1.22s1-.33,1.31-1Z"/><path class="cls-35" d="M496.19,129.31c.8-.84,2-1.9,2.89-2.86h3.51c-1.19,1-2.29,1.91-3.4,2.89.21.55,1.78,3.95,2,4.5h-3.3c0-.16-.95-2.74-1-2.89l-1.24.9-.43,2h-3l2.21-10.41h3Z"/><path class="cls-35" d="M506.08,126.45c.29,2.53.4,4.44.43,5.29h.07c.36-.86,1.23-2.86,2.36-5.29h3.18l-3.75,6.74c-1.63,2.94-2.28,3.8-4.8,3.8a10.07,10.07,0,0,1-1.55-.12l.48-2.19a5.29,5.29,0,0,0,.8.06,1.27,1.27,0,0,0,1.18-.59l-1.47-7.7Z"/><path class="cls-36" d="M534.23,135a.59.59,0,0,1-.41-.16l-17.63-17.11a.58.58,0,0,1,.81-.84L534.63,134a.59.59,0,0,1,0,.83A.63.63,0,0,1,534.23,135Z"/><path class="cls-36" d="M517.33,136.09a.58.58,0,0,1-.41-1L535.16,117a.59.59,0,0,1,.83,0,.59.59,0,0,1,0,.83l-18.24,18.1A.56.56,0,0,1,517.33,136.09Z"/><path class="cls-36" d="M539.49,127.12h0l-26.91-.06a.59.59,0,0,1-.58-.59.58.58,0,0,1,.58-.58h0l26.91.06a.59.59,0,0,1,0,1.17Z"/><path class="cls-36" d="M526.38,138.11a.58.58,0,0,1-.58-.58l-.31-24a.58.58,0,0,1,.57-.59h0a.58.58,0,0,1,.58.58l.31,24a.58.58,0,0,1-.57.59Z"/><path class="cls-36" d="M526.5,133.13l-.49-.31c-.75-.46-3-1.56-4.19-1.16a.76.76,0,0,1-.64-.06c-.41-.24-.52-.77-.64-1.33a4.13,4.13,0,0,0-.13-.49,2.16,2.16,0,0,1-.17-.61c-.07-.44-.17-1-2.25-2.32l-.9-.55.94-.46c.11-.06,2.13-1.21,1.11-5.37l-.19-.77.8,0a8.71,8.71,0,0,0,5.81-2.1l.37-.33.39.31c1.42,1.16,4.11,2.89,5.26,2.61l.83-.19-.11.84s-.42,3.36,1.23,5.1l.5.52-.61.37s-3.06,2-2,4.16l.59,1.31-1.33-.52c-.11-.05-2.69-1-3.82.81Zm-4.07-2.72a8.64,8.64,0,0,1,3.72,1.15,4.09,4.09,0,0,1,3.86-1.1c-.19-1.78,1.13-3.32,2.25-4.19a8.24,8.24,0,0,1-1.17-4.85c-1.78-.15-4.17-1.85-5.12-2.58a9.88,9.88,0,0,1-5.54,2.07c.55,3-.4,4.64-1.14,5.4,1.71,1.17,2,1.94,2.1,2.67a1.23,1.23,0,0,0,.07.29,3.38,3.38,0,0,1,.22.77c0,.12.06.29.1.43A3.49,3.49,0,0,1,522.43,130.41Z"/><path class="cls-36" d="M526.31,130.73l-.39-.25a5.41,5.41,0,0,0-2.41-.89h-.39l-.15-.37a4.74,4.74,0,0,0-1.81-2.18l-.55-.27.29-.53c.71-1.34,1.2-3.11.76-3.37l.57-1c.09.05,2.2,1.09,3.3-.68l.37-.59.52.47c1.25,1.14,2.62,1.88,2.92,1.72l1.07-.55-.23,1.18a4.15,4.15,0,0,0,.43,2.78l.46.59-.7.3a2.44,2.44,0,0,0-1.29,1.87l-.05.39-.38.1a5.49,5.49,0,0,0-2,1Zm-2.41-2.28a6.55,6.55,0,0,1,2.29.83,6.65,6.65,0,0,1,1.81-.87,3.6,3.6,0,0,1,1.35-2.07,5.25,5.25,0,0,1-.4-2.42,6.93,6.93,0,0,1-2.84-1.59,3.37,3.37,0,0,1-3.13,1,7.36,7.36,0,0,1-.81,3A6.1,6.1,0,0,1,523.9,128.45Z"/><path class="cls-36" d="M526.14,136.6l-.38-.33s-3-2.51-6.53-1.64l-.76.19,0-.78a7.35,7.35,0,0,0-4.93-7.14l-1.17-.41,1.06-.64c.19-.12,4.65-2.92,3-7.75l-.27-.82.86,0c.06,0,5.74.33,8.41-2.93l.41-.5.45.46s4.3,4.26,7.66,4.07l.58,0,0,.58s.32,5.07,2.45,7l.6.55-.71.39s-3.84,2.22-3.85,5.59V133l-.45.1a16.26,16.26,0,0,0-6.16,3.21Zm-5.36-3.32a9.5,9.5,0,0,1,5.34,1.81A17.38,17.38,0,0,1,532,132c.23-2.93,2.64-4.94,3.8-5.75-1.63-2-2.13-5.37-2.26-6.7-3.07-.16-6.36-2.9-7.54-4-2.48,2.53-6.45,2.88-8.15,2.9a7.78,7.78,0,0,1-2.91,7.69,8.52,8.52,0,0,1,4.72,7.16A7.24,7.24,0,0,1,520.78,133.28Z"/></g></g></svg>