<?xml version="1.0" encoding="utf-8"?>
<!-- Generator: Adobe Illustrator 25.2.3, SVG Export Plug-In . SVG Version: 6.00 Build 0)  -->
<svg version="1.1" id="Layer_1" xmlns="http://www.w3.org/2000/svg" xmlns:xlink="http://www.w3.org/1999/xlink" x="0px" y="0px"
	 viewBox="0 0 597 374" style="enable-background:new 0 0 597 374;" xml:space="preserve">
<style type="text/css">
	.st0{fill:#B6A749;}
	.st1{fill:#FFFFFF;}
	.st2{fill:#2FA05A;}
	.st3{fill:#8CC541;}
	.st4{fill:#C14858;}
	.st5{fill:none;}
	.st6{fill:#357CB7;}
	.st7{fill:#85C778;}
	.st8{fill:#3F73B6;}
	.st9{fill:#146670;}
	.st10{fill:url(#SVGID_1_);}
	.st11{fill:url(#SVGID_2_);}
	.st12{fill:#C04958;}
	.st13{fill:url(#SVGID_3_);}
	.st14{fill:url(#SVGID_4_);}
	.st15{fill:url(#SVGID_5_);}
	.st16{fill:url(#SVGID_6_);}
	.st17{fill:url(#SVGID_7_);}
	.st18{fill:url(#SVGID_8_);}
	.st19{fill:url(#SVGID_9_);}
	.st20{fill:url(#SVGID_10_);}
	.st21{fill:#79939C;}
	.st22{fill:#644C9F;}
</style>
<g>
	<rect width="597" height="374"/>
	<path class="st0" d="M121.4,141c0.1,0,0.2,0.1,0.2,0.3c0.2,3.2-2.8,6.6-7.7,6.9c-6.7,0.5-12.2-2.3-16.6-2c-4,0.3-5.3,2.7-5.2,4.6
		c0.1,1.3,0.9,2,2,1.9c0.9-0.1,1.6-0.9,1.5-1.8c-0.1-0.5-0.4-1-0.8-1.3c0,0-0.2-0.1-0.2-0.2c0-0.1,0.1-0.2,0.2-0.2
		c0.1,0,0.2,0,0.3,0.1c0.6,0.3,1,1,1.1,1.7c0.1,1.2-0.8,2.3-2,2.4c-1.3,0.1-2.4-0.8-2.5-2.4c-0.2-2.1,1.3-4.8,5.6-5.1
		c4.8-0.4,10.3,2.4,16.7,1.9c4.6-0.4,7.5-3.4,7.3-6.4C121.2,141.1,121.2,141,121.4,141z"/>
	<path class="st0" d="M66,138.2c-0.1,0-0.2,0-0.2-0.3c-0.4-2.9,2.7-6.1,7.6-6.8c6.9-0.9,12.7,1.3,17.2,0.6c4.1-0.6,5.4-2.8,5.2-4.5
		c-0.1-1-0.9-1.7-1.9-1.6c-0.1,0-0.2,0-0.2,0c-0.9,0.1-1.5,0.9-1.5,1.8c0.1,0.5,0.4,0.9,0.9,1.1c0,0,0.2,0.1,0.3,0.2
		c0,0.1,0,0.2-0.1,0.2c0,0,0,0,0,0c-0.1,0-0.2,0-0.3,0c-0.6-0.2-1.1-0.8-1.2-1.4c-0.1-1.2,0.8-2.2,1.9-2.3c1.2-0.3,2.4,0.5,2.6,1.7
		c0,0.1,0,0.2,0,0.3c0.3,1.9-1.1,4.5-5.6,5.1c-4.9,0.7-10.7-1.5-17.3-0.6c-4.8,0.6-7.6,3.6-7.2,6.3C66.2,138.1,66.2,138.2,66,138.2z
		"/>
	<path class="st0" d="M84.5,118.2c2-2.7,5.8-3.3,8.6-1.3c0,0,0.1,0,0.1,0.1c1.5,1.2,2.4,3,2.5,4.9c1.7-2.1,4.8-3.3,7.3-1.4
		c1.9,1.4,2.7,4,0.4,7.1c-4,5.5-12.9,7.5-15.1,7.3c-0.1,0-0.2,0-0.2-0.1c-0.1-0.1-0.2-0.2-0.1-0.4c0,0,0,0,0,0
		c0.1-0.1,0.4-0.1,0.4-0.1c2.1,0.3,10.7-1.7,14.5-7c2-2.8,1.4-5.1-0.3-6.3c-2.4-1.7-5.3-0.4-6.8,1.7c0,0-0.3,0.4-0.6,0.1
		s-0.1-0.5-0.1-0.5s-0.1-3.2-2.2-4.7c-2.4-1.9-5.8-1.4-7.6,0.9c-0.1,0.1-0.1,0.1-0.2,0.2c-3.4,4.6,2.2,11.5,4.9,13.2
		c0,0,0.3,0.2,0.1,0.4c-0.1,0.1-0.3,0.2-0.4,0.1C86.5,130.4,80.9,123.2,84.5,118.2z"/>
	<path class="st1" d="M65.1,146.6l4.3-9.8l1.3-0.2l0.6,9.2l-1.6,0.2v-2l-2.1,0.2l-0.9,2.1L65.1,146.6z M69.6,142.8l-0.1-3.4l0,0
		l-1.5,3.5L69.6,142.8z"/>
	<path class="st1" d="M75.3,140.7c0-0.2,0-0.4-0.2-0.5c-0.2-0.1-0.3-0.1-0.5-0.1c-0.2,0-0.4,0.1-0.6,0.3c-0.1,0.1-0.2,0.3-0.3,0.5
		c0,0.1,0,0.2,0,0.4c0.1,0.1,0.2,0.2,0.5,0.3l0.8,0.2c0.4,0.1,0.8,0.3,1,0.7c0.2,0.3,0.2,0.7,0.1,1.1c-0.1,0.3-0.2,0.6-0.3,0.8
		c-0.2,0.3-0.4,0.5-0.6,0.7c-0.2,0.2-0.5,0.4-0.8,0.5c-0.3,0.2-0.7,0.2-1,0.3c-0.5,0.1-1.1,0-1.5-0.3c-0.2-0.1-0.3-0.3-0.4-0.6
		c-0.1-0.3-0.1-0.6,0-0.9l1.5-0.2c0,0.2,0,0.3,0.1,0.5c0.1,0.1,0.3,0.2,0.6,0.2c0.2,0,0.5-0.1,0.7-0.3c0.2-0.1,0.3-0.3,0.4-0.6
		c0-0.2,0-0.3-0.1-0.5c-0.1-0.2-0.3-0.3-0.6-0.3l-0.7-0.1c-0.4-0.1-0.7-0.3-1-0.6c-0.2-0.3-0.3-0.7-0.2-1.1c0.1-0.3,0.2-0.6,0.3-0.8
		c0.2-0.3,0.4-0.5,0.6-0.7c0.2-0.2,0.5-0.4,0.8-0.5c0.3-0.1,0.6-0.2,0.9-0.2c0.3,0,0.6,0,0.8,0.1c0.2,0.1,0.4,0.2,0.6,0.3
		c0.2,0.2,0.3,0.4,0.3,0.6c0.1,0.3,0.1,0.5,0,0.8L75.3,140.7z"/>
	<path class="st1" d="M76.4,145.3l1.9-9.5l1.6-0.2l-0.7,3.4l0,0c0.2-0.2,0.4-0.4,0.7-0.6c0.3-0.2,0.6-0.3,0.9-0.3c0.2,0,0.4,0,0.6,0
		c0.2,0,0.3,0.1,0.5,0.2c0.1,0.1,0.2,0.3,0.3,0.5c0.1,0.2,0.1,0.5,0,0.8l-1,5.2l-1.6,0.2l0.9-4.7c0.1-0.2,0-0.4-0.1-0.6
		c-0.1-0.1-0.3-0.2-0.5-0.1c-0.3,0-0.5,0.1-0.7,0.3c-0.2,0.2-0.3,0.5-0.3,0.7l-0.9,4.6L76.4,145.3z"/>
	<path class="st1" d="M83.7,135.1l1.6-0.2l-1.5,7.6c-0.1,0.3,0,0.4,0.1,0.5c0.2,0.1,0.4,0.1,0.6,0.1l-0.2,1.3c-0.3,0-0.7,0-1,0
		c-0.2,0-0.5-0.1-0.7-0.2c-0.2-0.1-0.3-0.3-0.4-0.5c-0.1-0.3-0.1-0.6,0-0.9L83.7,135.1z"/>
	<path class="st1" d="M89.8,140.9l-3.1,0.4l-0.2,0.9c-0.1,0.2,0,0.3,0.1,0.5c0.2,0.1,0.3,0.1,0.5,0.1c0.2,0,0.5-0.1,0.6-0.3
		c0.1-0.1,0.2-0.3,0.3-0.5l1.6-0.2c-0.1,0.6-0.4,1.1-0.9,1.5c-0.2,0.2-0.5,0.4-0.8,0.5c-0.3,0.1-0.7,0.2-1,0.3
		c-0.4,0.1-0.8,0-1.2-0.1c-0.3-0.1-0.5-0.3-0.7-0.6c-0.1-0.2-0.1-0.4-0.1-0.6c0-0.3,0-0.5,0.1-0.8l0.4-2.2c0.1-0.3,0.1-0.5,0.2-0.8
		c0.1-0.2,0.2-0.4,0.3-0.6c0.3-0.3,0.6-0.6,0.9-0.8c0.4-0.2,0.8-0.4,1.3-0.4c0.3-0.1,0.6-0.1,0.9,0c0.2,0.1,0.5,0.2,0.7,0.4
		c0.3,0.4,0.5,0.9,0.3,1.4L89.8,140.9z M86.9,140.2l1.5-0.2l0.2-0.8c0.1-0.2,0-0.4-0.1-0.6c-0.1-0.1-0.3-0.2-0.5-0.1
		c-0.2,0-0.4,0.1-0.6,0.3c-0.2,0.2-0.3,0.4-0.3,0.6L86.9,140.2z"/>
	<path class="st1" d="M90.3,137.2L92,137l0.2,4.1l0,0l1.9-4.4l1.6-0.2l-3.8,8.2c-0.1,0.3-0.3,0.6-0.5,0.8c-0.2,0.2-0.4,0.4-0.6,0.6
		c-0.2,0.1-0.4,0.3-0.7,0.3c-0.2,0.1-0.5,0.1-0.7,0.2H89l0.2-1.3h0.3c0.1,0,0.3,0,0.4-0.1c0.1-0.1,0.3-0.2,0.4-0.3
		c0.1-0.2,0.2-0.4,0.3-0.6c0.1-0.2,0.3-0.6,0.4-1L90.3,137.2z"/>
	<path class="st1" d="M100.7,139.9l-0.1,0.6c-0.1,0.3-0.2,0.6-0.3,0.9c-0.2,0.3-0.4,0.5-0.7,0.8c-0.3,0.2-0.6,0.4-0.9,0.6
		c-0.3,0.2-0.7,0.3-1,0.3c-0.3,0-0.6,0-0.9,0c-0.3,0-0.5-0.1-0.8-0.3c-0.2-0.2-0.4-0.4-0.5-0.6c-0.1-0.3-0.1-0.7,0-1.1l1-5.3
		c0.1-0.3,0.2-0.6,0.4-0.9c0.2-0.3,0.4-0.5,0.7-0.8c0.3-0.2,0.6-0.4,0.9-0.6c0.3-0.1,0.7-0.2,1.1-0.3c0.6-0.1,1.2,0,1.7,0.4
		c0.2,0.2,0.3,0.4,0.4,0.7c0.1,0.3,0.1,0.6,0,0.9l-0.1,0.5L100,136l0.1-0.4c0.1-0.2,0-0.5-0.1-0.7c-0.2-0.2-0.4-0.3-0.6-0.2
		c-0.3,0-0.6,0.2-0.8,0.4c-0.2,0.2-0.3,0.5-0.3,0.8l-1,4.9c-0.1,0.2,0,0.5,0.1,0.7c0.1,0.2,0.3,0.2,0.7,0.2c0.1,0,0.2,0,0.3-0.1
		c0.3-0.1,0.5-0.3,0.6-0.5c0.1-0.1,0.2-0.3,0.2-0.5l0.1-0.5L100.7,139.9z"/>
	<path class="st1" d="M100.9,142.5l1.3-6.8l1.6-0.2l-0.1,0.7c0.3-0.3,0.6-0.5,1-0.7c0.4-0.2,0.8-0.3,1.2-0.4l-0.3,1.4
		c-0.1,0-0.3,0-0.4,0c-0.2,0-0.4,0.1-0.6,0.1c-0.2,0.1-0.4,0.2-0.6,0.3c-0.2,0.1-0.4,0.3-0.5,0.5c-0.1,0.2-0.2,0.5-0.3,0.7l-0.8,4
		L100.9,142.5z"/>
	<path class="st1" d="M107.5,141.7l0.1-0.7l0,0c-0.2,0.2-0.5,0.5-0.7,0.6c-0.3,0.2-0.6,0.3-0.9,0.3c-0.2,0-0.4,0-0.5,0
		c-0.2,0-0.4-0.1-0.5-0.2c-0.2-0.1-0.3-0.3-0.3-0.5c-0.1-0.3-0.1-0.6,0-0.9c0.1-0.3,0.2-0.7,0.3-1c0.1-0.3,0.3-0.6,0.5-0.8
		c0.2-0.2,0.5-0.4,0.8-0.5c0.4-0.2,0.8-0.2,1.2-0.3h0.2h0.3h0.2l0.2-0.7c0-0.2,0-0.4-0.1-0.6c-0.1-0.1-0.3-0.2-0.6-0.2
		c-0.4,0.1-0.8,0.4-1,0.8l-1.5,0.2c0.2-0.6,0.5-1.2,1-1.6c0.2-0.2,0.5-0.4,0.8-0.5c0.3-0.1,0.7-0.2,1-0.3c0.3-0.1,0.6-0.1,0.9,0
		c0.2,0,0.5,0.1,0.7,0.3c0.2,0.2,0.3,0.4,0.3,0.6c0.1,0.3,0.1,0.6,0,0.9l-0.9,4.7L107.5,141.7z M108.1,138.8h-0.4
		c-0.3,0-0.6,0.1-0.9,0.3c-0.3,0.2-0.5,0.5-0.5,0.8c-0.1,0.2,0,0.4,0.1,0.6c0.1,0.2,0.3,0.2,0.6,0.2c0.2,0,0.5-0.1,0.7-0.3
		c0.2-0.2,0.3-0.4,0.3-0.7L108.1,138.8z"/>
	<path class="st1" d="M110,141.4l1.1-5.7l-0.8,0.1l0.2-1.1l0.8-0.1l0.2-0.9c0.1-0.3,0.2-0.6,0.3-0.9c0.3-0.5,0.7-0.8,1.3-1
		c0.2-0.1,0.5-0.2,0.8-0.2l0.7-0.1l-0.2,1.3l-0.7,0.1c-0.3,0-0.5,0.2-0.6,0.5l-0.2,1l1.2-0.1l-0.2,1.1l-1.2,0.1l-1.1,5.7L110,141.4z
		"/>
	<path class="st1" d="M115.5,134.3l0.4-2.1l1.6-0.2l-0.4,2.1l1-0.1l-0.2,1.1l-1,0.1l-0.8,3.8c0,0.1,0,0.2,0,0.4
		c0,0.1,0.1,0.1,0.1,0.2c0.1,0,0.2,0.1,0.3,0.1h0.4l-0.3,1.3l-0.6,0.1c-0.3,0.1-0.6,0.1-0.9,0c-0.2-0.1-0.4-0.2-0.5-0.3
		c-0.1-0.1-0.2-0.3-0.2-0.5c0-0.2,0-0.4,0-0.6l0.8-4.1l-0.8,0.1l0.2-1.1L115.5,134.3z"/>
	<path class="st1" d="M120.9,135.3c0-0.2,0-0.4-0.2-0.5c-0.2-0.1-0.3-0.1-0.5-0.1c-0.2,0-0.4,0.1-0.6,0.3c-0.1,0.1-0.2,0.3-0.3,0.5
		c0,0.1,0,0.2,0,0.4c0.1,0.1,0.2,0.2,0.5,0.3l0.9,0.2c0.4,0.1,0.8,0.3,1,0.7c0.2,0.3,0.2,0.7,0.1,1.1c-0.1,0.3-0.2,0.6-0.3,0.8
		c-0.2,0.3-0.4,0.5-0.6,0.7c-0.5,0.4-1.1,0.7-1.8,0.8c-0.5,0.1-1.1,0-1.5-0.3c-0.2-0.2-0.3-0.4-0.4-0.6c-0.1-0.3-0.1-0.6,0-0.9
		l1.5-0.2c0,0.2,0,0.3,0.1,0.5c0.1,0.1,0.3,0.2,0.6,0.2c0.2,0,0.5-0.1,0.6-0.3c0.2-0.1,0.3-0.3,0.4-0.6c0-0.2,0-0.3-0.1-0.5
		c-0.1-0.1-0.3-0.2-0.5-0.3l-0.7-0.1c-0.4-0.1-0.7-0.3-1-0.6c-0.2-0.3-0.3-0.7-0.2-1.1c0.1-0.3,0.2-0.6,0.3-0.8
		c0.2-0.3,0.4-0.5,0.6-0.7c0.2-0.2,0.5-0.4,0.8-0.5c0.3-0.1,0.6-0.2,0.9-0.2c0.3-0.1,0.6-0.1,0.8,0c0.2,0.1,0.4,0.2,0.6,0.3
		c0.2,0.2,0.3,0.4,0.3,0.6c0.1,0.3,0.1,0.5,0,0.8L120.9,135.3z"/>
	<path class="st1" d="M123.1,133.7c-0.4,0-0.8-0.3-0.8-0.8c0-0.4,0.3-0.8,0.8-0.8s0.8,0.3,0.8,0.8c0,0,0,0,0,0
		C123.8,133.4,123.5,133.7,123.1,133.7z M123.1,132.3c-0.4,0-0.7,0.3-0.7,0.7c0,0.4,0.3,0.7,0.7,0.7c0.4,0,0.7-0.3,0.7-0.7
		C123.7,132.6,123.4,132.3,123.1,132.3z"/>
	<path class="st1" d="M123,133.1C123,133.1,123,133.1,123,133.1c0,0.1,0,0.1,0,0.2c0,0,0,0-0.1,0.1h-0.1h-0.1h-0.1v-0.1
		c0,0,0-0.1,0-0.1l0,0h0.1l0,0c0,0,0,0.1,0,0.1c0,0,0,0,0.1,0h0.1l0,0l0,0l0,0v-0.5h0.1V133.1z"/>
	<path class="st1" d="M123.1,132.6h0.5v0.1h-0.4v0.2h0.3v0.1h-0.3v0.2h0.4v0.1h-0.5V132.6z"/>
	<path class="st2" d="M479.2,135h5.5c2.3,0,3.4,1,3.4,2.5c0,1.1-0.8,2.1-1.9,2.3c0.8,0.3,1.4,1.1,1.4,2c0,2.4-2.3,3.2-4.5,3.2h-6
		L479.2,135z M480.5,142.9h2.1c1,0,1.6-0.3,1.6-1.1c0-0.6-0.4-0.9-1.3-0.9h-2L480.5,142.9z M483.5,138.9c0.8,0,1.4-0.2,1.4-1
		s-0.4-0.8-1.1-0.8h-2l-0.4,1.8L483.5,138.9z"/>
	<path class="st2" d="M493.2,135l-2.1,10H488l2.1-10H493.2z"/>
	<path class="st2" d="M502.9,145h-2.1c0-0.3,0-0.6,0-0.9c-0.8,0.8-2,1.2-3.2,1.1c-3,0-4.3-2.1-4.3-4.4c-0.1-3.3,2.6-6,5.9-6.1
		c0.1,0,0.2,0,0.3,0c3,0,4.6,1.5,4.7,3.3h-3.1c-0.1-0.5-0.4-1.1-1.8-1.1c-1.8,0-2.8,2-2.8,3.8c0,1.5,0.6,2.4,1.9,2.4
		c1,0.1,2-0.6,2.1-1.6v-0.1h-2l0.6-2.2h4.9L502.9,145z"/>
	<path class="st3" d="M513.6,135l-2.1,10h-3.1l2.1-10H513.6z"/>
	<path class="st3" d="M523.2,145h-2.1c0-0.3,0-0.6,0-0.9c-0.8,0.8-2,1.2-3.2,1.1c-3,0-4.2-2.1-4.2-4.4c-0.1-3.3,2.5-6,5.8-6.1
		c0.1,0,0.3,0,0.4,0c3,0,4.6,1.5,4.7,3.3h-3.1c-0.1-0.5-0.4-1.1-1.8-1.1c-1.8,0-2.8,2-2.8,3.8c0,1.5,0.6,2.4,1.9,2.4
		c1,0.1,2-0.6,2.1-1.6v-0.1h-2l0.6-2.2h4.9L523.2,145z"/>
	<path class="st3" d="M508.2,145.5v-0.9c-0.1-2.2-0.7-4.4-1.7-6.4c0.1-0.2,0.2-0.4,0.2-0.6c0.1-0.5-0.3-1-0.9-1.1
		c-0.5,0-1,0.3-1,0.8c0,0,0,0,0,0.1c-0.1,0.5,0.3,1,0.9,1.1h0.1c0.7,1.9,1,4,1.1,6v0.8c0,0.3-0.1,0.5-0.1,0.8
		c-0.1,0.5-0.2,1-0.3,1.4c-0.3,0.9-0.7,1.7-1.3,2.5c-0.5,0.7-1.3,1.2-2.1,1.4l-0.6,0.1h-0.6c-0.4-0.1-0.8-0.2-1.2-0.3
		c-0.8-0.3-1.3-1.1-1.2-1.9c0-0.4,0.1-0.9,0.2-1.3c0.4,1.6,1.2,2,1.2,2c-1.1-1.7,0-5.1,0-5.1c-0.3,0.4-0.5,0.7-0.8,1.1l-0.2,0.3
		c-0.7,0.9-1.2,1.9-1.4,3c-0.1,0.7,0,1.3,0.3,1.9c0.3,0.6,0.8,1.1,1.4,1.4c0.5,0.3,1,0.5,1.6,0.6c0.3,0,0.6,0.1,0.9,0.1l0.9-0.1
		c1.1-0.3,2.1-0.9,2.8-1.8c0.7-0.9,1.2-2,1.5-3.1c0.1-0.6,0.2-1.1,0.3-1.7C508.1,146.1,508.2,145.8,508.2,145.5z M505.3,137.6
		c0-0.2,0.2-0.5,0.4-0.5c0,0,0,0,0,0c0.3,0,0.5,0.3,0.4,0.6c0,0.3-0.2,0.5-0.5,0.5c0,0,0,0,0,0C505.5,138.1,505.3,137.8,505.3,137.6
		z"/>
	<path class="st2" d="M505.3,136.7c0,0,0,0.1,0,0.1l0,0h0.3c0-0.1,0-0.2-0.1-0.2C505.5,136.6,505.4,136.7,505.3,136.7z"/>
	<path class="st2" d="M527.7,131.8c-1.5-5.7-7.8-9.2-13.9-7.8c-4.8,0.9-8.4,5-8.7,9.8c-0.1,0.1-0.1,0.2,0,0.3l0,0
		c0,0.8,0.1,1.6,0.3,2.4c0.1,0,0.2-0.1,0.2-0.1c0,0,0-0.1,0-0.1c-0.2-0.7-0.3-1.5-0.3-2.2c0,0,0.1,0,0.1,0c0.1-0.1,0.1-0.2,0.1-0.3
		c0,0,0,0,0,0c0-0.1-0.1-0.1-0.2-0.1c0.1-1.1,0.3-2.3,0.8-3.3l0,0c0.1,0.1,0.2,0.1,0.3,0.1c0.1-0.1,0.1-0.2,0.1-0.3c0,0,0,0,0,0
		c-0.1-0.1-0.2-0.1-0.3-0.1c0.7-1.3,1.7-2.5,2.9-3.4c-0.1,0.1-0.1,0.3,0,0.4c0.1,0.2,0.4,0.2,0.5,0.1c0.2-0.1,0.2-0.3,0.1-0.5
		c0,0,0,0,0,0c-0.1-0.1-0.3-0.2-0.5-0.1c1.3-0.9,2.7-1.6,4.2-1.9c0.3-0.1,0.7-0.1,1-0.2c-0.1,0.2-0.1,0.4,0,0.6
		c0.2,0.2,0.5,0.3,0.8,0.1c0.2-0.1,0.3-0.4,0.2-0.7c0,0,0,0,0,0c0,0,0,0,0,0c2-0.1,3.9,0.3,5.7,1.2c-0.1,0-0.2,0.1-0.2,0.1
		c-0.3,0.1-0.4,0.5-0.2,0.7c0,0,0,0,0,0.1c0.2,0.3,0.6,0.3,0.9,0.1c0.2-0.1,0.3-0.4,0.2-0.6c2.2,1.3,3.7,3.4,4.4,5.8
		c0.2,0.8,0.3,1.6,0.3,2.5l-0.2-0.1l0,0c0.2-0.9-0.1-1.8-0.8-2c-0.6-0.1-1.2,0.3-1.4,0.8l-0.2-0.1c0.1-0.2,0.2-0.4,0-0.5
		s-0.4,0-0.6,0.2s-0.2,0.5-0.1,0.6s0.3,0,0.5-0.1l0.2,0.1c-0.1,0.1-0.1,0.3-0.2,0.4c-0.2,0.9,0.1,1.8,0.8,1.9c0.7,0.1,1.3-0.4,1.5-1
		l0.3,0.1c-0.1,1.1-0.3,2.2-0.8,3.2h1.7C528.1,136.1,528.2,133.9,527.7,131.8z"/>
	<path class="st1" d="M265.9,334.6h-0.2l-1-3l-1,3h-0.2l-1.4-4.5h0.6l0.9,3.1l1-3.1h0.2l1,3.1l0.9-3.1h0.6L265.9,334.6z"/>
	<path class="st1" d="M271.1,333h-2.3c0,0.3,0.1,0.6,0.3,0.9c0.2,0.2,0.4,0.3,0.7,0.3c0.3,0,0.6-0.1,0.8-0.3l0.2,0.4
		c-0.1,0.1-0.3,0.2-0.4,0.2c-0.2,0.1-0.5,0.1-0.8,0.1c-0.4,0-0.7-0.1-1-0.4c-0.3-0.3-0.5-0.8-0.5-1.2c0-0.5,0.2-0.9,0.5-1.3
		c0.3-0.3,0.6-0.4,1-0.4c0.4,0,0.8,0.1,1.1,0.4c0.3,0.3,0.4,0.6,0.4,1C271.1,332.8,271.1,332.9,271.1,333z M269.7,331.8
		c-0.2,0-0.5,0.1-0.6,0.2c-0.2,0.2-0.3,0.4-0.3,0.6h1.8c0-0.2-0.1-0.4-0.2-0.6C270.2,331.8,269.9,331.7,269.7,331.8L269.7,331.8z"/>
	<path class="st1" d="M273.2,334.3l-0.2,0.3h-0.3V330h0.6v1.6c0.1-0.1,0.2-0.2,0.3-0.2c0.1-0.1,0.3-0.1,0.4-0.1
		c0.4,0,0.8,0.2,1.1,0.5c0.3,0.3,0.4,0.7,0.4,1.1c0,0.5-0.1,0.9-0.4,1.3c-0.3,0.3-0.7,0.5-1.1,0.5c-0.2,0-0.3,0-0.5-0.1
		C273.4,334.5,273.3,334.4,273.2,334.3z M273.3,332v1.9c0,0,0.1,0.1,0.2,0.2c0.1,0.1,0.2,0.1,0.3,0.1c0.3,0,0.6-0.1,0.8-0.3
		c0.2-0.3,0.3-0.6,0.2-0.9c0-0.3-0.1-0.6-0.3-0.9c-0.2-0.2-0.5-0.3-0.8-0.3C273.6,331.8,273.4,331.9,273.3,332L273.3,332z"/>
	<path class="st1" d="M276.9,334.4l0.2-0.5c0.2,0.2,0.5,0.3,0.8,0.3c0.4,0,0.5-0.1,0.5-0.5s-0.2-0.4-0.5-0.5
		c-0.2-0.1-0.4-0.2-0.5-0.3c-0.1-0.1-0.2-0.1-0.2-0.2c-0.1-0.1-0.1-0.2-0.1-0.2c0-0.1,0-0.2,0-0.3c0-0.2,0.1-0.5,0.3-0.6
		c0.2-0.2,0.5-0.2,0.8-0.2c0.3,0,0.6,0.1,0.9,0.2l-0.2,0.5c-0.2-0.2-0.4-0.3-0.7-0.3c-0.1,0-0.2,0-0.4,0.1c-0.1,0-0.1,0.1-0.1,0.2
		c0,0.2,0.1,0.4,0.4,0.5l0.4,0.2c0.2,0.1,0.4,0.2,0.5,0.4c0.1,0.2,0.2,0.4,0.2,0.5c0,0.3-0.1,0.5-0.3,0.7c-0.2,0.2-0.5,0.3-0.8,0.2
		C277.5,334.6,277.2,334.5,276.9,334.4z"/>
	<path class="st1" d="M280.8,334.5v-2.7h-0.5v-0.5h1v3.2L280.8,334.5z M281.1,330.1c0.1,0,0.2,0,0.2,0.1c0.1,0.1,0.1,0.2,0.1,0.2
		c0,0.1,0,0.2-0.1,0.2c-0.1,0.1-0.3,0.1-0.5,0c0,0,0,0,0,0c-0.1-0.1-0.1-0.2-0.1-0.2C280.8,330.3,280.9,330.1,281.1,330.1
		C281.1,330.1,281.1,330.1,281.1,330.1z"/>
	<path class="st1" d="M283.5,331.8h-0.4v-0.5h0.4v-0.7l0.6-0.2v0.9h0.9v0.5h-0.9v1.6c0,0.2,0,0.4,0.1,0.6c0.1,0.1,0.3,0.2,0.5,0.2
		c0.2,0,0.3,0,0.5-0.1l0.1,0.5c-0.3,0.1-0.5,0.1-0.8,0.1c-0.2,0-0.5-0.1-0.6-0.3c-0.2-0.2-0.3-0.5-0.3-0.7V331.8z"/>
	<path class="st1" d="M289.4,333h-2.3c0,0.3,0.1,0.6,0.3,0.9c0.2,0.2,0.4,0.3,0.7,0.3c0.3,0,0.6-0.1,0.8-0.3l0.2,0.4
		c-0.1,0.1-0.3,0.2-0.4,0.2c-0.2,0.1-0.5,0.1-0.8,0.1c-0.4,0-0.7-0.1-1-0.4c-0.3-0.3-0.5-0.8-0.5-1.2c0-0.5,0.2-0.9,0.5-1.3
		c0.3-0.3,0.6-0.4,1-0.4c0.4,0,0.8,0.1,1.1,0.4c0.3,0.3,0.4,0.6,0.4,1C289.4,332.8,289.4,332.9,289.4,333z M288,331.7
		c-0.2,0-0.5,0.1-0.6,0.2c-0.2,0.1-0.3,0.4-0.3,0.6h1.8c0-0.2-0.1-0.4-0.2-0.6C288.5,331.8,288.2,331.7,288,331.7z"/>
	<path class="st1" d="M294.8,334.5h-0.9v-4.4h1.1c0.5,0,1.1,0.2,1.5,0.6c0.4,0.4,0.6,0.9,0.5,1.5C297,333.8,296.2,334.5,294.8,334.5
		z M294.5,330.7v3.3c0.2,0,0.3,0,0.5,0c0.4,0,0.8-0.2,1-0.5c0.3-0.4,0.4-0.8,0.4-1.3c0-1-0.5-1.6-1.4-1.6L294.5,330.7z"/>
	<path class="st1" d="M301.3,333H299c0,0.3,0.1,0.6,0.3,0.9c0.2,0.2,0.4,0.3,0.7,0.3c0.3,0,0.6-0.1,0.8-0.3l0.2,0.4
		c-0.1,0.1-0.3,0.2-0.4,0.2c-0.2,0.1-0.5,0.1-0.8,0.1c-0.4,0-0.7-0.1-1-0.4c-0.3-0.3-0.5-0.8-0.5-1.2c0-0.5,0.2-0.9,0.5-1.3
		c0.3-0.3,0.6-0.4,1-0.4c0.4,0,0.8,0.1,1.1,0.4c0.3,0.3,0.4,0.6,0.4,1C301.4,332.8,301.3,332.9,301.3,333z M299.9,331.8
		c-0.2,0-0.5,0.1-0.6,0.2c-0.2,0.1-0.3,0.4-0.3,0.6h1.8c0-0.2-0.1-0.4-0.2-0.6C300.4,331.8,300.1,331.7,299.9,331.8L299.9,331.8z"/>
	<path class="st1" d="M304.1,334.6h-0.1l-1.4-3.3h0.6l0.9,2.2l0.9-2.2h0.6L304.1,334.6z"/>
	<path class="st1" d="M309.6,333h-2.3c0,0.3,0.1,0.6,0.3,0.9c0.2,0.2,0.4,0.3,0.7,0.3c0.3,0,0.6-0.1,0.8-0.3l0.2,0.4
		c-0.1,0.1-0.3,0.2-0.4,0.2c-0.2,0.1-0.5,0.1-0.8,0.1c-0.4,0-0.7-0.1-1-0.4c-0.3-0.3-0.5-0.8-0.5-1.2c0-0.5,0.2-0.9,0.5-1.3
		c0.3-0.3,0.6-0.4,1-0.4c0.4,0,0.8,0.1,1.1,0.4c0.3,0.3,0.4,0.6,0.4,1C309.6,332.8,309.6,332.9,309.6,333z M308.2,331.8
		c-0.2,0-0.5,0.1-0.6,0.2c-0.2,0.2-0.3,0.4-0.3,0.6h1.8c0-0.2-0.1-0.4-0.2-0.6C308.7,331.8,308.4,331.7,308.2,331.8L308.2,331.8z"/>
	<path class="st1" d="M311.2,333.6V330h0.6v3.5c0,0.2,0,0.3,0.1,0.4c0.1,0.1,0.2,0.2,0.4,0.1v0.5
		C311.6,334.6,311.2,334.3,311.2,333.6z"/>
	<path class="st1" d="M313.8,332.9c0-0.4,0.1-0.9,0.4-1.2c0.3-0.3,0.6-0.5,1-0.5c0.4,0,0.8,0.1,1.1,0.4c0.5,0.7,0.5,1.7,0,2.5
		c-0.6,0.6-1.5,0.6-2.1,0c0,0,0,0,0,0C313.9,333.8,313.8,333.4,313.8,332.9z M314.4,332.9c0,0.8,0.3,1.2,0.9,1.2
		c0.3,0,0.5-0.1,0.6-0.3c0.2-0.3,0.2-0.6,0.2-0.9c0-0.8-0.3-1.2-0.9-1.2c-0.2,0-0.5,0.1-0.6,0.3
		C314.4,332.3,314.4,332.6,314.4,332.9z"/>
	<path class="st1" d="M318.8,334.4v1.4h-0.6v-4.5h0.6v0.3c0.2-0.2,0.5-0.3,0.8-0.3c0.4,0,0.8,0.1,1.1,0.4c0.5,0.7,0.5,1.7,0,2.4
		c-0.3,0.3-0.7,0.5-1.1,0.5c-0.1,0-0.3,0-0.4-0.1C319,334.5,318.9,334.4,318.8,334.4z M318.8,332v1.9c0.1,0.1,0.1,0.1,0.2,0.1
		c0.1,0.1,0.2,0.1,0.3,0.1c0.7,0,1.1-0.4,1.1-1.2c0-0.3-0.1-0.6-0.2-0.9c-0.2-0.2-0.5-0.3-0.8-0.3c-0.1,0-0.2,0-0.3,0.1
		C319,331.9,318.9,331.9,318.8,332L318.8,332z"/>
	<path class="st1" d="M326.4,334.5v-2c0-0.5-0.2-0.8-0.6-0.8c-0.1,0-0.3,0-0.4,0.1c-0.1,0.1-0.2,0.2-0.2,0.3v2.4h-0.6v-2.3
		c0-0.1-0.1-0.3-0.2-0.4c-0.1-0.1-0.3-0.1-0.5-0.1c-0.1,0-0.3,0-0.4,0.1c-0.1,0.1-0.2,0.2-0.3,0.3v2.4h-0.6v-3.2h0.3l0.2,0.4
		c0.2-0.3,0.5-0.4,0.8-0.4c0.4-0.1,0.8,0.1,1,0.4c0.1-0.1,0.2-0.2,0.4-0.3c0.2-0.1,0.4-0.1,0.5-0.1c0.3,0,0.6,0.1,0.8,0.3
		c0.2,0.2,0.3,0.5,0.3,0.8v2.1L326.4,334.5z"/>
	<path class="st1" d="M331.5,333h-2.3c0,0.3,0.1,0.6,0.3,0.9c0.2,0.2,0.4,0.3,0.7,0.3c0.3,0,0.6-0.1,0.8-0.3l0.2,0.4
		c-0.1,0.1-0.3,0.2-0.4,0.2c-0.2,0.1-0.5,0.1-0.8,0.1c-0.4,0-0.7-0.1-1-0.4c-0.3-0.3-0.5-0.8-0.5-1.2c0-0.5,0.2-0.9,0.5-1.3
		c0.3-0.3,0.6-0.4,1-0.4c0.4,0,0.8,0.1,1.1,0.4c0.3,0.3,0.4,0.6,0.4,1C331.5,332.8,331.5,332.9,331.5,333z M330.1,331.8
		c-0.2,0-0.5,0.1-0.6,0.2c-0.2,0.1-0.3,0.4-0.3,0.6h1.8c0-0.4-0.3-0.8-0.7-0.8C330.1,331.8,330.1,331.8,330.1,331.8z"/>
	<path class="st1" d="M335,334.5v-1.9c0-0.2,0-0.5-0.1-0.7c-0.1-0.1-0.3-0.2-0.5-0.2c-0.1,0-0.3,0-0.4,0.1c-0.1,0.1-0.2,0.2-0.3,0.3
		v2.4H333v-3.2h0.4l0.2,0.4c0.2-0.3,0.5-0.5,0.9-0.5c0.7,0,1.1,0.4,1.1,1.3v2L335,334.5z"/>
	<path class="st1" d="M337.6,331.8h-0.4v-0.5h0.4v-0.7l0.6-0.2v0.9h0.9v0.5h-0.9v1.6c0,0.2,0,0.4,0.1,0.6c0.1,0.1,0.3,0.2,0.4,0.2
		c0.2,0,0.3,0,0.5-0.1l0.1,0.5c-0.3,0.1-0.5,0.1-0.8,0.1c-0.2,0-0.5-0.1-0.6-0.3c-0.2-0.2-0.3-0.5-0.3-0.7L337.6,331.8z"/>
	<path class="st1" d="M268,318.1c-0.1-1.1-1-1.8-2.1-1.8c-1.6,0-2.5,1.3-2.5,3.4s1,3.5,2.6,3.5c0.7,0,1.3-0.3,1.7-0.8
		c0.2-0.3,0.4-0.7,0.4-1.1l2.7,0.4c-0.1,0.9-0.5,1.7-1.1,2.4c-1,1-2.3,1.5-3.7,1.4c-1.4,0.1-2.9-0.5-3.9-1.5c-1-1.2-1.6-2.7-1.5-4.3
		c-0.1-1.6,0.5-3.2,1.6-4.3c1-0.9,2.4-1.4,3.8-1.4c1.5-0.1,2.9,0.5,3.9,1.7c0.4,0.5,0.7,1.1,0.8,1.8L268,318.1z"/>
	<path class="st1" d="M292.4,319.7c0.4,0.6,0.6,1,1,1.6c-0.1-0.6-0.1-1.3-0.1-2v-3c0-0.7,0-1.3-0.1-2h2.8c-0.1,0.7-0.1,1.3-0.1,2v7
		c0,0.7,0,1.3,0.1,2h-2.9c-0.3-0.6-0.6-1.1-1-1.7l-2.4-3.7c-0.3-0.5-0.7-1.1-1-1.6c0.1,0.7,0.1,1.3,0.1,2v3c0,0.7,0,1.3,0.1,2h-2.8
		c0.1-0.7,0.1-1.4,0.1-2.1v-6.9c0-0.7,0-1.3-0.1-2h2.9c0.3,0.6,0.6,1.1,0.9,1.6L292.4,319.7z"/>
	<path class="st1" d="M305,318.1c-0.1-1.1-1-1.8-2.1-1.8c-1.6,0-2.5,1.3-2.5,3.4s1,3.5,2.6,3.5c0.7,0,1.3-0.3,1.7-0.8
		c0.2-0.3,0.4-0.7,0.4-1.1l2.7,0.4c-0.1,0.9-0.5,1.7-1.1,2.4c-1,1-2.3,1.5-3.7,1.4c-1.4,0.1-2.8-0.5-3.9-1.5
		c-1.1-1.2-1.6-2.7-1.5-4.3c-0.1-1.6,0.5-3.2,1.6-4.3c1-0.9,2.4-1.4,3.8-1.4c1.5-0.1,2.9,0.5,3.9,1.7c0.4,0.5,0.7,1.1,0.8,1.8
		L305,318.1z"/>
	<path class="st1" d="M313.2,314.3c-0.1,0.6-0.1,1.3-0.1,2v7c0,0.7,0,1.3,0.1,2h-2.9c0.1-0.6,0.1-1.3,0.1-2v-7c0-0.7,0-1.3-0.1-2
		H313.2z"/>
	<path class="st1" d="M318.5,321.7c0,0.4,0.1,0.7,0.4,1c0.4,0.4,1,0.7,1.5,0.6c1,0,1.6-0.5,1.6-1.2c0-0.4-0.2-0.7-0.5-0.9
		c-0.6-0.2-1.3-0.4-2-0.5c-0.8-0.1-1.5-0.4-2.1-0.8c-0.8-0.6-1.3-1.5-1.3-2.5c0-2,1.6-3.3,4.2-3.3c1.4-0.1,2.8,0.4,3.7,1.5
		c0.3,0.5,0.6,1,0.6,1.6l-2.8,0.3c-0.1-0.9-0.6-1.2-1.6-1.2c-0.8,0-1.4,0.4-1.4,1c0,0.4,0.3,0.7,0.6,0.8c0.6,0.2,1.2,0.4,1.8,0.4
		c0.7,0.1,1.5,0.4,2.1,0.8c0.9,0.6,1.5,1.6,1.4,2.7c0,0.9-0.3,1.8-0.9,2.4c-1,0.8-2.2,1.2-3.5,1.1c-1,0-2-0.2-2.9-0.6
		c-0.7-0.4-1.2-1-1.4-1.7c-0.1-0.4-0.2-0.8-0.3-1.2L318.5,321.7z"/>
	<path class="st1" d="M335.6,325.4c-0.7-0.1-1.4-0.1-2.2-0.1h-4.1c-1,0-1.4,0-1.9,0c0.1-0.6,0.1-1.3,0.1-1.9v-7.1
		c0-0.6,0-1.3-0.1-1.9c0.5,0,0.9,0,1.9,0h4.2c0.7,0,1.3,0,2-0.1v2.5c-0.7-0.1-1.3-0.1-2-0.1H330v1.9h2.8c0.7,0,1.3,0,2-0.1v2.4
		c-0.7-0.1-1.3-0.1-2-0.1H330v2.3h3.4c0.7,0,1.4,0,2.1-0.1L335.6,325.4z"/>
	<path class="st1" d="M336.8,314.5c0.1-0.2,0.2-0.3,0.3-0.4c0.1-0.1,0.3-0.2,0.4-0.2c0.3-0.1,0.7-0.1,1,0c0.3,0.1,0.6,0.3,0.7,0.6
		c0.1,0.2,0.1,0.3,0.1,0.5c0,0.2,0,0.4-0.1,0.5c-0.1,0.1-0.2,0.3-0.3,0.4c-0.1,0.1-0.3,0.2-0.4,0.2c-0.3,0.1-0.7,0.1-1,0
		c-0.2-0.1-0.3-0.1-0.4-0.2c-0.1-0.1-0.2-0.2-0.3-0.4c-0.1-0.2-0.1-0.3-0.1-0.5C336.7,314.8,336.7,314.6,336.8,314.5z M337.1,315.4
		c0,0.1,0.1,0.2,0.2,0.3c0.1,0.1,0.2,0.2,0.3,0.2c0.1,0,0.2,0.1,0.4,0.1c0.1,0,0.3,0,0.4-0.1c0.1-0.1,0.2-0.1,0.3-0.2
		c0.1-0.1,0.2-0.2,0.2-0.3c0.1-0.1,0.1-0.3,0.1-0.4c0-0.1,0-0.3-0.1-0.4c0-0.1-0.1-0.2-0.2-0.3c-0.1-0.1-0.2-0.2-0.3-0.2
		c-0.1,0-0.2,0-0.3-0.1c-0.1,0-0.3,0-0.4,0.1c-0.1,0-0.2,0.1-0.3,0.2c-0.1,0.1-0.2,0.2-0.2,0.3C337,314.8,337,315.1,337.1,315.4
		L337.1,315.4z M338,314.3c0.1,0,0.3,0,0.4,0.1c0.1,0.1,0.2,0.3,0.1,0.5c0,0,0,0.1-0.1,0.1c0,0-0.1,0.1-0.1,0.1c0,0-0.1,0-0.1,0
		l0.4,0.6h-0.3l-0.4-0.6h-0.2v0.6h-0.3v-1.4L338,314.3z M338,314.9c0.1,0,0.1,0,0.2,0c0.1,0,0.1-0.1,0.1-0.2c0,0,0-0.1,0-0.1l-0.1,0
		h-0.1h-0.3v0.4L338,314.9z"/>
	
		<rect x="336.8" y="314.8" transform="matrix(0.7071 -0.7071 0.7071 0.7071 -123.7107 331.2466)" class="st1" width="2.3" height="0.3"/>
	<path class="st4" d="M278.2,326c-3.4,0-6.1-2.7-6.1-6.1s2.7-6.1,6.1-6.1s6.1,2.7,6.1,6.1c0,0,0,0,0,0
		C284.3,323.3,281.5,326,278.2,326z M278.2,314.6c-2.9,0-5.3,2.4-5.3,5.3c0,2.9,2.4,5.3,5.3,5.3c2.9,0,5.3-2.4,5.3-5.3c0,0,0,0,0,0
		C283.5,316.9,281.1,314.5,278.2,314.6C278.2,314.5,278.2,314.5,278.2,314.6L278.2,314.6z"/>
	<path class="st4" d="M278.2,322.2c0-0.2,0-0.4,0-0.5c0,0,0,0,0-0.1l2.4-3.5v0v0.6c0,0,0,0,0,0.1L278.2,322.2L278.2,322.2
		L278.2,322.2z"/>
	<line class="st5" x1="280.6" y1="318.6" x2="276.2" y2="325.2"/>
	<path class="st4" d="M278.2,314.8c0,0,0,0.1,0,0.1v6.2l0-0.1l2.3-3.5c0-0.1,0-0.1,0-0.2c-0.1-0.6-0.1-1.2-0.1-1.8v-1
		c-0.7-0.3-1.4-0.4-2.1-0.5v0.2C278.3,314.5,278.2,314.7,278.2,314.8z"/>
	<path class="st1" d="M491.3,324.9c2,0,3,0.9,3,2.3c0,1-0.6,1.9-1.6,2.1l0,0c0.6,0.2,0.9,0.5,1.3,1.6l0.9,2.4h-1.2l-0.8-2.2
		c-0.4-1-0.7-1.3-1.6-1.3h-1.5v3.6h-1.1v-8.5L491.3,324.9z M489.7,328.9h1.6c1.3,0,1.9-0.7,1.9-1.6s-0.7-1.4-1.9-1.4h-1.5
		L489.7,328.9z"/>
	<path class="st1" d="M497.3,330.8l-0.9,2.5h-1.2l3.2-8.5h1.5l3.2,8.5h-1.2l-0.9-2.5H497.3z M500.4,329.1c-0.4-1.2-0.8-2.3-1.2-3.4
		l0,0c-0.4,1.2-0.8,2.3-1.2,3.4l-0.3,0.8h3L500.4,329.1z"/>
	<path class="st1" d="M509.2,333.3l-1.4-3.7c-0.5-1.3-1-2.5-1.4-3.8l0,0c-0.1,1.3-0.2,2.5-0.3,3.8l-0.4,3.7h-1.6l-3.2-8.5h1.1
		l1.3,3.4c0.5,1.3,1,2.7,1.5,4l0,0c0.1-1.3,0.2-2.7,0.4-4l0.3-3.4h1.6l1.3,3.4c0.5,1.3,1,2.7,1.5,4l0,0c0.1-1.3,0.2-2.6,0.3-4
		l0.3-3.4h1.1l-0.7,8.5H509.2z"/>
	<path class="st1" d="M487.2,342.9l-0.7-2.6c-0.2-0.9-0.5-1.7-0.7-2.6l0,0c-0.2,0.9-0.4,1.7-0.7,2.6l-0.7,2.6h-1.5l-1.6-6h1l0.6,2.5
		c0.2,0.9,0.5,1.8,0.7,2.7l0,0c0.2-0.9,0.4-1.8,0.7-2.6l0.7-2.6h1.5l0.7,2.6c0.2,0.9,0.5,1.8,0.7,2.6l0,0c0.2-0.9,0.4-1.8,0.7-2.7
		l0.6-2.5h1.1l-1.6,6H487.2z"/>
	<path class="st1" d="M495.2,341.1h1.1c-0.3,1.2-1.4,2.1-2.7,2c-1.8,0-2.8-1.3-2.8-3.3c-0.2-1.5,0.9-2.9,2.5-3.1c0.1,0,0.2,0,0.3,0
		c1.3,0,2.4,0.8,2.6,2.1c0.1,0.4,0.1,0.9,0.1,1.3h-4.5c0,1.5,0.8,2.2,1.8,2.2C494.4,342.4,495.1,341.8,495.2,341.1z M491.9,339.3
		h3.5c-0.1-1.2-0.8-1.8-1.7-1.8C492.7,337.5,491.9,338.3,491.9,339.3C491.9,339.3,491.9,339.3,491.9,339.3L491.9,339.3z"/>
	<path class="st1" d="M498.4,337.7c0.4-0.6,1.1-1,1.8-1c1.5,0,2.5,1.2,2.5,3.2s-1,3.2-2.5,3.2c-0.8,0-1.5-0.3-1.8-1l0,0v0.9h-1v-8.5
		h1L498.4,337.7L498.4,337.7z M498.4,339.9c0,1.4,0.6,2.3,1.6,2.3s1.7-0.9,1.7-2.3s-0.7-2.3-1.7-2.3S498.4,338.5,498.4,339.9z"/>
	<path class="st1" d="M508.2,342.9V342l0,0c-0.4,0.7-1.1,1-1.9,1c-1.5,0-2.5-1.2-2.5-3.2s1-3.2,2.5-3.2c0.8,0,1.5,0.4,1.8,1l0,0
		v-3.3h1v8.5L508.2,342.9z M504.9,339.9c0,1.4,0.7,2.3,1.7,2.3s1.6-0.9,1.6-2.3s-0.6-2.3-1.6-2.3S504.9,338.5,504.9,339.9
		L504.9,339.9z"/>
	<path class="st1" d="M514.5,341.1h1.1c-0.3,1.2-1.4,2.1-2.7,2c-1.8,0-2.8-1.3-2.8-3.3c-0.2-1.5,0.9-2.9,2.5-3.1c0.1,0,0.2,0,0.3,0
		c1.3,0,2.4,0.8,2.6,2.1c0.1,0.4,0.1,0.9,0.1,1.3h-4.5c0,1.5,0.8,2.2,1.8,2.2C513.7,342.4,514.4,341.9,514.5,341.1z M511.2,339.3
		h3.5c0.1-1-0.6-1.8-1.6-1.9c-1-0.1-1.8,0.6-1.9,1.6C511.2,339.1,511.2,339.2,511.2,339.3L511.2,339.3z"/>
	<path class="st1" d="M518.2,342.9l-2.2-6h1.1l0.9,2.5c0.3,0.9,0.6,1.8,0.9,2.7l0,0c0.3-0.9,0.6-1.8,0.9-2.7l0.9-2.5h1.1l-2.2,6
		H518.2z"/>
	<path class="st1" d="M504,303.9h-4.3v1.5c3.9,0,7,3.1,7,7s-3.1,7-7,7v1.5h4.3c4.7,0,8.5-3.8,8.5-8.5S508.7,303.8,504,303.9
		L504,303.9z"/>
	<path class="st1" d="M499.1,320.8c-4.7,0-8.5-3.8-8.5-8.5c0-4.7,3.8-8.5,8.5-8.5c4.7,0,8.5,3.8,8.5,8.5c0,0,0,0,0,0
		C507.6,317,503.8,320.8,499.1,320.8C499.1,320.8,499.1,320.8,499.1,320.8z M499.1,305.3c-3.9,0-7.1,3.2-7.1,7s3.2,7.1,7,7.1
		s7.1-3.2,7.1-7v0C506.1,308.5,503,305.3,499.1,305.3z"/>
	<path class="st6" d="M499.4,308.3l1.1,0.4l-2.6,7.4l-1.2-0.4L499.4,308.3z"/>
	<path class="st6" d="M501.9,314.5l-0.8-0.9l1.8-1.4l-1.7-1.2l0.7-1l3,2.2L501.9,314.5z"/>
	<path class="st6" d="M495.5,309.9l0.7,1l-1.7,1.2l1.8,1.4l-0.8,1l-3-2.4L495.5,309.9z"/>
	<path class="st1" d="M522.8,337c0-0.1,0.1-0.1,0.1-0.1c0,0,0.1-0.1,0.2-0.1c0.1,0,0.1,0,0.2,0c0.1,0,0.1,0,0.2,0
		c0.1,0,0.1,0.1,0.2,0.1c0.2,0.2,0.2,0.5,0,0.7c0,0,0,0,0,0c0,0-0.1,0.1-0.2,0.1h-0.2c-0.1,0-0.1,0-0.2,0c-0.1,0-0.1-0.1-0.2-0.1
		c0,0-0.1-0.1-0.1-0.1C522.8,337.3,522.8,337.1,522.8,337L522.8,337z M523,337.4c0,0,0,0.1,0.1,0.1c0,0,0.1,0.1,0.1,0.1
		c0,0,0.1,0,0.1,0c0,0,0.1,0,0.1,0c0,0,0.1,0,0.1-0.1c0,0,0.1-0.1,0.1-0.1c0-0.1,0-0.2,0-0.3l-0.1-0.1c0,0-0.1-0.1-0.1-0.1
		c0,0-0.1,0-0.1,0c0,0-0.1,0-0.1,0c0,0-0.1,0-0.1,0.1c0,0-0.1,0.1-0.1,0.1C522.9,337.1,522.9,337.3,523,337.4z"/>
	<path class="st1" d="M523.2,337.3L523.2,337.3C523.2,337.3,523.2,337.3,523.2,337.3L523.2,337.3 M523.3,337.3
		C523.3,337.3,523.3,337.3,523.3,337.3V337h0.1L523.3,337.3c0.1,0,0.1,0.1,0.1,0.1c0,0-0.1,0.1-0.1,0.1c-0.1,0-0.1,0-0.1-0.1
		c0,0,0-0.1,0-0.1l0,0L523.3,337.3z"/>
	<path class="st1" d="M467.8,48c-0.6,0-1.1,0.2-1.5,0.6c-0.4,0.5-0.5,1.1-0.5,1.7c0,0.6,0.2,1.2,0.6,1.7c0.4,0.4,1,0.6,1.5,0.6
		c0.3,0,0.6,0,0.9-0.1c0.2-0.1,0.5-0.2,0.7-0.3c0.1,0.1,0.3,0.3,0.3,0.4c0.1,0.2,0.1,0.4,0.1,0.6c0,0.4-0.2,0.7-0.6,0.9
		c-0.5,0.3-1.1,0.4-1.7,0.4c-0.5,0-1.1-0.1-1.6-0.2c-1-0.3-1.8-1-2.2-2c-0.4-1.1-0.4-2.4,0-3.5c0.2-0.5,0.5-0.9,0.8-1.3
		c0.4-0.3,0.8-0.6,1.2-0.8c0.5-0.2,1-0.3,1.5-0.3c0.6,0,1.2,0.1,1.8,0.4c0.4,0.2,0.6,0.6,0.6,1c0,0.2-0.1,0.4-0.2,0.6
		c-0.1,0.1-0.2,0.3-0.4,0.4c-0.2-0.1-0.4-0.3-0.7-0.4C468.4,48,468.1,48,467.8,48z"/>
	<path class="st1" d="M470.9,48.1c0.1,0,0.3-0.1,0.4-0.1c0.2,0,0.4,0,0.6,0c0.2,0,0.3,0,0.5,0c0.1,0,0.3,0.1,0.4,0.2
		c0.1,0.1,0.2,0.2,0.2,0.3c0.1,0.2,0.1,0.3,0.1,0.5v2.7c0,0.3,0.1,0.5,0.2,0.7c0.2,0.2,0.5,0.2,0.7,0.2c0.2,0,0.3,0,0.5,0l0.3-0.1
		v-4.4c0.1,0,0.3-0.1,0.4-0.1c0.2,0,0.4,0,0.6,0c0.2,0,0.3,0,0.5,0c0.1,0,0.3,0.1,0.4,0.2c0.1,0.1,0.2,0.2,0.2,0.3
		c0.1,0.2,0.1,0.3,0.1,0.5v3.8c0,0.4-0.2,0.8-0.5,0.9c-0.3,0.2-0.6,0.3-1,0.4c-0.4,0.1-0.9,0.1-1.3,0.1c-0.4,0-0.8,0-1.2-0.2
		c-0.4-0.1-0.7-0.2-1-0.5c-0.3-0.2-0.5-0.5-0.6-0.8c-0.2-0.4-0.2-0.8-0.2-1.2L470.9,48.1z"/>
	<path class="st1" d="M480.3,54.1c-0.1,0-0.3,0.1-0.4,0.1c-0.2,0-0.4,0-0.5,0c-0.2,0-0.3,0-0.5,0c-0.1,0-0.3-0.1-0.4-0.2
		c-0.1-0.1-0.2-0.2-0.2-0.3c-0.1-0.2-0.1-0.3-0.1-0.5v-3.8c0-0.2,0-0.3,0.1-0.5c0.1-0.1,0.2-0.3,0.3-0.4c0.2-0.1,0.3-0.2,0.5-0.3
		c0.2-0.1,0.4-0.2,0.6-0.2c0.2-0.1,0.5-0.1,0.7-0.2c0.2,0,0.5-0.1,0.7-0.1c0.3,0,0.7,0.1,1,0.2c0.2,0.2,0.4,0.5,0.4,0.8
		c0,0.1,0,0.2,0,0.3c0,0.1-0.1,0.2-0.1,0.3h-0.5c-0.2,0-0.4,0-0.5,0.1l-0.5,0.1c-0.1,0-0.3,0.1-0.4,0.1L480.3,54.1z"/>
	<path class="st1" d="M485.3,54.1c-0.1,0-0.3,0.1-0.4,0.1c-0.2,0-0.4,0-0.6,0c-0.2,0-0.3,0-0.5,0c-0.1,0-0.3-0.1-0.4-0.2
		c-0.1-0.1-0.2-0.2-0.2-0.3c-0.1-0.2-0.1-0.3-0.1-0.5v-3.8c0-0.2,0-0.3,0.1-0.5c0.1-0.1,0.2-0.3,0.3-0.4c0.2-0.1,0.3-0.2,0.5-0.3
		c0.2-0.1,0.4-0.2,0.6-0.2c0.2-0.1,0.5-0.1,0.7-0.2c0.2,0,0.5-0.1,0.7-0.1c0.3,0,0.7,0.1,1,0.2c0.2,0.2,0.4,0.5,0.4,0.8
		c0,0.1,0,0.2,0,0.3c0,0.1-0.1,0.2-0.1,0.3h-0.5c-0.2,0-0.4,0-0.5,0.1l-0.5,0.1c-0.1,0-0.3,0.1-0.4,0.1L485.3,54.1z"/>
	<path class="st1" d="M491.3,54.3c-0.5,0-0.9-0.1-1.4-0.2c-0.4-0.1-0.8-0.3-1.1-0.6c-0.3-0.3-0.6-0.6-0.7-1c-0.2-0.5-0.3-1-0.3-1.5
		c0-0.5,0.1-1,0.3-1.4c0.2-0.4,0.4-0.7,0.7-1c0.3-0.3,0.6-0.5,1-0.6c0.4-0.1,0.8-0.2,1.1-0.2c0.4,0,0.8,0.1,1.2,0.2
		c0.3,0.1,0.7,0.3,0.9,0.5c0.3,0.2,0.5,0.5,0.6,0.8c0.1,0.3,0.2,0.7,0.2,1.1c0,0.2-0.1,0.5-0.2,0.7c-0.2,0.2-0.4,0.3-0.7,0.3
		l-3.1,0.5c0.1,0.3,0.3,0.5,0.6,0.6c0.3,0.1,0.7,0.2,1,0.2c0.3,0,0.7,0,1-0.1c0.3-0.1,0.5-0.2,0.7-0.3c0.1,0.1,0.3,0.2,0.3,0.3
		c0.1,0.1,0.1,0.3,0.1,0.5c0,0.4-0.2,0.7-0.5,0.8c-0.3,0.1-0.6,0.2-0.9,0.3C492,54.3,491.6,54.3,491.3,54.3z M490.9,49.4
		c-0.3,0-0.7,0.1-0.9,0.4c-0.1,0.1-0.2,0.2-0.2,0.3c0,0.1-0.1,0.3-0.1,0.4l2.1-0.3c0-0.2-0.1-0.4-0.3-0.5
		C491.4,49.4,491.2,49.4,490.9,49.4z"/>
	<path class="st1" d="M498.8,50.2c0-0.2-0.1-0.4-0.2-0.6c-0.2-0.1-0.4-0.2-0.6-0.2c-0.2,0-0.3,0-0.5,0.1c-0.2,0-0.3,0.1-0.4,0.2v4.3
		c-0.1,0-0.3,0.1-0.4,0.1c-0.2,0-0.4,0-0.6,0c-0.2,0-0.3,0-0.5,0c-0.1,0-0.3-0.1-0.4-0.2c-0.1-0.1-0.2-0.2-0.2-0.3
		c-0.1-0.2-0.1-0.3-0.1-0.5v-3.8c0-0.2,0-0.4,0.1-0.6c0.1-0.1,0.2-0.3,0.4-0.4c0.3-0.2,0.7-0.4,1.1-0.5c0.5-0.1,1-0.2,1.4-0.2
		c0.8,0,1.5,0.2,2.2,0.6c0.5,0.4,0.8,1.1,0.8,1.7v3.9c-0.1,0-0.3,0.1-0.4,0.1c-0.2,0-0.4,0-0.5,0c-0.2,0-0.3,0-0.5,0
		c-0.1,0-0.3-0.1-0.4-0.2c-0.1-0.1-0.2-0.2-0.2-0.3c-0.1-0.2-0.1-0.3-0.1-0.5L498.8,50.2z"/>
	<path class="st1" d="M504.4,52c0,0.2,0.1,0.4,0.2,0.5c0.2,0.1,0.4,0.2,0.6,0.1h0.4l0.4-0.1c0.1,0.1,0.1,0.2,0.2,0.3
		c0.1,0.1,0.1,0.3,0.1,0.4c0,0.3-0.1,0.6-0.4,0.8c-0.4,0.2-0.8,0.3-1.3,0.3c-0.6,0-1.2-0.1-1.7-0.5c-0.4-0.4-0.6-1-0.6-1.6v-5.4
		l0.4-0.1c0.2,0,0.4,0,0.5,0c0.3,0,0.6,0,0.9,0.2c0.2,0.2,0.4,0.5,0.3,0.8v0.8h1.6c0.1,0.1,0.1,0.2,0.1,0.3c0,0.1,0.1,0.3,0.1,0.5
		c0,0.2,0,0.5-0.2,0.6c-0.1,0.1-0.3,0.2-0.5,0.2h-1.1L504.4,52z"/>
	<path class="st1" d="M507,48.3c-0.1-0.1-0.1-0.2-0.2-0.4c-0.1-0.2-0.1-0.3-0.1-0.5c0-0.3,0.1-0.5,0.2-0.7c0.2-0.1,0.4-0.2,0.6-0.2
		h5.4c0.1,0.1,0.1,0.2,0.2,0.4c0.1,0.2,0.1,0.3,0.1,0.5c0,0.3-0.1,0.5-0.2,0.7c-0.2,0.1-0.4,0.2-0.6,0.2h-1.4V54
		c-0.1,0-0.3,0.1-0.4,0.1c-0.2,0-0.4,0-0.6,0c-0.2,0-0.3,0-0.5,0c-0.1,0-0.3-0.1-0.4-0.2c-0.1-0.1-0.2-0.2-0.2-0.3
		c-0.1-0.2-0.1-0.4-0.1-0.5v-4.8H507z"/>
	<path class="st1" d="M515.8,54.1c-0.1,0-0.3,0.1-0.4,0.1c-0.2,0-0.4,0-0.6,0c-0.2,0-0.3,0-0.5,0c-0.1,0-0.2-0.1-0.3-0.2
		c-0.1-0.1-0.2-0.2-0.2-0.3c-0.1-0.2-0.1-0.3-0.1-0.5v-3.8c0-0.2,0-0.3,0.1-0.5c0.1-0.1,0.2-0.3,0.3-0.4c0.2-0.1,0.3-0.2,0.5-0.3
		c0.2-0.1,0.4-0.2,0.6-0.2c0.2-0.1,0.5-0.1,0.7-0.2c0.2,0,0.5-0.1,0.7-0.1c0.3,0,0.7,0.1,1,0.2c0.2,0.2,0.4,0.5,0.3,0.8
		c0,0.1,0,0.2,0,0.3c0,0.1-0.1,0.2-0.1,0.3c-0.2,0-0.4,0-0.5,0c-0.2,0-0.4,0-0.5,0.1l-0.5,0.1c-0.1,0-0.3,0.1-0.4,0.1L515.8,54.1z"
		/>
	<path class="st1" d="M521.8,54.3c-0.5,0-0.9-0.1-1.4-0.2c-0.4-0.1-0.8-0.3-1.1-0.6c-0.3-0.3-0.6-0.6-0.7-1c-0.2-0.5-0.3-1-0.3-1.5
		c0-0.5,0.1-1,0.3-1.4c0.3-0.7,0.9-1.3,1.7-1.6c0.4-0.1,0.8-0.2,1.2-0.2c0.4,0,0.8,0.1,1.2,0.2c0.3,0.1,0.7,0.3,0.9,0.5
		c0.3,0.2,0.5,0.5,0.6,0.8c0.1,0.3,0.2,0.7,0.2,1.1c0,0.2-0.1,0.5-0.2,0.7c-0.2,0.2-0.4,0.3-0.7,0.3l-3.1,0.5
		c0.1,0.3,0.3,0.5,0.6,0.6c0.3,0.1,0.7,0.2,1,0.2c0.3,0,0.7,0,1-0.1c0.3-0.1,0.5-0.2,0.8-0.3c0.1,0.1,0.3,0.2,0.3,0.3
		c0.1,0.1,0.1,0.3,0.1,0.5c0,0.4-0.2,0.7-0.5,0.8c-0.3,0.1-0.6,0.2-0.9,0.3C522.4,54.3,522.1,54.3,521.8,54.3z M521.4,49.4
		c-0.2,0-0.4,0-0.5,0.1c-0.1,0.1-0.3,0.1-0.4,0.3c-0.1,0.1-0.2,0.2-0.2,0.3c0,0.1-0.1,0.3-0.1,0.4l2.1-0.3c0-0.2-0.1-0.4-0.3-0.5
		C521.9,49.4,521.7,49.4,521.4,49.4L521.4,49.4z"/>
	<path class="st1" d="M529.3,50.2c0-0.2-0.1-0.4-0.2-0.6c-0.2-0.1-0.4-0.2-0.6-0.2c-0.2,0-0.3,0-0.5,0.1c-0.2,0-0.3,0.1-0.4,0.2v4.3
		c-0.1,0-0.3,0.1-0.4,0.1c-0.2,0-0.4,0-0.6,0c-0.2,0-0.3,0-0.5,0c-0.1,0-0.3-0.1-0.4-0.2c-0.1-0.1-0.2-0.2-0.2-0.3
		c-0.1-0.2-0.1-0.3-0.1-0.5v-3.8c0-0.2,0-0.4,0.2-0.6c0.1-0.2,0.2-0.3,0.4-0.4c0.3-0.2,0.7-0.4,1-0.5c0.5-0.1,1-0.2,1.4-0.2
		c0.8,0,1.5,0.2,2.2,0.6c0.5,0.4,0.8,1.1,0.8,1.7v3.9c-0.1,0-0.3,0.1-0.4,0.1c-0.2,0-0.4,0-0.5,0c-0.2,0-0.3,0-0.5,0
		c-0.1,0-0.3-0.1-0.4-0.2c-0.1-0.1-0.2-0.2-0.2-0.3c-0.1-0.2-0.1-0.3-0.1-0.5L529.3,50.2z"/>
	<path class="st1" d="M532.5,51c0-0.5,0.1-1,0.2-1.4c0.2-0.4,0.4-0.7,0.7-1c0.3-0.3,0.6-0.5,1-0.6c0.4-0.1,0.8-0.2,1.3-0.2
		c0.2,0,0.3,0,0.5,0c0.1,0,0.3,0.1,0.4,0.1v-2l0.4-0.1c0.2,0,0.4,0,0.6,0c0.2,0,0.3,0,0.5,0c0.1,0,0.3,0.1,0.4,0.2
		c0.1,0.1,0.2,0.2,0.2,0.3c0.1,0.2,0.1,0.3,0.1,0.5v5.9c0,0.4-0.2,0.8-0.5,0.9c-0.3,0.2-0.6,0.3-0.9,0.4c-0.9,0.3-1.9,0.3-2.8,0
		c-0.4-0.1-0.8-0.4-1.1-0.7c-0.3-0.3-0.5-0.6-0.7-1C532.5,52,532.4,51.5,532.5,51z M536,49.5c-0.4,0-0.7,0.1-1,0.4
		c-0.3,0.3-0.4,0.8-0.4,1.2c0,0.4,0.1,0.8,0.3,1.2c0.3,0.3,0.6,0.4,1,0.4c0.1,0,0.3,0,0.4-0.1c0.1,0,0.2-0.1,0.3-0.2v-2.8
		C536.5,49.5,536.2,49.5,536,49.5z"/>
	<path class="st7" d="M492.6,37h17.4c0.6,0,1,0.5,1,1v1.6c0,0.6-0.5,1-1,1h-17.4c-0.6,0-1-0.5-1-1v-1.6C491.6,37.5,492,37,492.6,37z
		"/>
	<path class="st7" d="M503.3,27.4c-0.6,0-1.2,0-1.8,0c-0.8,0-1.4-0.6-1.5-1.3c-0.1-0.8,0.4-1.5,1.2-1.7c0.1,0,0.3,0,0.4,0h5.5
		c0.8,0,1.5,0.6,1.5,1.4c0,0,0,0.1,0,0.1v5.5c0.1,0.8-0.4,1.6-1.3,1.7s-1.6-0.4-1.7-1.3c0-0.2,0-0.3,0-0.5v-1.8l-0.1-0.1
		c0,0.1-0.1,0.2-0.1,0.3l-4.6,4.6c-0.6,0.6-1.5,0.7-2.2,0.2c-0.1,0-0.1-0.1-0.2-0.2l-1.9-1.9l-0.3,0.2c-1.1,1.1,0.3-0.3-0.7,0.7
		c-0.6,0.6-1.5,0.7-2.1,0.1c-0.6-0.5-0.7-1.5-0.2-2.1c0,0,0.1-0.1,0.1-0.1c1.5-1.5,0.6-0.6,2.2-2.2c0.6-0.6,1.5-0.5,2.1,0l1.9,1.9
		L503.3,27.4z"/>
	<path class="st1" d="M540.3,47.8c0-0.1,0.1-0.1,0.1-0.2c0.1-0.1,0.1-0.1,0.2-0.1c0.1,0,0.2,0,0.2,0c0.2,0,0.3,0.1,0.4,0.2
		c0.1,0.1,0.1,0.1,0.1,0.2c0,0.1,0,0.2,0,0.2c0,0.1,0,0.2,0,0.3c0,0.1-0.1,0.1-0.1,0.2c-0.1,0.1-0.3,0.2-0.4,0.2c-0.1,0-0.2,0-0.2,0
		c-0.1,0-0.1-0.1-0.2-0.1c-0.1-0.1-0.1-0.1-0.1-0.2c0-0.1,0-0.2,0-0.3C540.3,48,540.3,47.9,540.3,47.8z M540.4,48.2
		c0,0.1,0.1,0.1,0.1,0.2c0,0,0.1,0.1,0.1,0.1c0.1,0,0.1,0,0.2,0c0.1,0,0.1,0,0.2,0c0.1,0,0.1-0.1,0.2-0.1c0,0,0.1-0.1,0.1-0.2
		c0-0.1,0-0.1,0-0.2c0-0.1,0-0.1,0-0.2c0-0.1-0.1-0.1-0.1-0.2c0,0-0.1-0.1-0.2-0.1c-0.1,0-0.1,0-0.2,0c-0.1,0-0.1,0-0.2,0
		c-0.1,0-0.1,0.1-0.1,0.1c0,0-0.1,0.1-0.1,0.2c0,0.1,0,0.1,0,0.2C540.4,48.1,540.4,48.2,540.4,48.2z"/>
	<path class="st1" d="M540.8,48.1L540.8,48.1c0,0,0,0.1,0,0.1c0,0,0.1,0,0.1,0c0,0,0,0,0,0c0,0,0,0,0-0.1v-0.5h0.1v0.5
		c0,0,0,0.1,0,0.1c0,0.1-0.1,0.1-0.2,0.1c-0.1,0-0.1,0-0.2-0.1C540.7,48.2,540.7,48.2,540.8,48.1L540.8,48.1L540.8,48.1z"/>
	<path class="st1" d="M72.3,52.5c-3.7-0.1-6.7-3.2-6.7-6.9c0.1-3.7,3.2-6.7,6.9-6.7c3.7,0.1,6.6,3,6.7,6.7c0,3.8-3,6.8-6.7,6.9
		C72.4,52.5,72.4,52.5,72.3,52.5z M77.3,45.8c-0.1-2.7-2.3-4.9-5-4.8c-2.7,0.1-4.9,2.3-4.8,5c0.1,2.7,2.2,4.8,4.9,4.8
		C75.2,50.7,77.4,48.5,77.3,45.8C77.3,45.8,77.3,45.8,77.3,45.8L77.3,45.8z"/>
	<path class="st1" d="M81.1,55.5V42.5h1.7V44l0,0c0.8-1.1,2.1-1.8,3.5-1.8c2.8,0,5,2.2,5.1,4.9c0,0.1,0,0.2,0,0.4c0,2.7-2.2,5-4.9,5
		c0,0-0.1,0-0.1,0c-1.3,0-2.6-0.6-3.3-1.7l0,0v4.7H81.1z M89.5,47.4c0-1.9-1.5-3.5-3.4-3.5c-1.9,0.1-3.4,1.8-3.3,3.7
		c0.1,1.8,1.5,3.2,3.3,3.3C88.1,50.8,89.5,49.3,89.5,47.4C89.5,47.4,89.5,47.4,89.5,47.4z"/>
	<path class="st1" d="M93.4,52.3v-8.1h-1.3v-1.7h1.3v-3.3h1.8v3.3h1.6v1.7h-1.6v8.1H93.4z"/>
	<path class="st1" d="M98.1,41.3v-2.2h1.9v2.2H98.1z M98.1,52.3v-9.8h1.9v9.8H98.1z"/>
	<path class="st1" d="M115.3,52.3v-5.5c0-1.9-0.8-2.9-2.3-2.9s-2.3,0.9-2.3,2.9v5.5h-1.8v-5.7c0-1.9-0.9-2.7-2.2-2.7
		c-1.6,0-2.4,1-2.4,2.9v5.5h-1.8v-9.8h1.7v1.1l0,0c0.6-0.9,1.7-1.4,2.8-1.3c1.2,0,2.4,0.6,3,1.6c0.7-1.1,1.9-1.8,3.2-1.6
		c2.6,0,4,1.6,4,4.1v5.9H115.3z"/>
	<path class="st1" d="M127.5,52.3v-1.5l0,0c-0.7,1.1-2,1.8-3.3,1.8c-2.8,0-5.2-2.3-5.2-5.1c0-2.8,2.3-5.2,5.1-5.2
		c1.3-0.1,2.6,0.5,3.4,1.6l0,0v-1.4h1.8v9.8L127.5,52.3z M127.5,47.4c0.1-1.9-1.4-3.4-3.3-3.5c-0.1,0-0.1,0-0.2,0
		c-1.9,0-3.5,1.5-3.5,3.4c0,1.9,1.5,3.5,3.4,3.5S127.5,49.4,127.5,47.4C127.5,47.4,127.5,47.4,127.5,47.4z"/>
	<path class="st1" d="M131.8,52.3V39.2h1.8v13.1H131.8z"/>
	<path class="st8" d="M75.1,48.2l-0.6-0.6c-0.8-0.8-1.7-1.5-2.7-2C71,45.2,70,45.1,69,45.4c-0.8,0.3-1.7,0.6-2.6,1
		c-0.7,0.3-1.4,0.5-2.1,0.6c-1.4,0-2.8-0.6-3.8-1.6c-0.2-0.2-0.3-0.3-0.5-0.4c0.1,0.2,0.2,0.3,0.3,0.5c0.7,1.1,1.7,2.1,2.8,2.8
		c0.7,0.5,1.6,0.6,2.5,0.5c0.9-0.2,1.8-0.5,2.7-0.9c0.7-0.3,1.5-0.6,2.2-0.8C72.2,46.7,73.8,47.2,75.1,48.2L75.1,48.2L75.1,48.2z"/>
	<path class="st8" d="M67.8,45.5l-0.6-0.6c-0.7-0.8-1.7-1.5-2.7-2c-0.9-0.4-2-0.5-2.9-0.2c-0.8,0.3-1.7,0.6-2.5,1
		c-0.7,0.3-1.4,0.5-2.1,0.6c-1.4,0-2.8-0.6-3.8-1.6c-0.2-0.2-0.3-0.3-0.5-0.4l0.3,0.5c0.7,1.1,1.7,2.1,2.8,2.8
		c0.7,0.5,1.6,0.6,2.5,0.5c0.9-0.2,1.8-0.5,2.6-1c0.7-0.3,1.5-0.6,2.3-0.8c1.5-0.2,3.1,0.2,4.3,1.2L67.8,45.5L67.8,45.5z"/>
	<path class="st1" d="M135,40.9c0-0.1,0.1-0.1,0.1-0.2c0.1,0,0.1-0.1,0.2-0.1c0.1,0,0.2,0,0.2,0c0.1,0,0.2,0,0.2,0
		c0.1,0,0.1,0.1,0.2,0.1c0.1,0.1,0.1,0.1,0.1,0.2c0,0.1,0.1,0.2,0.1,0.2c0,0.2-0.1,0.3-0.2,0.5c-0.1,0.1-0.1,0.1-0.2,0.1
		c-0.1,0-0.2,0-0.2,0c-0.1,0-0.2,0-0.2,0c-0.1,0-0.1-0.1-0.2-0.1c-0.1-0.1-0.1-0.1-0.1-0.2c0-0.1-0.1-0.2-0.1-0.3
		C134.9,41.1,135,41,135,40.9z M135.1,41.4c0,0.1,0.1,0.1,0.1,0.2c0,0,0.1,0.1,0.1,0.1c0.1,0,0.1,0,0.2,0h0.2c0.1,0,0.1-0.1,0.1-0.1
		c0,0,0.1-0.1,0.1-0.2c0-0.1,0-0.1,0-0.2c0-0.1,0-0.1,0-0.2c0-0.1-0.1-0.1-0.1-0.2c0,0-0.1-0.1-0.1-0.1h-0.2c-0.1,0-0.1,0-0.2,0
		l-0.1,0.1c0,0-0.1,0.1-0.1,0.2c0,0.1,0,0.1,0,0.2C135.1,41.2,135.2,41.3,135.1,41.4L135.1,41.4z"/>
	<path class="st1" d="M135.5,41.2L135.5,41.2c0,0,0,0.1,0,0.1c0,0,0.1,0,0.1,0c0,0,0,0,0,0c0,0,0,0,0-0.1v-0.5h0.1v0.5
		c0,0,0,0.1,0,0.1c-0.1,0.1-0.2,0.1-0.3,0c0,0,0,0,0,0c0-0.1-0.1-0.1-0.1-0.2L135.5,41.2L135.5,41.2z"/>
	<path class="st9" d="M278.3,46.3h-14.7c-0.4,0-0.8-0.4-0.8-0.8c0,0,0,0,0,0V34.9c0-0.4,0.3-0.8,0.8-0.8c0,0,0,0,0,0h14.7
		c0.4,0,0.8,0.4,0.8,0.8v10.6C279.1,45.9,278.7,46.3,278.3,46.3C278.3,46.3,278.3,46.3,278.3,46.3z M264.3,44.7h13.1v-9h-13.1V44.7z
		"/>
	<path class="st9" d="M263.5,46.3c-0.3,0-0.5-0.1-0.7-0.3c-0.3-0.4-0.2-0.9,0.2-1.1l11.3-7.9c0.4-0.2,0.9-0.2,1.1,0.2
		c0.3,0.4,0.2,0.8-0.2,1.1c0,0,0,0,0,0L264,46.2C263.9,46.3,263.7,46.3,263.5,46.3z"/>
	<path class="st9" d="M278.3,49.2h-14.7c-0.4,0-0.8-0.4-0.8-0.8c0-0.4,0.4-0.8,0.8-0.8h14.7c0.4,0,0.8,0.4,0.8,0.8
		C279.1,48.8,278.7,49.2,278.3,49.2C278.3,49.2,278.3,49.2,278.3,49.2z"/>
	<path class="st9" d="M273.7,52.1h-10.1c-0.4,0-0.8-0.4-0.8-0.8c0-0.4,0.4-0.8,0.8-0.8h10.1c0.4,0,0.8,0.4,0.8,0.8
		C274.5,51.7,274.1,52.1,273.7,52.1z"/>
	<path class="st1" d="M286.8,41.1c0.1,0.2,0.2,0.3,0.3,0.4c0.2,0.1,0.3,0.2,0.5,0.2c0.2,0.1,0.4,0.1,0.6,0.1c0.1,0,0.3,0,0.5,0
		c0.2,0,0.3-0.1,0.4-0.1c0.1-0.1,0.2-0.2,0.3-0.3c0.1-0.1,0.1-0.3,0.1-0.4c0-0.2-0.1-0.3-0.2-0.5c-0.1-0.1-0.3-0.2-0.5-0.3
		c-0.2-0.1-0.4-0.2-0.7-0.2l-0.8-0.2c-0.3-0.1-0.5-0.2-0.8-0.2c-0.2-0.1-0.5-0.2-0.7-0.4c-0.2-0.2-0.4-0.3-0.5-0.6
		c-0.1-0.3-0.2-0.5-0.2-0.8c0-0.3,0.1-0.7,0.2-0.9c0.2-0.3,0.4-0.5,0.6-0.7c0.3-0.2,0.5-0.3,0.9-0.4c0.3-0.1,0.6-0.1,0.9-0.1
		c0.4,0,0.7,0,1.1,0.1c0.3,0.1,0.6,0.2,0.9,0.4c0.3,0.2,0.5,0.4,0.6,0.7c0.2,0.3,0.2,0.7,0.2,1h-1.5c0-0.2-0.1-0.4-0.1-0.5
		c-0.1-0.1-0.2-0.3-0.3-0.3c-0.1-0.1-0.3-0.1-0.4-0.2c-0.2,0-0.3-0.1-0.5,0c-0.1,0-0.3,0-0.4,0c-0.1,0-0.2,0.1-0.3,0.1
		c-0.1,0.1-0.2,0.2-0.2,0.2c-0.1,0.1-0.1,0.2-0.1,0.4c0,0.1,0,0.2,0.1,0.3c0.1,0.1,0.2,0.2,0.3,0.2c0.2,0.1,0.4,0.2,0.6,0.2l1.1,0.3
		l0.5,0.1c0.2,0.1,0.5,0.2,0.7,0.3c0.2,0.2,0.4,0.4,0.6,0.6c0.2,0.3,0.3,0.6,0.2,1c0,0.3-0.1,0.6-0.2,0.9c-0.1,0.3-0.3,0.5-0.5,0.7
		c-0.3,0.2-0.6,0.4-0.9,0.5c-0.4,0.1-0.8,0.2-1.3,0.2c-0.4,0-0.8,0-1.1-0.1c-0.4-0.1-0.7-0.2-1-0.5c-0.3-0.2-0.5-0.5-0.7-0.8
		c-0.2-0.3-0.2-0.7-0.2-1.1h1.5C286.6,40.7,286.7,40.9,286.8,41.1z"/>
	<path class="st1" d="M294.7,37.7v0.9h-1v2.5c0,0.2,0,0.3,0.1,0.5c0.1,0.1,0.3,0.1,0.5,0.1h0.2h0.2v1.1c-0.1,0-0.3,0-0.4,0h-0.4
		c-0.2,0-0.4,0-0.6,0c-0.2,0-0.4-0.1-0.5-0.2c-0.1-0.1-0.3-0.2-0.4-0.4c-0.1-0.2-0.1-0.4-0.1-0.6v-3h-0.9v-0.9h0.9v-1.6h1.4v1.5
		H294.7z"/>
	<path class="st1" d="M295.4,39.1c0.1-0.3,0.3-0.6,0.5-0.8c0.2-0.2,0.5-0.4,0.8-0.5c0.3-0.1,0.7-0.2,1.1-0.2c0.4,0,0.7,0.1,1.1,0.2
		c0.3,0.1,0.6,0.3,0.8,0.5c0.2,0.2,0.4,0.5,0.5,0.8c0.1,0.4,0.2,0.7,0.2,1.1c0,0.4-0.1,0.7-0.2,1.1c-0.1,0.3-0.3,0.6-0.5,0.8
		c-0.2,0.2-0.5,0.4-0.8,0.5c-0.3,0.1-0.7,0.2-1.1,0.2c-0.4,0-0.7-0.1-1.1-0.2c-0.3-0.1-0.6-0.3-0.8-0.5c-0.2-0.2-0.4-0.5-0.5-0.8
		c-0.1-0.4-0.2-0.7-0.2-1.1C295.2,39.9,295.2,39.5,295.4,39.1z M296.6,40.8c0,0.2,0.1,0.4,0.2,0.5c0.1,0.2,0.2,0.3,0.4,0.4
		c0.2,0.1,0.4,0.1,0.6,0.1c0.2,0,0.4,0,0.6-0.1c0.2-0.1,0.3-0.2,0.4-0.4c0.1-0.2,0.2-0.3,0.2-0.5c0-0.2,0.1-0.4,0.1-0.6
		c0-0.2,0-0.4-0.1-0.6c0-0.2-0.1-0.4-0.2-0.5c-0.1-0.1-0.2-0.3-0.4-0.4c-0.2-0.1-0.4-0.1-0.6-0.1c-0.2,0-0.4,0-0.6,0.1
		c-0.2,0.1-0.3,0.2-0.4,0.4c-0.1,0.2-0.2,0.3-0.2,0.5c0,0.2-0.1,0.4-0.1,0.6C296.6,40.5,296.6,40.7,296.6,40.8L296.6,40.8z"/>
	<path class="st1" d="M302.4,37.7v1l0,0c0.1-0.2,0.2-0.3,0.3-0.4c0.2-0.3,0.5-0.5,0.8-0.6c0.2-0.1,0.3-0.1,0.5-0.1
		c0.1,0,0.2,0,0.3,0v1.3h-0.2h-0.3c-0.2,0-0.4,0-0.6,0.1c-0.2,0.1-0.3,0.2-0.4,0.3c-0.1,0.2-0.2,0.3-0.2,0.5c0,0.2-0.1,0.4-0.1,0.7
		v2.3h-1.4v-5.1L302.4,37.7z"/>
	<path class="st1" d="M307.1,44.3c-0.3,0.2-0.7,0.3-1.1,0.3h-0.4h-0.4v-1.2h0.4c0.1,0,0.3,0,0.4,0c0.2,0,0.3-0.1,0.4-0.2
		c0.1-0.1,0.1-0.3,0.1-0.4c0-0.1,0-0.2-0.1-0.3l-1.8-4.8h1.5l1.1,3.5l0,0l1.1-3.5h1.5l-2.1,5.7C307.6,43.7,307.4,44.1,307.1,44.3z"
		/>
	<path class="st1" d="M311.7,35.8v2.6l0,0c0.2-0.3,0.4-0.5,0.7-0.6c0.3-0.1,0.6-0.2,0.9-0.2c0.3,0,0.5,0.1,0.8,0.2
		c0.3,0.1,0.5,0.3,0.7,0.5c0.2,0.2,0.4,0.5,0.5,0.8c0.3,0.8,0.3,1.6,0,2.4c-0.1,0.3-0.3,0.6-0.5,0.8c-0.2,0.2-0.4,0.4-0.7,0.5
		c-0.2,0.1-0.5,0.2-0.8,0.2c-0.3,0-0.7-0.1-1-0.2c-0.3-0.1-0.5-0.3-0.7-0.6l0,0v0.7h-1.3v-7L311.7,35.8z M314,39.6
		c0-0.2-0.1-0.4-0.2-0.5c-0.1-0.1-0.2-0.3-0.4-0.4c-0.2-0.1-0.3-0.1-0.5-0.1c-0.2,0-0.4,0-0.5,0.1c-0.1,0.1-0.3,0.2-0.4,0.4
		c-0.1,0.2-0.2,0.3-0.2,0.5c0,0.2-0.1,0.4-0.1,0.6c0,0.2,0,0.4,0.1,0.6c0,0.2,0.1,0.4,0.2,0.5c0.1,0.1,0.2,0.3,0.4,0.4
		c0.2,0.1,0.4,0.1,0.5,0.1c0.2,0,0.4,0,0.5-0.1c0.1-0.1,0.3-0.2,0.4-0.4c0.1-0.2,0.2-0.3,0.2-0.5c0-0.2,0.1-0.4,0.1-0.6
		C314.1,40,314,39.8,314,39.6z"/>
	<path class="st1" d="M316.1,39.1c0.1-0.3,0.3-0.6,0.5-0.8c0.2-0.2,0.5-0.4,0.8-0.5c0.3-0.1,0.7-0.2,1.1-0.2c0.4,0,0.7,0.1,1.1,0.2
		c0.6,0.2,1.1,0.7,1.4,1.4c0.1,0.4,0.2,0.7,0.2,1.1c0,0.4-0.1,0.7-0.2,1.1c-0.1,0.3-0.3,0.6-0.5,0.8c-0.2,0.2-0.5,0.4-0.8,0.5
		c-0.3,0.1-0.7,0.2-1.1,0.2c-0.4,0-0.7-0.1-1.1-0.2c-0.3-0.1-0.6-0.3-0.8-0.5c-0.2-0.2-0.4-0.5-0.5-0.8c-0.1-0.4-0.2-0.7-0.2-1.1
		C315.9,39.9,316,39.5,316.1,39.1z M317.4,40.8c0,0.2,0.1,0.4,0.2,0.5c0.1,0.2,0.2,0.3,0.4,0.4c0.2,0.1,0.4,0.1,0.6,0.1
		c0.2,0,0.4,0,0.6-0.1c0.2-0.1,0.3-0.2,0.4-0.4c0.1-0.2,0.2-0.3,0.2-0.5c0-0.2,0.1-0.4,0.1-0.6c0-0.2,0-0.4-0.1-0.6
		c0-0.2-0.1-0.4-0.2-0.5c-0.1-0.2-0.2-0.3-0.4-0.4c-0.2-0.1-0.4-0.1-0.6-0.1c-0.2,0-0.4,0-0.6,0.1c-0.2,0.1-0.3,0.2-0.4,0.4
		c-0.1,0.2-0.2,0.3-0.2,0.5c0,0.2-0.1,0.4-0.1,0.6C317.3,40.5,317.4,40.7,317.4,40.8L317.4,40.8z"/>
	<path class="st1" d="M322,39.3c0-0.3,0.1-0.6,0.2-0.8c0.1-0.2,0.3-0.4,0.5-0.5c0.2-0.1,0.5-0.2,0.8-0.3c0.3-0.1,0.6-0.1,0.8-0.1
		c0.3,0,0.5,0,0.8,0c0.2,0,0.5,0.1,0.7,0.2c0.2,0.1,0.4,0.3,0.5,0.4c0.1,0.2,0.2,0.5,0.2,0.8v2.7c0,0.2,0,0.4,0,0.7
		c0,0.2,0.1,0.3,0.1,0.5h-1.4c0-0.1-0.1-0.2-0.1-0.2c0-0.1,0-0.2,0-0.2c-0.2,0.2-0.5,0.4-0.8,0.5c-0.3,0.1-0.6,0.1-0.9,0.1
		c-0.2,0-0.5,0-0.7-0.1c-0.2-0.1-0.4-0.1-0.5-0.3c-0.2-0.1-0.3-0.3-0.4-0.5c-0.1-0.2-0.1-0.4-0.1-0.7c0-0.2,0-0.5,0.1-0.7
		c0.1-0.2,0.2-0.3,0.4-0.5c0.2-0.1,0.4-0.2,0.6-0.2c0.2-0.1,0.4-0.1,0.6-0.1l0.6-0.1c0.2,0,0.4,0,0.5-0.1c0.1,0,0.3-0.1,0.4-0.2
		c0.1-0.1,0.1-0.2,0.1-0.3c0-0.1,0-0.2-0.1-0.4c0-0.1-0.1-0.2-0.2-0.2c-0.1-0.1-0.2-0.1-0.3-0.1c-0.1,0-0.2,0-0.4,0
		c-0.2,0-0.5,0-0.6,0.2c-0.2,0.1-0.3,0.4-0.3,0.6L322,39.3z M325.3,40.3c-0.1,0.1-0.1,0.1-0.2,0.1l-0.3,0.1h-0.3l-0.3,0l-0.3,0.1
		c-0.1,0-0.2,0.1-0.3,0.1c-0.1,0-0.1,0.1-0.2,0.2c-0.1,0.1-0.1,0.2-0.1,0.3c0,0.1,0,0.2,0.1,0.3c0,0.1,0.1,0.2,0.2,0.2
		c0.1,0.1,0.2,0.1,0.3,0.1c0.1,0,0.2,0,0.3,0c0.2,0,0.4,0,0.6-0.1c0.1-0.1,0.2-0.2,0.3-0.3c0.1-0.1,0.1-0.3,0.1-0.4
		c0-0.1,0-0.2,0-0.3L325.3,40.3z"/>
	<path class="st1" d="M329.1,37.7v1l0,0c0.1-0.2,0.2-0.3,0.3-0.4c0.1-0.1,0.2-0.2,0.4-0.3c0.1-0.1,0.3-0.2,0.5-0.2
		c0.2-0.1,0.3-0.1,0.5-0.1c0.1,0,0.2,0,0.3,0v1.3h-0.2h-0.3c-0.2,0-0.4,0-0.6,0.1c-0.2,0.1-0.3,0.2-0.4,0.3
		c-0.1,0.2-0.2,0.3-0.2,0.5c0,0.2-0.1,0.4-0.1,0.7v2.3h-1.4v-5.1L329.1,37.7z"/>
	<path class="st1" d="M335,42.1c-0.1,0.3-0.4,0.5-0.6,0.6c-0.6,0.3-1.3,0.3-1.9,0c-0.3-0.1-0.5-0.3-0.7-0.6
		c-0.2-0.3-0.3-0.6-0.4-0.9c-0.1-0.3-0.1-0.7-0.1-1c0-0.3,0-0.7,0.1-1c0.1-0.3,0.2-0.6,0.4-0.8c0.4-0.5,1-0.8,1.7-0.8
		c0.3,0,0.6,0.1,0.9,0.2c0.3,0.1,0.5,0.3,0.6,0.6l0,0v-2.6h1.4v7h-1.3L335,42.1L335,42.1z M335,39.6c0-0.2-0.1-0.4-0.2-0.5
		c-0.1-0.1-0.2-0.3-0.4-0.4c-0.2-0.1-0.4-0.1-0.6-0.1c-0.2,0-0.4,0-0.6,0.1c-0.2,0.1-0.3,0.2-0.4,0.4c-0.1,0.2-0.2,0.3-0.2,0.5
		c0,0.2-0.1,0.4-0.1,0.6c0,0.2,0,0.4,0.1,0.6c0,0.2,0.1,0.4,0.2,0.5c0.1,0.1,0.2,0.3,0.4,0.4c0.2,0.1,0.4,0.2,0.6,0.2
		c0.2,0,0.4,0,0.6-0.1c0.2-0.1,0.3-0.2,0.4-0.4c0.1-0.2,0.2-0.3,0.2-0.5C335.1,40.4,335.1,40,335,39.6L335,39.6z"/>
	<path class="st1" d="M286.8,50.3c0.1,0.2,0.2,0.3,0.3,0.4c0.1,0.1,0.3,0.2,0.5,0.2c0.2,0.1,0.4,0.1,0.6,0.1c0.1,0,0.3,0,0.5,0
		c0.2,0,0.3-0.1,0.4-0.1c0.1-0.1,0.2-0.2,0.3-0.3c0.2-0.3,0.2-0.6,0-0.9c-0.1-0.1-0.3-0.2-0.5-0.3c-0.2-0.1-0.4-0.2-0.7-0.2
		c-0.2-0.1-0.5-0.1-0.8-0.2c-0.3-0.1-0.5-0.1-0.8-0.2c-0.2-0.1-0.5-0.2-0.7-0.4c-0.2-0.2-0.4-0.3-0.5-0.6c-0.1-0.3-0.2-0.5-0.2-0.8
		c0-0.3,0.1-0.7,0.2-0.9c0.2-0.3,0.4-0.5,0.6-0.7c0.3-0.2,0.5-0.3,0.9-0.4c0.3-0.1,0.6-0.1,0.9-0.1c0.4,0,0.7,0,1.1,0.1
		c0.3,0.1,0.6,0.2,0.9,0.4c0.3,0.2,0.5,0.4,0.6,0.7c0.2,0.3,0.2,0.7,0.2,1h-1.5c0-0.2-0.1-0.4-0.1-0.5c-0.1-0.1-0.2-0.3-0.3-0.3
		c-0.1-0.1-0.3-0.1-0.4-0.2c-0.2,0-0.3,0-0.5,0c-0.1,0-0.3,0-0.4,0c-0.1,0-0.2,0.1-0.3,0.1c-0.1,0.1-0.2,0.2-0.2,0.2
		c-0.1,0.1-0.1,0.2-0.1,0.4c0,0.1,0,0.2,0.1,0.3c0.1,0.1,0.2,0.2,0.3,0.2c0.2,0.1,0.4,0.2,0.6,0.2l1.1,0.3c0.1,0,0.3,0.1,0.5,0.1
		c0.2,0.1,0.5,0.2,0.7,0.3c0.2,0.2,0.4,0.4,0.6,0.6c0.2,0.3,0.3,0.6,0.2,1c0,0.3-0.1,0.6-0.2,0.9c-0.1,0.3-0.3,0.5-0.5,0.7
		c-0.3,0.2-0.6,0.4-0.9,0.5c-0.4,0.1-0.8,0.2-1.3,0.2c-0.4,0-0.8-0.1-1.2-0.2c-0.4-0.1-0.7-0.2-1-0.5c-0.3-0.2-0.5-0.5-0.7-0.8
		c-0.2-0.4-0.2-0.7-0.2-1.1h1.5C286.6,49.9,286.7,50.1,286.8,50.3z"/>
	<path class="st1" d="M293.2,46.9v0.7l0,0c0.2-0.3,0.4-0.5,0.6-0.6c0.3-0.1,0.6-0.2,0.9-0.2c0.3,0,0.7,0.1,1,0.2
		c0.3,0.1,0.5,0.3,0.7,0.6c0.2,0.3,0.3,0.6,0.4,0.9c0.1,0.3,0.1,0.7,0.1,1c0,0.3,0,0.7-0.1,1c-0.1,0.3-0.2,0.6-0.4,0.8
		c-0.2,0.2-0.4,0.4-0.7,0.6c-0.3,0.2-0.7,0.2-1,0.2c-0.3,0-0.6-0.1-0.9-0.2c-0.3-0.1-0.5-0.3-0.7-0.6l0,0v2.4h-1.4v-6.9H293.2z
		 M295,50.9c0.1-0.1,0.3-0.2,0.4-0.4c0.1-0.2,0.2-0.3,0.2-0.5c0-0.2,0.1-0.4,0.1-0.6c0-0.2,0-0.4-0.1-0.6c0-0.2-0.1-0.4-0.2-0.5
		c-0.1-0.1-0.2-0.2-0.4-0.3c-0.2-0.1-0.4-0.1-0.6-0.1c-0.2,0-0.4,0-0.6,0.1c-0.2,0.1-0.3,0.2-0.4,0.4c-0.1,0.2-0.2,0.3-0.2,0.5
		c0,0.2-0.1,0.4-0.1,0.6c0,0.2,0,0.4,0.1,0.6c0,0.2,0.1,0.4,0.2,0.5c0.1,0.1,0.2,0.3,0.4,0.4C294.2,51.2,294.7,51.2,295,50.9
		L295,50.9z"/>
	<path class="st1" d="M299.4,50.8c0.3,0.2,0.6,0.3,0.9,0.3c0.3,0,0.5-0.1,0.7-0.2c0.2-0.1,0.3-0.3,0.4-0.5h1.2
		c-0.1,0.5-0.5,1-0.9,1.3c-0.4,0.3-1,0.4-1.5,0.4c-0.4,0-0.7-0.1-1.1-0.2c-0.3-0.1-0.6-0.3-0.8-0.5c-0.2-0.2-0.4-0.5-0.5-0.8
		c-0.1-0.3-0.2-0.7-0.2-1.1c0-0.4,0.1-0.7,0.2-1.1c0.1-0.3,0.3-0.6,0.5-0.8c0.2-0.2,0.5-0.4,0.8-0.6c0.3-0.1,0.7-0.2,1.1-0.2
		c0.4,0,0.8,0.1,1.1,0.3c0.3,0.2,0.6,0.4,0.8,0.7c0.2,0.3,0.4,0.6,0.5,1c0.1,0.4,0.1,0.8,0.1,1.1H299
		C299,50.2,299.1,50.5,299.4,50.8z M301,48.1c-0.2-0.2-0.5-0.3-0.8-0.3c-0.2,0-0.4,0-0.5,0.1c-0.1,0.1-0.3,0.2-0.4,0.3
		c-0.1,0.1-0.1,0.2-0.2,0.4c0,0.1,0,0.2-0.1,0.3h2.3C301.3,48.6,301.2,48.3,301,48.1z"/>
	<path class="st1" d="M306,47.8c-0.2,0-0.4,0-0.6,0.2c-0.2,0.1-0.3,0.2-0.4,0.4c-0.1,0.2-0.2,0.3-0.2,0.5c0,0.2-0.1,0.4-0.1,0.6
		c0,0.2,0,0.4,0.1,0.6c0,0.2,0.1,0.4,0.2,0.5c0.1,0.2,0.2,0.3,0.4,0.4c0.2,0.1,0.4,0.1,0.5,0.1c0.3,0,0.6-0.1,0.8-0.3
		c0.2-0.2,0.3-0.5,0.3-0.8h1.4c-0.1,0.6-0.3,1.2-0.8,1.5c-0.5,0.4-1.1,0.6-1.7,0.5c-0.3,0-0.7-0.1-1-0.2c-0.3-0.1-0.6-0.3-0.8-0.5
		c-0.2-0.2-0.4-0.5-0.5-0.8c-0.1-0.3-0.2-0.7-0.2-1c0-0.4,0.1-0.7,0.2-1.1c0.1-0.3,0.3-0.6,0.5-0.9c0.2-0.3,0.5-0.4,0.8-0.6
		c0.3-0.1,0.7-0.2,1.1-0.2c0.3,0,0.6,0,0.9,0.1c0.3,0.1,0.5,0.2,0.8,0.4c0.2,0.2,0.4,0.4,0.5,0.6c0.1,0.3,0.2,0.6,0.2,0.9H307
		C307,48.2,306.6,47.8,306,47.8C306,47.8,306,47.8,306,47.8z"/>
	<path class="st1" d="M309.2,46.1V45h1.4v1.1H309.2z M310.6,46.9V52h-1.4v-5.1L310.6,46.9z"/>
	<path class="st1" d="M311.7,48.5c0-0.3,0.1-0.6,0.2-0.8c0.1-0.2,0.3-0.4,0.5-0.5c0.2-0.1,0.5-0.2,0.8-0.3c0.3-0.1,0.6-0.1,0.9-0.1
		c0.3,0,0.5,0,0.8,0.1c0.2,0,0.5,0.1,0.7,0.2c0.2,0.1,0.4,0.3,0.5,0.4c0.1,0.2,0.2,0.5,0.2,0.7v2.7c0,0.2,0,0.4,0,0.7
		c0,0.2,0.1,0.3,0.1,0.5H315l-0.1-0.2c0-0.1,0-0.2,0-0.2c-0.2,0.2-0.5,0.4-0.8,0.5c-0.3,0.1-0.6,0.1-0.9,0.1c-0.2,0-0.5,0-0.7-0.1
		c-0.2-0.1-0.4-0.1-0.5-0.3c-0.2-0.1-0.3-0.3-0.4-0.5c-0.1-0.2-0.1-0.4-0.1-0.7c0-0.2,0-0.5,0.2-0.7c0.1-0.2,0.2-0.3,0.4-0.5
		c0.2-0.1,0.4-0.2,0.5-0.2c0.2-0.1,0.4-0.1,0.6-0.1l0.6-0.1c0.2,0,0.4,0,0.5-0.1c0.1,0,0.3-0.1,0.4-0.2c0.1-0.1,0.1-0.2,0.1-0.3
		c0-0.1,0-0.2-0.1-0.4c0-0.1-0.1-0.2-0.2-0.2c-0.1,0-0.2-0.1-0.3-0.1c-0.1,0-0.2,0-0.4,0c-0.2,0-0.5,0-0.6,0.2
		c-0.2,0.1-0.3,0.4-0.3,0.6L311.7,48.5z M314.9,49.5c-0.1,0.1-0.1,0.1-0.2,0.1c-0.1,0-0.2,0.1-0.3,0.1l-0.3,0h-0.3l-0.3,0.1
		c-0.1,0-0.2,0.1-0.3,0.1c-0.1,0.1-0.1,0.1-0.2,0.2c0,0.1-0.1,0.2-0.1,0.3c0,0.1,0,0.2,0.1,0.3c0,0.1,0.1,0.1,0.2,0.2
		c0.1,0.1,0.2,0.1,0.3,0.1c0.1,0,0.2,0,0.3,0c0.2,0,0.4,0,0.6-0.1c0.1-0.1,0.3-0.2,0.3-0.3c0.1-0.1,0.1-0.3,0.1-0.4
		c0-0.1,0-0.2,0-0.3L314.9,49.5z"/>
	<path class="st1" d="M318.9,45v7h-1.4v-7H318.9z"/>
	<path class="st1" d="M320,46.1V45h1.4v1.1H320z M321.4,46.9V52H320v-5.1L321.4,46.9z"/>
	<path class="st1" d="M323.7,50.7c0.1,0.1,0.1,0.2,0.2,0.3c0.1,0.1,0.2,0.1,0.3,0.2c0.1,0,0.3,0,0.4,0h0.3c0.1,0,0.2-0.1,0.3-0.1
		c0.1-0.1,0.2-0.1,0.2-0.2c0.1-0.1,0.1-0.2,0.1-0.3c0-0.2-0.1-0.4-0.4-0.5c-0.4-0.1-0.8-0.2-1.2-0.3c-0.2,0-0.4-0.1-0.6-0.2
		c-0.2-0.1-0.4-0.1-0.5-0.2c-0.1-0.1-0.3-0.2-0.4-0.4c-0.1-0.2-0.1-0.4-0.1-0.6c0-0.3,0.1-0.6,0.2-0.8c0.1-0.2,0.3-0.4,0.5-0.5
		c0.2-0.1,0.5-0.2,0.7-0.3c0.3-0.1,0.5-0.1,0.8-0.1c0.3,0,0.5,0,0.8,0.1c0.2,0.1,0.5,0.1,0.7,0.3c0.2,0.1,0.4,0.3,0.5,0.5
		c0.1,0.2,0.2,0.5,0.2,0.8h-1.3c0-0.2-0.1-0.4-0.3-0.5c-0.2-0.1-0.4-0.1-0.6-0.1h-0.3c-0.1,0-0.2,0-0.2,0.1c-0.1,0-0.1,0.1-0.2,0.1
		c-0.1,0.1-0.1,0.2-0.1,0.2c0,0.1,0,0.2,0.1,0.3c0.1,0.1,0.2,0.2,0.4,0.2c0.2,0.1,0.3,0.1,0.5,0.1l0.6,0.1L326,49
		c0.2,0.1,0.4,0.1,0.5,0.3c0.2,0.1,0.3,0.2,0.4,0.4c0.1,0.2,0.1,0.4,0.1,0.6c0,0.3-0.1,0.6-0.2,0.8c-0.1,0.2-0.3,0.4-0.5,0.5
		c-0.2,0.1-0.5,0.2-0.8,0.3c-0.3,0.1-0.6,0.1-0.9,0.1c-0.3,0-0.6,0-0.9-0.1c-0.3-0.1-0.5-0.2-0.8-0.3c-0.2-0.1-0.4-0.3-0.5-0.5
		c-0.1-0.3-0.2-0.6-0.2-0.9h1.3C323.6,50.4,323.6,50.6,323.7,50.7z"/>
	<path class="st1" d="M330.6,46.9v0.9h-1v2.5c0,0.2,0,0.3,0.1,0.5c0.1,0.1,0.3,0.1,0.5,0.1h0.2h0.2V52h-0.4h-0.4c-0.2,0-0.4,0-0.6,0
		c-0.2,0-0.4-0.1-0.5-0.2c-0.2-0.1-0.3-0.2-0.4-0.4c-0.1-0.2-0.1-0.4-0.1-0.6v-3h-0.9v-0.9h0.9v-1.5h1.4v1.5H330.6z"/>
	<path class="st1" d="M332.4,50.7c0.1,0.1,0.1,0.2,0.2,0.3c0.1,0.1,0.2,0.1,0.3,0.2c0.1,0,0.3,0,0.4,0h0.3c0.1,0,0.2-0.1,0.3-0.1
		c0.1-0.1,0.2-0.1,0.2-0.2c0.1-0.1,0.1-0.2,0.1-0.3c0-0.2-0.1-0.4-0.4-0.5c-0.4-0.1-0.8-0.2-1.2-0.3c-0.2,0-0.4-0.1-0.6-0.2
		c-0.2-0.1-0.4-0.1-0.5-0.2c-0.1-0.1-0.3-0.2-0.4-0.4c-0.1-0.2-0.2-0.4-0.1-0.6c0-0.3,0.1-0.6,0.2-0.8c0.1-0.2,0.3-0.4,0.5-0.5
		c0.2-0.1,0.5-0.2,0.7-0.3c0.5-0.1,1.1-0.1,1.6,0c0.2,0.1,0.5,0.1,0.7,0.3c0.2,0.1,0.4,0.3,0.5,0.5c0.1,0.2,0.2,0.5,0.2,0.8h-1.3
		c0-0.2-0.1-0.4-0.3-0.5c-0.2-0.1-0.4-0.1-0.6-0.1h-0.3c-0.1,0-0.2,0-0.2,0.1c-0.1,0-0.1,0.1-0.2,0.1c-0.1,0.1-0.1,0.2-0.1,0.2
		c0,0.1,0,0.2,0.1,0.3c0.1,0.1,0.2,0.2,0.4,0.2c0.2,0.1,0.3,0.1,0.5,0.1l0.6,0.1l0.6,0.2c0.2,0.1,0.4,0.1,0.5,0.3
		c0.1,0.1,0.3,0.2,0.4,0.4c0.1,0.2,0.1,0.4,0.1,0.6c0,0.3-0.1,0.6-0.2,0.8c-0.1,0.2-0.3,0.4-0.5,0.5c-0.2,0.1-0.5,0.2-0.7,0.3
		c-0.3,0.1-0.6,0.1-0.9,0.1c-0.3,0-0.6,0-0.9-0.1c-0.3-0.1-0.5-0.2-0.8-0.3c-0.2-0.1-0.4-0.3-0.5-0.5c-0.2-0.3-0.2-0.6-0.2-0.9h1.3
		C332.3,50.4,332.4,50.6,332.4,50.7z"/>
	<path class="st1" d="M336.2,46.9c0-0.1,0.1-0.1,0.1-0.2c0,0,0.1-0.1,0.2-0.1c0.1,0,0.1,0,0.2,0c0.1,0,0.1,0,0.2,0
		c0.1,0,0.1,0.1,0.2,0.1c0,0,0.1,0.1,0.1,0.2c0,0.1,0,0.1,0,0.2c0,0.1,0,0.1,0,0.2c0,0.1-0.1,0.1-0.1,0.2c0,0-0.1,0.1-0.2,0.1
		c-0.1,0-0.1,0-0.2,0c-0.1,0-0.1,0-0.2,0c-0.1,0-0.1-0.1-0.2-0.1c-0.1,0-0.1-0.1-0.1-0.2c0-0.1,0-0.1,0-0.2
		C336.2,47,336.2,46.9,336.2,46.9z M336.3,47.2c0,0,0,0.1,0.1,0.1c0,0,0.1,0.1,0.1,0.1h0.1c0.1,0,0.2,0,0.3-0.1c0,0,0.1-0.1,0.1-0.1
		c0-0.1,0-0.1,0-0.2c0,0,0-0.1,0-0.2c0,0,0-0.1-0.1-0.1c-0.1-0.1-0.2-0.1-0.3-0.1c0,0-0.1,0-0.1,0c0,0-0.1,0-0.1,0.1
		c0,0-0.1,0.1-0.1,0.1c0,0,0,0.1,0,0.2C336.3,47.1,336.3,47.1,336.3,47.2z"/>
	<path class="st1" d="M336.6,47.1L336.6,47.1C336.6,47.1,336.6,47.2,336.6,47.1L336.6,47.1L336.6,47.1L336.6,47.1v-0.3h0.1v0.4
		c0,0,0,0.1,0,0.1c0,0-0.1,0.1-0.1,0.1c0,0-0.1,0-0.1,0c0,0,0-0.1,0-0.2L336.6,47.1L336.6,47.1z"/>
	<path class="st1" d="M462.7,230.1c-0.3-0.8-1.1-1.4-2-1.4c-1.3,0.1-2.3,1.3-2.2,2.6c0.1,1.2,1,2.1,2.2,2.2c0.9,0,1.7-0.5,2-1.4h2.2
		c-0.5,1.9-2.2,3.2-4.1,3.2c-1.1,0-2.2-0.4-3-1.2c-0.8-0.8-1.3-2-1.2-3.1c0.1-2.3,1.9-4.1,4.2-4.1c1,0,2.1,0.3,2.8,1
		c0.7,0.6,1.2,1.4,1.4,2.2H462.7z"/>
	<path class="st1" d="M465.9,235.2v-6.1h1.7v0.6l0,0c0.3-0.6,0.9-0.9,1.5-0.9v1.8c-1.1,0-1.4,0.4-1.4,1.1v3.4L465.9,235.2z"/>
	<path class="st1" d="M472.8,235.4c-1.8,0-3.2-1.5-3.2-3.3s1.5-3.2,3.3-3.2c1.8,0,3.2,1.5,3.2,3.2c0,1.8-1.3,3.2-3.1,3.3
		C472.9,235.4,472.8,235.4,472.8,235.4z M474.2,232.1c0-0.8-0.7-1.4-1.5-1.4c-0.8,0-1.4,0.7-1.4,1.5c0,0.8,0.7,1.4,1.5,1.4
		C473.6,233.7,474.3,233,474.2,232.1C474.2,232.1,474.2,232.1,474.2,232.1L474.2,232.1z"/>
	<path class="st1" d="M479.7,230.8c0-0.4-0.3-0.5-0.6-0.5s-0.5,0.2-0.5,0.4s0.3,0.5,1.1,0.7c1.5,0.4,1.9,1,1.9,1.9
		c-0.1,1.2-1.1,2.2-2.4,2.1c0,0-0.1,0-0.1,0c-1.2,0.1-2.3-0.8-2.5-2h1.8c0,0.3,0.3,0.6,0.7,0.6c0,0,0,0,0,0c0.3,0,0.6-0.2,0.6-0.5
		s-0.2-0.5-1.1-0.8c-1.5-0.5-2-1.1-2-1.8c0.1-1.2,1.1-2.1,2.3-2c0,0,0,0,0,0c1.2-0.1,2.2,0.7,2.3,1.8c0,0,0,0.1,0,0.1L479.7,230.8z"
		/>
	<path class="st1" d="M485.2,230.8c0-0.4-0.3-0.5-0.6-0.5s-0.5,0.2-0.5,0.4s0.3,0.5,1.1,0.7c1.5,0.4,1.9,1,1.9,1.9
		c-0.1,1.2-1.1,2.2-2.3,2.1c0,0-0.1,0-0.1,0c-1.2,0.1-2.3-0.8-2.5-2h1.8c0,0.3,0.4,0.6,0.7,0.6c0.3,0,0.6-0.2,0.6-0.5
		s-0.2-0.5-1.1-0.8c-1.5-0.5-1.9-1.1-1.9-1.8c0.1-1.2,1.1-2.1,2.3-2c0,0,0,0,0,0c1.2-0.1,2.2,0.7,2.3,1.9c0,0,0,0,0,0.1L485.2,230.8
		z"/>
	<path class="st1" d="M508.6,235.2V227h2.6c0.4,0,0.9,0,1.3,0.1c1,0.2,1.7,1,1.7,2c0,0.7-0.3,1.3-0.9,1.6c0.8,0.2,1.4,1,1.3,1.9
		c0,0.8-0.4,1.5-1,1.9c-0.7,0.5-1.5,0.7-2.3,0.6L508.6,235.2z M511.4,230.1c0.5,0,0.8-0.2,0.8-0.6s-0.3-0.6-0.8-0.6h-0.8v1.3H511.4z
		 M511.6,233.4c0.6,0,1-0.2,1-0.8s-0.3-0.7-0.9-0.7h-1.1v1.5H511.6z"/>
	<path class="st1" d="M515.6,235.2v-6.1h1.7v0.6l0,0c0.3-0.6,0.9-0.9,1.5-0.9v1.8c-1.1,0-1.4,0.4-1.4,1.1v3.4L515.6,235.2z"/>
	<path class="st1" d="M522.5,235.4c-1.8,0-3.2-1.5-3.2-3.3s1.5-3.2,3.3-3.2c1.8,0,3.2,1.5,3.2,3.2c0,1.8-1.4,3.2-3.1,3.3
		C522.6,235.4,522.6,235.4,522.5,235.4z M524,232.1c0-0.8-0.7-1.4-1.5-1.4c-0.8,0-1.4,0.7-1.4,1.5c0,0.8,0.7,1.4,1.5,1.4
		C523.4,233.7,524,233,524,232.1C524,232.1,524,232.1,524,232.1L524,232.1z"/>
	<path class="st1" d="M531.7,235.2l-1-4l0,0l-1,4H528l-1.9-6.1h1.9l0.9,3.8l0,0l1-3.8h1.5l1,3.8l0,0l0.9-3.8h1.9l-1.9,6.1H531.7z"/>
	<path class="st1" d="M538.6,230.8c0-0.4-0.3-0.5-0.6-0.5s-0.5,0.2-0.5,0.4s0.3,0.5,1.2,0.7c1.5,0.4,1.9,1,1.9,1.9
		c-0.1,1.2-1.1,2.2-2.3,2.1c0,0-0.1,0-0.1,0c-1.2,0.1-2.3-0.8-2.5-2h1.8c0,0.3,0.3,0.6,0.7,0.6c0,0,0,0,0,0c0.3,0,0.6-0.2,0.6-0.5
		s-0.2-0.5-1.1-0.8c-1.5-0.5-1.9-1.1-1.9-1.8c0.1-1.2,1.1-2.1,2.3-2c0,0,0,0,0,0c1.2-0.1,2.2,0.7,2.3,1.9c0,0,0,0,0,0.1L538.6,230.8
		z"/>
	<path class="st1" d="M543,232.7c0.1,0.7,0.7,1.2,1.4,1.1c0.4,0,0.9-0.2,1.1-0.6h1.9c-0.5,1.3-1.7,2.1-3,2.1c-1.8,0-3.3-1.4-3.3-3.2
		c0-1.8,1.4-3.3,3.2-3.3s3.3,1.4,3.3,3.2c0,0,0,0.1,0,0.1c0,0.2,0,0.3,0,0.5H543z M545.8,231.5c-0.2-0.8-1-1.2-1.8-1
		c-0.5,0.1-0.8,0.5-1,1H545.8z"/>
	<path class="st1" d="M547.6,228.3c0-0.1,0.1-0.1,0.1-0.2c0.1-0.1,0.2-0.1,0.3-0.1c0.1,0,0.1,0,0.2,0l0.2,0.1c0,0,0.1,0.1,0.1,0.2
		c0,0.1,0,0.1,0,0.2c0,0.1,0,0.1,0,0.2c0,0.1-0.1,0.1-0.1,0.2c0,0-0.1,0.1-0.2,0.1c-0.1,0-0.1,0-0.2,0c-0.1,0-0.1,0-0.2,0
		c-0.1,0-0.1-0.1-0.2-0.1c-0.1,0-0.1-0.1-0.1-0.2c0-0.1,0-0.1,0-0.2C547.6,228.4,547.6,228.3,547.6,228.3z M547.8,228.6
		c0,0,0,0.1,0.1,0.1c0,0,0.1,0.1,0.1,0.1c0,0,0.1,0,0.1,0c0,0,0.1,0,0.2,0c0,0,0.1,0,0.1-0.1c0,0,0.1-0.1,0.1-0.1c0,0,0-0.1,0-0.1
		c0-0.1,0-0.1,0-0.2c0,0,0-0.1-0.1-0.1c0,0-0.1-0.1-0.1-0.1c0,0-0.1,0-0.2,0c0,0-0.1,0-0.1,0c0,0-0.1,0-0.1,0.1c0,0-0.1,0.1-0.1,0.1
		c0,0.1,0,0.1,0,0.2C547.8,228.5,547.8,228.6,547.8,228.6z"/>
	<path class="st1" d="M548,228.5L548,228.5C548,228.5,548,228.6,548,228.5 M548,228.6L548,228.6v-0.4h0.1v0.4c0,0,0,0.1,0,0.1
		c0,0-0.1,0.1-0.1,0.1s-0.1,0-0.1,0c0,0,0-0.1,0-0.1L548,228.6L548,228.6z"/>
	
		<linearGradient id="SVGID_1_" gradientUnits="userSpaceOnUse" x1="503.9523" y1="138.1323" x2="492.7323" y2="149.0823" gradientTransform="matrix(1 0 0 -1 0 376)">
		<stop  offset="0.28" style="stop-color:#FDC812"/>
		<stop  offset="0.67" style="stop-color:#F3903F"/>
		<stop  offset="0.89" style="stop-color:#ED673C"/>
		<stop  offset="1" style="stop-color:#E93F39"/>
	</linearGradient>
	<polygon class="st10" points="506.4,237.3 507.5,236.2 493.3,222.1 492.3,223.1 491.2,224.2 491.2,224.2 490.1,225.2 490.1,225.2 
		489,226.3 488,227.4 502.2,241.5 503.2,240.5 490.1,227.4 491.2,226.3 504.3,239.4 505.3,238.4 492.2,225.2 493.3,224.2 	"/>
	
		<linearGradient id="SVGID_2_" gradientUnits="userSpaceOnUse" x1="488.01" y1="144.2" x2="507.46" y2="144.2" gradientTransform="matrix(1 0 0 -1 0 376)">
		<stop  offset="0" style="stop-color:#FCEF44"/>
		<stop  offset="5.000000e-02" style="stop-color:#FCE234"/>
		<stop  offset="0.12" style="stop-color:#FDD421"/>
		<stop  offset="0.2" style="stop-color:#FDCB16"/>
		<stop  offset="0.28" style="stop-color:#FDC812"/>
		<stop  offset="0.67" style="stop-color:#F3903F"/>
		<stop  offset="0.89" style="stop-color:#ED673C"/>
		<stop  offset="1" style="stop-color:#E93F39"/>
	</linearGradient>
	<polygon class="st11" points="506.4,226.3 493.3,239.4 492.2,238.4 505.3,225.2 504.3,224.2 491.2,237.3 490.1,236.2 503.2,223.1 
		502.2,222.1 489,235.2 488,236.2 489,237.3 489,237.3 490.1,238.4 490.1,238.4 491.2,239.4 491.2,239.4 492.3,240.5 492.3,240.5 
		493.3,241.5 494.3,240.5 507.5,227.4 	"/>
	<path class="st12" d="M330.1,229.5v1.9c0,0.8-0.2,1.3-1,1.4c-0.2,0-0.3,0.1-0.3,0.4c0,1.2-0.2,3-0.2,4.2c0,0.6-0.4,1.2-1.1,1.3
		h-1.9c-0.6,0-1.2-0.5-1.2-1.1c0-0.1,0-0.2,0-0.3c0-1.2-0.2-2.9-0.2-4.1c0-0.3-0.1-0.3-0.3-0.4c-0.7-0.1-0.9-0.5-1-1.1
		c0-0.1,0-0.1,0-0.2c0-1.3,0-2.6,0-4c0-0.9,0.7-1.6,1.5-1.6c0,0,0,0,0,0c1.4,0,2.9,0,4.3,0c0.9,0,1.6,0.7,1.6,1.6c0,0,0,0,0,0
		L330.1,229.5L330.1,229.5z"/>
	<path class="st12" d="M326.4,224.8c-0.2,0-0.4-0.1-0.5-0.2l-1.8-1.8c-0.3-0.3-0.3-0.8,0-1.1c0,0,0,0,0,0l1.8-1.8
		c0.1-0.1,0.3-0.2,0.5-0.2c0.2,0,0.4,0.1,0.5,0.2l1.8,1.8c0.3,0.3,0.3,0.7,0,1c0,0,0,0,0,0l-1.8,1.8
		C326.8,224.7,326.6,224.8,326.4,224.8z M324.8,222.2l1.7,1.6l1.7-1.6l-1.7-1.6L324.8,222.2z"/>
	<path class="st1" d="M274.8,235.3c0,0.5,0,1-0.1,1.6c-0.1,0.3-0.3,0.6-0.5,0.9c-0.3,0.3-0.6,0.5-1,0.6c-0.5,0.1-1,0.2-1.6,0.2
		c-0.5,0-1.1,0-1.6-0.2c-0.4-0.1-0.7-0.3-1-0.6c-0.3-0.3-0.4-0.6-0.5-1c-0.1-0.6-0.2-1.3-0.2-1.9v-0.5h2.8v1.2c0,0.3,0,0.6,0.1,0.9
		c0,0.2,0.2,0.2,0.4,0.2c0.4,0,0.6-0.3,0.6-1c0-0.3,0-0.7-0.1-1c-0.1-0.3-0.2-0.5-0.4-0.7c-0.8-0.6-1.6-1.2-2.3-1.8
		c-0.8-0.8-1.2-1.9-1.1-3c0-0.4,0-0.8,0.1-1.2c0-0.4,0.2-0.7,0.3-1c0.2-0.4,0.6-0.7,1-0.8c0.6-0.2,1.2-0.2,1.8-0.2
		c0.6,0,1.1,0,1.7,0.1c0.4,0.1,0.7,0.3,1,0.6c0.3,0.3,0.5,0.7,0.5,1.1c0.1,0.5,0.1,1,0.1,1.5v0.2h-2.7v-0.6c0-0.2,0-0.4,0-0.6
		c0-0.2-0.2-0.4-0.4-0.4c0,0,0,0,0,0c-0.4,0-0.5,0.3-0.5,1c0,0.4,0.1,0.8,0.2,1.1c0.5,0.4,1,0.8,1.5,1.1c0.8,0.4,1.4,1.1,1.9,1.9
		C274.8,233.6,274.9,234.4,274.8,235.3z"/>
	<path class="st1" d="M282.2,238.4h-2.9l0-0.9c-0.2,0.3-0.4,0.5-0.7,0.7c-0.3,0.1-0.7,0.2-1,0.2h-0.2c-0.2,0-0.5,0-0.7-0.1
		c-0.2,0-0.4-0.2-0.5-0.3c-0.2-0.3-0.4-0.6-0.5-0.9c-0.1-0.5-0.1-1-0.1-1.5v-7.5h2.9v8c0,0.2,0,0.4,0.1,0.5c0.1,0.1,0.2,0.2,0.3,0.2
		c0.2,0,0.4-0.1,0.4-0.4c0-0.2,0-0.3,0-0.5v-7.8h2.9L282.2,238.4z"/>
	<path class="st1" d="M287.8,231.5h-0.2c-0.7,0-1.1,0.2-1.3,0.7c-0.2,0.7-0.2,1.4-0.2,2.1v4.1h-2.8v-10.3h2.8l-0.1,1.4
		c0.2-0.4,0.4-0.8,0.7-1.1c0.3-0.3,0.7-0.4,1.1-0.5V231.5z"/>
	<path class="st1" d="M294.9,234.8v0.3c0,0.4,0,0.8-0.1,1.2c-0.1,0.4-0.2,0.7-0.5,1c-0.2,0.4-0.6,0.7-1,0.9c-0.5,0.2-1,0.3-1.5,0.2
		c-0.7,0-1.4-0.1-2-0.4c-0.5-0.3-0.9-0.8-1.1-1.4c-0.1-0.3-0.2-0.7-0.2-1c0-0.4,0-0.7,0-0.9v-3c0-0.4,0-0.8,0-1.1
		c0-0.3,0.1-0.6,0.2-0.9c0.2-0.5,0.5-0.9,1-1.2c0.6-0.3,1.2-0.4,1.8-0.4c0.5,0,1.1,0.1,1.6,0.3c0.4,0.2,0.8,0.5,1,0.9
		c0.2,0.4,0.4,0.8,0.5,1.2c0.1,0.5,0.1,1.1,0.1,1.6v1.4h-3.5v2.2c0,0.3,0,0.5,0,0.8c0,0.2,0.1,0.3,0.4,0.3c0.2,0,0.4-0.1,0.4-0.3
		c0.1-0.2,0.1-0.5,0.1-0.8v-1.2h2.5L294.9,234.8z M292.2,231.7v-1.1c0-0.3,0-0.5-0.1-0.8c0-0.1-0.2-0.2-0.3-0.2
		c-0.1,0-0.3,0-0.4,0.2c-0.1,0.2-0.1,0.4-0.1,0.6v1.2H292.2z"/>
	<path class="st1" d="M303.6,238.4h-3.3v-5.3h-1v5.3h-3.3v-12.6h3.3v4.5h1v-4.5h3.3V238.4z"/>
	<path class="st1" d="M307.9,227.4h-3.1v-1.6h3.1V227.4z M307.9,238.4h-3.1v-10.3h3.1V238.4z"/>
	<path class="st1" d="M313.6,231.5h-0.2c-0.7,0-1.1,0.2-1.3,0.7c-0.1,0.7-0.2,1.4-0.2,2.1v4.1h-2.9v-10.3h2.9l-0.1,1.4
		c0.2-0.4,0.4-0.8,0.7-1.1c0.3-0.3,0.7-0.5,1.1-0.5V231.5z"/>
	<path class="st1" d="M320.7,234.8v0.3c0,0.4,0,0.8-0.1,1.2c-0.1,0.4-0.3,0.7-0.5,1c-0.2,0.4-0.6,0.7-1,0.9c-0.5,0.2-1,0.3-1.5,0.2
		c-0.7,0-1.4-0.1-2-0.4c-0.5-0.3-0.9-0.8-1.1-1.4c-0.1-0.3-0.2-0.7-0.2-1c0-0.4,0-0.7,0-0.9v-3c0-0.4,0-0.8,0-1.1
		c0-0.3,0.1-0.6,0.2-0.9c0.2-0.5,0.5-0.9,1-1.2c0.6-0.3,1.2-0.4,1.8-0.4c0.5,0,1.1,0.1,1.6,0.3c0.4,0.2,0.8,0.5,1,0.9
		c0.2,0.4,0.4,0.8,0.5,1.2c0.1,0.5,0.1,1.1,0.1,1.6v1.4h-3.5v2.2c0,0.3,0,0.6,0,0.8s0.2,0.3,0.4,0.3c0.2,0,0.4-0.1,0.4-0.3
		c0.1-0.2,0.1-0.5,0.1-0.8v-1.2h2.5L320.7,234.8z M318,231.7v-1.1c0-0.3,0-0.5-0.1-0.8c0-0.1-0.2-0.2-0.3-0.2c-0.1,0-0.3,0-0.4,0.2
		c-0.1,0.2-0.1,0.4-0.1,0.6v1.2H318z"/>
	<path class="st12" d="M330.8,226.5c0-0.1,0.1-0.1,0.1-0.2c0-0.1,0.1-0.1,0.2-0.1c0.1,0,0.1,0,0.2,0c0.1,0,0.1,0,0.2,0
		c0.1,0,0.1,0.1,0.2,0.1c0.1,0,0.1,0.1,0.1,0.2c0.1,0.1,0.1,0.3,0,0.5c0,0.1-0.1,0.1-0.1,0.2c0,0.1-0.1,0.1-0.2,0.1
		c-0.1,0-0.1,0-0.2,0c-0.1,0-0.1,0-0.2,0c-0.1,0-0.1-0.1-0.2-0.1c-0.1-0.1-0.1-0.1-0.1-0.2C330.7,226.8,330.7,226.6,330.8,226.5z
		 M330.9,226.9c0,0.1,0,0.1,0.1,0.1c0,0,0.1,0.1,0.1,0.1c0.1,0.1,0.2,0.1,0.3,0c0,0,0.1-0.1,0.1-0.1c0,0,0.1-0.1,0.1-0.1
		c0-0.1,0-0.2,0-0.3c0-0.1,0-0.1-0.1-0.1c0,0-0.1-0.1-0.1-0.1c-0.1,0-0.1,0-0.2,0c-0.1,0-0.1,0-0.2,0c0,0-0.1,0.1-0.1,0.1
		c0,0-0.1,0.1-0.1,0.1C330.9,226.7,330.9,226.8,330.9,226.9L330.9,226.9z"/>
	<path class="st12" d="M331.2,226.8L331.2,226.8c0,0,0,0.1,0,0.1l0,0 M331.3,226.9C331.3,226.8,331.3,226.8,331.3,226.9v-0.5h0.1
		v0.4c0,0,0,0.1,0,0.1c0,0.1-0.1,0.1-0.2,0.1c-0.1,0-0.1,0-0.1-0.1c0-0.1,0-0.1,0-0.2h0.1L331.3,226.9z"/>
	<path class="st1" d="M300.2,125.3h-2.6v-1.4h7.3v1.4h-2.6v9.8h-2.1V125.3z"/>
	<path class="st1" d="M311.7,129.9h-3.5v3.9h4.1l-0.3,1.4H306v-11.2h5.9v1.4h-3.8v3.2h3.5V129.9z"/>
	<path class="st1" d="M315.9,131.9l-0.6,3.2h-2.2l2.6-11.2h3l2.7,11.2h-2.2l-0.7-3.2H315.9z M318.2,130.5c-0.5-2.1-0.8-4-1-5.2h-0.1
		c-0.1,0.9-0.6,3.4-1,5.2H318.2z"/>
	<path class="st1" d="M330.8,130.7c0-2,0-4.3,0.1-5.5l0,0c-0.4,1.9-1.4,6.7-2.2,9.9h-2c-0.6-2.9-1.6-7.9-2-9.9h0
		c0,1.3,0.1,3.9,0.1,5.8v4.2h-2v-11.2h3.2c0.7,3.1,1.5,6.6,1.8,8.2l0,0c0.3-1.5,1.3-5.3,2-8.2h3.1v11.2h-2L330.8,130.7z"/>
	<path class="st1" d="M302.5,144.9v0.4c0,1.4-0.2,3.1-2.5,3.1c-2.1,0-2.5-1.3-2.5-3v-5.7c0-1.8,0.8-2.9,2.5-2.9c2,0,2.4,1.4,2.4,2.9
		v0.5H301v-0.6c0-0.8-0.2-1.4-0.9-1.4s-0.9,0.5-0.9,1.4v5.9c0,0.9,0.2,1.5,0.9,1.5s0.9-0.6,0.9-1.5v-0.6L302.5,144.9z"/>
	<path class="st1" d="M308.5,142.1v3.4c0,1.9-0.9,2.8-2.5,2.8s-2.4-0.9-2.4-2.7v-3.5c-0.2-1.3,0.7-2.5,2-2.6c0.2,0,0.3,0,0.5,0
		C307.6,139.4,308.5,140.4,308.5,142.1z M305.1,142.1v3.6c0,0.8,0.2,1.4,0.9,1.4s0.9-0.4,0.9-1.4v-3.6c0-0.7-0.2-1.3-0.9-1.3
		S305.1,141.2,305.1,142.1z"/>
	<path class="st1" d="M314.6,145.8c0,1.2,0,2,0,2.4h-1.5c0-0.3-0.1-0.6-0.1-0.9c-0.2,0.7-0.9,1.1-1.6,1c-0.8,0-1.7-0.3-1.7-2.2v-6.6
		h1.5v6.2c0,0.9,0.3,1.3,0.8,1.3s1-0.4,1-1.7v-5.7h1.5L314.6,145.8z"/>
	<path class="st1" d="M316.1,142.2c0-1.8,0-2.2,0-2.7h1.5c0,0.3,0.1,0.5,0.1,0.8c0.3-0.6,0.9-1,1.6-0.9c1,0,1.8,0.6,1.8,2.2v6.6
		h-1.5v-6.3c0-0.8-0.3-1.1-0.8-1.1s-1,0.3-1,1.7v5.7h-1.5L316.1,142.2z"/>
	<path class="st1" d="M326.9,145.4v0.1c0,1.5-0.4,2.8-2.3,2.8s-2.3-1.3-2.3-3v-3.1c0-1.4,0.5-2.8,2.4-2.8s2.3,1.4,2.3,2.5v0.3h-1.5
		V142c0-0.7-0.1-1.3-0.8-1.3s-0.8,0.4-0.8,1.3v3.7c0,0.7,0.1,1.3,0.8,1.3s0.8-0.4,0.8-1.3v-0.4L326.9,145.4z"/>
	<path class="st1" d="M328.1,139.6h1.5v8.6h-1.5V139.6z M328.1,136.5h1.5v1.8h-1.5V136.5z"/>
	<path class="st1" d="M331.2,148.2v-11.7h1.5v11.7L331.2,148.2z"/>
	
		<linearGradient id="SVGID_3_" gradientUnits="userSpaceOnUse" x1="278.5314" y1="227.27" x2="278.5314" y2="242.18" gradientTransform="matrix(1 0 0 -1 0 376)">
		<stop  offset="0" style="stop-color:#4479BD"/>
		<stop  offset="8.000000e-02" style="stop-color:#586CB3"/>
		<stop  offset="0.19" style="stop-color:#6B5FAA"/>
		<stop  offset="0.31" style="stop-color:#7657A5"/>
		<stop  offset="0.42" style="stop-color:#7A55A3"/>
		<stop  offset="1" style="stop-color:#BD1D7B"/>
	</linearGradient>
	<path class="st13" d="M284.1,131.7c0-1.3-1-2.4-2.3-2.4c0,0,0,0,0,0c-2.1,0-4.3,0-6.4,0c-1.3,0-2.3,1.1-2.3,2.4c0,0,0,0,0,0
		c0,2,0,4,0,5.9c0,0.1,0,0.2,0,0.3c0.2,1,0.5,1.6,1.5,1.7c0.4,0,0.5,0.1,0.5,0.6c0,1.7,0.3,4.3,0.3,6.1c0,0.1,0,0.3,0,0.4
		c0.1,0.9,0.9,1.6,1.9,1.7h2.6c0.1,0,0.2,0,0.3,0c0.9-0.2,1.6-1,1.6-2c0-1.8,0.3-4.4,0.3-6.2c0-0.4,0.1-0.5,0.5-0.5
		c1.2-0.1,1.5-0.9,1.5-2.1c0-1,0-1.9,0-2.9L284.1,131.7C284,131.7,284.1,131.7,284.1,131.7z"/>
	
		<linearGradient id="SVGID_4_" gradientUnits="userSpaceOnUse" x1="278.5244" y1="227.27" x2="278.5244" y2="242.18" gradientTransform="matrix(1 0 0 -1 0 376)">
		<stop  offset="0" style="stop-color:#4479BD"/>
		<stop  offset="8.000000e-02" style="stop-color:#586CB3"/>
		<stop  offset="0.19" style="stop-color:#6B5FAA"/>
		<stop  offset="0.31" style="stop-color:#7657A5"/>
		<stop  offset="0.42" style="stop-color:#7A55A3"/>
		<stop  offset="1" style="stop-color:#BD1D7B"/>
	</linearGradient>
	<path class="st14" d="M277.7,127.2c0.2,0.2,0.5,0.3,0.8,0.3c0.3,0,0.6-0.1,0.8-0.3l2.7-2.7c0.4-0.4,0.5-1.1,0-1.6c0,0,0,0,0,0
		l-2.7-2.7c-0.2-0.2-0.5-0.3-0.8-0.3c-0.3,0-0.6,0.1-0.8,0.3l-2.7,2.7c-0.4,0.4-0.4,1.2,0,1.6c0,0,0,0,0,0L277.7,127.2z
		 M278.5,121.3l2.5,2.4l-2.5,2.4l-2.5-2.4L278.5,121.3z"/>
	
		<linearGradient id="SVGID_5_" gradientUnits="userSpaceOnUse" x1="269.1772" y1="227.27" x2="269.1772" y2="242.18" gradientTransform="matrix(1 0 0 -1 0 376)">
		<stop  offset="0" style="stop-color:#4479BD"/>
		<stop  offset="8.000000e-02" style="stop-color:#586CB3"/>
		<stop  offset="0.19" style="stop-color:#6B5FAA"/>
		<stop  offset="0.31" style="stop-color:#7657A5"/>
		<stop  offset="0.42" style="stop-color:#7A55A3"/>
		<stop  offset="1" style="stop-color:#BD1D7B"/>
	</linearGradient>
	<path class="st15" d="M272.6,146.7c-0.9,0-1.7,0-2.6,0c-0.4,0-0.5-0.1-0.6-0.5c-0.1-1.5,0-0.5-0.1-2c0-0.5-0.2-0.9-0.5-1.3
		c-0.4-0.4-0.9-0.7-1.4-0.7c-0.5,0-0.6-0.1-0.6-0.6l-0.2-2.8c-0.1-1-0.1-1.9-0.2-2.9c0-0.4,0.2-0.7,0.6-0.8c0,0,0,0,0.1,0
		c0.3,0,0.6,0,0.9,0c0.5,0,1.1,0,1.6,0c0.2,0,0.4-0.1,0.5-0.3c0.2-0.2,0.2-0.6,0.1-0.8c-0.1-0.3-0.5-0.5-0.8-0.5c-0.8,0-1.7,0-2.5,0
		c-1.2,0.1-2.1,1.1-2,2.3c0,0,0,0,0,0c0.1,2,0.3,4,0.4,6c0,0.4,0.2,0.8,0.5,1.2c0.4,0.5,0.9,0.7,1.5,0.8c0.4,0,0.5,0.1,0.6,0.6
		c0-0.2,0-0.6,0-0.1c0,0,0,0.1,0,0.1l0,0c0,0.4,0,0.2,0,0c0.1,0.7,0.1,1.4,0.2,2.2c0.2,1,1,1.7,2,1.8h2.9c0.4,0,0.7-0.3,0.7-0.7
		C273.6,147.1,273.2,146.7,272.6,146.7C272.7,146.7,272.7,146.7,272.6,146.7z"/>
	
		<linearGradient id="SVGID_6_" gradientUnits="userSpaceOnUse" x1="267.8" y1="231.74" x2="267.8" y2="231.74" gradientTransform="matrix(1 0 0 -1 0 376)">
		<stop  offset="0" style="stop-color:#4479BD"/>
		<stop  offset="8.000000e-02" style="stop-color:#586CB3"/>
		<stop  offset="0.19" style="stop-color:#6B5FAA"/>
		<stop  offset="0.31" style="stop-color:#7657A5"/>
		<stop  offset="0.42" style="stop-color:#7A55A3"/>
		<stop  offset="1" style="stop-color:#BD1D7B"/>
	</linearGradient>
	<path class="st16" d="M267.8,144.3L267.8,144.3z"/>
	
		<linearGradient id="SVGID_7_" gradientUnits="userSpaceOnUse" x1="288.4628" y1="227.27" x2="288.4628" y2="242.18" gradientTransform="matrix(1 0 0 -1 0 376)">
		<stop  offset="0" style="stop-color:#4479BD"/>
		<stop  offset="8.000000e-02" style="stop-color:#586CB3"/>
		<stop  offset="0.19" style="stop-color:#6B5FAA"/>
		<stop  offset="0.31" style="stop-color:#7657A5"/>
		<stop  offset="0.42" style="stop-color:#7A55A3"/>
		<stop  offset="1" style="stop-color:#BD1D7B"/>
	</linearGradient>
	<path class="st17" d="M290.9,133.5c-0.8,0-1.7,0-2.5,0c-0.3,0-0.7,0.2-0.8,0.5c-0.2,0.3-0.1,0.6,0.1,0.8c0.1,0.1,0.3,0.2,0.5,0.3
		c0.5,0,1.1,0,1.6,0c0.3,0,0.6,0,0.9,0c0.4,0,0.7,0.3,0.7,0.7c0,0,0,0,0,0.1c-0.1,1-0.1,1.9-0.2,2.9s-0.1,1.9-0.2,2.8
		c0,0.4-0.1,0.6-0.6,0.6c-1.1,0.1-1.9,0.9-2,2c-0.1,1.5,0,0.5-0.1,2c0,0.4-0.2,0.5-0.6,0.5c-0.9,0-1.7,0-2.6,0
		c-0.5,0-0.9,0.3-0.9,0.8c0,0,0,0.1,0,0.1c0,0.4,0.3,0.7,0.7,0.7h2.9c1,0,1.8-0.8,2-1.8c0.1-0.7,0.1-1.4,0.2-2.2c0,0.2,0,0.3,0,0
		l0,0c0,0,0-0.1,0-0.1c0-0.4,0-0.1,0,0.1c0-0.4,0.1-0.5,0.6-0.6c1.1-0.1,1.9-0.9,2-1.9c0.1-2,0.3-4,0.4-6
		C292.9,134.6,292.1,133.6,290.9,133.5z"/>
	
		<linearGradient id="SVGID_8_" gradientUnits="userSpaceOnUse" x1="289.88" y1="231.7" x2="289.88" y2="231.7" gradientTransform="matrix(1 0 0 -1 0 376)">
		<stop  offset="0" style="stop-color:#4479BD"/>
		<stop  offset="8.000000e-02" style="stop-color:#586CB3"/>
		<stop  offset="0.19" style="stop-color:#6B5FAA"/>
		<stop  offset="0.31" style="stop-color:#7657A5"/>
		<stop  offset="0.42" style="stop-color:#7A55A3"/>
		<stop  offset="1" style="stop-color:#BD1D7B"/>
	</linearGradient>
	<path class="st18" d="M289.9,144.3L289.9,144.3L289.9,144.3z"/>
	
		<linearGradient id="SVGID_9_" gradientUnits="userSpaceOnUse" x1="287.465" y1="227.27" x2="287.465" y2="242.18" gradientTransform="matrix(1 0 0 -1 0 376)">
		<stop  offset="0" style="stop-color:#4479BD"/>
		<stop  offset="8.000000e-02" style="stop-color:#586CB3"/>
		<stop  offset="0.19" style="stop-color:#6B5FAA"/>
		<stop  offset="0.31" style="stop-color:#7657A5"/>
		<stop  offset="0.42" style="stop-color:#7A55A3"/>
		<stop  offset="1" style="stop-color:#BD1D7B"/>
	</linearGradient>
	<path class="st19" d="M286.6,132c0.4,0.4,1.1,0.5,1.6,0c0,0,0,0,0,0l2.7-2.7c0.4-0.5,0.4-1.2,0-1.6l-2.7-2.7
		c-0.4-0.4-1.1-0.5-1.6,0c0,0,0,0,0,0l-2.7,2.7c-0.4,0.5-0.4,1.2,0,1.6L286.6,132z"/>
	
		<linearGradient id="SVGID_10_" gradientUnits="userSpaceOnUse" x1="269.9209" y1="227.27" x2="269.9209" y2="242.18" gradientTransform="matrix(1 0 0 -1 0 376)">
		<stop  offset="0" style="stop-color:#4479BD"/>
		<stop  offset="8.000000e-02" style="stop-color:#586CB3"/>
		<stop  offset="0.19" style="stop-color:#6B5FAA"/>
		<stop  offset="0.31" style="stop-color:#7657A5"/>
		<stop  offset="0.42" style="stop-color:#7A55A3"/>
		<stop  offset="1" style="stop-color:#BD1D7B"/>
	</linearGradient>
	<path class="st20" d="M269.1,132c0.2,0.2,0.5,0.3,0.8,0.3c0.3,0,0.6-0.1,0.8-0.3l2.7-2.7c0.4-0.5,0.4-1.2,0-1.6l-2.7-2.7
		c-0.2-0.2-0.5-0.3-0.8-0.3c-0.3,0-0.6,0.1-0.8,0.3l-2.7,2.7c-0.4,0.4-0.5,1.2,0,1.6c0,0,0,0,0,0L269.1,132z"/>
	<path class="st1" d="M333.9,136.9c0-0.1,0.1-0.1,0.1-0.2c0.1-0.1,0.1-0.1,0.2-0.1c0.1,0,0.2,0,0.2-0.1c0.1,0,0.2,0,0.2,0.1
		c0.1,0,0.1,0.1,0.2,0.1c0.1,0.1,0.1,0.1,0.1,0.2c0,0.1,0,0.2,0,0.3c0,0.1,0,0.2,0,0.3c0,0.1-0.1,0.1-0.1,0.2
		c-0.1,0-0.1,0.1-0.2,0.1c-0.1,0-0.2,0-0.2,0.1c-0.1,0-0.2,0-0.2-0.1c-0.1,0-0.1-0.1-0.2-0.1c-0.1-0.1-0.1-0.1-0.1-0.2
		c0-0.1-0.1-0.2-0.1-0.3C333.8,137.1,333.9,137,333.9,136.9z M334,137.4c0,0.1,0.1,0.1,0.1,0.2c0,0,0.1,0.1,0.1,0.1
		c0.1,0,0.3,0,0.4,0c0.1,0,0.1-0.1,0.1-0.1c0,0,0.1-0.1,0.1-0.2c0-0.1,0-0.1,0-0.2c0-0.1,0-0.1,0-0.2c0-0.1-0.1-0.1-0.1-0.2
		c0,0-0.1-0.1-0.1-0.1c-0.1-0.1-0.3-0.1-0.4,0c-0.1,0-0.1,0.1-0.1,0.1c0,0-0.1,0.1-0.1,0.2c0,0.1,0,0.1,0,0.2
		C334,137.2,334,137.3,334,137.4L334,137.4z"/>
	<path class="st1" d="M334.4,137.2L334.4,137.2c0,0,0,0.1,0,0.1c0,0,0,0,0.1,0c0,0,0,0,0.1,0c0,0,0,0,0-0.1v-0.5h0.1v0.5
		c0,0,0,0.1,0,0.1c0,0.1-0.1,0.1-0.2,0.1c-0.1,0-0.1,0-0.2-0.1C334.3,137.4,334.3,137.3,334.4,137.2L334.4,137.2L334.4,137.2z"/>
	<path class="st1" d="M65.3,338l-2.3-6c-0.3-0.8-0.5-1-0.7-1.1v-0.1h1h1.3v0.1c-0.3,0.1-0.4,0.2-0.4,0.4c0,0.3,0.1,0.5,0.2,0.8
		l1.5,4l1.2-3.3c0.2-0.4,0.3-0.8,0.3-1.3c0-0.3-0.1-0.5-0.4-0.5v-0.1h1h0.8v0.1c-0.6,0.2-0.7,0.4-1.3,2l-1.8,5.1H65.3z"/>
	<path class="st1" d="M70.3,337.8h-1h-1v-0.1c0.3-0.1,0.4-0.1,0.4-0.9v-2.3c0-0.6,0-0.8-0.3-0.9v-0.1c0.5,0,1-0.1,1.5-0.3v3.6
		c0,0.8,0.1,0.8,0.4,0.9L70.3,337.8z M69.3,332.8c-0.3,0-0.6-0.2-0.6-0.6c0,0,0,0,0,0c0-0.3,0.2-0.6,0.5-0.6c0,0,0,0,0,0
		c0.3,0,0.6,0.3,0.6,0.6c0,0,0,0,0,0C69.9,332.6,69.6,332.8,69.3,332.8C69.3,332.8,69.3,332.8,69.3,332.8L69.3,332.8z"/>
	<path class="st1" d="M73.6,334.5c-0.2-0.7-0.6-1-1.1-1c-0.3,0-0.6,0.2-0.6,0.5c0,0,0,0.1,0,0.1c0,1.1,2.2,0.6,2.2,2.4
		c0,0.8-0.8,1.5-1.6,1.5c0,0-0.1,0-0.1,0c-0.5,0-0.7-0.1-1-0.1c-0.1,0-0.2,0-0.3,0c0.1-0.3,0-1.1,0.1-1.5h0.1c0,0.8,0.4,1.4,1.1,1.4
		c0.4,0,0.7-0.2,0.7-0.6c0,0,0-0.1,0-0.1c0-1.2-2.1-0.9-2.1-2.4c0-0.8,0.6-1.3,1.6-1.3c0.5,0,0.8,0.1,1.1,0.1h0.2c0,0.1,0,0.2,0,0.4
		c0,0.2,0,0.5,0,0.8L73.6,334.5z"/>
	<path class="st1" d="M76.6,337.8h-1h-1v-0.1c0.3-0.1,0.4-0.1,0.4-0.9v-2.3c0-0.6,0-0.8-0.3-0.9v-0.1c0.5,0,1-0.1,1.5-0.3v3.6
		c0,0.8,0.1,0.8,0.4,0.9L76.6,337.8z M75.6,332.8c-0.3,0-0.6-0.2-0.6-0.6c0,0,0,0,0,0c0-0.3,0.2-0.6,0.5-0.6c0,0,0,0,0,0
		c0.3,0,0.6,0.2,0.6,0.6c0,0,0,0,0,0.1C76.2,332.5,75.9,332.8,75.6,332.8C75.6,332.8,75.6,332.8,75.6,332.8L75.6,332.8z"/>
	<path class="st1" d="M79.4,337.9c-1.3,0-2.3-1.1-2.3-2.4c0-1.3,1.1-2.3,2.4-2.3c1.3,0,2.3,1.1,2.3,2.4
		C81.8,336.8,80.7,337.9,79.4,337.9C79.4,337.9,79.4,337.9,79.4,337.9z M80.5,335.5c0-1.4-0.2-2.1-1.1-2.1s-1.1,0.7-1.1,2.1
		s0.2,2.1,1.1,2.1S80.5,336.9,80.5,335.5z"/>
	<path class="st1" d="M87.3,337.8h-1h-1v-0.1c0.3-0.1,0.4-0.1,0.4-0.9v-2.1c0-0.8-0.3-1.2-0.9-1.2c-0.3,0-0.7,0.2-0.9,0.4v2.8
		c0,0.8,0.1,0.8,0.4,0.9v0.1h-1h-1v-0.1c0.3-0.1,0.4-0.1,0.4-0.9v-2.3c0-0.6,0-0.8-0.3-0.9v-0.1c0.5,0,1-0.1,1.5-0.3v0.5
		c0.4-0.4,0.9-0.6,1.4-0.5c0.7,0,1.5,0.2,1.5,1.6v2.1c0,0.8,0.1,0.8,0.4,0.9L87.3,337.8z"/>
	<path class="st1" d="M92.5,337.8h-1.1h-1.1v-0.1c0.4-0.1,0.5-0.3,0.5-1.4v-4c0-1.1,0-1.3-0.5-1.4v-0.1h1.1h1.2c1.7,0,2.6,0.9,2.6,2
		c0,1.1-0.9,1.9-2,1.8c0,0-0.1,0-0.1,0c-0.3,0-0.7-0.1-1-0.2l0.1-0.1c0.2,0.1,0.4,0.1,0.6,0.1c0.8,0,1-0.7,1-1.6
		c0-1.1-0.5-1.7-1.3-1.7c-0.2,0-0.3,0-0.4,0.1v5.2c0,1.1,0,1.3,0.5,1.4L92.5,337.8z"/>
	<path class="st1" d="M99.5,337.4c-0.2,0.3-0.5,0.5-0.9,0.5c-0.3,0-0.6-0.2-0.7-0.5c-0.4,0.3-0.8,0.5-1.3,0.5
		c-0.8,0-1.4-0.4-1.4-1.1s0.8-1.3,1.8-1.3c0.3,0,0.6,0.1,0.9,0.2v-1.1c0-0.9-0.3-1.1-0.7-1.1s-0.7,0.4-0.7,1.2h-1.2
		c0.1-0.9,0.9-1.6,1.9-1.5c0,0,0,0,0,0c1.1,0,1.8,0.5,1.8,1.7v2c0,0.4,0.1,0.5,0.2,0.5c0.1,0,0.1,0,0.2,0L99.5,337.4z M97.8,336
		c-0.2-0.1-0.4-0.1-0.7-0.1c-0.4,0-0.8,0.2-0.8,0.8s0.3,0.8,0.7,0.8c0.3,0,0.5-0.1,0.7-0.3c0-0.1,0-0.2,0-0.2L97.8,336z"/>
	<path class="st1" d="M101.9,337.8h-1h-1v-0.1c0.3-0.1,0.4-0.1,0.4-0.9v-2.3c0-0.6,0-0.8-0.3-0.9v-0.1c0.5,0,1-0.1,1.5-0.3v0.8
		c0.6-0.6,0.8-0.8,1.3-0.8s0.9,0.3,0.9,1.4h-1.2c0-0.4-0.2-0.6-0.4-0.6c-0.2,0-0.4,0.1-0.6,0.3v2.5c0,0.8,0.1,0.8,0.4,0.9
		L101.9,337.8z"/>
	<path class="st1" d="M106.8,337c-0.1,0.5-0.6,0.9-1.1,0.9c-0.7,0.1-1.3-0.4-1.4-1.1c0-0.1,0-0.2,0-0.3v-2.7h-0.5v-0.1
		c0.8-0.5,1.3-1.2,1.5-2l0.2,0c0,0.5-0.1,1-0.1,1.5h0.3c0.3,0.1,0.6,0,0.8-0.2l0.1,0.1c-0.2,0.2-0.3,0.5-0.4,0.7h-0.8v2.5
		c0,0.7,0.2,1,0.6,1s0.4-0.2,0.6-0.5L106.8,337z"/>
	<path class="st1" d="M112.1,337.8h-1h-1v-0.1c0.3-0.1,0.4-0.1,0.4-0.9v-2.1c0-0.8-0.3-1.2-0.9-1.2c-0.3,0-0.7,0.2-0.9,0.4v2.8
		c0,0.8,0.1,0.8,0.4,0.9v0.1h-1h-1v-0.1c0.3-0.1,0.4-0.1,0.4-0.9v-2.3c0-0.6,0-0.8-0.3-0.9v-0.1c0.5,0,1-0.1,1.5-0.3v0.5
		c0.4-0.4,0.9-0.6,1.4-0.5c0.7,0,1.5,0.2,1.5,1.6v2.1c0,0.8,0.1,0.8,0.4,0.9L112.1,337.8z"/>
	<path class="st1" d="M116.6,336.8c-0.4,0.7-1.1,1.1-1.8,1.1c-1.3,0-2.4-1-2.4-2.3c0-1.3,1-2.4,2.3-2.4c1-0.1,1.8,0.6,1.9,1.6
		c0,0.1,0,0.2,0,0.3h-3v0.1c0,1.2,0.7,2.1,1.6,2.1c0.5,0,1-0.2,1.3-0.6L116.6,336.8z M115.4,334.8c0-0.9-0.3-1.4-0.8-1.4
		s-0.9,0.6-1,1.4H115.4z"/>
	<path class="st1" d="M119.1,337.8h-1h-1v-0.1c0.3-0.1,0.4-0.1,0.4-0.9v-2.3c0-0.6,0-0.8-0.3-0.9v-0.1c0.5,0,1-0.1,1.5-0.3v0.8
		c0.6-0.6,0.8-0.8,1.3-0.8s0.9,0.3,0.9,1.4h-1.2c0-0.4-0.2-0.6-0.4-0.6c-0.2,0-0.4,0.1-0.6,0.3v2.5c0,0.8,0.1,0.8,0.4,0.9
		L119.1,337.8z"/>
	<path class="st1" d="M124,334.5c-0.2-0.7-0.6-1-1.1-1c-0.3,0-0.6,0.2-0.6,0.5c0,0,0,0.1,0,0.1c0,1.1,2.2,0.6,2.2,2.4
		c0,0.8-0.8,1.5-1.6,1.5c0,0-0.1,0-0.1,0c-0.5,0-0.7-0.1-1-0.1c-0.1,0-0.2,0-0.3,0c0.1-0.3,0-1.1,0.1-1.5h0.1c0,0.8,0.4,1.4,1.1,1.4
		c0.4,0,0.7-0.2,0.7-0.6c0,0,0-0.1,0-0.1c0-1.2-2.1-0.9-2.1-2.4c0-0.8,0.6-1.3,1.6-1.3c0.5,0,0.8,0.1,1.1,0.1h0.2c0,0.1,0,0.2,0,0.4
		c0,0.2,0,0.5,0,0.8L124,334.5z"/>
	<circle class="st21" cx="94.4" cy="303.9" r="1.2"/>
	<circle class="st21" cx="94.4" cy="324.2" r="1.2"/>
	<circle class="st21" cx="104.6" cy="314" r="1.2"/>
	<circle class="st21" cx="84.2" cy="314" r="1.2"/>
	<circle class="st21" cx="87.2" cy="306.9" r="1.2"/>
	<circle class="st21" cx="101.6" cy="321.2" r="1.2"/>
	<circle class="st21" cx="101.6" cy="306.9" r="1.2"/>
	<circle class="st21" cx="87.2" cy="321.2" r="1.2"/>
	<circle class="st21" cx="89.3" cy="309" r="0.9"/>
	<circle class="st21" cx="99.5" cy="319.1" r="0.9"/>
	<circle class="st21" cx="99.5" cy="309" r="0.9"/>
	<circle class="st21" cx="89.3" cy="319.1" r="0.9"/>
	<circle class="st21" cx="89.3" cy="309" r="0.9"/>
	<circle class="st21" cx="99.5" cy="319.1" r="0.9"/>
	<circle class="st21" cx="99.5" cy="309" r="0.9"/>
	<circle class="st21" cx="89.3" cy="319.1" r="0.9"/>
	<circle class="st21" cx="94.4" cy="306.9" r="0.9"/>
	<circle class="st21" cx="94.4" cy="321.2" r="0.9"/>
	<circle class="st21" cx="101.6" cy="314" r="0.9"/>
	<circle class="st21" cx="87.2" cy="314" r="0.9"/>
	<circle class="st21" cx="89.3" cy="309" r="0.9"/>
	<circle class="st21" cx="99.5" cy="319.1" r="0.9"/>
	<circle class="st21" cx="99.5" cy="309" r="0.9"/>
	<circle class="st21" cx="89.3" cy="319.1" r="0.9"/>
	<circle class="st21" cx="94.4" cy="309.5" r="0.5"/>
	<circle class="st21" cx="94.4" cy="318.6" r="0.5"/>
	<circle class="st21" cx="98.9" cy="314" r="0.5"/>
	<circle class="st21" cx="89.8" cy="314" r="0.5"/>
	<circle class="st21" cx="91.2" cy="310.8" r="0.5"/>
	<circle class="st21" cx="97.6" cy="317.3" r="0.5"/>
	<circle class="st21" cx="97.6" cy="310.8" r="0.5"/>
	<circle class="st21" cx="91.2" cy="317.3" r="0.5"/>
	<circle class="st21" cx="94.4" cy="309.5" r="0.5"/>
	<circle class="st21" cx="94.4" cy="318.6" r="0.5"/>
	<circle class="st21" cx="98.9" cy="314" r="0.5"/>
	<circle class="st21" cx="89.8" cy="314" r="0.5"/>
	<circle class="st21" cx="91.2" cy="310.8" r="0.5"/>
	<circle class="st21" cx="97.6" cy="317.3" r="0.5"/>
	<circle class="st21" cx="97.6" cy="310.8" r="0.5"/>
	<circle class="st21" cx="91.2" cy="317.3" r="0.5"/>
	<circle class="st21" cx="94.4" cy="311.5" r="0.3"/>
	<circle class="st21" cx="94.4" cy="316.6" r="0.3"/>
	<circle class="st21" cx="96.9" cy="314" r="0.3"/>
	<circle class="st21" cx="91.8" cy="314" r="0.3"/>
	<circle class="st21" cx="92.6" cy="312.2" r="0.3"/>
	<circle class="st21" cx="96.2" cy="315.9" r="0.3"/>
	<circle class="st21" cx="96.2" cy="312.2" r="0.3"/>
	<circle class="st21" cx="92.6" cy="315.9" r="0.3"/>
	<path class="st1" d="M125.1,332.8c0-0.1,0.1-0.2,0.2-0.3c0.1-0.1,0.2-0.1,0.3-0.2c0.1,0,0.2-0.1,0.3-0.1c0.1,0,0.2,0,0.3,0.1
		c0.1,0,0.2,0.1,0.3,0.2c0.1,0.1,0.1,0.2,0.2,0.3c0,0.1,0.1,0.2,0.1,0.3c0,0.1,0,0.2-0.1,0.4c0,0.1-0.1,0.2-0.2,0.3
		c-0.1,0.1-0.2,0.1-0.3,0.2c-0.1,0-0.2,0.1-0.3,0.1c-0.1,0-0.2,0-0.3-0.1c-0.1,0-0.2-0.1-0.3-0.2c-0.1-0.1-0.1-0.2-0.2-0.3
		c-0.1-0.1-0.1-0.2-0.1-0.4C125,333.1,125,332.9,125.1,332.8z M125.3,333.4c0,0.1,0.1,0.2,0.1,0.2c0.1,0.1,0.1,0.1,0.2,0.1
		c0.1,0,0.2,0.1,0.2,0c0.2,0,0.3-0.1,0.4-0.2c0.1-0.1,0.1-0.1,0.1-0.2c0-0.1,0-0.2,0-0.3c0-0.2-0.1-0.3-0.2-0.5
		c-0.1-0.1-0.1-0.1-0.2-0.1c-0.1,0-0.2-0.1-0.2,0c-0.1,0-0.2,0-0.2,0c-0.1,0-0.1,0.1-0.2,0.1c-0.1,0.1-0.1,0.1-0.1,0.2
		c0,0.1,0,0.2,0,0.3C125.2,333.3,125.2,333.4,125.3,333.4L125.3,333.4z"/>
	<path class="st1" d="M125.7,333.2L125.7,333.2c0,0,0,0.1,0,0.1c0,0,0,0,0.1,0s0.1,0,0.1,0c0,0,0-0.1,0-0.1v-0.6h0.2v0.6
		c0,0.1,0,0.1,0,0.2c-0.1,0.1-0.1,0.1-0.2,0.1c-0.1,0-0.2,0-0.2-0.1c0-0.1-0.1-0.2-0.1-0.2l0,0H125.7z"/>
	<path class="st1" d="M129.5,221.7c0.1-0.1,0.1-0.3,0.3-0.4c0.1-0.1,0.2-0.2,0.4-0.2c0.1-0.1,0.3-0.1,0.5-0.1c0.2,0,0.3,0,0.5,0.1
		c0.1,0,0.3,0.1,0.4,0.2c0.1,0.1,0.2,0.2,0.3,0.4c0.1,0.2,0.1,0.3,0.1,0.5c0,0.2,0,0.3-0.1,0.5c-0.1,0.1-0.2,0.3-0.3,0.4
		c-0.1,0.1-0.2,0.2-0.4,0.2c-0.1,0.1-0.3,0.1-0.5,0.1c-0.2,0-0.3,0-0.5-0.1c-0.1-0.1-0.3-0.1-0.4-0.2c-0.1-0.1-0.2-0.2-0.3-0.4
		c-0.1-0.2-0.1-0.3-0.1-0.5C129.4,222.1,129.4,221.9,129.5,221.7z M129.8,222.6c0,0.1,0.1,0.2,0.2,0.3c0.1,0.1,0.2,0.2,0.3,0.2
		c0.1,0,0.2,0.1,0.4,0.1c0.1,0,0.2,0,0.4-0.1c0.1,0,0.2-0.1,0.3-0.2c0.1-0.1,0.1-0.2,0.2-0.3c0.1-0.1,0.1-0.2,0.1-0.4
		c0-0.1,0-0.3-0.1-0.4c0-0.1-0.1-0.2-0.2-0.3c-0.1-0.1-0.2-0.1-0.3-0.2c-0.1,0-0.2-0.1-0.4-0.1c-0.1,0-0.2,0-0.4,0.1
		c-0.1,0-0.2,0.1-0.3,0.2c-0.1,0.1-0.1,0.2-0.2,0.3c0,0.1-0.1,0.2-0.1,0.4C129.7,222.3,129.7,222.5,129.8,222.6L129.8,222.6z
		 M130.6,221.6c0.1,0,0.3,0,0.4,0.1c0.1,0.1,0.2,0.2,0.1,0.3c0,0,0,0.1,0,0.1c0,0,0,0.1-0.1,0.1c0,0-0.1,0.1-0.1,0.1h-0.1l0.4,0.6
		h-0.3l-0.3-0.6h-0.2v0.6h-0.3v-1.3L130.6,221.6z M130.6,222.2c0.1,0,0.1,0,0.2,0c0.1,0,0.1-0.1,0.1-0.1c0,0,0-0.1,0-0.1l-0.1-0.1
		h-0.1h-0.3v0.4L130.6,222.2z"/>
	
		<rect x="129.5" y="222.1" transform="matrix(0.7071 -0.7071 0.7071 0.7071 -118.868 157.4597)" class="st1" width="2.2" height="0.3"/>
	<path class="st1" d="M59.8,228.3c0.1,0.7,0.6,1.1,1.7,1.1c0.8,0,1.4-0.2,1.4-0.9c0-0.5-0.3-0.8-1.7-1.1c-2.4-0.6-3.2-1.3-3.2-2.6
		c0-1.8,1.6-3,4.1-3c3,0,4,1.4,4.1,2.8h-2.6c-0.1-0.4-0.4-0.9-1.5-0.9c-0.7,0-1.1,0.3-1.1,0.8s0.4,0.7,1.6,1
		c2.6,0.6,3.3,1.5,3.3,2.8c0,1.8-1.6,3-4.5,3c-2.7,0-4.1-1-4.3-3L59.8,228.3z"/>
	<path class="st1" d="M68,224.3h1.1l0.4-1.9h2.7l-0.4,1.9h1.3l-0.4,1.8h-1.3l-0.6,2.5c-0.1,0.5-0.1,0.7,0.5,0.7c0.2,0,0.4,0,0.6,0
		l-0.3,1.7c-0.5,0.1-1,0.2-1.6,0.1c-1.9,0-2.3-0.8-2-2.2l0.6-2.9h-1.1L68,224.3z"/>
	<path class="st1" d="M74.9,224.3h2.7l-1.4,6.7h-2.7L74.9,224.3z M75.4,221.6h2.7l-0.4,1.8h-2.7L75.4,221.6z"/>
	<path class="st1" d="M86.1,228.6c-0.4,1.5-1.6,2.6-4,2.6s-3.4-1.5-3.4-2.9c-0.1-2.2,1.6-4.1,3.8-4.2c0.1,0,0.3,0,0.4,0
		c3,0,3.5,1.8,3.4,2.7h-2.6c0-0.5-0.1-1-0.8-1c-1,0-1.5,1.5-1.5,2.6c0,0.7,0.3,1.1,0.9,1.1s0.9-0.3,1.2-0.9L86.1,228.6z"/>
	<path class="st1" d="M90.9,226.9c0.7-0.8,1.8-1.7,2.6-2.6h3.2c-1.1,0.9-2.1,1.7-3.1,2.6c0.2,0.5,1.6,3.6,1.8,4.1h-3
		c0-0.1-0.9-2.5-0.9-2.6l-1.1,0.8l-0.4,1.8h-2.7l2-9.5H92L90.9,226.9z"/>
	<path class="st1" d="M99.9,224.3c0.3,2.3,0.4,4,0.4,4.8h0.1c0.3-0.8,1.1-2.6,2.2-4.8h2.9l-3.4,6.1c-1.5,2.7-2.1,3.5-4.4,3.5
		c-0.5,0-0.9,0-1.4-0.1l0.4-2c0.2,0,0.5,0,0.7,0.1c0.4,0,0.8-0.2,1.1-0.5l-1.3-7L99.9,224.3z"/>
	<path class="st22" d="M125.5,232.1c-0.1,0-0.3-0.1-0.4-0.1l-16-15.6c-0.2-0.2-0.2-0.5,0-0.7c0,0,0,0,0,0c0.2-0.2,0.5-0.2,0.7,0
		c0,0,0,0,0,0l16,15.6c0.2,0.2,0.2,0.5,0,0.7c0,0,0,0,0,0C125.8,232.1,125.6,232.1,125.5,232.1z"/>
	<path class="st22" d="M110.1,233.1c-0.1,0-0.3-0.1-0.4-0.1c-0.2-0.2-0.2-0.5,0-0.7c0,0,0,0,0,0l16.6-16.5c0.2-0.2,0.5-0.2,0.7,0
		c0,0,0,0,0,0c0.2,0.2,0.2,0.5,0,0.7c0,0,0,0,0,0l-16.6,16.5C110.4,233,110.3,233.1,110.1,233.1z"/>
	<path class="st22" d="M130.3,224.9L130.3,224.9l-24.5-0.1c-0.3,0-0.5-0.2-0.5-0.5s0.2-0.5,0.5-0.5l0,0l24.5,0.1
		c0.3,0,0.5,0.2,0.5,0.5C130.8,224.7,130.6,224.9,130.3,224.9z"/>
	<path class="st22" d="M118.4,234.9c-0.3,0-0.5-0.2-0.5-0.5l-0.3-21.8c0-0.3,0.2-0.5,0.5-0.5c0,0,0,0,0,0l0,0c0.3,0,0.5,0.2,0.5,0.5
		c0,0,0,0,0,0l0.3,21.8C118.9,234.7,118.7,234.9,118.4,234.9C118.4,234.9,118.4,234.9,118.4,234.9L118.4,234.9z"/>
	<path class="st22" d="M118.5,230.4l-0.4-0.3c-0.7-0.4-2.7-1.4-3.8-1.1c-0.2,0.1-0.4,0-0.6-0.1c-0.4-0.2-0.5-0.7-0.6-1.2
		c0-0.1-0.1-0.3-0.1-0.4c-0.1-0.2-0.1-0.4-0.2-0.6c-0.1-0.4-0.2-1-2-2.1l-0.8-0.5l0.8-0.4c0.1-0.1,1.9-1.1,1-4.9l-0.2-0.7h0.7
		c1.9,0,3.8-0.6,5.3-1.9l0.4-0.3l0.3,0.3c1.3,1.1,3.7,2.6,4.8,2.4l0.7-0.2l-0.1,0.8c0,0-0.4,3.1,1.1,4.6l0.4,0.5l-0.6,0.3
		c0,0-2.8,1.8-1.9,3.8l0.5,1.2l-1.2-0.5c-0.1,0-2.4-0.9-3.5,0.7L118.5,230.4z M114.8,227.9c1.2,0.1,2.3,0.4,3.4,1
		c0.9-0.9,2.2-1.3,3.5-1c-0.2-1.6,1-3,2-3.8c-0.8-1.3-1.2-2.9-1.1-4.4c-1.6-0.1-3.8-1.7-4.7-2.3c-1.4,1.1-3.2,1.8-5,1.9
		c0.5,2.8-0.4,4.2-1,4.9c1.6,1.1,1.8,1.8,1.9,2.4c0,0.1,0,0.2,0.1,0.3c0.1,0.2,0.2,0.5,0.2,0.7c0,0.1,0.1,0.3,0.1,0.4
		C114.4,227.9,114.6,227.9,114.8,227.9z"/>
	<path class="st22" d="M118.3,228.2l-0.4-0.2c-0.6-0.4-1.4-0.7-2.2-0.8h-0.4l-0.1-0.3c-0.3-0.8-0.9-1.5-1.7-2l-0.5-0.2l0.3-0.5
		c0.7-1.2,1.1-2.8,0.7-3.1l0.5-0.9c0.1,0.1,2,1,3-0.6l0.3-0.5l0.5,0.4c1.1,1,2.4,1.7,2.7,1.6l1-0.5l-0.2,1.1c-0.2,0.9,0,1.8,0.4,2.5
		l0.4,0.5l-0.6,0.3c-0.7,0.3-1.1,1-1.2,1.7v0.4l-0.3,0.1c-0.7,0.2-1.3,0.5-1.8,0.9L118.3,228.2z M116.1,226.1
		c0.7,0.1,1.4,0.4,2.1,0.8c0.5-0.3,1.1-0.6,1.6-0.8c0.2-0.8,0.6-1.4,1.2-1.9c-0.3-0.7-0.4-1.4-0.4-2.2c-1-0.3-1.8-0.8-2.6-1.4
		c-0.7,0.8-1.8,1.1-2.8,0.9c-0.1,0.9-0.3,1.9-0.7,2.7C115.2,224.7,115.7,225.4,116.1,226.1z"/>
	<path class="st22" d="M118.2,233.6l-0.3-0.3c-1.7-1.3-3.8-1.9-5.9-1.5l-0.7,0.2v-0.7c0.1-2.9-1.7-5.5-4.5-6.5l-1-0.4l1-0.6
		c0.2-0.1,4.2-2.6,2.8-7.1l-0.2-0.7h0.8c0,0,5.2,0.3,7.6-2.7l0.4-0.4l0.4,0.4c0,0,3.9,3.9,7,3.7h0.5v0.5c0,0,0.3,4.6,2.2,6.4
		l0.6,0.5l-0.6,0.4c0,0-3.5,2-3.5,5.1v0.4l-0.4,0.1c-2.1,0.6-4,1.6-5.6,2.9L118.2,233.6z M113.3,230.6c1.7,0,3.4,0.6,4.9,1.6
		c1.6-1.3,3.4-2.2,5.3-2.8c0.2-2.7,2.4-4.5,3.5-5.2c-1.5-1.8-1.9-4.9-2.1-6.1c-2.8-0.1-5.8-2.6-6.8-3.6c-2.2,2.3-5.9,2.6-7.4,2.6
		c0.5,2.6-0.5,5.4-2.6,7c2.5,1.2,4.1,3.7,4.3,6.5C112.6,230.6,112.9,230.5,113.3,230.6L113.3,230.6z"/>
	<path class="st1" d="M57.9,237.9l0.4,1.6c0.1,0.4,0.2,0.7,0.2,1l0,0c0.1-0.3,0.2-0.7,0.3-1l0.5-1.6h0.5l0.5,1.6
		c0.1,0.4,0.2,0.7,0.3,1.1l0,0c0.1-0.4,0.1-0.7,0.2-1.1l0.5-1.6H62l-1,3.2h-0.5l-0.5-1.6c-0.1-0.3-0.2-0.7-0.3-1.1l0,0
		c-0.1,0.4-0.2,0.7-0.3,1.1l-0.5,1.5h-0.6l-1-3.2H57.9z"/>
	<path class="st1" d="M63.9,239.6c-0.1,0.5,0.3,1,0.9,1.1c0.1,0,0.2,0,0.2,0c0.3,0,0.6,0,0.9-0.2L66,241c-0.3,0.1-0.7,0.2-1.1,0.2
		c-0.8,0.1-1.5-0.6-1.6-1.4c0-0.1,0-0.2,0-0.2c-0.1-0.9,0.5-1.6,1.4-1.7c0,0,0.1,0,0.1,0c0.8,0,1.4,0.6,1.3,1.4c0,0,0,0.1,0,0.1
		c0,0.1,0,0.2,0,0.3L63.9,239.6z M65.7,239.2c0.1-0.5-0.2-0.9-0.7-1c0,0-0.1,0-0.1,0c-0.5,0-0.9,0.5-0.9,1H65.7z"/>
	<path class="st1" d="M68,241.1c0-0.2,0-0.6,0-0.8v-3.9h0.6v2l0,0c0.2-0.4,0.7-0.6,1.1-0.6c0.8,0,1.4,0.7,1.4,1.7
		c0.1,0.8-0.5,1.6-1.3,1.7c0,0-0.1,0-0.1,0c-0.4,0-0.9-0.2-1.1-0.6l0,0v0.5L68,241.1z M68.6,239.8c0,0.1,0,0.1,0,0.2
		c0.1,0.4,0.5,0.7,0.9,0.7c0.6,0,1-0.5,1-1.2s-0.3-1.2-1-1.2c-0.4,0-0.8,0.3-0.9,0.7c0,0.1,0,0.2,0,0.2L68.6,239.8z"/>
	<path class="st1" d="M75.7,239.6c-0.1,0.5,0.3,1,0.9,1.1c0.1,0,0.2,0,0.2,0c0.3,0,0.6,0,0.9-0.2l0.1,0.4c-0.3,0.1-0.7,0.2-1.1,0.2
		c-0.8,0-1.5-0.6-1.6-1.4c0-0.1,0-0.1,0-0.2c-0.1-0.9,0.5-1.6,1.4-1.7c0,0,0.1,0,0.1,0c0.8,0,1.4,0.6,1.4,1.4c0,0.1,0,0.1,0,0.2
		c0,0.1,0,0.2,0,0.3H75.7z M77.4,239.2c0.1-0.5-0.2-0.9-0.7-1c-0.1,0-0.1,0-0.2,0c-0.5,0.1-0.9,0.5-0.9,1H77.4z"/>
	<path class="st1" d="M80,237.9l0.5,0.7c0.1,0.2,0.2,0.4,0.3,0.5l0,0c0.1-0.2,0.2-0.4,0.3-0.5l0.5-0.7h0.6l-1.1,1.6l1.1,1.7h-0.7
		l-0.5-0.7c-0.1-0.2-0.2-0.4-0.3-0.6l0,0l-0.3,0.6l-0.5,0.7h-0.7l1.2-1.7l-1.1-1.6L80,237.9z"/>
	<path class="st1" d="M83.9,239c0-0.4,0-0.8,0-1.1h0.5v0.6l0,0c0.2-0.4,0.7-0.6,1.2-0.6c0.8,0,1.4,0.7,1.4,1.5c0,0,0,0.1,0,0.1
		c0.1,0.8-0.5,1.6-1.3,1.7c-0.1,0-0.1,0-0.2,0c-0.4,0-0.8-0.2-1-0.5l0,0v1.8h-0.6V239z M84.5,239.9c0,0.1,0,0.2,0,0.2
		c0.1,0.4,0.5,0.7,0.9,0.7c0.6,0,1-0.5,1-1.2s-0.3-1.2-1-1.2c-0.4,0-0.8,0.3-0.9,0.7c0,0.1,0,0.2,0,0.2L84.5,239.9z"/>
	<path class="st1" d="M89.1,239.6c-0.1,0.5,0.3,1,0.9,1.1c0.1,0,0.2,0,0.2,0c0.3,0,0.6,0,0.9-0.2l0.1,0.4c-0.3,0.1-0.7,0.2-1.1,0.2
		c-0.8,0.1-1.5-0.6-1.6-1.4c0-0.1,0-0.2,0-0.2c-0.1-0.9,0.5-1.6,1.4-1.7c0,0,0.1,0,0.1,0c0.8,0,1.4,0.6,1.3,1.4c0,0,0,0.1,0,0.1
		c0,0.1,0,0.2,0,0.3L89.1,239.6z M90.8,239.2c0.1-0.5-0.2-0.9-0.7-1c-0.1,0-0.1,0-0.2,0c-0.5,0.1-0.9,0.5-0.9,1H90.8z"/>
	<path class="st1" d="M93.2,238.9c0-0.4,0-0.7,0-1h0.5v0.6l0,0c0.1-0.4,0.5-0.7,0.9-0.7h0.2v0.6h-0.2c-0.4,0-0.8,0.3-0.8,0.8
		c0,0.1,0,0.2,0,0.3v1.7h-0.6L93.2,238.9z"/>
	<path class="st1" d="M97.1,237c0,0.2-0.1,0.4-0.3,0.4c0,0,0,0-0.1,0c-0.2,0-0.3-0.2-0.3-0.4c0-0.2,0.1-0.3,0.3-0.3
		C96.9,236.6,97.1,236.8,97.1,237C97.1,237,97.1,237,97.1,237z M96.4,241.2v-3.3H97v3.2L96.4,241.2z"/>
	<path class="st1" d="M99.4,239.6c-0.1,0.5,0.3,1,0.9,1.1c0.1,0,0.2,0,0.2,0c0.3,0,0.6,0,0.9-0.2l0.1,0.4c-0.3,0.1-0.7,0.2-1.1,0.2
		c-0.8,0.1-1.5-0.6-1.6-1.4c0-0.1,0-0.2,0-0.2c-0.1-0.9,0.5-1.6,1.4-1.7c0,0,0.1,0,0.1,0c0.8,0,1.4,0.6,1.3,1.4c0,0,0,0.1,0,0.1
		c0,0.1,0,0.2,0,0.3L99.4,239.6z M101.1,239.2c0.1-0.5-0.2-0.9-0.7-1c-0.1,0-0.1,0-0.2,0c-0.5,0.1-0.9,0.5-0.9,1H101.1z"/>
	<path class="st1" d="M103.5,238.8c0-0.3,0-0.6,0-0.9h0.5v0.5l0,0c0.2-0.4,0.6-0.6,1.1-0.6c0.4,0,1.1,0.3,1.1,1.4v1.9h-0.6v-1.9
		c0-0.5-0.2-1-0.8-1c-0.4,0-0.7,0.2-0.8,0.6c0,0.1,0,0.2,0,0.3v1.9h-0.6L103.5,238.8z"/>
	<path class="st1" d="M110.6,241c-0.3,0.1-0.6,0.2-0.9,0.2c-0.8,0-1.6-0.6-1.6-1.5c0-0.1,0-0.1,0-0.2c0-0.9,0.7-1.7,1.6-1.7
		c0.1,0,0.1,0,0.2,0c0.3,0,0.6,0.1,0.8,0.2l-0.1,0.4c-0.2-0.1-0.4-0.2-0.7-0.1c-0.7,0-1.2,0.5-1.2,1.2s0.5,1.2,1.2,1.2
		c0.2,0,0.5-0.1,0.7-0.2L110.6,241z"/>
	<path class="st1" d="M112.6,239.6c-0.1,0.5,0.3,1,0.9,1.1c0.1,0,0.2,0,0.3,0c0.3,0,0.6,0,0.9-0.2l0.1,0.4c-0.3,0.1-0.7,0.2-1.1,0.2
		c-0.8,0.1-1.5-0.6-1.6-1.4c0-0.1,0-0.2,0-0.2c-0.1-0.9,0.5-1.6,1.4-1.7c0,0,0.1,0,0.1,0c0.8,0,1.4,0.6,1.3,1.4c0,0,0,0.1,0,0.1
		c0,0.1,0,0.2,0,0.3L112.6,239.6z M114.3,239.2c0.1-0.5-0.2-0.9-0.7-1c0,0-0.1,0-0.1,0c-0.5,0-0.9,0.5-0.9,1H114.3z"/>
	<path class="st1" d="M116.6,240.5c0.2,0.1,0.5,0.2,0.8,0.2c0.4,0,0.6-0.2,0.6-0.5s-0.2-0.4-0.6-0.6s-0.9-0.5-0.9-0.9
		c0-0.6,0.4-1,1-1c0,0,0.1,0,0.1,0c0.3,0,0.6,0.1,0.8,0.2l-0.2,0.4c-0.2-0.1-0.4-0.2-0.7-0.2c-0.3,0-0.6,0.2-0.6,0.4
		s0.2,0.4,0.6,0.6s0.8,0.5,0.8,1s-0.4,1-1.2,1c-0.3,0-0.6-0.1-0.9-0.2L116.6,240.5z"/>
</g>
</svg>
